<svg id="圖層_2" height="512" viewBox="0 0 500 500" width="512" xmlns="http://www.w3.org/2000/svg" data-name="圖層 2"><path d="m285.93 205.26a42.89 42.89 0 0 1 -22.43-29.11c-2.82-12.82 1.81-27 10.55-36.92 10.2-11.54 25.24-15.72 40.26-15.77a164.16 164.16 0 0 1 25.13 2.27c7.3 1.12 15.14 2.27 21.18 6.63 5 3.65 8 8.18 10.62 14.58a78.39 78.39 0 0 1 4.35 17.95c1.65 13.78 1.43 29.39-11.21 38-12.43 8.5-29.74 10.37-44.36 8.9-14.12-1.41-29.06-7.57-36.82-19-7.32-10.77-7-24.13 0-36 7.06-12 20.6-19 34.4-18.94s27.27 6.79 34.72 17.79c6.52 9.64 12.39 27.2 5.08 38.42-8 12.31-30.09 10.75-42 7-6.55-2.08-13.28-5.22-17.75-10.46a12.32 12.32 0 0 1 -3.18-6.5c-.67-3.68.12-7.7 1.11-11.24 3.38-12 12.62-26.44 26.83-25.35 13.69 1 23.43 14.1 23.54 27.3.1 12.17-24.33 9.45-31.13 5.48-3.69-2.15-6-5.16-4-9.16 2.69-5.59 11-8.35 16.75-8.5a17.36 17.36 0 0 1 9 2c2 1.13 2.42 2.08 3.59 4.47-.48-1 .16 1 .15 1a5.21 5.21 0 0 1 -.06 2.95 12.07 12.07 0 0 1 -4.27 5.86 20.7 20.7 0 0 1 -9.52 4.06 13.43 13.43 0 0 1 -4.69-.23c-.12 0-2.19-.69-1.12-.24s-1.45 1.23 0 .36c0 0 .57-1.2.55-1.19a14.26 14.26 0 0 1 6.33-4.47 18.54 18.54 0 0 1 4.54-1c.67-.07 2.69.34 3.23.06.8-.42-5.39-10.5-2.05-10.28 1.55.1 3.37 3.39 2 .69l-2.58 15.15a79.13 79.13 0 0 1 18.08-4.81c6-.87 12.22-.33 17.91-2.52 16.74-6.43 7.42-27.15 3.78-39.21l-16.19 9c6.64 9.39 1.07 24.2-9.11 30.15-5.12 3-11.6 4.72-17.45 3-.12 0-2.65-1.15-2.58-1.12-3.91-1.69.87-.47-.43.39-.4-1.37-.48-1.61-.23-.71-.21.75-.19.46.07-.88-.33.95 1-1.28.19-.65l-14.22-5.84a149.68 149.68 0 0 1 10.22 26.27c1.54 5.36 7.06 10.74 13 9.66s7.74-7.9 6.26-13.06a184 184 0 0 0 -12.7-32.18c-2.13-4.2-9.47-9.48-14.22-5.84-12 9.18-11.35 26.4-1.49 37.15 9.45 10.28 24.7 12.54 37.51 8.17a41.17 41.17 0 0 0 26.5-27.42c4.31-14.68.4-29.42-8.24-41.64-2.54-3.58-8.44-5.4-12.37-3.22-4.2 2.32-5.11 7.94-3.83 12.19l2.56 8.46c.58 1.93 1 5.9 2.22 7.42 1.74 2.1.36-2.83 1.43-2 .37.28-1.09.41-1.17.42-2.08.14-4.14.45-6.23.57a97.4 97.4 0 0 0 -30.94 7.3c-5.8 2.33-4.67 10.93-2.58 15.14 5.79 11.68 24.08 19.46 31.77 5 7.27-13.74-6.43-27.4-19.77-27.7-10.59-.24-22.14 4.86-27.43 14.36-6.58 11.79-.91 26.87 10 33.91 11.05 7.15 25.48 5.27 35.75-2.44 10-7.54 13.84-19.12 11.07-31.29-5.63-24.71-35.3-35.52-56.29-22.13-24.61 15.69-12.4 49.74 12.1 57.91 10.4 3.47 22.86 4 33.3.45 12.93-4.42 18.78-15.81 17.16-29.2-2.91-24.12-20.66-49.13-46.8-50.19-25.06-1-42.2 23.14-45 46.05-3.48 28.69 19.48 48 45.27 54 23.49 5.43 53.7-.2 60-27 5.29-22.46-4.66-48.65-21-64.26-17.42-16.66-42.72-22.94-65.58-14.53-21.22 7.82-34.8 28.81-35.59 51.08-.85 24.07 14.77 45.15 35.33 56.22 21.5 11.56 49.59 11.62 72.19 3.25 10.62-3.93 19.87-10.82 25.53-20.76 6-10.5 6.87-23.33 6.1-35.14-1.43-21.8-8.51-45.73-26.72-59.39-10-7.5-22.33-9.86-34.42-11.6-11.9-1.72-24.06-2.65-36.05-1.3-23.06 2.58-43.17 16.28-52.07 38-9.11 22.24-4.8 46.72 9.16 65.89a71.79 71.79 0 0 0 25.85 21.54c5.2 2.64 10.94-1.27 11.88-6.59 1.11-6.28-2.84-12.1-8.23-14.84z" fill="#dac095"/><path d="m283.58 196.82c-4.56-1.29-9.13-3.6-11.52-7.28-2.94-4.53-8.65-8.92-14.21-5.84-5.21 2.89-5.37 10.55-2.58 15.15a86.1 86.1 0 0 0 14.45 18.15l8.37-18c-6.72-2.84-10.41-8.57-12.63-14.63a61.31 61.31 0 0 1 -3.7-24.77c.74-15 7.11-30.75 21.3-37.87 8.91-4.47 19.5-5 29.29-4.5 10.71.51 21.66 1.84 31.91 5.1 16.8 5.34 33.89 16.27 39.93 32.76a37.37 37.37 0 0 1 -.44 27.63c-4.6 10.61-14.22 16.57-23.72 22.38-10.83 6.6.32 26.83 11.63 21 30.46-15.75 49.62-51.34 37-85-6.75-18-20.36-30.35-37.7-38.11a133.43 133.43 0 0 0 -49.56-11.73c-18.86-.58-38 3.32-53.37 14.84l13.66 19.38c14-14.12 38.35-16.69 54.37-5.39 4.5 3.18 11 2.82 13.57-2.6s-.22-12.7-4.95-16c-23.92-16.89-57.89-14.69-78.67 6.25-3.88 3.91-2.5 10.9.36 14.85 2.57 3.54 8.83 7.88 13.29 4.53 21.78-16.36 50.83-15.47 75.7-7.24 11.75 3.89 25.63 9.67 31.76 20.25 5.54 9.56 6.6 22.41 2.44 33.46-5.3 14.11-16.32 24.75-29.53 31.59l11.63 21c11.43-7 22.38-14.5 28.95-26.52 6-11 7.61-24.48 5.59-36.71-4.4-26.65-24.3-47.55-48.46-58.25-12.57-5.56-26.38-8.49-40-9.72-13.11-1.18-26.73-1.3-39.31 3-22.41 7.71-34.66 29.29-36.65 52.09-2.29 26.31 6.09 59.18 32.68 70.42 11.23 4.75 15.43-11.34 8.38-18a61.78 61.78 0 0 1 -10.76-12.94l-16.79 9.31c5.89 9.07 14.08 16.4 24.67 19.4 14.51 4.1 15.66-18 3.64-21.43z" fill="#dac095"/><path d="m317 230.53c15 15.71 32.83 33.48 36 55.87l18.58-3.4a230.65 230.65 0 0 0 -39.37-55.5c-3.71-3.86-10.2-6.2-14.39-1.61s-2.13 11.77 1.29 16.16c14.12 18.12 25.08 39.71 28 62.72a101.62 101.62 0 0 1 -1.62 35.5c-2.73 11.88-10.72 22.92-8.64 35.51 2.35 14.22 15.48 23.92 29.49 18.63 10.42-3.93 18.2-13.82 22.73-23.68 11.08-24.07 5.3-52.23-1.41-76.68-7.35-26.8-19.26-52.49-37.39-73.73-7.21-8.45-20.09-1.93-16.19 9 8.55 23.88 17.13 47.84 23 72.55 2.6 10.85 5 22 2.85 33.12-2.21 11.45-8.15 21.91-13.65 32.05l19.32 10.84c6.2-20.83 6.61-42.37 2.68-63.65-1-5.45-7.43-10.68-13-9.66-6.45 1.18-7.24 7.82-6.27 13.06 3.2 17.33 1.5 35.2-3.5 52-3.06 10.28 13.12 22.28 19.32 10.85s12.05-22.84 14.87-35.52c3-13.66.94-27.45-2-40.91-5.88-26.68-15.13-52.45-24.32-78.12l-16.2 9c13.16 15.41 22.18 33.68 28.34 52.9 6.26 19.52 13.18 43.15 7.33 63.52-2.22 7.73-7 16.16-14.11 20.31.14-.08-4.69 1.79-4.54 1.52s-25.62-29.6 1.59 1c4 4.53.34 2.07.87 1 .21-.41-.19 2.54.24-.18a17.53 17.53 0 0 1 .69-2.86c.85-2.61 2.12-5.09 3.12-7.64 8.54-22 9.47-45.82 4.83-68.79-5.08-25.12-17.64-48.13-33.28-68.19l-13.1 14.55a207.2 207.2 0 0 1 35.68 50.26c2 4.05 7.06 7.56 11.77 6.7 4.47-.81 7.43-5.68 6.81-10.08-4.14-29.56-23.32-52.1-43.24-73-3.7-3.88-10.21-6.2-14.39-1.61-4 4.39-2.53 12.16 1.29 16.16z" fill="#dac095"/><path d="m354.27 247.5 14.32.16-8.59-20.29c-7.14 6-9.83 14.63-10.07 23.71-.25 9.73 13.76 18 19.45 8a27.28 27.28 0 0 1 6.36-7.23l-17.48-7.19s1.64-3.36-.19.24l18.53 13.43a19 19 0 0 1 2.6-4.22l-17.1-15.59a70.59 70.59 0 0 0 -6.67 26.36c-.3 6.06 2.19 12.41 8.23 14.84 5.13 2.07 11.19-.76 11.87-6.58.41-3.52.47-8.28 2.65-11.28a5.5 5.5 0 0 1 2.31-2c1.51-.67 1.35.19.75-.3 3.92 3.17 10.07 2.84 12.87-1.52 2.95-4.58 1.65-11.19-2-15.07a65 65 0 0 1 -12.25-18.55l-14.95 11.93c9.29 10.62 18.81 21.92 25.49 34.4a113.67 113.67 0 0 1 12.16 38.56c2 14.74 2.11 30.19-1.45 44.7-3.17 12.9-11 24.09-20 33.59-10.86 11.41-23.65 20.64-36.48 29.69-5 3.52-5.43 10-2.58 15.15 2.35 4.24 9.21 9.38 14.22 5.84 24.83-17.52 52.27-37.37 62.44-67.45 11-32.5 5.94-71.34-7.94-102.18-7.85-17.29-20.39-32.65-32.77-46.86-3.25-3.72-9.19-5.86-13.38-2.41-4.49 3.69-3.69 9.56-1.56 14.34a85.83 85.83 0 0 0 15.94 23.8l10.86-16.59a19.32 19.32 0 0 0 -24.34.25c-7.17 5.72-9.09 15-10.1 23.69l20.1 8.26a55.72 55.72 0 0 1 5.09-21.2c2.35-5 .17-11.49-3.83-15-3.54-3.11-9.71-4.93-13.27-.58a41.34 41.34 0 0 0 -5.45 8.55c-5.11 10.9 12 26.25 18.53 13.43a21.81 21.81 0 0 0 .94-17.06c-2.59-7.39-10.57-13.06-17.48-7.19a41.64 41.64 0 0 0 -9.2 11.57l19.45 8c.09-3.53 2.88-6.38 5.37-8.5 6.72-5.68-.58-20.2-8.62-20.29l-14.32-.16c-5.89-.06-9.78 4.17-9.4 10.13.34 5.25 5 12.63 11 12.69z" fill="#dac095"/><path d="m395.51 140.24c11.07 13.61 10.72 32.55 5.21 48.4-5 14.43-13.46 31.8-28.59 37.66l6.87 9.7 9.88-13.47c3.07-4.19-1.36-12.46-6.83-9.69l-8.84 4.46c-5.64 2.85.13 13.37 5.82 10.5l8.83-4.47-6.86-9.7-9.87 13.48c-3.29 4.49 1.32 11.82 6.83 9.69 18-7 28.34-28.73 33.51-46.05 5.88-19.74 3.88-41.46-9.4-57.79-4.95-6.08-11 1.85-6.55 7.28z" fill="#dac095"/><path d="m179.54 298.59c-1.25-6.37 5.4-12.72 9.39-16.81a112.27 112.27 0 0 1 13.5-11.78 145.82 145.82 0 0 1 30.16-17c22.06-9.3 45.92-13.82 69.63-16.31l-3.38-11.36q-31.11 8.05-61.42 18.83c-18 6.4-38.06 13.72-51.39 28-9.62 10.34-19.8 38.32 2.62 39.82 8.59.57 15.76-4.26 21.7-10 6.65-6.38 12.91-12.93 20.33-18.47a145 145 0 0 1 56.48-25.51c5.82-1.24 3.2-9.25-.78-11-18.54-8.31-38.94 3.9-54.56 13.35-18 10.88-34.49 23.95-50.79 37.16l8.56 7.8a107.15 107.15 0 0 1 56.52-44.43l-4.6-10.93-37.86 18.05c-5.77 2.75 0 12.88 5.81 10.49l45.31-18.67c7.1-2.92 14.64-6.4 22.48-6.31 5.1.06 11.87 2.05 13.86 7.31l9-3.17a77.54 77.54 0 0 1 -8.29-18.49l-8.1 4.49a105.66 105.66 0 0 1 12.35 19c2.87 5.61 11 3.36 9-3.17l-11.57-38.14-9 3.17a218.1 218.1 0 0 1 12.92 40.92c1.2 5.66 10.89 6.76 9.91-.21l-5-35.42-9.91.21 11.76 35.45c1.71 5.15 11 7.07 9.91-.2q-2.42-16.26-6.23-32.25l-9.65 1.69 11.93 29.88c2.53 6.32 11.54 6.13 9.64-1.7l-6.88-28.41-9 3.18a182.42 182.42 0 0 1 10.26 25.15c2.19 6.73 11.11 6 9.64-1.7l-4.31-22.47-9 3.17 9.51 21.47c2.05 4.64 10.36 4.3 9.29-1.69l-3.43-19.2-9.29 1.69a160.56 160.56 0 0 1 11.62 20.62c2.65 5.66 11.57 3.18 9-3.17l-2.74-6.82c-1-2.58-3.35-5.45-6.51-4.83-3 .58-3.91 3.92-3.13 6.52a35 35 0 0 1 .48 18.5l8.3-1.57a32.51 32.51 0 0 1 -8.32-12.48c-2.34-6.53-11.43-6-9.64 1.69a49.65 49.65 0 0 1 .43 20l9.22-.26a151.34 151.34 0 0 0 -25.54-32.35c-3.78-3.61-10.18-1.34-8.1 4.49a191.92 191.92 0 0 0 12.36 27.59l8.39-4.66-16.08-27.71-8.4 4.65c13.69 23.36 25.76 52.12 16.42 79.26a7 7 0 0 0 2.47 8c2.12 1.51 5.69 1.53 6.79-1.3a151.41 151.41 0 0 0 10.19-59.84l-10.19-1.28a205.39 205.39 0 0 1 -.73 53l10.05 4.13a256.27 256.27 0 0 0 1.53-57.53l-10.18-1.28 7.12 52.49c.39 2.89 2.33 6 5.48 6.34 2.95.34 4.93-2.28 4.7-5.06q-2.16-26.07-2.17-52.22l-9.91.21a281.39 281.39 0 0 1 6.4 45.86l10.19 1.28a431.76 431.76 0 0 1 -4.88-48.14l-9.92.21a246.88 246.88 0 0 1 7.51 44.85c.49 6.48 10.53 9.15 10.19 1.28l-1.94-44.83-9.91.21a214.52 214.52 0 0 1 7.13 39.58c.54 6.44 10.44 9.18 10.18 1.28l-1.29-39.78-9.92.21a343.12 343.12 0 0 1 8.11 35.24c.5 2.89 2.26 6 5.49 6.35a4.4 4.4 0 0 0 4.7-5.07 249.62 249.62 0 0 0 -10.18-43.5l-9.64 1.7a379.41 379.41 0 0 1 13.58 45.63l8.1-4.49-23.78-25.96c-3.67-4-7.2-8.22-11.09-12-3-2.88-7.44-5.35-11.29-2.65-2.5 1.75-2.72 5-1.29 7.57a160.81 160.81 0 0 1 16.36 43.53c.7 3.16 6.08 7.22 8.74 3.59l7.2-9.78-8.75-3.6a77.71 77.71 0 0 1 3.75 25.64c-.09 5.4 9.52 9.58 10.12 2.7a56.89 56.89 0 0 1 4.38-17.73l-9.72-4a31.78 31.78 0 0 1 -.82 12.69c-1.33 5.13 6.56 11.23 9.66 5.42l3.8-7.11-9.72-4a105 105 0 0 1 -1.54 22l10.05 4.13 1-20.14-9.85-1.22 1.42-3.38c-6.53 1.53-2.58 12.75 3.38 11.36 4.57-1.07 6.41-5.34 4.85-9.68-.82-2.28-2.63-4.56-5.22-4.85a4.18 4.18 0 0 0 -4.63 3.64l-1 20.14c-.15 3 1.09 6.21 4.11 7.42a4.25 4.25 0 0 0 5.94-3.29 118.68 118.68 0 0 0 1.67-24.9c-.17-4.62-6.88-9.31-9.72-4l-3.8 7.11 9.65 5.42a40.11 40.11 0 0 0 .95-15.54c-.52-4-7.15-10-9.72-4a65.54 65.54 0 0 0 -5.17 20.4l10.12 2.71a88.15 88.15 0 0 0 -4.29-28.61c-.95-2.95-5.94-7.41-8.75-3.6l-7.19 9.79 8.75 3.59a172.43 172.43 0 0 0 -17.61-46.48l-1.33 7.6q-1.73-.43.76 1.36l2.64 2.88 4 4.32 8.59 9.37 17.84 19.44c4 4.35 9.35 1 8.09-4.49a380.49 380.49 0 0 0 -13.58-45.63c-.95-2.6-3.4-5.44-6.51-4.83-2.93.58-4 3.94-3.13 6.53a233 233 0 0 1 9.63 40.52l10.19 1.28a370.39 370.39 0 0 0 -8.65-38.22c-1.58-5.55-10.15-6.9-9.92.21l1.33 39.79 10.18 1.28a231.29 231.29 0 0 0 -7.67-42.56c-1.55-5.55-10.22-6.9-9.91.21l1.93 44.83 10.19 1.23a265.4 265.4 0 0 0 -8-47.83c-1.48-5.6-10.24-6.87-9.92.21a434.14 434.14 0 0 0 4.83 48.1c.46 2.89 2.29 6 5.49 6.35 3 .34 4.86-2.3 4.7-5.07a299.11 299.11 0 0 0 -7-48.84c-1.32-5.86-9.91-6.69-9.91.21q0 26.15 2.17 52.22l10.18 1.28-7.12-52.49c-.39-2.89-2.33-6-5.48-6.35-2.95-.33-4.94 2.29-4.7 5.07a243.33 243.33 0 0 1 -1.4 54.68c-.85 6.09 9 11.61 10.05 4.13a217.17 217.17 0 0 0 .87-55.86c-.73-6.35-10.45-9.25-10.19-1.28a137.72 137.72 0 0 1 -9.26 54.4l9.26 6.72c10.73-31.18-1.41-63.53-17.28-90.63-3.79-6.48-12.19-1.89-8.4 4.65l16.11 27.81c3.77 6.5 12 2 8.39-4.66a171.23 171.23 0 0 1 -11.09-24.63l-8.09 4.49a139.28 139.28 0 0 1 23.69 29.72c2.14 3.61 8.29 5.11 9.23-.26a63.93 63.93 0 0 0 -.84-25.77l-9.64 1.69a46.62 46.62 0 0 0 11.41 18.07c2.84 2.74 7.26 2.92 8.3-1.58a46.8 46.8 0 0 0 -.89-24.32l-9.64 1.69 2.73 6.82 9-3.17a160.09 160.09 0 0 0 -11.56-20.68c-1.27-1.91-3.36-3.85-5.89-3.35a4.53 4.53 0 0 0 -3.4 5l3.42 19.21 9.3-1.69-9.55-21.54c-2.73-6.17-10.22-3.1-9 3.17l4.31 22.48 9.64-1.7a205 205 0 0 0 -11.5-28.11c-2.89-5.82-10.58-3.29-9 3.18l6.88 28.41 9.64-1.7-11.92-29.87c-2.53-6.33-11.53-6.13-9.65 1.69 2.33 9.69 4.23 19.43 5.7 29.28l9.91-.21-11.76-35.46c-1.71-5.15-10.94-7.07-9.92.21l5 35.43 9.92-.21a233 233 0 0 0 -14.16-43.88c-2.54-5.87-11-3.26-9 3.17l11.57 38.15 9-3.18a121.21 121.21 0 0 0 -14.2-21.59c-3.67-4.48-9.69-.86-8.09 4.49a90.65 90.65 0 0 0 9.53 21.44c3.11 5.07 11.55 3.51 9-3.18-6.37-16.86-24.66-19.49-40.06-14.35-19.37 6.47-38.17 15.45-57 23.23l5.81 10.49 37.87-18c5.11-2.44.55-12.64-4.6-10.93a116.6 116.6 0 0 0 -62.41 49.07c-3 4.85 4.06 11.44 8.56 7.8 14.69-11.91 29.61-23.61 45.67-33.64 13.49-8.42 33.6-22.39 50-15l-.78-11a151.64 151.64 0 0 0 -54.26 23.15 153.7 153.7 0 0 0 -22.3 18.67c-5.58 5.64-15.68 16.92-24.45 10.39l2.94 5.3c-3.51-24.27 26.31-37.3 44.46-44.57 23.36-9.36 47.71-16.57 72.05-22.86 6.62-1.72 2.6-12-3.38-11.36-26.63 2.8-53.34 8.32-77.74 19.69a141.39 141.39 0 0 0 -32.7 21c-10.15 8.76-21.36 19.71-18.5 34.26 1.37 7 11.14 5.92 9.64-1.7z" fill="#dac095"/><path d="m214.06 404.11c-1.7-13.55-3.41-27.72-2.24-41.39 1-11.67 4.65-23.76 15.63-29.67 11.73-6.31 27.33-5.43 40.19-4.76a199.17 199.17 0 0 1 45.53 7.7l1.83-10.71c-17-4.87-34.37-8.68-52.1-9.17-15.16-.42-32.21.61-45.52 8.7-28.52 17.36-19.85 59.31-8.77 84.52l8.4-4.66a70.7 70.7 0 0 1 -7.62-31.29c-.09-5.31-9.64-9.64-10.12-2.7a87.65 87.65 0 0 0 7.61 42.66 6 6 0 0 0 5.89 3.35 238 238 0 0 0 40.87-9.09 4.93 4.93 0 0 0 3.13-6.53c-2.21-6.9-5.3-16-4.3-23.38.88-6.51 10.09-8.41 15.41-9.44a50.58 50.58 0 0 1 38.72 8.3 4.58 4.58 0 0 0 6.07-.21c8.24-8.57 16.89-16.89 24.76-25.8 6.15-7 8.79-17 1.67-24.43-1.71-1.77-5.28-3.31-7.19-.8-8 10.47-12.55 29-27.36 31.66l5.61 10.12 18.32-22.64c3.4-4.21-1.49-12.22-6.83-9.69a213.72 213.72 0 0 0 -32.12 18.8l5.82 10.49a171.09 171.09 0 0 1 23-14c5.71-2.9-.05-13-5.82-10.5a158.91 158.91 0 0 0 -20.74 10.72c-2.43 1.49-2.89 5.28-1.29 7.57a62.87 62.87 0 0 0 10.47 11.74l1.76-10.36a22.51 22.51 0 0 1 -16.39-12.91l-2.51 8 27-4.45c6.06-1 2.9-9.25-.78-11a74.46 74.46 0 0 0 -31.87-7.54l2.09 11.38a149.57 149.57 0 0 0 22.73-2.88c6.36-1.29 2.83-10.57-2.09-11.38a180 180 0 0 0 -41.42-1.91c-6.12.41-3.09 11.18 2.09 11.38l24.27 1-2.08-11.39c-21.57 1.28-47.62-10.49-64.94 8.28-15.83 17.2-10.37 42.28-4.32 62.3 1.61 5.31 10.81 7 9.92-.21a87.82 87.82 0 0 1 6.78-46.64l-9.21-6.71a84.9 84.9 0 0 0 -2.06 54.35c1.69 5.72 9.74 6.79 9.92-.21a237.15 237.15 0 0 1 7.24-52l-10.1-4.13a185.9 185.9 0 0 0 4.37 56.72c1.31 5.59 11 6.78 9.92-.21a145.77 145.77 0 0 1 -1.48-30.1l-9.81-1.22a227.92 227.92 0 0 1 6.7 28.11c.48 2.88 2.26 6 5.48 6.35a4.4 4.4 0 0 0 4.7-5.07c-2.17-15.24-3.88-31.36-2.71-46.76.19-2.47.28-3 2.82-3.73a32.6 32.6 0 0 1 5.31-.72 87.81 87.81 0 0 1 11.58-.46 101.55 101.55 0 0 1 22.73 3.34l-2.08-11.38q-20.55 3.16-41.31 4.57c-6.34.43-2.83 10.8 2.08 11.39a331.07 331.07 0 0 0 33.7 2.27l-2.08-11.38-33.4 7.91c-6 1.42-3.24 11.06 2.08 11.39a132.55 132.55 0 0 0 29.51-1.46c6.58-1.08 2.58-10.44-2.08-11.38a67.82 67.82 0 0 0 -30.1.66c-6.52 1.63-2.63 10.2 2.08 11.39l5.75 1.44-5-9.06-10.92 32 9.72 4 .11-16c0-5.37-9.06-9.59-10.12-2.71s-2 14.54-6.5 20c-3.43 4.15-10.22 7.33-15 3.68l.76 9.91 7.77-3.81c5.67-2.78-.1-13.3-5.82-10.49l-7.77 3.8c-4 2-1.93 7.88.75 9.91 7.41 5.61 17.3 4.43 24.3-1.31 8.1-6.65 10.1-17.78 11.6-27.58l-10.12-2.7-.11 16c0 4.24 7.74 9.81 9.73 4l10.86-31.99a6.91 6.91 0 0 0 -5-9.06l-5.74-1.44 2.08 11.38a61 61 0 0 1 27.5-.61l-2.08-11.39a119.52 119.52 0 0 1 -26.92 1.4l2.08 11.39 33.41-7.91c5.88-1.4 3.31-11.3-2.08-11.39a331.07 331.07 0 0 1 -33.78-2.24l2.09 11.38q20.74-1.41 41.31-4.57c6.81-1 2.29-10.25-2.08-11.39a102.13 102.13 0 0 0 -27.34-3.42c-6.77.09-19-.77-22.84 6.29-1.92 3.56-1.67 7.77-1.74 11.71-.09 4.78 0 9.56.12 14.33a277.48 277.48 0 0 0 2.67 29.5l10.18 1.28a252 252 0 0 0 -7.23-31.08c-1.24-4.08-9.47-7.77-9.85-1.22a159.27 159.27 0 0 0 1.34 32.95l9.92-.21a167.51 167.51 0 0 1 -4-50.89c.44-5.85-8.12-11.78-10.05-4.13a250 250 0 0 0 -7.38 54.86l9.92-.21a71.89 71.89 0 0 1 1.67-45.95c2.07-5.49-6.34-13.35-9.26-6.71a98.68 98.68 0 0 0 -7.71 52.07l9.92-.21c-5.12-16.93-11.22-40.31 4.61-53.78 7.34-6.24 17.72-6.84 26.9-6.1 10.56.86 20.84 3 31.49 2.33 6.12-.36 3.09-11.18-2.08-11.38l-24.28-1 2.08 11.39a168.87 168.87 0 0 1 38.83 2l-2.08-11.38a150.66 150.66 0 0 1 -22.79 2.82c-6 .29-3.18 11.34 2.08 11.39a67.56 67.56 0 0 1 29.25 6.85l-.77-11-27 4.45c-3.91.65-3.79 5.3-2.51 8a35.49 35.49 0 0 0 25.58 19.66c6.55 1.27 4.6-7.88 1.76-10.36a39.35 39.35 0 0 1 -6.38-7.08l-1.29 7.57a158.85 158.85 0 0 1 20.79-10.76l-5.82-10.5a171.15 171.15 0 0 0 -23 14c-5.12 3.7.69 14.13 5.82 10.49a212.23 212.23 0 0 1 32.11-18.79l-6.83-9.69-18.31 22.64c-3.05 3.77.55 11 5.61 10.12 17.82-3.16 22.29-21.63 31.82-34.14l-7.2-.8c3.8 3.94-8 13.57-10.41 16.07l-17.31 18 6.08-.21c-14.59-10.33-33.66-14.25-51-9.25-7.76 2.25-15.85 6-17.38 14.82-1.65 9.48 1.72 21 4.59 30l3.13-6.53a238 238 0 0 1 -40.87 9.1l5.89 3.35a70.81 70.81 0 0 1 -6-33.88l-10.04-2.7a84.88 84.88 0 0 0 9.41 37.23c3.48 6.83 11.37 2.09 8.4-4.66-9.65-21.95-16.7-58.89 10.18-71.49 12.21-5.73 27.09-6.22 40.31-5.51 15.5.84 30.78 4.05 45.67 8.32 7.25 2.08 7.82-9 1.83-10.71a209.72 209.72 0 0 0 -50.95-8.53c-14.27-.54-31.06-1.09-43.75 6.56-25.65 15.46-19.51 54.86-16.43 79.52.37 2.89 2.36 6 5.49 6.35a4.4 4.4 0 0 0 4.7-5.07z" fill="#dac095"/><path d="m235.89 336.84a14.85 14.85 0 0 0 -8.64 5.24 6.36 6.36 0 0 0 .64 8.08c1.72 1.81 5.26 3.28 7.2.81a12 12 0 0 1 1.16-1.3c.09-.09.75-.61.23-.22s.41-.26.44-.27c.44-.27.9-.49 1.36-.72.83-.42-.51.08.05 0 .31-.07.62-.17.94-.24 2.89-.62 4-3.9 3.13-6.52s-3.46-5.49-6.51-4.83z" fill="#dac095"/><path d="m332.06 348.24c-8.83 19.42-19.31 38-28.2 57.4-7.83 17.05-11.47 37.53.08 53.85 9.84 13.9 27.12 20.37 43.69 20.57 10.39.12 20.6-1.66 30.71-3.89 7.15-1.57 17.22-2.73 20.28-10.62 1.7-4.37.68-9.62-.05-14.11a65.63 65.63 0 0 0 -3.18-12.74c-3.1-8.16-8.23-14.94-16.27-18.65l2 10.6c6.93-3.41 6.61 10.27 6.78 13.62l.57 10.93c.1 1.82.22 3.64.29 5.46.09 2.18.18 2.09-1.74 2.9-3.23 1.36-8.51 1.19-12 1.67l-11.3 1.56c-1.95.27-7.45 2.13-9.24 1.16-.77-.42-1.47-4.67-1.7-5.42q-.85-2.71-1.7-5.44c-9.22-29.64-17.48-59.81-17.31-91.1 0-5.59-8.41-9.32-10.12-2.7-6.62 25.6 13.9 49.95 39.92 48.91l-3.38-11.36a17 17 0 0 1 -19.11-6c-5.2-6.93-5-16.39-3.43-24.49l-10.12-2.7c-1 21.87.85 47.14 22.8 58.38 5.16 2.64 6.65-4.29 5.11-7.68a23 23 0 0 0 -9.44-10.56c-5.39-3.08-8.52 2.09-6.36 7 4.16 9.37 14.94 15.19 25 12.56l-5-2 15.72 21c3 4 8.45 1.71 8.36-3l-.16-9.33-9.92.21q3.69 14.08 6.65 28.34c1.24 6 9.74 6.57 9.91-.21a31.25 31.25 0 0 0 -2.35-12.77l-9 3.18a3.5 3.5 0 0 1 0 3l8.83 1-8.81-12.52c-2.79-4-9.62-4.86-9.29 1.68l.81 16 9.91-.21-5.11-19.72c-1.41-5.5-11-6.83-9.91.21l2.54 16.79 9.92-.21-5-12.43c-2.06-5.15-9.88-7.2-9.91.21l-.05 15.43 9.91-.21a94.33 94.33 0 0 1 -6.48-22.51c-.43-2.88-2.3-6-5.48-6.34-3-.35-4.86 2.29-4.7 5.06l1.51 27.14 9.91-.21a112.69 112.69 0 0 0 -6.77-20.63c-2.17-5-9.56-4.09-9.3 1.69l.95 20.87 9.92-.21-6.69-18.85c-.89-2.49-3-5-5.87-4.84a4.37 4.37 0 0 0 -4.05 5l2.36 14.49 9.91-.21a236 236 0 0 1 -12.91-45.44l-7.25 4a60 60 0 0 1 17.5 21.79l6.35-7a39.3 39.3 0 0 1 -11.18-10.24c-3.67-4.92-9.27-.59-8.09 4.49 3.57 15.48 20 17.28 33.15 16.22l-3.38-11.35c-12.1 2.64-26.08 6.58-36.33 13.8-10.75 7.55 0 19.34 8.23 23l.52-11.06c-11.24.15-28.51.08-29.29-14.64-.9-16.93 3.64-35.19 9.32-51l-9.66-5.42a578.63 578.63 0 0 0 -3.06 60.32c0 5.34 9.49 9.63 10.12 2.7l4.18-45.7-10.12-2.7a387.79 387.79 0 0 0 3.24 50.74c.82 6.29 10.24 9.29 10.19 1.28l-.24-38.03-9.91.21a309.39 309.39 0 0 1 9.77 33.37c1.62 6.93 11.16 5.9 9.65-1.7l-8.71-43.44-9 3.18a282.26 282.26 0 0 1 14.44 38.51l9.64-1.7-15.27-42.12c-1.82-5-10.74-7.21-9.91.21a361.07 361.07 0 0 1 1.79 59.54c-.22 4.06 3.27 9.54 7.94 7.32 5.12-2.45 10.64-5.67 13.12-11.05 2.92-6.31-.11-12.45-2.39-18.38a257.77 257.77 0 0 1 -12.89-46.08l-8.09 4.48a492.09 492.09 0 0 0 44.47 41.8c3.83 3.17 8.63-1.19 7-5.51a23.57 23.57 0 0 1 -1.56-6.41l-8.37 3 4.57 4.54c2.61 2.6 7.59 3.07 8.3-1.57l.82-5.38-5.94 3.29c2.11.76 3.42 1.72 4.08 3.89 2.06 6.7 11.95 5.8 9.65-1.7a19.28 19.28 0 0 0 -11.91-12.9c-2.65-1-5.48.32-5.93 3.29l-.82 5.38 8.3-1.58-4.57-4.49c-3.14-3.12-8.86-2.34-8.37 3a34.75 34.75 0 0 0 2.11 9.39l7-5.51a468.12 468.12 0 0 1 -42.21-39.8c-4.15-4.42-9.09-.92-8.1 4.48a259.64 259.64 0 0 0 9.67 37.25q1.53 4.45 3.22 8.83c.94 2.47 2.81 5.44 3 8.1.28 4.7-6.33 7.46-9.87 9.14l7.93 7.31a375.79 375.79 0 0 0 -1.66-62.39l-9.91.21 15.27 42.12c2.35 6.47 11.9 5.93 9.64-1.7a305.81 305.81 0 0 0 -15.77-41.43c-2.81-6.08-10.28-3.14-9 3.18l8.66 43.46 9.65-1.7a311.73 311.73 0 0 0 -9.78-33.37c-1.9-5.34-10-7.07-9.92.21l.28 38.05 10.19 1.28a387.9 387.9 0 0 1 -3.24-50.74c0-5.35-9.49-9.62-10.12-2.71l-4.18 45.7 10.1 2.64a548.7 548.7 0 0 1 2.94-57.44 7.15 7.15 0 0 0 -3.49-7.08c-2.05-1.11-5.23-1-6.17 1.65a175.94 175.94 0 0 0 -8.24 31.34c-1.61 10-3.52 21.52-1.07 31.51 4.39 17.86 23.65 21.13 39.34 20.91 6.69-.09 5.39-8.9.52-11.06a19.34 19.34 0 0 1 -3.47-2c-1.06-1-1.12-1.06-.19-.21l1.28-.74c3.39-.83 7.16-3.62 10.4-5a121.38 121.38 0 0 1 21.63-6.77c6.73-1.47 2.53-11.83-3.38-11.35-6.32.5-18.2 1.76-20.13-6.57l-8.1 4.49a47.9 47.9 0 0 0 13.42 12.27c5.26 3.24 8.65-2.21 6.35-7a73.67 73.67 0 0 0 -21.57-26.46c-3.11-2.39-8-.19-7.25 4a249.27 249.27 0 0 0 13.42 48.42c1 2.47 2.93 5 5.86 4.84a4.38 4.38 0 0 0 4.06-5l-2.37-14.49-9.92.21 6.69 18.84c1.85 5.21 10.25 7.15 9.92-.21l-.95-20.86-9.29 1.69a96.58 96.58 0 0 1 5.53 17.67c1.25 5.72 10.31 6.78 9.92-.21l-1.52-27.14-10.23-1.25a105.71 105.71 0 0 0 7 25.49c2.13 5.05 9.89 7.27 9.92-.21l.06-15.39-9.92.21 5 12.43c1 2.47 2.91 5 5.86 4.84a4.38 4.38 0 0 0 4.05-5.05l-2.55-16.74-9.91.21 5.06 19.66c1.44 5.61 10.27 6.86 9.91-.21l-.8-16-9.29 1.69 8.8 12.53c1.77 2.51 7.17 5.76 8.83 1a17.79 17.79 0 0 0 -.85-14.37c-2.63-5.68-11.62-3.15-9 3.17a22.85 22.85 0 0 1 1.82 9.8l9.91-.21q-3-14.26-6.64-28.35c-1.49-5.68-10-6.81-9.92.21l.17 9.34 8.37-3-15.72-21c-1-1.34-3.27-2.48-5-2-5.55 1.46-10.84-.49-13.22-5.85l-6.35 7a11.76 11.76 0 0 1 5.42 5.86l5.11-7.68c-16.43-8.42-15.11-30.92-14.43-46.39.24-5.49-8.83-9.46-10.12-2.71-2.35 12.31-1.12 25.7 6.87 35.82 6.7 8.49 18.5 13.64 29.1 10.2 6.62-2.14 2.58-11.59-3.38-11.36-18.46.74-31-15.93-26.49-33.42l-10.12-2.71c-.18 34.16 9.41 67.21 19.55 99.52 1.93 6.14 3.73 14 11.3 15.12 3.21.46 6.67-.37 9.84-.81l13.18-1.82c5.94-.82 16.34-.2 20-6 3.51-5.49 1.1-15.47.78-21.57-.41-7.79-.14-16.32-4.68-23.06-4-6-11.54-9.3-18.29-6-4.58 2.25-1.42 9 2 10.6 5 2.32 7.72 7.08 9.35 12.19 1.3 4.09 4.79 14.69 1.28 17.93-2 1.87-5.71 2.29-8.27 2.88-4.38 1-8.77 2-13.18 2.8-8.35 1.55-16.85 2.58-25.34 1.81-12.17-1.12-25.68-6.53-31.57-18-7.42-14.42.11-31.55 6.79-44.67 8.56-16.83 17.16-33.58 25-50.77 2.51-5.51-6.31-13.21-9.26-6.72z" fill="#dac095"/><path d="m218.84 107.76-1.49 7.92c-1.38 7.36 10.23 17.45 14.48 8.13a49.49 49.49 0 0 1 17.06-20.49c6.72-4.6 1.46-18.66-6.9-16.39-16 4.34-21.35 20-22.39 35l10.77-3.89c-1.92-1.73.46-8 1.68-10.51a58.62 58.62 0 0 1 8.51-12.27 82.23 82.23 0 0 1 21.66-17.53c18.49-10.5 39.86-14.37 61-13.34 23.36 1.14 46.56 7.24 68.25 15.77 18.42 7.25 36.46 17.13 49.43 32.41 6.64 7.83 14.15 19 11.56 29.85-2.7 11.27-15.22 19.13-24.77 24.15l11.31 12.94c12.26-21.85 0-45.1-1.84-67.7l-12.56 4.5a42.46 42.46 0 0 1 13.64 33.58c-.27 7.15 10.53 13.73 14.59 6 7.86-15 3.14-33.18-6.75-46-10.59-13.62-26.93-21.56-42.08-28.89-33.25-16.18-70.57-27.89-107.89-22-20.44 3.2-39.27 12.36-57.47 21.79-8.58 4.44.08 19.26 8.73 15.74 16.5-6.71 34.61-8.57 52.25-9.36a274.5 274.5 0 0 1 47.38 1.83c31.56 4.06 62.28 14.36 88 33.42l2.64-15.54c-10.19-.27-19.38-7.38-28.16-11.93-9.27-4.81-18.73-9.28-28.42-13.18-19.35-7.77-39.69-13.28-60.49-14.87-9.69-.73-8.55 14.48-.78 16.6q45.45 12.38 90 27.68c10.72 3.68 11.57-13 2.73-16.07q-44.55-15.3-90-27.68l-.77 16.57c20.75 1.58 40.68 7.19 59.84 15.2 9.37 3.91 18.52 8.33 27.5 13.06 9.39 5 18.71 11.45 29.69 11.74 9.09.23 8.31-11.35 2.65-15.55-27.9-20.66-61.43-32.14-95.65-36.55a296.29 296.29 0 0 0 -51.23-1.85c-19.15.87-38.06 3.39-55.92 10.66l8.73 15.74c13.79-7.14 27.8-14.29 42.9-18.23 15.87-4.13 32.27-4.49 48.44-2.14 15.85 2.3 31.12 7.19 45.86 13.36 14 5.84 28.53 12.25 40.85 21.14 11.09 8 20.71 21.48 13.49 35.24l14.58 6a61.63 61.63 0 0 0 -19.09-46.42c-4.8-4.52-13.23-3.62-12.55 4.5 1.59 19.1 13.5 41.24 3.23 59.55-3.52 6.26 4.45 16.51 11.31 12.91 11.34-6 23.86-14.89 29.05-27.09 5.39-12.68 2.07-26.91-4.27-38.59-12.16-22.36-34.16-37.82-56.78-48.21-24.69-11.32-52.44-19.17-79.56-21-25.56-1.72-51.81 2.6-73.92 16.08-20.62 12.57-52.51 45.55-27 68.49 3.62 3.26 10.41 1.31 10.77-3.89.62-8.8 2.18-21.42 12.39-24.19l-6.9-16.39a63.38 63.38 0 0 0 -22.22 26.16l14.49 8.14 1.48-7.92c1.72-9.14-13-17.35-15.07-6.2z" fill="#dd9b62"/><path d="m320.67 41.63c16.88-16.34 41.94-22.45 64.27-14.63 21 7.35 41.53 26.82 43.25 49.86l8.37-3c-13.31-15-31.56-23.68-50.39-29.67-10.31-3.27-20.78-6-31.17-9-10.66-3.07-21.31-5.73-32.46-4l3.38 11.35c18.56-3.24 36.77 2.1 53.1 10.81a223.41 223.41 0 0 1 22.74 14.53c7.75 5.41 14.53 6.25 23.66 3.94 3.38-.86 4.45-5.23 2.51-8-18.64-26.69-57.88-50-90.45-35.73l6.83 9.69c9.08-8.58 24.69-4.59 35.06-.86a86.41 86.41 0 0 1 32.28 20.82c5.47 5.57 11.33-2.06 6.55-7.27a104.67 104.67 0 0 0 -44.37-28.85l.77 11c7.73-1.37 14.81 1.9 21.7 5 5.7 2.6 12.7 5.59 14.81 12.08l9-3.18-6.95-15.24-6.36 7a32.57 32.57 0 0 1 8.39 8.33l2.89-9.35a211.7 211.7 0 0 1 -26.5-2c-7.6-1-14.92-2.4-20.82-7.61l-3.07 10a131.88 131.88 0 0 1 33.7 16.51c6.46 4.41 9.73-5.62 4.31-9.32a142.1 142.1 0 0 0 -36.16-17.84c-7-2.29-6.88 6.65-3.07 10 6.37 5.63 14.55 8 22.81 9.28a197.13 197.13 0 0 0 29.6 2.38c5.52 0 5.35-5.88 2.88-9.34a41.83 41.83 0 0 0 -10.62-10.32c-5.28-3.62-8.44 2.43-6.36 7l7 15.25c2.63 5.76 11.12 3.27 9-3.18-3.13-9.64-10.76-15.44-19.59-19.68-9.34-4.48-19.37-9-29.93-7.08-5.62 1-3.48 9.64.77 11a92.65 92.65 0 0 1 39.65 25.4l6.55-7.27c-11.23-11.44-24.83-20.44-40.13-25.34-13.57-4.31-30.3-7-41.63 3.73-4.18 4 1.81 11.89 6.83 9.69 14.15-6.2 29.81-3.23 43.26 3.32 12.53 6.09 24.93 15 33 26.58l2.51-8c-5 1.27-9.41 2.25-14.06-.59-3.41-2.07-6.56-4.62-9.88-6.83a175.11 175.11 0 0 0 -23.62-13.58c-16.19-7.54-34.17-11.37-51.94-8.27-6.61 1.15-2.65 12.27 3.38 11.35 10.59-1.62 20.78 1.5 30.89 4.5 9.16 2.64 18.41 5 27.5 7.93 16.93 5.33 33.66 12.65 45.66 26.19 3.08 3.47 8.75 2.1 8.37-3a61.05 61.05 0 0 0 -16.16-36.95c-9.37-10.26-20.79-19.38-33.88-24.33a71.91 71.91 0 0 0 -75.51 15.91c-4.39 4.24 3 13.56 7.84 8.88z" fill="#dd9b62"/><path d="m313.87 39.45a25.13 25.13 0 0 1 2.74-3c1.54-1.45-.69-4.54-2.56-3.64a16.13 16.13 0 0 0 -5.33 4.12l2.94 3.33a17.78 17.78 0 0 1 8.08-6.26c2.17-.85 0-4.8-2.18-3.93a19.75 19.75 0 0 0 -8.84 6.84c-1.3 1.79 1.27 5.28 2.94 3.33a13.43 13.43 0 0 1 4.57-3.51l-2.56-3.63a25.13 25.13 0 0 0 -2.74 3c-1.4 1.81 1.41 5.3 2.94 3.33z" fill="#dd9b62"/><path d="m54.08 201.12c-.4-13.56 5.05-30.93 16.7-39.09 13-9.08 19 20.18 20.45 27.65 3.46 17.25 4.14 35.28 4.83 52.82.71 18.33.77 36.69.82 55 0 9.87 15.32 13.64 15.28 1.92-.1-34.17.48-69-4.78-102.89-2.38-15.09-6.07-32.27-16.38-44.13-4.52-5.18-10.75-9.29-17.8-9.39-7.4-.1-13.5 4.24-18.23 9.6-11.34 12.77-16.66 29.71-16.17 46.59.29 9.84 15.62 13.65 15.28 1.92z" fill="#5fcc64"/><path d="m97.1 304.75v5.25a10.9 10.9 0 0 0 2.73 6.42 9.06 9.06 0 0 0 5.5 3.1 6.09 6.09 0 0 0 5.29-1.9 8.47 8.47 0 0 0 1.76-5.7v-5.24a10.87 10.87 0 0 0 -2.73-6.42 9.09 9.09 0 0 0 -5.5-3.1 6.08 6.08 0 0 0 -5.29 1.84 8.51 8.51 0 0 0 -1.76 5.71z" fill="#5fcc64"/><path d="m43.69 206.35c10.5 8 21 16 31.51 24.05 4 3.12 7.06 6 9.43 10.59 2.7 5.2 5.13 10.29 8.93 14.81 5.28 6.3 15.36 1.4 12.14-6.73-5.77-14.6-12.4-29.24-21-42.41-4-6-8.81-11.73-15.94-14-1.77-.57-3.62-.87-5.43-1.33a32 32 0 0 1 -3.06-1.09q0 7.5 2.37 3.95l1-.91a6.8 6.8 0 0 1 3.34-1.72l-3.9-.49c2.07.63 4.56 5.24 5.67 7.2a33.36 33.36 0 0 1 3.9 10.38l13.94-2.53a75.67 75.67 0 0 1 -8.89-18.83 68 68 0 0 1 -2.26-9.55c-.27-1.7-.46-3.42-.61-5.14-.47-5.38.57-.17-2.55-.82l-3.83-1.58c2.56 1.76 3.71 6.74 4.87 9.5 1.89 4.46 3.69 9 5.44 13.48q5.42 14 10.05 28.29c1.23 3.77 4.56 7.41 8.8 7.26a6.56 6.56 0 0 0 6.07-7.58 158 158 0 0 0 -20.48-59.51c-4.74-8-16.35-5.3-13.53 4.76l2.63 9.6c1.13 4 5.31 8 9.77 7.25s5.78-5.94 4.69-9.79l-2.67-9.54-13.53 4.76a134.72 134.72 0 0 1 17.79 50.62l14.88-.32q-6-18.42-13.27-36.39c-3.7-9.1-8.27-27.29-20.48-28.2-13-1-10.14 17.58-8.75 25.17a93.83 93.83 0 0 0 13.21 33.6c1.86 2.91 5.08 5.75 8.83 5a6.8 6.8 0 0 0 5.11-7.56c-2.23-12.28-7.88-25.86-18.21-33.6-10.67-7.92-25.27 5.86-22.45 17.37a18.63 18.63 0 0 0 11.86 12.7c2.9 1.1 6.57 1 9.27 2.56 2 1.17 3.34 3.35 4.53 5.25a227.83 227.83 0 0 1 18.36 36.74l12.14-6.74c-3.53-4.21-5.21-9.66-8.08-14.31a50.58 50.58 0 0 0 -12.36-13.16c-10.82-8.48-21.86-16.7-32.78-25-3.34-2.55-8.26-2-10.19 2-2 4.16.3 9.41 3.72 12z" fill="#5fcc64"/><path d="m91.76 314.85c4.37 15.8 7.71 33.72 4.8 50.08a37.12 37.12 0 0 1 -8.85 18.87c-4 4.32-11.26 9.56-16.71 4.63-4.6-4.16-6-11.62-6.48-17.44a49.77 49.77 0 0 1 3.71-23.81c5.53-13 16.24-22.64 29.26-27.77 4.36-1.72 1.53-7.94-.75-9.91-6.67-5.74-16.86.65-22.51 5.06a49.72 49.72 0 0 0 -15.7 21.25c-7.26 18.85-3 39.87 6.91 56.91 2.24 3.85 8 4.9 9.23-.26 2.35-9.9-.08-20.15.61-30.2a93.63 93.63 0 0 1 6.72-28.84l-9.62-5.42-2.12 37.19c-.43 7.41-4.77 25.25 6.57 26.71a4.24 4.24 0 0 0 4.63-3.64l12-62.5-10-4.13q-1.75 31.06-6.18 61.9c-.86 6 8.36 11.63 10 4.13q6.5-28.86 10.85-58.11l-10.13-2.72q.51 14.19.55 28.39c0 7.13 1.59 17.59-3.06 23.69l8.94 6.51 2.19-16.08c.56-4.11-5-11.08-9-6.51l-4.59 5.3c-4 4.62 3.45 13.94 7.84 8.88l4.6-5.29-9-6.51-2.19 16.08c-.53 3.9 5.22 11.4 9 6.51 5.66-7.44 5.35-16.51 5.4-25.43q.09-17.13-.55-34.26c-.18-5.25-9.07-9.71-10.12-2.7q-4.34 29.25-10.84 58.11l10 4.13q4.43-30.81 6.18-61.9c.17-3-1.11-6.23-4.11-7.42a4.25 4.25 0 0 0 -5.94 3.29l-12 62.5 4.7-3.64-1-.13 3.67 2.07c1.4 1.69 1-4.32 1.1-5.29l.34-5.87.72-12.72 1.51-26.41c.17-2.85-.86-5.64-3.49-7.08-2.11-1.15-5.12-.9-6.16 1.65a103.81 103.81 0 0 0 -7.4 29.66c-1 10.51 1.67 21.72-.76 32l9.22-.26c-7.44-12.78-11.32-28.18-7-42.72a42.58 42.58 0 0 1 9.46-16.63 36.08 36.08 0 0 1 7.31-6.19c1.29-.83 7.47-4.89 8.84-3.71l-.76-9.91c-28.08 11.06-43.23 42.3-35.38 71.42 3.13 11.64 13.08 25.09 26.78 20.78 13.26-4.18 21-18.4 23.48-31.21 3.62-18.49-.09-38.88-5-56.77-1.88-6.79-11.73-5.85-9.64 1.69z" fill="#5fcc64"/><path d="m32.54 298c-1.88-3.35 4.86-5.89 7-6.41a44 44 0 0 1 14.46-.75c10.12.9 19.81 4.05 29.4 7.2 7.18 2.35 7.75-8.77 1.83-10.72-14.28-4.68-29.12-9.43-44.34-7.85-5.67.58-11.8 2.18-15.59 6.77a14.49 14.49 0 0 0 -1.14 16.39c3.68 6.56 12.09 1.93 8.4-4.65z" fill="#5fcc64"/><path d="m23.92 296.56a16.94 16.94 0 0 0 18 14.57c4.82-.28 9.26-2.3 13.61-4.23a160.67 160.67 0 0 1 15.85-6.07c6-1.93 3.17-10.45-2.08-11.39-12.59-2.25-26.21-4-37.67 3-4.7 2.87-.77 12.64 4.59 10.93l16.36-5.23c6.39-2.05 2.41-13.21-3.38-11.36l-16.3 5.22 4.59 10.93c10-6.07 21.77-4 32.65-2.09l-2.08-11.38a181 181 0 0 0 -18.3 6.94c-2.82 1.25-5.67 2.65-8.76 3.13-1.32.21-6.54.54-6.89-1.7-.46-2.89-2.3-6-5.49-6.34a4.39 4.39 0 0 0 -4.7 5.06z" fill="#5fcc64"/><path d="m31.79 296.5c7.45-12.59 24.27-9.34 34.67-3 6.73 4.12 9.5-5.42 4.31-9.32a28.7 28.7 0 0 0 -13.39-5.57l2.08 11.39a12.61 12.61 0 0 1 10 3.64 4.4 4.4 0 0 0 6.78-1.3c1.46-2.92-.33-6.09-2.47-8a22.89 22.89 0 0 0 -17.7-5.67c-6.44.53-2.71 10.68 2.08 11.38a17.26 17.26 0 0 1 8.3 3.48l4.31-9.32c-15.52-9.51-37.55-12.47-48.24 5.58-3.09 5.21 5.61 12.87 9.26 6.71z" fill="#5fcc64"/><path d="m117.34 314.35 19.8-39.06c2.77-5.48 5.21-11.28 12-12.36 6.48-1.05 12.69 2.09 18.4 4.75l-2-10.6a31.29 31.29 0 0 0 -12.67 20.83l10.02 4.09a9.66 9.66 0 0 1 1.73-4.75l-9.26-6.71-3 9.47 7.91-.28c-5.48-6.73-11.75-13.14-20.75-14.35l4.32 10.15c2.06-2.28 6.46-3.76 9-1.25l1.58-9.32 2.84 6.92c6.57-1.47 2.64-12.38-3.38-11.36l-4.3.74c-6.6 1.12-2.67 12.38 3.37 11.35l4.31-.73-3.38-11.36c-10.26 2.3-5.52 16.76 3.92 15.8 4.46-.46 3.95-7 1.59-9.32-6.52-6.46-16.9-7.54-23.39-.35-3.09 3.41.1 9.58 4.31 10.15 6 .8 9.82 5.8 13.41 10.21 1.78 2.19 6.75 3.36 7.9-.28l3-9.48c1.73-5.47-5.2-13-9.26-6.71a16.32 16.32 0 0 0 -2.53 7.33c-.64 6 8.92 11.71 10.06 4.13a21.68 21.68 0 0 1 8.43-14.47c3.91-2.92 2-8.73-2-10.6-12.74-6-28.63-9.91-37.49 4.25-4.37 7-7.71 14.76-11.44 22.11l-12.32 24.31c-2.74 5.4 6 13.09 9.27 6.71z" fill="#5fcc64"/><path d="m167.21 264a14.13 14.13 0 0 1 5.07 1.23 2.08 2.08 0 0 0 2.87-1.33 3.46 3.46 0 0 0 -1.34-3.68l-4.59-3.27-.88 5.18c2.06.25 4.1.58 6.14 1 1.47.3 2.43-1.24 2.35-2.53a3.48 3.48 0 0 0 -2.75-3.17c-2-.4-4.08-.73-6.13-1-3.09-.38-2.66 3.92-.89 5.18l4.59 3.27 1.54-5a18.47 18.47 0 0 0 -6.37-1.58c-3.57-.21-2.64 5.52.39 5.71z" fill="#5fcc64"/><path d="m139.92 260.07c10.75-5.37 22.44-2 33.23 1.42 3.6 1.14 3.88-4.42.91-5.36-12.14-3.86-25-7.33-37.05-1.31-2.83 1.42.06 6.68 2.91 5.25z" fill="#5fcc64"/><path d="m175.69 262.48c3.57 0 2.64-5.71-.39-5.71-3.58 0-2.65 5.71.39 5.71z" fill="#5fcc64"/><path d="m174.74 262.48c3.57 0 2.65-5.71-.39-5.71-3.57 0-2.65 5.71.39 5.71z" fill="#5fcc64"/><path d="m172.47 259.07v.23a4 4 0 0 0 .91 2.14 2.42 2.42 0 0 0 .87.69 2.19 2.19 0 0 0 1 .35h.65a1.91 1.91 0 0 0 1.12-.62l.35-.54a2.86 2.86 0 0 0 .24-1.36v-.23a2.71 2.71 0 0 0 -.3-1.12 2.8 2.8 0 0 0 -.61-1 2.42 2.42 0 0 0 -.87-.69 2.18 2.18 0 0 0 -1-.35h-.65a1.93 1.93 0 0 0 -1.11.62l-.36.54a2.86 2.86 0 0 0 -.23 1.36z" fill="#5fcc64"/><path d="m92.33 325h.23a1.53 1.53 0 0 0 1-.12 1.51 1.51 0 0 0 .82-.51 1.82 1.82 0 0 0 .45-.87 2.12 2.12 0 0 0 .13-1l-.13-.75a3.75 3.75 0 0 0 -.78-1.39l-.56-.51a2.81 2.81 0 0 0 -1.27-.53h-.24a1.48 1.48 0 0 0 -1 .13 1.41 1.41 0 0 0 -.81.51 1.72 1.72 0 0 0 -.46.86 2.16 2.16 0 0 0 -.13 1l.14.74a3.77 3.77 0 0 0 .77 1.4l.56.51a2.83 2.83 0 0 0 1.28.52z" fill="#5fcc64"/><path d="m117.39 368.47c6.28 11.41 4.59 25.62 4.07 38.14-.62 14.76-1.85 29.5-4.9 44l10 4.13a661.71 661.71 0 0 0 -.34-77.65c-.34-5.33-8.5-9.59-10.12-2.7-1.29 5.55 1.38 16-4.51 19.2l7.93 7.31a6.23 6.23 0 0 1 .78-3.09c2.44-5.53-6.39-13.23-9.26-6.71a18.7 18.7 0 0 0 -1.57 5.67c-.43 3.91 3.47 9.74 7.93 7.32 9.91-5.38 6.64-16.54 8.75-25.57l-10.11-2.7a639.09 639.09 0 0 1 .47 74.79c-.16 3 1.1 6.22 4.11 7.43a4.27 4.27 0 0 0 5.94-3.3c3.38-16 4.47-32.37 5.11-48.72.57-14.41 1.24-29.13-5.94-42.17-3.63-6.6-12-2-8.39 4.65z" fill="#eb682b"/><path d="m110.61 388.81-8.23 11.85c-3.32 4.79 2.84 13.79 7.85 8.88a49.6 49.6 0 0 0 12.17-19.14c1.9-5.43-6.24-13.41-9.27-6.71a43 43 0 0 1 -36.78 25.08l3.38 11.35a101.41 101.41 0 0 0 29.52-15c5-3.73-.56-14.09-5.82-10.49a65.92 65.92 0 0 1 -18.82 9.14c-6.76 1.95-14.91 4.07-20.47-1.47-9.63-9.6-14.28-24.75-15.26-38l-9.92.21a115.11 115.11 0 0 0 25.1 49l5.43-8.3a47.5 47.5 0 0 1 -18.27-21.88c-2.63-6.33-5.59-21.67-15.52-19.33-8.33 1.94-10.79 15.59-12.09 22.5a74.73 74.73 0 0 0 1 31.33c1.34 5.6 10.57 6.85 9.91-.21a268 268 0 0 1 -1-37.91l-10.03-2.71a234.93 234.93 0 0 0 9 74.57c1.11 3.83 5.4 6.39 8.75 3.59a60 60 0 0 1 77.1.28c4.12 3.47 8-1.32 7-5.5-3.52-13.92-7-28.06-4.46-42.45l-10.12-2.7a84.88 84.88 0 0 1 -4.9 32.71l9.73 4q-2.38-13.77-3.54-27.69c-.53-6.46-10.57-9.16-10.18-1.28a60.54 60.54 0 0 1 -1.45 16.27l9.85 1.22a30.06 30.06 0 0 1 -1.27-11.4c.29-3.46-3.63-10.33-7.94-7.31-9.64 6.76-22.61 7.91-32.77 1.49l-3.07 10a179.09 179.09 0 0 0 37.55 15.62c7.56 2.17 7-7.95 1.82-10.72-22.78-12-51.11-8.67-70.89 7.56l9 5.08-2.51-31.34c-.69-8.56-3.81-20.26 1-28l-9.72-4a463 463 0 0 0 7.61 56.1c1.14 5.78 10.29 6.74 9.92-.21l-2.38-44.89-9.92.21 9.92 39.67c1.38 5.54 10.81 6.85 9.91-.2l-2.53-19.86-9.9.18a40.09 40.09 0 0 0 10 17.28c4 4.11 9.46 1.12 8.1-4.49l-3.08-12.71-9 3.18 4.64 10 7.47-6a43 43 0 0 1 -8.81-17.25l-8.09 4.49a62.2 62.2 0 0 1 13.22 18.65c3.19 6.86 11.54 2.11 8.4-4.65a72.3 72.3 0 0 0 -15.07-21.28c-4-3.92-9.59-1.24-8.1 4.49a57.9 57.9 0 0 0 11.9 22.83c4.58 5.44 10-.5 7.47-6l-4.63-10c-2.75-5.93-10.57-3.23-9 3.18l3.08 12.71 8.01-4.43a26.67 26.67 0 0 1 -6.87-11.7c-1.53-5.38-10.82-6.94-9.91.21l2.52 19.86 9.91-.21-9.91-39.68c-1.41-5.63-10.3-6.84-9.92.21l2.42 44.93 9.92-.21a437.93 437.93 0 0 1 -7.08-53.12c-.35-4.84-6.55-9.05-9.72-4-5.43 8.63-3 19.95-2.28 29.5l2.86 35.26c.36 4.42 5.14 8.26 9 5.08 17.08-14 41.87-16 61.23-5.73l1.82-10.72a179 179 0 0 1 -37.54-15.58c-6-3.31-7.66 7.11-3.06 10 13.09 8.27 30 8.72 42.9-.32l-7.9-7.29a45.56 45.56 0 0 0 1.66 17.22c1.38 4.62 8.49 7.32 9.85 1.21a71 71 0 0 0 1.58-19.12l-10.18-1.28q1.16 13.92 3.53 27.69c.43 2.5 1.67 5 4.18 6 2 .79 4.75.22 5.54-2a98.9 98.9 0 0 0 5.84-38.16c-.24-5.25-8.9-9.69-10.12-2.7-2.86 16.34.86 32.46 4.87 48.27l7-5.5a69.21 69.21 0 0 0 -89.27.14l8.75 3.6a224.89 224.89 0 0 1 -8.49-71.59c.23-5.51-9.79-9.47-10.12-2.71a285.85 285.85 0 0 0 .82 40.76l9.91-.21a60.76 60.76 0 0 1 -.79-24.65 55.35 55.35 0 0 1 3.42-12 18.34 18.34 0 0 1 1.36-2.91c1.26-.74 1.22-1.33-.1-1.78-1.2-1.11-1.35-1-.45.42.47 1.11.91 2.24 1.34 3.37 5.7 14.66 12.59 27.19 26.11 36 5.92 3.87 9.24-3.89 5.43-8.3a101 101 0 0 1 -22-43.42c-1.32-5.65-10.43-6.83-9.91.21 1.27 17.09 7.86 37 21.11 48.62 13.83 12.17 36.41 2.35 49.45-6.56l-5.82-10.49a94.44 94.44 0 0 1 -27.08 14.17c-6.56 2.12-2.63 11.72 3.38 11.35a50.81 50.81 0 0 0 42.6-29.74l-9.27-6.71a43 43 0 0 1 -10.75 17l7.85 8.88 8.23-11.85c3.46-5-4.1-14.28-7.85-8.88z" fill="#eb682b"/><path d="m120.42 370.79c23.32 22.89 12.41 57.89-.59 83l9.65 5.42c3.64-12.89 7.56-25.87 8.71-39.28a79.21 79.21 0 0 0 -.36-18.72c-.71-4.74-1.36-12.65-6-15.3-2.21-1.25-4.09-1.47-6.08.22a5.26 5.26 0 0 0 -1.48 4.53 7.05 7.05 0 0 0 5.49 6.35l.32.08c3 .77 4.81-2.61 4.7-5.07a7 7 0 0 0 -5.49-6.34l-.32-.09 5.49 6.35v-.46l-1.17 3.81.33-.28-6.08.22c-1.67-.95-.85-1-.65.82.14 1.29.61 2.59.82 3.88a60.17 60.17 0 0 1 .71 8.15 84.12 84.12 0 0 1 -1.27 16c-1.74 10.51-4.77 20.76-7.66 31-1.44 5.1 6.64 11.25 9.66 5.43 8.5-16.46 15.36-34.25 15.28-53-.07-16.13-5.77-32.58-17.4-44-5.55-5.45-11.61 2.3-6.55 7.27z" fill="#eb682b"/><path d="m214.5 418a262.91 262.91 0 0 1 13.06 37.4c1.4 5.25 3.41 11.28 2.26 16.76-1.53 7.29-8.93 8.33-15.17 8.88-3.35.3-1.18 5.2 1 5.69 13.53 3 26.83-.79 39.39-5.78 4.61-1.83 12.31-3.47 14-8.87s-.34-12.72-1.31-18.08a190.26 190.26 0 0 0 -5.34-21.57c-1.08-3.56-2.23-7.09-3.4-10.62-.83-2.51-1.36-5.53-2.93-7.71-2.77-3.83-9.16-2.92-13.31-2.81a73.62 73.62 0 0 0 -21.76 4c-2.81.95-1.78 5.51 1 5.7a44.62 44.62 0 0 0 24.32-5c1.84-1 5.42-4.21 7.41-2.56 1.29 1.08 1.78 5.7 2.24 7.32q2.16 7.72 4 15.53 1.75 7.35 3.26 14.75c1 4.92 2.58 10.19 2.43 15.25-.16 5.79-4.93 7.52-9.52 9.42q-8.19 3.4-16.39 6.77c-2.66 1.1-.28 6.08 2.3 5.46l15.39-3.65c3.23-.77 6.78-1.33 9.79-2.83 5.81-2.9 6.86-8.9 5.73-14.78-1.66-8.63-5.3-17.24-8.6-25.33a267.4 267.4 0 0 0 -11.35-24.52l-4.2 2.33a268.9 268.9 0 0 1 18.89 45c1.07 3.37 5.58 3 4.82-.85a151.41 151.41 0 0 0 -6.6-23.56c-1.82-4.87-3.29-10.59-8.91-12-1.39-.35-2.54 1.28-2.35 2.53q2.94 18.93 6.67 37.71c.69 3.48 5.55 3 4.82-.85a250.89 250.89 0 0 0 -16.09-52.13 2.39 2.39 0 1 0 -4.51 1.59q8.47 27.24 14.89 55.05l4.82-.85a408.55 408.55 0 0 1 -16.7-54.21l-4.82.85q8.52 28.1 14.31 56.9l4.82-.85-18.21-56.32c-1.07-3.32-5.82-3-4.82.85l14.52 55.5 4.82-.85-14.26-53.27c-.91-3.41-5.73-2.95-4.82.85l12.73 53.15 4.51-1.59c-7.53-15.29-11.28-32.29-15.87-48.62-1-3.42-5.57-2.95-4.82.85l10.36 51.84 4.82-.85-12.53-53.53c-.65-2.8-5.43-3.41-5 .1q3.72 27.23 8.59 54.28l5-.1a177.8 177.8 0 0 1 -9.88-34.77c-.55-3.15-5.76-4.48-5.09-.64l6.77 38.87 5-.1a50.75 50.75 0 0 0 -6.56-16c-1.68-2.69-5.26-1.78-4.51 1.59 1.25 5.65 2.48 12.19-1.73 16.91l4.48 3.25a86.4 86.4 0 0 0 -9.43-64.21c-1.52-2.6-5.74-1.73-4.51 1.59a214.83 214.83 0 0 1 9.73 35.21c.54 2.87 5.34 3.37 5-.11a224 224 0 0 0 -7.55-38l-4.6 1.54 8.72 17.62c.95 1.94 4.19 2.46 4.61-.13a25.77 25.77 0 0 0 .07-8.54c-.36-2.16-2.68-5.58-1.48-7.61.69-1.17 3.53-1.87 4.64-2.8a5.83 5.83 0 0 0 2.25-3.9c.27-1.71-1.93-5.21-4-3.66a40.39 40.39 0 0 1 -6.7 4.26c-1 .46-1.93.9-2.91 1.28-.5.19-6.9 1.85-7 1.94l-4.06-1.06q4.22 9.36 7.76 19l4.51-1.59a53.24 53.24 0 0 1 -6.26-13.17l-4.51 1.59a79.09 79.09 0 0 1 7.17 15.82c1.08 3.33 6 2.89 4.82-.85a86.46 86.46 0 0 0 -7.79-17.3c-1.56-2.63-5.57-1.76-4.51 1.59a59.78 59.78 0 0 0 6.92 14.61c1.59 2.45 5.77 1.81 4.51-1.59q-3.84-10.37-8.39-20.45c-.56-1.26-3-2.58-4.05-1.05a6.2 6.2 0 0 0 4.29 9.67c6.35 1.07 14.36-3.83 19.11-7.46l-4-3.66c-.44 2.8-6.26 3.44-7.37 6.68a7.17 7.17 0 0 0 .38 4.72c1.36 4 2.21 7.17 1.51 11.46l4.61-.13-8.71-17.63c-1.41-2.85-5.45-1.66-4.51 1.59a214.7 214.7 0 0 1 7.28 36.54l4.95-.1a214.83 214.83 0 0 0 -9.73-35.21l-4.48 1.62a80 80 0 0 1 8.6 59.82c-.53 2.17 2.57 5.38 4.47 3.25 5.56-6.23 4.29-14.67 2.63-22.2l-4.51 1.59a45.72 45.72 0 0 1 5.94 14.54c.62 2.82 5.56 3.34 5-.11l-6.78-38.89-5.09-.64a184.77 184.77 0 0 0 10.09 36.26c.95 2.38 5.63 3.61 5-.11q-4.86-27-8.58-54.28l-5 .1 12.58 53.54c.81 3.46 5.58 2.95 4.82-.85l-10.33-51.84-4.82.85c4.74 16.88 8.71 34.29 16.49 50.1 1.44 2.92 5.28 1.64 4.51-1.59l-12.73-53.15-4.82.85 14.26 53.27c.91 3.41 5.81 2.94 4.82-.85l-14.52-55.5-4.82.85 18.14 56.32c1.08 3.36 5.59 3 4.82-.85q-5.79-28.78-14.31-56.9c-1-3.37-5.71-3-4.82.85a408.55 408.55 0 0 0 16.7 54.21c1.24 3.2 5.73 3.05 4.82-.85q-6.4-27.8-14.89-55.05l-4.51 1.59a243.6 243.6 0 0 1 15.48 50.67l4.82-.85q-3.58-18-6.4-36.22l-2.35 2.53c2 .48 3.08 5.46 3.7 7.11q1.49 4 2.73 8a155.88 155.88 0 0 1 3.87 15.53l4.82-.85a278 278 0 0 0 -19.48-46.43c-1.77-3.33-6-1-4.2 2.33a251.65 251.65 0 0 1 17.2 40.51c2.09 6.46 4.89 14.45-3.63 17.22-7.1 2.31-14.7 3.56-22 5.29l2.3 5.46c6.49-2.68 13.09-5.17 19.48-8.05 3.64-1.65 6.73-3.89 8-7.87 1.51-4.92.13-10.23-.79-15.14q-1.81-9.74-4.09-19.39t-5-19.19c-1.13-4-2.09-9.12-6.53-10.59s-8.74 2.6-12.54 4.36a40 40 0 0 1 -19.61 3.45l1 5.69a74.8 74.8 0 0 1 15.57-3.56 67.52 67.52 0 0 1 9.11-.39 14 14 0 0 1 3.55.19c1.77.53 1.25.19 2.1 1.95 2.34 4.86 3.57 10.77 5.1 15.93 1.58 5.33 3 10.71 4.12 16.16 1.07 5.28 3.18 12.58 1.38 17.76-1.52 4.35-9.81 6.13-14 7.71-11 4.17-22.59 6.91-34.33 4.34l1 5.69c6-.53 12.56-1.52 16.21-6.86 3.42-5 2.94-11.46 1.82-17.14-3.2-16.15-9.11-32-15.67-47.05-1.51-3.47-5.68-1.07-4.2 2.33z" fill="#706961"/><path d="m404.26 464.07c14.83-5.38 29.6-11.4 44.66-16.12 6.66-2.08 16.46-3.67 20.77 3.49 2.33 3.85 4 8.91 9.59 7.63a2.2 2.2 0 0 0 1.67-1.8c2.81-9.62-1.51-21-4.9-30a124.14 124.14 0 0 0 -6.85-15.09c-1.95-3.63-4-8-7.52-10.37-3.26-2.22-6.8-1.75-10.34-.42-5.59 2.11-11.07 4.48-16.72 6.46a289.26 289.26 0 0 1 -35.37 9.85 2.28 2.28 0 0 0 -1.7 2.52l3.52 36.4c.25 2.6 4.27 4.87 5.06 1.35a71.51 71.51 0 0 0 -.76-34.37c-.91-3.44-5.58-3-4.82.84a322.67 322.67 0 0 1 4.75 32.15c.31 3.2 5.2 4.6 5.09.64l-.93-35.77-4.95.11 5.93 30 4.82-.84a108.23 108.23 0 0 1 -2.15-27.17l-4.92-.61q3.74 13.61 6.39 27.46c.49 2.53 4.22 3.45 4.93.61a5.36 5.36 0 0 0 -5.43-6.75c-4.38.29-7.77 4.86-9.41 8.48-.77 1.69.91 5.31 3.16 4.52q15.65-5.49 31.12-11.42l-2.95-5.21a70.09 70.09 0 0 1 -19.5 6.61l2.3 5.46a163.9 163.9 0 0 1 47.94-9.95l-2.74-5.06c-1.59 1.59-1.56 3.77-.5 5.71 1.49 2.74 4.33 2.33 6.11 4.32 2.26 2.52 5.31-.2 3.74-3l-3.35-5.86-3.73 3a21.37 21.37 0 0 1 4 7.19l4.82-.85-10.52-32.11-4.51 1.59a204 204 0 0 1 11.69 26.21c1.18 3.23 6 3 4.83-.85q-5.37-17.83-12.32-35.11l-4.51 1.59a183.54 183.54 0 0 1 14.64 42.22l3.49-2.75c-2.65-2.21-2.63-7.45-3.54-10.54a62.62 62.62 0 0 0 -4.12-9.95c-3.7-7.47-7.65-14.83-11.47-22.24-1.74-3.36-5.91-1-4.2 2.32a62.38 62.38 0 0 1 6.84 28.89l4.64-.84a94.67 94.67 0 0 1 -8.64-24.95l-4.82.85 5.76 21.86 4.51-1.59a99.27 99.27 0 0 1 -6.74-23.81l-5.1-.6a192 192 0 0 1 2.91 25.53l5.09.64-4.2-23.23c-.55-3-5.55-4.63-5.09-.63l2.74 24.05 5-.11-5.06-22.2-4.82.85a140.54 140.54 0 0 1 4.64 23.25l4.64-.84a132 132 0 0 1 -7.85-24.71c-.6-2.83-5.35-3.39-5 .1l3.16 28.57 5-.1q-3.75-14.34-6.47-28.89c-.53-2.88-5.5-3.34-5 .1a209.09 209.09 0 0 1 2.48 25.59l4.95-.1-3.28-17.67c-.54-2.88-5.29-3.38-5 .1l2.27 24 5-.1a134.12 134.12 0 0 1 -4.49-25.45c-.26-3.24-5.33-4.57-5.1-.64l1.48 23.35 4.95-.1a115.4 115.4 0 0 1 -3.32-19.62c-.26-3.22-5.2-4.59-5.09-.64.22 8.22.12 16.43-.35 24.64l5.06 1.36-3-25.72c-.37-3.16-5.29-4.61-5.09-.63a113.54 113.54 0 0 1 -1.16 22.41l5.06 1.36-2.48-20.65c-.38-3.16-5.13-4.63-5.09-.64l.24 24 5.1.64-2.7-21.44c-.31-2.42-4.59-5-5.06-1.35l-2.38 18.36 4.92.61-3.41-17.64c-.56-2.89-5.19-3.37-5 .1.48 7.21.71 14.4.67 21.62l5.09.64-2.86-20c-.45-3.15-5-4.66-5.09-.64l-.4 16.23 5.1.64-2.33-18.4c-.41-3.14-5.2-4.65-5.09-.64a186.27 186.27 0 0 0 1.93 22l4.64-.84a92.24 92.24 0 0 1 -7.95-21.52l-1.56 3.27a60.44 60.44 0 0 0 26.13-9.65c2.49-1.65.38-5.69-2.3-5.46a47.55 47.55 0 0 0 -21.82 7.44c-2.15 1.37-.8 5.33 1.65 5.47a48.48 48.48 0 0 0 21.43-3.52c2.64-1.06.38-5.18-1.65-5.48l-5.29-.78 1.65 5.48 13.64-5.68c3-1.23 0-5.54-2.3-5.46l-5.51.18 1.69 5.68a35.26 35.26 0 0 0 15.89-7.11l-3.77-4.3c-2 5.64-.87 10.95 1.29 16.41 2.62 6.59 5.53 13.08 8.29 19.62l.65-3.79a5.1 5.1 0 0 1 -4.6.62l-.26 5.53a12.47 12.47 0 0 0 8.3-1.52c1.35-.74 1.27-2.61.64-3.79l-3-5.68c-1.76-3.33-6-1-4.2 2.33l3 5.68.64-3.79a8.31 8.31 0 0 1 -5.78 1.06c-3.25-.46-2.78 4.8-.26 5.53a10.31 10.31 0 0 0 8.41-.72c1.44-.77 1.16-2.58.65-3.79q-2.94-6.94-5.87-13.87c-2.15-5.08-5.3-10.88-3.28-16.48.64-1.79-1.44-6.14-3.77-4.3a32.44 32.44 0 0 1 -14.64 6.7c-3.44.63-1.2 5.78 1.69 5.68l5.51-.18-2.3-5.46-13.64 5.67c-2.62 1.09-.39 5.18 1.65 5.48l5.29.78-1.65-5.48a43 43 0 0 1 -18.91 3.07l1.65 5.47a44.6 44.6 0 0 1 20.6-7l-2.3-5.46a57.21 57.21 0 0 1 -24.91 9.21c-1.57.19-1.86 2-1.57 3.26a98.78 98.78 0 0 0 8.57 22.92c1.15 2.2 5.11 2.25 4.65-.84a186.27 186.27 0 0 1 -1.93-22l-5.09-.64 2.39 18.46c.41 3.17 5 4.64 5.1.64l.39-16.23-5.09-.64 2.86 20c.45 3.13 5.07 4.67 5.09.64q.06-10.83-.66-21.62l-5 .11 3.41 17.64c.45 2.33 4.53 3.65 4.93.6l2.37-18.35-5.06-1.36 2.7 21.44c.4 3.15 5.14 4.64 5.1.64l-.25-24-5.09-.64 2.5 20.64c.3 2.45 4.52 5 5.06 1.35a119.69 119.69 0 0 0 1.18-23.85l-5.09-.63 3 25.71c.29 2.43 4.85 5 5.06 1.35.5-8.69.66-17.37.42-26.07l-5.09-.64a124.4 124.4 0 0 0 3.59 21.1c.73 2.8 5.17 3.44 5-.1l-1.36-23.36-5.1-.64a141.64 141.64 0 0 0 4.77 26.94c.75 2.72 5.29 3.47 4.95-.11l-2.27-24-5 .1 3.29 17.68c.55 2.92 5.08 3.34 5-.11a209.09 209.09 0 0 0 -2.48-25.59l-5 .11q2.73 14.55 6.47 28.89c.72 2.75 5.35 3.45 5-.11l-3.17-28.57-4.95.11a139.66 139.66 0 0 0 8.33 26.16c1 2.42 5 2.12 4.65-.84a149 149 0 0 0 -4.91-24.74c-1-3.39-5.69-3-4.82.85l5.06 22.2c.64 2.81 5.36 3.41 5-.1l-2.74-24.06-5.09-.63 4.2 23.22c.54 3 5.28 4.72 5.09.64a192 192 0 0 0 -2.95-25.54c-.56-3.09-5.7-4.55-5.09-.64a111.23 111.23 0 0 0 7.64 26.74 2.39 2.39 0 1 0 4.51-1.59l-5.77-21.86c-.91-3.44-5.58-2.95-4.82.85a100.61 100.61 0 0 0 9.26 26.5c1.26 2.46 4.64 2.09 4.65-.84a69.08 69.08 0 0 0 -7.73-31.85l-4.2 2.32c4.36 8.46 9.2 16.82 13 25.53 2.84 6.45 2.42 14.77 8.13 19.54 2.11 1.76 3.94-.68 3.49-2.75a190.23 190.23 0 0 0 -15.17-43.75c-1.37-2.78-5.8-1.6-4.51 1.59q6.94 17.28 12.31 35.11l4.83-.85a216 216 0 0 0 -12.33-27.69c-1.46-2.74-5.58-1.69-4.51 1.59l10.44 32.05c1.08 3.32 6 2.89 4.82-.85a29.52 29.52 0 0 0 -5.51-10c-2.18-2.62-5.28.24-3.73 3l3.32 5.89 3.74-3c-1.17-1.29-3.45-3.47-5-1.95 1.93-1.93-.55-5.19-2.81-5.06a167.72 167.72 0 0 0 -49.16 10.39c-2.75 1-.25 5.93 2.3 5.46a75 75 0 0 0 20.72-7c2.88-1.48 0-6.36-2.91-5.25q-14.87 5.72-29.9 11l3.16 4.52c1.19-2.63 4.54-4.57 5.18-7.16l4.92.61q-2.65-13.86-6.39-27.45c-.57-2.1-4.77-3.84-4.92-.61a118.58 118.58 0 0 0 2.35 30.07c.72 3.48 5.57 3 4.82-.84l-5.93-30c-.58-2.93-5.05-3.35-5 .1l.93 35.77 5.09.64a337 337 0 0 0 -5-33.63l-4.82.84a65.2 65.2 0 0 1 .55 31.47l5.06 1.35-3.52-36.41-1.7 2.52c9.06-1.92 18-4.24 26.88-7s17.37-6.53 26.15-9.56c6.28-2.18 8.52 3.06 11 7.71a113.24 113.24 0 0 1 5.92 12.8c3.18 8.26 7.58 19.05 5 27.88l1.67-1.8c-2.08.47-4.81-6.23-6.32-7.74a17.59 17.59 0 0 0 -6.68-4.12c-6-2.08-12.33-.91-18.2 1-15.15 5-30.06 10.84-45 16.28-2.92 1.05-.07 6.32 2.91 5.24z" fill="#706961"/><path d="m18.63 492.6q71.31-.87 142.58 2.45c2.26.1 2.82-2.32 1.91-4-3-5.67-10.56-8.64-15.9-11.63a132.78 132.78 0 0 0 -22.92-10 78.83 78.83 0 0 1 -20.88-10.18c-5.59-3.93-11-8.24-17.36-10.95-13.55-5.82-28.36-.05-40.12 7.36a79.46 79.46 0 0 0 -28.09 30.66c-1.14 2.21 1.43 5.34 3.77 4.3a31.47 31.47 0 0 0 16.52-17c1.12-2.74-3-6.61-4.63-3.36l-6.35 12.6a3.39 3.39 0 0 0 2.52 4.53c40.44 4.3 81.41-3 121.6 4.5 3 .56 2.76-4.06.89-5.19-14.5-8.67-30.46-14.06-45.82-20.91-7.53-3.36-14.52-7.81-22-11.13a32.94 32.94 0 0 0 -9.9-2.88 29.84 29.84 0 0 0 -5.43.09c-1.17.09-3.88.06-3.83.24l-1.57 3.26c15.18-4.77 28 6 39.49 14.32 10.38 7.47 21.33 14.13 34 16.6 3.52.69 2.49-5.05-.39-5.7-9-2-18.17.4-27.24-.92-8.85-1.29-17.28-3.18-26.28-3.23-17.93-.11-36 1.26-53.89 2.21-3 .16-1.56 5.61 1 5.69a940.1 940.1 0 0 0 95.85-1.92c3.17-.23 1.25-4.67-.38-5.52-23.68-12.39-49-24.8-76.48-21.89-3.21.34-1.38 5.35 1 5.69 22.44 3.14 45.19 7.7 64.56 20.08l1.54-5c-22.64-10.25-46.51-20.49-71.92-17.48-2.85.33-1.69 4.88.39 5.51l61.68 18.79c3.7 1.13 3.64-4.07.91-5.36a179.23 179.23 0 0 0 -39.71-13.23l.39 5.7a60.65 60.65 0 0 1 33.21 9.75l.88-5.18-47.65-4.66.4 5.71 26.14 1.68c3.57.22 2.64-5.48-.39-5.71a225.65 225.65 0 0 0 -37.76.35c-3.11.28-1.48 5.49 1 5.69a154.43 154.43 0 0 0 19.48.26l-1.69-5.68a98.3 98.3 0 0 1 -21.41 2.63l1 5.7 15.32-.67c3.07-.13 1.53-5.54-1-5.69l-17.67-1.11 1.65 5.48a35.05 35.05 0 0 0 13.9-11.67c1.5-2.12-.64-6.21-3.41-4.85a42.51 42.51 0 0 0 -11.26 8l3.92 4.44 3.79-4.17c1.77-2-.84-6.26-3.42-4.84l-7.28 4 2.91 5.24a53.28 53.28 0 0 1 10-6.3l-2.91-5.25a31.06 31.06 0 0 1 -6.08 3.15c-2.64 1-.27 6.3 2.3 5.47a45.59 45.59 0 0 1 15.64-2.31l-1-5.7-4.94 1.09c-3 .66-1.6 5.52 1 5.69a55.49 55.49 0 0 1 13.62 2.53l.26-5.53-12.82-1.15c-3.69-.33-2.41 5.07.39 5.7l13.52 3-1-5.69-11.33 1.13c-3 .3-1.47 4.74.39 5.51a37.18 37.18 0 0 0 16.16 2.91c3.15-.13 1.41-5.4-1-5.69l-7.62-.96c-3.44-.41-2.51 4.55-.26 5.54a6.71 6.71 0 0 0 9.07-3.51c1.77-4.13-.44-8.59-3.44-11.46-.75-.72-2-1.5-3.1-.81a227.73 227.73 0 0 1 -23.33 13.56l3.77 4.3a33.43 33.43 0 0 1 3.91-6.16c1.89-2.34-1.5-6.85-3.92-4.44l-8.49 8.46 3.92 4.44a29.55 29.55 0 0 0 5.54-8.87c.68-1.69-.44-4.47-2.51-4.53a10.56 10.56 0 0 0 -9 3.79c-1.8 2.08.79 6.08 3.42 4.85l6.15-2.9c2.86-1.35 0-6.61-2.9-5.25l-6.16 2.9 3.41 4.84a6.64 6.64 0 0 1 5.54-2.53l-2.51-4.53a26 26 0 0 1 -4.83 7.79c-2 2.27 1.53 6.83 3.92 4.44l8.42-8.46-3.89-4.46a39.29 39.29 0 0 0 -4.65 7.28c-1.06 2.12 1.4 5.49 3.77 4.3a229.59 229.59 0 0 0 23.33-13.58l-3.09-.8c1.32 1.26 3.24 8-1.44 6l-.26 5.53 7.62.92-1-5.69a31.3 31.3 0 0 1 -13.64-2.52l.35 5.56 11.33-1.13c3.36-.34 1.18-5.2-1-5.7l-13.52-3 .39 5.7 12.78 1.13c3.28.29 2.77-4.73.26-5.53a60.24 60.24 0 0 0 -14.93-2.88l1 5.69 4.95-1.09c3-.65 1.62-5.61-1-5.69a49.4 49.4 0 0 0 -16.94 2.34l2.3 5.46a31.06 31.06 0 0 0 6.08-3.16c2.63-1.75 0-6.65-2.91-5.25a53.33 53.33 0 0 0 -10 6.31c-2.39 1.89 0 6.84 2.91 5.24l7.28-4-3.41-4.84-3.77 4.23c-2 2.27 1.52 6.81 3.92 4.44a38 38 0 0 1 10.25-7.27l-3.42-4.85a32.21 32.21 0 0 1 -12.89 10.85c-2.42 1.15-.58 5.35 1.65 5.48l17.69 1-1-5.69-15.31.67c-3 .13-1.61 5.72 1 5.69a104.53 104.53 0 0 0 22.7-2.66c3.4-.79 1.23-5.82-1.69-5.68a141.42 141.42 0 0 1 -18.18-.29l1 5.69a218.68 218.68 0 0 1 36.5-.21l-.39-5.71-26.15-1.67c-3.58-.27-2.58 5.38.42 5.66l47.64 4.66c3 .29 2.8-3.94.88-5.19a65.49 65.49 0 0 0 -35.77-10.75c-3.69 0-2.48 5.1.39 5.7a173.3 173.3 0 0 1 38.45 13l.91-5.36-61.68-18.85.39 5.51c24.46-2.89 47.54 7.31 69.32 17.16 3.16 1.44 3.79-3.56 1.53-5-20.19-12.91-43.69-17.86-67.12-21.16l1.05 5.7c26.49-2.85 51.08 9.59 73.91 21.42l-.38-5.52a926.44 926.44 0 0 1 -94.52 1.91l1 5.7c18.07-1 36.38-2.53 54.47-2.17 9 .18 17.43 2.48 26.29 3.47 8.46.95 17-1.23 25.35.66l-.39-5.7c-14.79-2.88-26.56-12.12-38.52-20.68-10.52-7.54-23.06-14.38-36.3-10.22a2.47 2.47 0 0 0 -1.57 3.27c2 6.82 9.26 4.05 14.47 4.52 8.75.8 16.64 7 24.31 10.72 16.76 8.2 34.83 13.55 50.9 23.16l.88-5.18c-40.19-7.52-81.16-.19-121.61-4.49l2.51 4.53 6.35-12.6-4.63-3.36a27.64 27.64 0 0 1 -14.8 15.16l3.77 4.3a74.75 74.75 0 0 1 25.71-28.37c11.76-7.57 26.23-13.37 39.54-6.43 11 5.76 19.65 14.28 31.6 18.53 6.66 2.36 13.33 4.43 19.69 7.56 3.63 1.78 7.15 3.76 10.64 5.81 2.86 1.69 7.61 3.59 9.26 6.66l1.9-4q-71.23-3.36-142.59-2.47c-3.57.05-2.64 5.74.4 5.71z" fill="#dd9b62"/><g fill="#2a0d00"><path d="m421.53 126.23c13.7 39-4.35 84.81-42.36 102.29-3.43 1.57 0 7.89 3.49 6.29 40.6-18.66 59.2-68.16 44.65-109.59-1.38-4-7.34-3.43-5.78 1z"/><path d="m287.23 224.09c-30.2-2.42-53.05-29.48-55.49-58.81-2.43-29.08 10.63-56.88 35.1-72.93 3.19-2.09-.32-8.37-3.49-6.3a83.22 83.22 0 0 0 -37.59 61.95c-2.37 24.61 5.63 49 24.11 65.93 10.49 9.59 23.59 15.88 37.83 17 4.27.35 3.16-6.55-.47-6.84z"/><path d="m387.92 230.75c20.08 22.33 34.87 50.12 39.15 80.07 2.19 15.35 1.47 30.53-3.79 45.21s-13.67 27.66-23.69 39.38c-11.54 13.49-25 25.2-38.43 36.72-2.76 2.36 1.64 7.95 4.71 5.33 24.92-21.33 50.51-44.36 62.38-75.83 11.11-29.44 5.76-61.82-6.73-90a172.87 172.87 0 0 0 -29.67-45.28c-3.14-3.49-6.76 1.23-3.93 4.37z"/><path d="m327.2 355.36c-24.11 27.19-51.57 61.53-37.51 100.16 5.75 15.81 17.84 27.57 34.53 31 10.71 2.21 22 1.26 32.8.07a274.74 274.74 0 0 0 34.86-6.3c25.16-6.12 49.53-15.07 73.82-24l-4.64-2.64c2.2 6.84 5.19 14.33 12.54 16.93 5.9 2.08 12-.67 13.68-6.79 2.09-7.44-1.28-16.25-3.22-23.36a299.87 299.87 0 0 0 -9.43-28.75c-2.47-6.4-4.83-15.71-12.43-17.7-7.89-2.07-16.61 4.79-23.43 7.81a173.29 173.29 0 0 1 -56.45 14.05c-3.95.31-1.62 7.11 2 6.82a176.56 176.56 0 0 0 40.41-7.92 181 181 0 0 0 18.32-7c4.79-2.15 16.27-10.65 21-5.61 2.26 2.39 3.22 6.69 4.4 9.71q1.89 4.85 3.6 9.76 3.75 10.71 6.66 21.7c1.29 4.82 5 13.53 2.27 18.42-1.92 3.46-6.23 3.28-9 1s-4-6.64-5.13-10.06c-.66-2.06-2.54-3.41-4.64-2.64-38.61 14.16-78.49 29-120 30.79-18.58.8-36-4.12-44.75-21.77-7.1-14.35-6.75-31.47-1.3-46.28 7.38-20 21.81-36.35 35.77-52.09 2.43-2.75-2-8.34-4.7-5.33z"/><path d="m301.58 310.57a222.14 222.14 0 0 0 -44.58-6.35c-14-.66-29-.62-41.67 6.12a57.57 57.57 0 0 0 -28.76 37.48c-4.6 20 2.07 40.5 10.21 58.68 9.57 21.38 22.47 42 23.7 66l1.31-2.76c-5.51 2.75-14.12-.82-16.9 6.62-2.42 6.46 2.9 12.74 8.73 14.71 8.11 2.75 18.19 2 26.61 1.38 9.54-.71 19.48-2.4 28.46-5.82 17.55-6.68 8.34-29.28 4.93-42.13l-8.18-30.86-4.09-15.44c-1.45-5.46-3.53-11.1-4.17-16.74-1.48-12.94 14.1-12.42 23.16-11.5 10.16 1 20 4.73 27.41 11.95 3.34 3.26 7-1.39 3.93-4.37-10.57-10.32-24.79-15-39.43-14.72-6.53.11-14.67.5-18.85 6.32s-2.29 13.21-.65 19.47c5.06 19.31 10.23 38.59 15.34 57.88 2.07 7.81 5.93 16.95 4.75 25.18-1.4 9.79-14.86 11-22.79 12.46a108.35 108.35 0 0 1 -31.05 1.23c-2.34-.26-6-.57-7.61-2.53-2.22-2.67.78-4.58 3.22-4.95 3.76-.57 7.17-.09 10.7-1.86a2.84 2.84 0 0 0 1.31-2.76c-2-39.48-34.77-70.09-35.38-109.62a52.25 52.25 0 0 1 23.19-44.37c12.29-8.13 26.63-8.81 41-8.29a221.18 221.18 0 0 1 46.72 6.44c4.06 1 3-6-.48-6.85z"/><path d="m330.1 267.76a85.58 85.58 0 0 1 17.58 66.16c-3.06 19.79-22.93 47.27-3.83 64.82 6.81 6.26 16.93 7.85 25.69 5.43 10.15-2.79 17.67-10.56 23-19.31 11.46-18.86 15.46-42.65 14.18-64.4a125.24 125.24 0 0 0 -26.25-69.57c-2.91-3.7-6.51 1.08-3.93 4.37 25.73 32.84 32.1 80.6 14.18 118.6-4.37 9.27-10.89 18.73-20.77 22.67-8.63 3.47-20.89 2.47-25.74-6.53-6.15-11.39.85-25 4.8-35.83a92.75 92.75 0 0 0 5.7-28.57 94.17 94.17 0 0 0 -20.71-62.21c-2.94-3.67-6.55 1.1-3.93 4.37z"/><path d="m264.4 218.85c-37.47 6-78.95 20.19-99 54.91-4.17 7.24-8.75 16.24-4.4 24.32a41 41 0 0 0 18.41 16.92c18.09 7.82 32.75-10.41 45.05-20.72 17.38-14.57 37.2-27.08 60-30.22 4-.55 1.62-7.32-2-6.82-16.56 2.28-31.85 9.33-45.62 18.66a219.91 219.91 0 0 0 -20.26 15.73c-6.34 5.47-12.27 11.89-19.76 15.8-8.74 4.56-17.24 2.29-24.19-4.29-3.23-3-7.66-7.25-7.26-12 .36-4.37 3.06-8.93 5.18-12.7 8.2-14.57 21.38-26 35.94-33.89 18.51-10.03 39.26-15.55 59.94-18.89 4-.63 1.61-7.39-2-6.81z"/><path d="m278.59 250.3a154.89 154.89 0 0 1 22.94 79.09c.06 3.94 6.18 5.45 6.11.76a162.49 162.49 0 0 0 -24-82.65c-2.35-3.82-7.42-1.08-5 2.8z"/><path d="m291.89 136.24a50 50 0 0 0 -2.71 19.7c.31 4.89 8 6.82 7.64 1a39.87 39.87 0 0 1 2-15.63 5.26 5.26 0 0 0 -1.86-6c-1.52-1.09-4.34-1.19-5.09 1z"/><path d="m343.31 141.8a48.4 48.4 0 0 1 -1.14 15.41c-1.07 4.54 6.24 8.62 7.54 3.1a55.69 55.69 0 0 0 1.29-17.55c-.42-4.86-8.14-6.81-7.64-1z"/><path d="m242.05 100.39c15.26-8.43 32.9-10 50-10a262.45 262.45 0 0 1 53.58 5.61 235.38 235.38 0 0 1 49.64 15.87c12.79 5.86 26.53 13.24 35.68 24.2 3 3.62 6.63-1.13 3.93-4.36-9.63-11.55-23.82-19.4-37.25-25.68-16.06-7.52-33.35-12.75-50.63-16.5a262.07 262.07 0 0 0 -57.22-5.93c-17.61.13-35.53 1.83-51.2 10.49-3.33 1.84.15 8.14 3.49 6.3z"/><path d="m227.76 136.61c-12.93-3.94-21.58-15.87-23.77-28.93-2.46-14.61 4.56-27.09 15.46-36.38 21.72-18.51 53.11-26.13 81.06-26.65 30-.55 60.17 6.18 87.86 17.52a227 227 0 0 1 39.27 20.59c12 7.94 24.24 17.08 32.86 28.75 5.33 7.23 10.89 16.21 12.72 25.12 1.57 7.58-1.15 15.26-5.63 21.37-9.69 13.21-26.3 21.24-42.52 21.88-3.93.15-1.62 7 2 6.81a61.65 61.65 0 0 0 42.26-19.76c10.34-11.39 12.87-25.21 6.87-39.31-13.2-31.1-43.1-51.23-72.53-65.53-30.41-14.78-64.42-23.87-98.33-24.3-31-.39-65.11 7.14-89.5 27.26-13.17 10.86-20.84 25.95-17.74 43.2 2.81 15.39 13.17 30.1 28.56 34.79 4.34 1.32 4.68-5.34 1.1-6.43z"/><path d="m277.8 44.8c30.48-42 104.44-45.47 140-8.43 11.64 12.08 18.2 28.81 15.56 45.63-.59 3.66 5.31 7 6 2.48 5.17-32.28-18.18-59.85-46.48-71.74a109.41 109.41 0 0 0 -83.74-.29c-14.08 5.73-27.08 14.69-36.07 27.07-2.15 3 2.37 8.54 4.7 5.33z"/><path d="m96.89 302.69c-17.51-.43-33 10.52-40.88 25.86-8.45 16.55-8.89 38.2-3.21 55.72 5.21 16.1 18.49 27.86 35.89 20.87 8.13-3.27 17.91-9.4 23.43-16.36s6.38-17.26 6.67-26a93.93 93.93 0 0 0 -19.79-60.29c-2.87-3.72-6.48 1.07-3.93 4.37a84.79 84.79 0 0 1 17.28 43.78 78.85 78.85 0 0 1 -1.25 24.23c-1.94 8.77-8.18 13.3-15.27 18.08-6.83 4.6-15.55 9.68-24 6.74-6.42-2.22-10.29-8.41-12.55-14.49-5.4-14.5-5.59-32.79-.08-47.26 6-15.73 20.65-28.84 38.18-28.4 4.29.11 3.18-6.76-.47-6.85z"/><path d="m98.78 300.81c-8.19-11.66-17.27-23.28-30-30.18-11.24-6.06-25.78-7.93-37.31-1.63-10.08 5.4-15.47 17.23-13.66 28.48a22.42 22.42 0 0 0 26.87 18.45c8.8-1.76 15.94-7.33 23.83-11.21 7.35-3.6 17.79-5.91 23.48 1.72 2.82 3.77 6.42-1 3.93-4.37-9-12.07-24.63-7.31-35.56-1.13-8 4.5-17.45 11.06-27.07 7.83-7.34-2.47-10.45-9.58-9.55-16.9 2-16.05 18.49-22.09 32.74-19.05 16.58 3.53 28 17.6 37.26 30.78 2.55 3.63 7.66.94 5-2.79z"/><path d="m162.31 289.44a28.37 28.37 0 0 1 -10.92-8.16c-1.93-2.43-3.21-5.49-5.87-7.26-6-4-12 1.08-15.29 6-4.31 6.41-7.4 13.87-10.8 20.79-3.77 7.68-7.51 15.38-11.53 22.93-1.71 3.22 3.53 7.82 5.55 4 6.64-12.46 12.5-25.31 19-37.84 1.59-3.07 3.16-6.34 5.83-8.64 4-3.38 5.93 0 8.23 3.13a36.28 36.28 0 0 0 14.7 11.46c4.13 1.83 4.48-4.93 1.09-6.43z"/><path d="m113.69 308.67c4.89-17.83 11.33-35.18 20.67-51.19 2.17-3.71 4.41-8.25 8.13-10.69 4.13-2.7 9.38-1.66 13.88-.66a77 77 0 0 1 26.48 11.7c3.88 2.64 5.84-3.37 2.59-5.59a85.53 85.53 0 0 0 -27.88-12.57c-10.14-2.47-18.61-1.78-24.81 7.39-12 17.83-19.44 38.53-25.09 59.13-1 3.61 4.83 6.85 6 2.48z"/><path d="m100.93 302.82c6.17-22.94-.38-48.69-17.12-65.64-17.44-17.66-52.92-30.46-47-61.08 2.63-13.62 11.62-26.81 20.45-37.22 3.79-4.46 8.32-8.79 14.08-10.48 7.14-2.09 14.55.66 20.38 4.81 25 17.79 21.35 53.64 20 80.33q-2.67 53.58-5.36 107.15c-.18 3.63 5.81 6.95 6 2.48l5.25-104.17c1.42-28.5 5.11-62-15.93-84.82-8.3-9-21.33-16.32-33.77-12.14s-20.24 17.18-26.78 27.59c-7.5 11.93-13.32 25.77-10.23 40.08 2.76 12.82 12.21 23 22.17 30.88 13.1 10.43 28 18.6 36.4 33.72a61.84 61.84 0 0 1 5.43 46c-1 3.61 4.86 6.85 6 2.48z"/><path d="m120.7 362.44c12.84-3.87 23.61 6.11 27 17.84 2.86 9.8 2.2 20.15.86 30.12-2.37 17.68-5.5 36.88-12.8 53.29-1.47 3.31 3.83 7.93 5.56 4 4.13-9.29 6.49-19.49 8.68-29.38a251.67 251.67 0 0 0 5.46-33.18c1-12.06.19-25.3-6.32-35.86-6.25-10.14-18.52-17.27-30.5-13.66-3.86 1.16-1.48 7.86 2 6.81z"/><path d="m51.32 355.73a30.08 30.08 0 0 0 -25.39 8.43c-7.77 7.68-9 18.4-8.73 28.82.67 22.84 3.39 47 14.89 67.18 2.23 3.91 7.28 1.14 5-2.79-9.86-17.29-12.49-37.6-13.54-57.18-.5-9.51-1.36-20.12 4.76-28.15a25.16 25.16 0 0 1 23.44-9.46c4.23.61 3.13-6.33-.47-6.85z"/><path d="m18 488.6c13.18-27.88 43.75-50.27 75.68-40.16 14.72 4.67 26.9 14.85 41.66 19.6 13.87 4.45 33.73 8 37.2 25 .85 4.17 6.72 3.55 5.78-1-3.44-16.8-20.18-23.87-34.89-28.27a126.33 126.33 0 0 1 -26-10.58c-7.86-4.37-15.61-9.09-24.31-11.61-34.2-9.9-66.5 13-80.72 43-1.55 3.29 3.73 7.9 5.56 4z"/><path d="m206.16 416.88a206.6 206.6 0 0 0 53.69-7.82c3.87-1.1 1.49-7.81-2-6.81a201.29 201.29 0 0 1 -52.16 7.75c-4.28.06-3.17 6.9.47 6.85z"/><path d="m390.5 421.27c6.76 15.61 7.27 34 5.41 50.63-.4 3.65 5.53 7 6 2.48 2.09-18.71 1.16-38.45-6.4-55.9-1.81-4.17-6.81-1.3-5 2.79z"/></g></svg>