<svg id="圖層_2" height="512" viewBox="0 0 500 500" width="512" xmlns="http://www.w3.org/2000/svg" data-name="圖層 2"><path d="m207.26 177.73a52.65 52.65 0 0 1 -24.26-40.73c-.56-8.79 1.07-18.39 6.18-25.74s13.39-11.43 21.82-13.65c31.62-8.31 81.87-3.68 89.24 35.87 3.64 19.53-.19 45.33-22.93 50.19-3.28.71-1.31 6.32 1.68 5.68 21.63-4.63 27.92-25.37 27.34-45.09-.58-20.22-10.5-37-28.21-46.9-19.19-10.75-43.12-10.75-64.24-6.48-9.1 1.85-18.29 5.1-25.06 11.72-7 6.86-10.25 16.78-10.9 26.38-1.43 21.1 9.4 42.09 27.19 53.41 3.29 2.09 4.93-2.89 2.15-4.66z" fill="#caa485"/><path d="m213.59 169.69c-8-3-11.73-10.71-13.89-18.5-2.75-9.93-3.26-21.62 2.75-30.52 6.42-9.49 17.43-10.56 28-11s21.54-.29 31.85 2.35c17.61 4.49 33.6 20.32 28.9 39.77a29.67 29.67 0 0 1 -16.55 20c-10.56 4.54-23.84 2.09-34.87 1-6-.59-12-1.21-17.86-2.15-5.54-.89-7.4-3.31-9.91-8.23-4.22-8.26-7.5-19.82-4.76-29 3.08-10.35 16.74-12 25.92-11.8 10.82.25 21.72 3.77 29.75 11.23 5.18 4.81 13.49 15.52 9.91 23.11-4.1 8.7-18.36 10.05-26.58 9.37-9.3-.77-20.45-3.34-27.33-10.09-6.34-6.23-4.28-15.11 3.69-18.51 8.6-3.66 20.31-2.33 28.81 1 3.75 1.45 8.27 3.73 10.11 7.53 2.3 4.74-2.08 6-6 6.74a48.59 48.59 0 0 1 -19.48-.06 40.49 40.49 0 0 1 -5-1.34c-1.41-.48-3.21-1.74-4.61-1.88-1.67-.17.35-1.69-.13.39-.68 2.94-.49 2 1.46 1.52 11.76-3.14 25.64.05 35.71 6.47l-1.13-14.86a30.65 30.65 0 0 1 -25.27-.65l3 15.91c5.4-3.91 11.5-4.69 18-5.34s15.4-.3 19.75-5.91c4.92-6.36.73-15.23-2.17-21.47a81.43 81.43 0 0 0 -12.6-19.09l-8.14 12.44c8.86 6.13 34.12 16.25 27.41 31l13.24 1.55a14.68 14.68 0 0 1 -1.51-6l-15.28-1.92a59.08 59.08 0 0 1 .37 19.63 10.65 10.65 0 0 0 6.17 11.13 6.37 6.37 0 0 0 8.91-4.93 73 73 0 0 0 -.17-23.91c-.77-4.3-3.38-9-8.23-9.52-4.49-.49-7.32 3.43-7.05 7.6a37.87 37.87 0 0 0 4.2 14.93c2.45 4.84 10.44 7.71 13.24 1.54 5.21-11.44 1.34-24.12-6.07-33.63s-19-14.65-28.76-21.42c-8.79-6.08-13.81 5.93-8.15 12.44a62 62 0 0 1 7.21 10 64.38 64.38 0 0 1 3 5.86c.33.78.64 1.56.92 2.35q.86 2.55.13.52l2.58-2.84c-4.13 3.24-12.83 2.37-17.87 3-6.31.8-12.61 2.44-17.82 6.22-5.94 4.29-3 13.15 3 15.9a44.59 44.59 0 0 0 36.74.32c6-2.54 3-12.22-1.13-14.86-13.51-8.61-29.67-12.61-45.61-9.84-7.85 1.36-13.88 6.09-13.15 14.8s7.61 14.94 15.43 18a62.82 62.82 0 0 0 25.89 3.96c7.62-.38 17.12-1.76 21.85-8.44 9.33-13.18-2.45-30.27-14.18-36.95-11.45-6.52-27.2-9.06-40.06-5.77-15 3.86-23.23 17-19.42 32.25 4 16.15 19 25.11 34.11 29.09 14.14 3.73 30.94 4.18 43.42-4.63 14.73-10.4 11.75-29.12 3.14-42.69a60.89 60.89 0 0 0 -37.28-26.67c-14.15-3.46-34.42-2.89-45.31 8.2s-8.58 30-4.29 43.36c2.56 8 6.37 16.67 12.37 22.64 6.2 6.15 14.21 7.26 22.51 8.31 16.47 2.08 36 5.8 52-.28 13.13-5 22.16-17.61 25-31.08 3.14-14.72-2-29.92-11-41.55-9.71-12.48-24.42-19.38-39.76-21.95a127.26 127.26 0 0 0 -23.33-1.34c-7.85.14-16 .13-23.59 2.43-33.06 10-31.31 55.14-14.13 78.4a36 36 0 0 0 16.27 12.48c10.63 3.94 11.47-12.83 2.73-16.07z" fill="#caa485"/><path d="m275.6 185.48c4.73 13.71 15.61 22.61 26.64 31.29 8.36 6.57 26.85 21.57 17.56 33.93l9 5.09c-.61-12.42-3.69-25.72-13.29-34.38-8.14-7.33-20.62-10.41-30.34-4.36l7.54 8.61a27 27 0 0 0 .11-20.57l-7 5.51 11.25 9 4.31-9.32c-11.45-7.64-24.51-15.46-38.79-11.47-3.54 1-4.22 5.06-2.51 8l3.29 5.65c3.05 5.24 11.38 3.47 9-3.18a81.42 81.42 0 0 1 -3.56-12.93l-4.7 5.06a74.8 74.8 0 0 1 14.38 1.77c4.46 1 5.63-5.21 3.81-8l-4.49-7-3.81 8c1.41 0 2.27 0 3.23 1.11l-1.35-7v.36c-7.19-2.33-7.76 8.79-1.82 10.71 4.64 1.51 8.87.18 11.08-4.36 1.08-2.22.23-5.23-1.36-7a14.51 14.51 0 0 0 -10.56-5.24c-4.26-.1-6 4.64-3.81 8l4.49 7 3.81-8a74.11 74.11 0 0 0 -14.33-1.76 4.41 4.41 0 0 0 -4.7 5.07 99.37 99.37 0 0 0 4.1 15.91l9-3.18-3.29-5.65-2.51 8c11.66-3.26 21.76 3.19 31.1 9.43 6.63 4.42 9.3-5.33 4.31-9.32l-11.25-9c-3.79-3-8.77 1.14-7 5.51a15 15 0 0 1 .27 12.15c-1.57 3.95 2.7 11.63 7.54 8.61 6.48-4 14.75-2.29 20 3.08 6 6.19 7.25 15.66 7.66 23.88.17 3.56 5.82 9.32 9 5.08 10.28-13.69 1.26-31.41-9.28-41.92-10.82-10.8-27.86-18.67-33.12-33.89-2.27-6.59-12.21-5.72-9.64 1.7z" fill="#caa485"/><path d="m153.22 244.45a86.54 86.54 0 0 1 34.08-30.35c13.11-6.64 26.92-13.21 30.81-28.7l-4.64 3.6 48.53 11.26-2.08-11.38a95.92 95.92 0 0 1 -21.24 3.91c-2.49.17-3.41 3-3.41 5v6.29c0 3.22 4.51 8.44 8 5.89 5-3.62 11.47-4.75 16.89-1.31 4.93 3.11 9.25-2.28 6.36-7-3.9-6.34-9.79-10.17-17-11.85-8.84-2.06-18 0-26.89-.72l2.08 11.39c1.89-.43 4.28-.35 4.95 1.82l9-3.18c-2-3.63-2.53-7.84-5.24-11.14a14 14 0 0 0 -10.57-5.22c-9.37-.23-14.73 7.74-18.78 15l9.26 6.72c.14-.71.55-.81 1.22-.29l-5-9.07c-3.42 5.46.24 12 5.32 14.6 4.34 2.27 6.37-2.9 5.73-6.2l-.91-4.75-9 3.18 3.05 5c3.1 5 11.73 3.44 9-3.18l-1.87-4.6c-1.05-2.56-3.34-5.45-6.51-4.83-2.81.56-4.14 4-3.14 6.53l3 7.5 4.43-6.55c-11.55-2.33-21.12 6.36-32.72 2.69-7.2-2.29-7.77 8.82-1.82 10.71a33.67 33.67 0 0 0 17.49 1.24c6.34-1.38 11.08-4.59 17.84-3.23 3.57.71 5.55-3.72 4.43-6.56l-3-7.5-9.65 1.7 1.88 4.6 9-3.18-3.05-4.95c-3.4-5.52-10.3-3.48-9 3.17l.91 4.75 5.73-6.21 2.12 2.83c2.32-3.72-1.67-8.18-5-9.07a8.24 8.24 0 0 0 -9.69 5c-2.39 5.46 5.73 13.06 9.26 6.72 2.22-4 5.12-9.66 10.25-10.22 4.51-.5 4.94 6.36 6.68 9.51 3 5.44 11 3.44 9-3.18-2.34-7.64-9.81-13.31-18-11.48-6 1.36-3.17 11 2.08 11.39 9.67.74 28.43-4.38 34.69 5.81l6.36-7c-8.34-5.27-18.85-5.83-27 .14l8 5.88v-6.29l-3.41 5a95.92 95.92 0 0 0 21.25-3.92c6.26-1.89 2.9-10.23-2.08-11.38l-48.55-11.22c-2.42-.56-4.13 1.62-4.63 3.64-3.72 14.81-22.36 19.32-33.77 26.31a94.86 94.86 0 0 0 -30.25 30.22c-3.26 5.1 5.41 12.74 9.26 6.71z" fill="#caa485"/><path d="m161.31 236.5c-7.54-7.22-6.54 13.18-6.44 16.07l5.09.64a56.84 56.84 0 0 1 1.81-17.21l-5.06-1.36v17.36c0 2.67 4.73 4.81 5.06 1.35a124.52 124.52 0 0 1 2.77-17.06l-5.06-1.29a49.78 49.78 0 0 1 -1 12.3l5.06 1.35a46.26 46.26 0 0 1 2.72-13.65l-4.87-2a128.94 128.94 0 0 1 -1.07 15l5 2.07a90.43 90.43 0 0 1 2.21-14.65l-5.06-1.36a37.5 37.5 0 0 1 -.19 12.28l5.06 1.35a29.68 29.68 0 0 1 1.23-7.66l-5.06-1.35a74.6 74.6 0 0 1 .59 13.32l5.09.64a68.1 68.1 0 0 1 4.44-25.11l-4.72-1.26-.27 3.9 4.87 2a18.56 18.56 0 0 1 1.75-7.58l-4.73-1.25 1.19 5.24c.67 2.95 4.91 3.32 5-.11l.06-4.35-4.64.85 1.67 2.58c1.47 2.27 4.5 2.21 4.64-.85l.23-5.15-4.95.1 1 2.58c.72 1.93 4.6 4 4.92.61l.3-3.1-4.93-.61 1.59 5.5c.84 2.9 4.82 3.36 5-.1l.26-6.4-5 .1 1.27 4.63c.95 3.42 5.63 3 4.83-.85a7.09 7.09 0 0 1 2.71-7.16l-3.49-4.85a12.77 12.77 0 0 0 -1.07 15.57c1.29 2 5 2.39 4.65-.84l-.23-2.1-3.62 2a12.81 12.81 0 0 1 2.42 2.67l3.27-3.64-1.72-2.16c-2.13-2.68-5.27.26-3.73 3l1.4 2.49.65-3.79a4 4 0 0 1 -4.34.28c-2.55-1-3.5 2-2.56 3.84a9.83 9.83 0 0 0 7.38 5.52l-.39-5.71c-3.7-.6-6-2.92-9.88-1.83-2.7.75-6 5.07-8.56 4.92l2.29 1.69a23.32 23.32 0 0 1 -.29-2.91c-.29-1.66-2-4.12-4-2.95l-5.86 3.44 4 2.95.45-1.81-4.45-3.26a46.89 46.89 0 0 1 -1.85 9.68c-.91 3 3.93 5.67 5 2.06a46.15 46.15 0 0 0 1.85-9.67c.17-2-2.43-5.61-4.47-3.25a6.06 6.06 0 0 0 -1.62 5.61c.28 1.67 2 4.11 4 2.94l5.88-3.43-4-2.94c.55 3.11.29 8.76 5.43 7.63 2.44-.54 4.42-3.25 6.6-4.4 3.52-1.84 6.42.68 9.89 1.25s2.53-5.15-.39-5.71l-2.81-2.14-2.51 3.84a9 9 0 0 0 8.16-.38c1.34-.71 1.29-2.64.64-3.79l-1.41-2.49-3.73 3 1.72 2.16c2.46 3.1 5.36-.89 3.27-3.64a23.78 23.78 0 0 0 -3.54-3.69 2.21 2.21 0 0 0 -3.62 2l.23 2.1 4.64-.84a7 7 0 0 1 .79-8.81c1.67-1.93-1.09-6.69-3.42-4.85-4.28 3.41-5.76 7.92-4.63 13.26l4.83-.85-1.28-4.62c-.81-2.93-4.82-3.34-5 .1l-.25 6.4 4.95-.11-1.58-5.5c-.61-2.12-4.62-3.83-4.93-.61l-.29 3.1 4.92.61-1-2.58c-1-2.73-4.8-3.48-5 .11l-.23 5.15 4.64-.84-1.67-2.58c-1.43-2.22-4.59-2.26-4.64.84l-.07 4.35 5-.1-1.19-5.24c-.44-2-3.65-3.66-4.72-1.26a25.73 25.73 0 0 0 -2.22 10.3c0 2.13 3.9 4.9 4.86 2a14.33 14.33 0 0 0 .46-8.1c-.38-1.9-3.79-3.73-4.73-1.26a75.35 75.35 0 0 0 -4.86 27.82c0 3.31 4.91 4.51 5.09.64a73.67 73.67 0 0 0 -.56-13.28c-.34-2.64-4.07-4.81-5-1.35a35.25 35.25 0 0 0 -1.3 9.08c-.07 2.72 4.44 4.76 5.06 1.35a42.27 42.27 0 0 0 .25-13.7c-.36-2.51-4.22-4.93-5.06-1.35a90.6 90.6 0 0 0 -2.26 14.61c-.2 2.94 4.54 5.9 5 2.07a144.74 144.74 0 0 0 1.14-16.51c0-2.14-3.84-4.88-4.86-2a55.16 55.16 0 0 0 -3.11 16.44c-.11 2.75 4.38 4.72 5.06 1.35a55.39 55.39 0 0 0 1-13.72c-.13-2.69-4.26-4.77-5.06-1.35a126.2 126.2 0 0 0 -2.78 17.05l5.06 1.36v-17.38c0-2.79-4.2-4.66-5.06-1.35a61.43 61.43 0 0 0 -1.87 18.61c.16 3.27 5.23 4.56 5.09.64-.08-2.47-.1-4.92 0-7.38 0-1.17.13-2.34.26-3.51.7-1.83.63-2.36-.21-1.61l-2.48-1 .46.45c2.81 2.68 5.84-1.18 3.28-3.64z" fill="#caa485"/><path d="m151.15 238.43a133.62 133.62 0 0 0 -1.23 23.48l5.1.64a58.73 58.73 0 0 1 3.6-24.84c1-2.8-3.37-6.67-4.63-3.36a89.9 89.9 0 0 0 -6 33.16c0 3.3 5 4.53 5.09.64q.28-12.3 1.75-24.49c.28-2.31-3.74-6-4.83-2.71a84 84 0 0 0 -4.1 30.83c.18 3.28 4.93 4.54 5.09.63l1.3-31.26c.09-2.17-3.9-4.87-4.86-2a71.55 71.55 0 0 0 -2.43 36.17c.64 3.49 5.52 3 4.82-.85a64.16 64.16 0 0 1 2.29-32l-4.86-2-1.3 31.27 5.09.63a76.5 76.5 0 0 1 3.64-28.1l-4.82-2.71c-1 8.61-1.62 17.24-1.82 25.91l5.09.64a82.45 82.45 0 0 1 5.51-30.44l-4.64-3.32a65.55 65.55 0 0 0 -4.07 27.56c.22 3.24 5.24 4.57 5.1.64a124.13 124.13 0 0 1 1.16-22.05c.43-3.05-4.5-5.8-5-2.07z" fill="#caa485"/><path d="m152.48 254.73 2.09-12.39-5-2.06a170.26 170.26 0 0 0 .77 31.6c.29 2.43 4.62 5 5.06 1.35l3.55-29.44-5.06-1.35q1.13 15.57.87 31.16c0 2.69 4.72 4.8 5.06 1.35l3.28-32.77-5.1-1.35a116.4 116.4 0 0 1 .57 29.07c-.32 3 4.49 5.85 5 2.07l2.66-18.66-5.01-1.31a113.25 113.25 0 0 1 1.67 17.34l5.09.63a73.23 73.23 0 0 1 .8-15l-5.06-1.36a132.67 132.67 0 0 1 .36 16.68l5.1.64.29-8.84-5 .11 1.77 6.52c.94 3.45 5.53 2.95 4.82-.85a278.63 278.63 0 0 1 -4.48-40.34l-2.31 2.47c-1.86-.25-9.13 40.17-10 44.57l4.92.6-4.23-12.05c-.62-1.77-3.62-3.83-4.73-1.26a26.49 26.49 0 0 0 .67 22.64c1.19 2.45 4.72 2.09 4.64-.85a47 47 0 0 0 -5.23-20.38c-1.28-2.53-4.54-2-4.64.84a42.86 42.86 0 0 0 2.63 16.44c.91 2.47 5.55 3.58 5-.11a113.54 113.54 0 0 0 -3.7-15.85c-.64-2-4.63-3.87-4.92-.6-2.62 29.47 27.3 49.46 53.72 51.23 13.4.9 30.17-1.74 40.72-10.76 9.63-8.24 5.18-22.63-7.91-22.2-10.42.34-20.65 2-31.14 1.82q-7.62-.12-15.2-.81c-3.48-.32-18.49-.76-14.68-7.44l-4.63-3.35c-1.8 4.53-.54 9.24 2.79 12.77 4.2 4.44 10.58 4.93 16.32 5.15 17.06.62 34.13 1.05 51.19 1.58l-2.86-3.18c1.75 10.07-11.9 12-18.89 13.41-8 1.65-16.61 3.71-24.78 3.29-15.57-.79-27.17-17.25-33.87-29.75-1.19-2.23-5-2.25-4.64.84a25.68 25.68 0 0 0 9.41 17.61c1.76 1.47 3.6-.09 3.63-2a17.76 17.76 0 0 0 -7.75-15c-2-1.45-4.2.49-3.49 2.75l2.16 6.82c.85 2.7 5.12 3.51 5-.1l-.43-9.12-4.18 1.5a38.64 38.64 0 0 1 5.05 9.6c.91 2.49 5.46 3.6 5-.1l-1.62-11.55-4.95.1 3.67 10.76c.87 2.55 5.45 3.56 5-.1-.58-4.28-1.23-8.52-1.44-12.83l-4.64.85 10.22 22.22c1.4 3 5.15 1.57 4.51-1.59l-1.83-9.07-4.51 1.66 6.47 10.73c1.6 2.66 5.42 1.78 4.51-1.58l-2.3-8.55-4.51 1.58 4.89 7.76c1.61 2.55 5.55 1.81 4.51-1.59l-1.66-5.46-4 2.25a57.5 57.5 0 0 1 6.43 8.68c1.59 2.65 5.47 1.79 4.51-1.58l-2.18-7.7-3.49 2.75a19.87 19.87 0 0 1 4.54 5.69c1.84 3.36 5.71 1.05 4.2-2.32l-.4-2.34-4.15.79a28.6 28.6 0 0 1 5.19 6.55c1.22 2.1 5.08 2.32 4.65-.84l-1.2-8.88-4.18 1.5a32.07 32.07 0 0 1 5.39 8.58 2.38 2.38 0 0 0 4.65-.84l.06-7.05-3.63 2a33.36 33.36 0 0 1 7.12 6.18c1.15 1.32 4 1.51 4.15-.79l.3-4.53-3.6 1.29a25.32 25.32 0 0 1 6.63 5.52c1.65 1.93 4.12.9 4.18-1.5l.18-6.2-1.7 2.52c2.32-.58 4.51.88 6.69 1.39a15.91 15.91 0 0 0 6.15.19c4.59-.74 8.77-3.2 12.67-5.59 2.64-1.61.29-5.61-2.3-5.46l-31.89 1.82c-3.09.18-1.5 5.51 1 5.69a32.06 32.06 0 0 0 14.74-2.39c2.46-1 .56-5.44-1.65-5.48l-24.14-.44c-3.75-.07-2.38 5 .39 5.7a36.66 36.66 0 0 0 23.6-1.87c2.56-1.06.47-5.26-1.65-5.48l-29.2-3c-3.31-.33-2.72 4.69-.26 5.53a61.15 61.15 0 0 0 31.34 2.3c3.33-.63 1.31-6.05-1.69-5.68l-35.56 4.41c-2.49.31-1.92 4.21-.24 5.17a123.26 123.26 0 0 0 18.56 8.66l.92-5.36a95.92 95.92 0 0 1 -19.78-8.73c-3.36-2-4.93 2.87-2.16 4.66l11.59 7.51.88-5.19a35.28 35.28 0 0 1 -22.9-9.89l-2.09 4.5a97.84 97.84 0 0 1 19.93 10.51l1.53-5q-11.1-4.73-21.8-10.28c-3.18-1.65-3.55 3.48-1.54 5a41.68 41.68 0 0 0 14.79 7.29c4.2 1.1 9.95 2.35 14 .1 9.71-5.37-4.38-14.55-9.38-16.24-2.78-.94-4 2.76-2.09 4.5l7.75 7.1 1.44-4.67a45.7 45.7 0 0 0 -15.16-.77c-1.87.21-2 2.76-1.25 4a26.48 26.48 0 0 0 10.2 9.81l-.38-5.51a5.49 5.49 0 0 1 -4.74-.45l-.26 5.53.11-.27 3.62-2-27.86-15.76c-2.9-1.64-4.94 1.94-2.72 4.15a29.76 29.76 0 0 0 17.25 8.7c1.8.26 2.76-1.77 2.21-3.27-2.89-7.94 10.43-4.43 13.24-3.29 3.5 1.41 3.78-4.2.91-5.36-4.72-1.9-10.55-4-15.29-1a8.72 8.72 0 0 0 -3.68 10.5l2.21-3.27a23.43 23.43 0 0 1 -13.57-6.64l-2.68 4.14 27.87 15.76c1.69 1 3.85.28 3.62-2-.33-3.31-2.19-5.68-5.59-6.08s-2.5 4.55-.26 5.53a11.16 11.16 0 0 0 7.33.77c3.06-.65 1.42-4.5-.38-5.51a18.31 18.31 0 0 1 -6.92-6.78l-1.26 4a41.19 41.19 0 0 1 13.87.8c2.57.57 2.85-3.38 1.44-4.68l-7.76-7.1-2.09 4.5c1.58.53 6.55 2 7 3.8 1 3.68-5.61 2.37-7.37 2.08a35.72 35.72 0 0 1 -16-7.05l-1.53 5q10.69 5.55 21.8 10.28c3.24 1.37 3.72-3.52 1.53-5a104.37 104.37 0 0 0 -21.17-11.21c-2.83-1.1-3.85 2.79-2.09 4.5a41.29 41.29 0 0 0 26.57 12c3 .18 2.85-3.9.88-5.18l-11.6-7.57-2.16 4.66a103 103 0 0 0 21 9.43c3.62 1.14 3.83-4.29.92-5.36a113.47 113.47 0 0 1 -17.32-8l-.23 5.17 35.56-4.41-1.66-5.63a55.82 55.82 0 0 1 -28.74-2l-.26 5.54 29.21 2.95-1.65-5.48a32.76 32.76 0 0 1 -21.09 1.42l.39 5.7 24.15.44-1.66-5.43a26.51 26.51 0 0 1 -12.23 1.94l1 5.69 31.89-1.82-2.3-5.47c-4.13 2.53-8.89 5.58-13.95 5.34-3.72-.19-6.54-2.7-10.34-1.76a2.35 2.35 0 0 0 -1.71 2.52l-.17 6.2 4.18-1.5a29.78 29.78 0 0 0 -7.74-6.53c-1.28-.76-3.46-.71-3.59 1.29l-.3 4.53 4.15-.78a38.39 38.39 0 0 0 -8.23-7.19c-1.83-1.2-3.61-.11-3.62 2l-.06 7.05 4.64-.84a37.1 37.1 0 0 0 -6.32-9.89c-1.46-1.67-4.53-1.09-4.18 1.5l1.2 8.87 4.64-.84a34.64 34.64 0 0 0 -6.11-7.87c-1.21-1.17-4-1.65-4.15.78a12.7 12.7 0 0 0 1.22 6.73l4.2-2.32a28.64 28.64 0 0 0 -6.58-8c-2-1.72-4.09.66-3.49 2.76l2.18 7.69 4.51-1.58a65.53 65.53 0 0 0 -7.36-10c-1.89-2.11-4.89-.51-4.05 2.24l1.66 5.46 4.51-1.59-4.85-7.8c-1.64-2.6-5.42-1.82-4.51 1.59l2.3 8.54 4.51-1.58-6.47-10.74c-1.67-2.77-5.19-1.73-4.51 1.59l1.83 9.07 4.51-1.59-10.26-22.27c-1.14-2.46-4.79-2.09-4.65.84.21 4.32.86 8.55 1.43 12.83l5-.11-3.67-10.76c-.87-2.55-5.45-3.55-5 .11l1.57 11.58 4.95-.11a50.16 50.16 0 0 0 -6.59-12.39 2.29 2.29 0 0 0 -4.19 1.5l.43 9.12 5-.11-2.16-6.82-3.52 2.76a10.89 10.89 0 0 1 4.81 9.7l3.63-2a17.93 17.93 0 0 1 -6.44-12.33l-4.65.84c8.22 15.34 22.2 33.56 41.35 33.18 10.27-.21 21.1-2.49 31-5.13 7.89-2.11 16.1-7.36 14.48-16.68-.23-1.34-1.13-3.12-2.74-3.17l-35.44-1.09c-5.32-.17-34.3 1.86-29.84-9.35 1.09-2.73-2.81-6.53-4.63-3.35-3.21 5.62.75 12 6.26 14.25 8.17 3.32 19 2.87 27.69 3a210.08 210.08 0 0 0 27.24-1.24c4.27-.48 13.57-2.29 12.61 5-.63 4.8-5.45 7.65-9.34 9.63-15.51 7.9-34.6 8.51-50.75 2.19-15.9-6.22-31.2-21-29.56-39.34l-4.93-.61a101.29 101.29 0 0 1 3.42 14.36l5-.1a38.69 38.69 0 0 1 -2.36-14.95l-4.64.84a40.15 40.15 0 0 1 4.24 17.49l4.64-.84a19.88 19.88 0 0 1 -.23-16.95l-4.73-1.21 4.24 12c.77 2.18 4.27 3.78 4.93.61l7-33.75c1-4.69 5.86-17.46-2.38-18.58a2.21 2.21 0 0 0 -2.35 2.53 289.39 289.39 0 0 0 4.75 41.83l4.82-.85-1.76-6.52c-.79-2.92-4.85-3.34-5 .1l-.3 8.84c-.11 3.3 4.94 4.52 5.1.64a136.56 136.56 0 0 0 -.36-16.68c-.21-2.54-4.5-4.92-5.06-1.35a79.45 79.45 0 0 0 -.87 16.45c.16 3.26 5.16 4.56 5.09.63a112 112 0 0 0 -1.67-17.33c-.4-2.31-4.52-5.11-5.05-1.35l-2.67 18.66 5 2.07a122.57 122.57 0 0 0 -.51-30.5c-.34-2.36-4.69-5.06-5.06-1.35l-3.27 32.77 5.06 1.35q.24-15.6-.87-31.16c-.18-2.55-4.63-4.92-5.06-1.35l-3.56 29.44 5.06 1.35a163.65 163.65 0 0 1 -.84-30.18c.2-2.9-4.37-5.93-5-2.06l-2.09 12.39c-.52 3.05 4.39 5.79 5 2.06z" fill="#caa485"/><path d="m173.85 303.86c-11-1.88-18.94-10.61-22.76-20.73a67.93 67.93 0 0 1 -3.64-16c-.17-1.53-1.46-17 1.66-16.23 3.39.87 2.5-5-.39-5.7-5.45-1.39-6.88 8.39-7 11.87a76.43 76.43 0 0 0 3.69 24.47c4.35 13.52 14.23 25.52 28.81 28 3.49.6 2.58-5.2-.4-5.71z" fill="#caa485"/><path d="m157.48 274.15a50.3 50.3 0 0 0 6.52 10.64c2 2.46 5 6.61 8.36 7.34 5.59 1.2 5.77-7.11.71-7.95l1.05 5.69a153 153 0 0 1 37.41-5.36c5.45-.07 11.45-.29 16.72 1.35 2.42.76 8.47 3.38 6 7.17-1.8 2.77-6.7 1.9-9.39 1.56l1.65 5.47 6.22-3.19c2.17-1.11.85-4.61-1-5.3a12.57 12.57 0 0 0 -10.7.5c-2.82 1.41.06 6.67 2.91 5.25a7.83 7.83 0 0 1 6.87-.4l-1-5.3-6.23 3.19c-2.45 1.26-.55 5.2 1.65 5.48 5.73.73 14.54.19 14.89-7.52.31-6.72-6.7-11.12-12.37-12.65-8-2.17-17.06-1.53-25.25-1a155.86 155.86 0 0 0 -30.1 5.07c-3.09.83-1.51 5.27 1 5.69l.69.12-2.3-1.69c-1.52-3.2-1-3-3.09-5.36a40.71 40.71 0 0 1 -2.66-3.35 46.18 46.18 0 0 1 -4.4-7.78c-1.56-3.44-5.74-1.06-4.19 2.33z" fill="#caa485"/><path d="m269.37 299.2c-7.39-1.66-.61-9.78 2.87-11.24 4.5-1.88 9.48-1.17 14.19-.75a106.46 106.46 0 0 0 27.16-.78c6.51-1.09 12.68-2.87 15.09-9.64 2.08-5.83.72-12.41-.77-18.21-.71-2.76-5.33-3.44-5 .1a73.2 73.2 0 0 0 3 14.44c.84 2.65 5.27 3.53 5-.1l-2-23.92-4.95.11 3.87 17.13c.65 2.86 5.11 3.39 5-.11a102 102 0 0 0 -2.89-20l-4.05 2.24a26 26 0 0 1 5.48 12.34l5-.1a241.49 241.49 0 0 1 -6.75-23.75c-.79-3.46-5.63-2.95-4.82.85a35.19 35.19 0 0 0 5.27 12.45c2.06 3.06 6.06 1 4.2-2.33a62.78 62.78 0 0 1 -6.27-15.93l-4 2.24a96 96 0 0 1 10.56 17.48l4.2-2.32-10-17.54-3.73 3a113.59 113.59 0 0 1 11.26 19l4.19-2.33-15.12-26-3.73 3a60.09 60.09 0 0 1 17.37 31.6l4.82-.85-1.51-4.51c-1.12-3.31-5.71-3-4.83.85a71.54 71.54 0 0 1 1.66 21.14l4.62-.14a9 9 0 0 1 -.19-6.4l-5.06-1.36c.2 2.81 1.34 11.46-1.14 13.54l2.41-.46-.57-.27 2 2.25-.16-.64-1 3.05.4-.3-4-2.94c-.22 14.55-17.57 19.68-29.28 21.37a74.44 74.44 0 0 1 -38.7-4.92c-3.65-1.49-3.43 4-.91 5.35a40.54 40.54 0 0 0 20 5.15c3.72 0 2.44-5-.39-5.7a34.51 34.51 0 0 1 -20-13.14 2.28 2.28 0 0 0 -4.15.79l-.59 2.6c-.68 3 4.19 5.76 5 2.07l1.86-8.2-4.61.14a17.29 17.29 0 0 1 2.09 5.61c.46 2.3 4.58 3.68 4.92.6a8.81 8.81 0 0 0 -.34-4.17l-4.82.85 2.12 5.82c1 2.67 4.95 3.54 4.95-.1a25.29 25.29 0 0 1 .72-5.83l-4.93-.6 1.12 3.47c.9 2.83 4.83 3.41 5-.1l.17-4.68-4.64.85 4.9 9c1 1.84 4.21 2.53 4.61-.13a29.64 29.64 0 0 0 .08-8.92l-5 .11 3.27 9.79c.68 2 4.56 3.89 4.92.61a76.59 76.59 0 0 0 .34-13.2l-5 .11 2.66 11.92c.53 2.37 4.37 3.62 4.92.61a38.41 38.41 0 0 0 .51-10l-5 .1 4 10.69c.83 2.24 4.11 3.71 4.92.61a39.59 39.59 0 0 0 1.23-11.47l-4.64.85a32.53 32.53 0 0 1 2.36 7.78c.52 3 5.23 4.71 5.09.64a45.67 45.67 0 0 1 .71-9.56l-4.93-.6 2.7 11.06c.55 2.21 4.61 3.75 4.93.61l.85-8.29-4.93-.61a48.18 48.18 0 0 1 3.16 10.55c.53 3 5.3 4.71 5.1.64a89.41 89.41 0 0 1 .38-14l-4.61.13a24.61 24.61 0 0 1 3 10.06c.28 3.22 5.13 4.59 5.1.64l-.07-9.21-4.19 1.5a6.49 6.49 0 0 1 1.59 5.19c0 2.69 4.73 4.8 5.06 1.36l.84-8.84-4.93-.61 3.34 10.15c.67 2 4.6 3.89 4.93.6l1.11-11.19-4.93-.61 2.06 10.73c.44 2.32 4.58 3.67 4.92.61l1.1-9.89-4.61.13a18 18 0 0 1 2.67 7.8c.35 3.21 5 4.61 5.1.64a31.63 31.63 0 0 1 1.59-9.45l-4.25-.46 2.55 5.83c.89 2 4.19 2.38 4.62-.13l1.67-9.87-4.92-.61 3.08 10.67c.77 2.68 5.43 3.47 5-.11a48.74 48.74 0 0 1 .06-13.54l-4.92-.61 1.79 9c.6 3 4.87 3.27 5-.11l.34-12.45-4.65.84a31.12 31.12 0 0 1 2.32 8.13c.46 3.12 5 4.67 5.09.63l.35-21.14-5 .1 3.55 10.63c1.1 3.3 5.94 2.93 4.82-.85a72.9 72.9 0 0 1 -3-21.36l-4.64.84a37.29 37.29 0 0 1 4.34 14.11l5-.1-2.56-10.58-4.82.85a39.61 39.61 0 0 1 -6.8 34.39 3.33 3.33 0 0 0 2.16 5.07l.54.08a2 2 0 0 0 2.03-1.21c.8-1.57.55-2.6-.18-4.17a3.06 3.06 0 0 0 -2.94-1.67c-3.75.13-7.27 4.32-10.71 5.9a43.86 43.86 0 0 1 -14.34 3.56 69 69 0 0 1 -15.13-.4c-3.84-.49-11.11-1.18-13.4-4.87-2.5-4 2.69-3.47 5.17-3.5s4.84 0 7.26 0c4.52 0 9 0 13.54-.32 9.35-.62 18.47-2.65 26.32-7.95 2.63-1.78-.3-7-2.91-5.25-11.07 7.48-24.42 7.8-37.34 7.82-4.47 0-11.37-1.15-15.58.68s-3.6 6.51-1.58 9.85c5.21 8.62 17.81 9.64 26.79 9.9a59.23 59.23 0 0 0 17.74-1.92 42.09 42.09 0 0 0 7.75-3c2.16-1.1 5.74-4.72 8.11-4.8l-2.95-1.68.31.65-.22-2.84-.34.67 2.12-1.17-.55-.08 2.16 5.08a45.44 45.44 0 0 0 7.7-39.68c-.92-3.41-5.74-3-4.82.85l2.56 10.58c.67 2.79 5.32 3.42 5-.11a45.47 45.47 0 0 0 -5.3-17.13c-1.3-2.41-4.63-2.11-4.65.85a78.26 78.26 0 0 0 3.29 22.85l4.82-.85-3.55-10.63c-.92-2.76-4.9-3.46-5 .11l-.34 21.15 5.09.63a42.8 42.8 0 0 0 -3.21-11.08 2.38 2.38 0 0 0 -4.65.84l-.33 12.45 4.95-.1-1.79-9c-.47-2.35-4.49-3.64-4.93-.61a54.39 54.39 0 0 0 -.12 15l5-.1-3.06-10.67c-.64-2.23-4.4-3.73-4.93-.61l-1.67 9.87 4.61-.13-2.56-5.82c-.66-1.53-3.71-2.68-4.41-.52a41.31 41.31 0 0 0 -2.06 12.17l5.1.64a25.59 25.59 0 0 0 -3.57-10.76c-1-1.69-4.3-2.65-4.61.13l-1.1 9.88 4.92.61-2.06-10.73c-.44-2.3-4.61-3.68-4.92-.61l-1.11 11.2 4.92.61-3.31-10.12c-.66-2-4.61-3.9-4.92-.61l-.84 8.84 5.06 1.35a14.11 14.11 0 0 0 -3.4-9.47 2.29 2.29 0 0 0 -4.19 1.5l.07 9.21 5.1.64a32.62 32.62 0 0 0 -3.93-13c-1-1.76-4.33-2.59-4.61.13a99.15 99.15 0 0 0 -.46 15.41l5.1.64a55 55 0 0 0 -3.44-12c-.77-1.84-4.57-4-4.92-.61l-.85 8.29 4.93.61-2.7-11.13c-.57-2.33-4.39-3.66-4.93-.61a52.44 52.44 0 0 0 -.77 11l5.09.64a44.92 44.92 0 0 0 -3.25-10.75c-1.12-2.51-4.74-2-4.65.85a34.57 34.57 0 0 1 -1.17 10l4.93.61-4-10.69c-.94-2.51-5.25-3.62-5 .11a32.65 32.65 0 0 1 -.43 8.55l4.92.61-2.66-11.92c-.63-2.85-5.17-3.4-4.95.1a69.08 69.08 0 0 1 -.27 11.77l4.92.61-3.27-9.79c-.86-2.57-5.47-3.54-5 .1a24.75 24.75 0 0 1 0 7.49l4.61-.13-4.91-9c-1.33-2.46-4.54-2.07-4.64.85l-.17 4.67 5-.11-1.12-3.47c-.73-2.29-4.21-3.69-4.92-.61a32.2 32.2 0 0 0 -.78 7.25l5-.11-2.12-5.82c-1.17-3.24-5.95-3-4.82.85l.14 1.26 4.92.61a22.45 22.45 0 0 0 -2.71-7.09c-1.11-1.91-4-2.46-4.62.13l-1.86 8.19 5 2.07.59-2.61-4.15.79a40.67 40.67 0 0 0 23.62 15.15l-.39-5.7a37.74 37.74 0 0 1 -18.72-4.8l-.91 5.35a79.23 79.23 0 0 0 46.54 4.31c13.24-2.88 27.21-10.21 27.44-25.47 0-1.6-2.29-4.24-4-2.94l-.4.3a2.7 2.7 0 0 0 -1 3 4.35 4.35 0 0 0 2.7 3.16 2.18 2.18 0 0 0 2.42-.45c3.8-3.18 2.62-12.92 2.31-17.34-.19-2.72-4.14-4.74-5.06-1.35a15.74 15.74 0 0 0 1 10.8c.81 1.89 4.43 2.5 4.61-.13a81.35 81.35 0 0 0 -1.86-24l-4.83.85 1.52 4.51c1.12 3.34 5.6 3 4.82-.85a66.08 66.08 0 0 0 -18.9-34.43c-2.34-2.26-5.41.1-3.73 3l15.12 26c1.91 3.28 5.79 1 4.19-2.33a120.13 120.13 0 0 0 -12.18-20.27c-2-2.76-5.27.27-3.73 3l9.94 17.54c1.87 3.31 5.78 1.05 4.2-2.32a103.25 103.25 0 0 0 -11.48-18.8c-1.85-2.41-4.66-.32-4.05 2.25a68.81 68.81 0 0 0 6.74 17.34l4.2-2.33a30.38 30.38 0 0 1 -4.65-11l-4.82.85a242.28 242.28 0 0 0 6.75 23.75c.87 2.55 5.54 3.53 5-.11a34.91 34.91 0 0 0 -7.3-16.62c-1.88-2.35-4.69-.36-4.05 2.25a94.34 94.34 0 0 1 2.62 18.55l5-.1-3.88-17.13c-.64-2.83-5.26-3.41-5 .1l2 23.92 4.95-.11a65.69 65.69 0 0 1 -2.7-12.93l-5 .11c1 4.07 2.12 8.67 1.23 12.88-1.15 5.43-5.6 7.18-10.61 8.12a94.7 94.7 0 0 1 -17.54 1.63c-5.65 0-11.24-1-16.88-1-6.9-.07-15.27 2.21-17.6 9.61a11.2 11.2 0 0 0 8.07 14.28c3.43.77 2.54-5.05-.39-5.71z" fill="#caa485"/><path d="m279.14 196.34a7.92 7.92 0 0 0 2.29 6.53c.93.87 2.58 1.64 3.59.4a3.16 3.16 0 0 0 -.32-4c-.11-.1-.22-.21-.32-.32-.22-.27-.2-.23.05.12l-.12-.2c-.16-.3-.15-.26 0 .12a6.34 6.34 0 0 1 -.2-.65c.07.37.08.4.05.07s0-.3 0 0a3.58 3.58 0 0 0 -2.06-3.71 2.13 2.13 0 0 0 -3 1.65z" fill="#caa485"/><path d="m193.75 333.94a440.77 440.77 0 0 0 -5 65c0 5.23-.06 10.5.25 15.72.25 4.24 1.72 8.71 6.21 10.15 3.95 1.26 9.19.18 13.21-.31a100.36 100.36 0 0 0 16.43-3.5c2.52-.76 3.31-2.58 3.4-5a159.49 159.49 0 0 1 4.8-33 150 150 0 0 1 5.11-16.16c1-2.55 3.29-11.85 6.84-10.51 3.38 1.27 6.52 7.41 8.13 10.38a55.33 55.33 0 0 1 4.95 13.3c2.67 11 2.47 22.57 2.43 33.82 0 2.66 2.63 6.29 5.49 6.35 10.16.19 20.39.74 30.56.54 8.87-.17 10.7-6.44 10.24-14.21q-1.86-30.93-4.77-61.81c-.66-6.91-3.11-15.72-11.77-15.29-4.48.21-9.11 1.93-13.53 2.74q-7.35 1.36-14.8 2.2a208.87 208.87 0 0 1 -60.16-2.18l.78 11.41a532.83 532.83 0 0 1 71.88 3.57c2.06.25 5.74 0 7.57 1.07 1.24.7 1.31 3.94 1.6 5.66q1.42 8.48 2.54 17 2.3 17.52 3.33 35.17l4.7-5.07-13.71-.46c-.3 0-5-.42-5.06-.2 2 2.73 2.81 2.8 2.34.18 0-1.2 0-2.4.05-3.59.13-7.37.15-14.53-1.44-21.76a65.86 65.86 0 0 0 -21.42-35.29l-3.06 10c20.66 6.05 22.28 30.43 23.22 48.37.34 6.57 9.94 9.1 10.18 1.28.58-18.41-4.24-36.27-9.17-53.84l-5.74 6.21c5.94 3.31 7.07 14.19 8.31 20.05a200 200 0 0 1 3.78 28.94c.4 6.51 10.26 9.15 10.18 1.28q-.25-27.74 1.81-55.42c.27-3.61-1.71-7-5.42-7.77-9.34-1.9-16.94 6.16-16.48 15.21.15 2.89 2.51 6 5.49 6.34 4.09.5 7.13-1.27 9-4.85 2.84-5.35-5.91-13-9.26-6.71l-.56.15 5.49 6.34c-.19-3.77 3.85-5.72 7.08-5.07l-5.42-7.77q-2.19 29.08-1.94 58.27l10.18 1.28a215.31 215.31 0 0 0 -5.6-37.58c-2.32-9.59-5.88-18.43-14.85-23.44-4.11-2.3-6.66 2.91-5.74 6.2 4.68 16.67 9.18 33.39 8.64 50.86l10.18 1.28c-1.19-22.91-5.68-52.78-31.58-60.36-7-2-7 6.57-3.07 10 11.43 10 17 24.26 17.1 39.26 0 6.78-2.3 16.58 3.86 21.45 2.75 2.17 6.37 1.94 9.66 2.06l13.71.46c3 .1 4.88-2.1 4.7-5.07-.8-13.35-2.09-26.66-4-39.9-.92-6.55-1.64-13.33-3.22-19.75a13.89 13.89 0 0 0 -9.29-10.36c-5.73-1.89-12.38-1.94-18.35-2.55q-10.31-1.05-20.65-1.69-21.18-1.3-42.4-.91c-7.27.12-5.12 10.35.78 11.41a219.75 219.75 0 0 0 47.84 3.26 211 211 0 0 0 24.19-2.38q6.46-1 12.86-2.44c1.06-.24 4-.48 4.91-1.13q-1.64-2.76-.82-.59c.1.72.17 1.44.23 2.16 1.64 16.71 2.85 33.47 4 50.21.29 4.19.59 8.37.84 12.56 0 .15.54 3.44.14 3.79-1 .87-4 .26-5.13.24l-26.41-.5 5.49 6.35c.05-14.12 0-28.59-4.5-42.14a62.94 62.94 0 0 0 -8.39-16.91c-3.23-4.5-7.76-10.25-13.47-11.5s-9.67 2.94-12.06 7.59c-3.16 6.14-5.26 13.07-7.24 19.67a171.49 171.49 0 0 0 -6.89 42.86l3.4-5a101.37 101.37 0 0 1 -12.75 3c-3.44.57-9.63 2.39-12.84 1l3.29 3c-.49-.84-.16-5.71-.2-7.58-.05-3.27-.08-6.55-.06-9.82 0-7.05.24-14.11.65-21.15.78-13.41 2.22-26.76 4.24-40 .93-6.1-8.92-11.6-10.05-4.13z" fill="#caa485"/><path d="m204.48 341.84a306.32 306.32 0 0 0 -9.83 35.68c-2.46 11.8-4.45 23.59-1.92 35.54 1.21 5.68 10.6 6.79 9.92-.21a173.13 173.13 0 0 1 -.07-34.37q.84-8.19 2.43-16.29c.42-2.06 2.17-12.83 4.82-12.89l-3.84-1c-1.42-.87-.63-4.16-1.32-.29-.22 1.25-.45 2.49-.68 3.73q-.75 4.18-1.45 8.39-1.47 8.88-2.71 17.79c-1.48 10.68-3.91 22.21-.06 32.64 1.67 4.55 8.18 7.36 9.84 1.22 5.76-21.25 5.11-44 13.61-64.55l-9.72-4c1.15 10.17-2 21.48-3.37 31.58l-4.34 31.33c-.84 6 8.63 11.66 10.05 4.13 2.06-11 4.13-22 7-32.75 2.13-8 4.28-20.43 12.23-24.8l-7.54-8.61a533.71 533.71 0 0 0 -18.1 66.9c-1 4.94 7.7 11.77 9.66 5.42 2.18-7.05 4.33-14.06 5.22-21.41.74-6.1-9.14-11.61-10.05-4.13a107.79 107.79 0 0 1 -4.43 18.83l9.66 5.42a511.79 511.79 0 0 1 17.3-64.31c1.4-4.1-2.46-11.4-7.54-8.61-9.26 5.1-12.11 16.23-14.91 25.64-3.73 12.55-6.16 25.43-8.57 38.28l10.05 4.13 4.64-33.27c1.45-10.5 4.43-21.87 3.23-32.47-.46-4-7.25-10-9.73-4-8.88 21.44-8.39 45-14.4 67.13l9.85 1.21c-2.44-6.6-1.28-13.44-.41-20.24s1.88-13.76 3-20.62c1-6.29 3-13 3.19-19.33.13-5-3.35-11.54-9.31-10.69-5 .72-7.4 7.5-8.75 11.66a108.13 108.13 0 0 0 -3.89 19 186.77 186.77 0 0 0 -.76 43l9.92-.21c-2.2-10.35.52-21.4 2.71-31.54a281.44 281.44 0 0 1 8.66-31.26 7 7 0 0 0 -2.48-8c-2-1.45-5.8-1.6-6.79 1.3z" fill="#caa485"/><path d="m296.7 416.34.63 1.23a5.51 5.51 0 0 0 1.48 1.83 4.83 4.83 0 0 0 1.81 1.2 3.57 3.57 0 0 0 1.95.34 3.11 3.11 0 0 0 1.87-.44l1-.81a4.71 4.71 0 0 0 1.1-2.38l.07-1.42a7.17 7.17 0 0 0 -.89-3l-.63-1.23a5.47 5.47 0 0 0 -1.48-1.82 4.85 4.85 0 0 0 -1.81-1.21 3.59 3.59 0 0 0 -1.95-.34 3.12 3.12 0 0 0 -1.87.45l-1 .8a4.81 4.81 0 0 0 -1.11 2.38l-.06 1.43a7.17 7.17 0 0 0 .89 3z" fill="#caa485"/><path d="m200.59 163.88c-6.8-.62-9.91-7.43-11.62-13.28-2.42-8.29-3.72-17.72-2.69-26.34 2.06-17.31 24.61-21.68 38.94-23.52 26.72-3.42 79.39-3.41 78.4 35.13-.48 18.55-13.89 33.61-27.81 44.38-5 3.87.89 14.3 5.82 10.5 15.78-12.21 30.11-28.29 31.95-49.05 1.76-19.9-8.39-37-26.14-45.87-10-5-21.29-6.65-32.29-7.26a184.41 184.41 0 0 0 -33.31.81c-10.64 1.36-21.48 4.19-30.93 9.4-8.71 4.79-13.75 12.2-14.76 22.13-1.79 17.43 2.26 52.3 25.23 54.38 7.11.64 5.26-10.86-.79-11.41z" fill="#caa485"/><path d="m158.63 122.35a36.17 36.17 0 0 1 6.9-23.85l-8.53-7.79c-6.11 9.7-7.57 20.85-5.47 32l4.43-6.55c-4.12-.71-8.52-1.37-12.16-3.58-4.47-2.73-5.24-8.16-4.46-13 1.36-8.4 7.69-15.71 14.75-20.09 8.75-5.42 18.9-7.62 28.92-9.37q16-2.79 32.21-4.93c41-5.37 86.37-6 122.4 17.38 7.55 4.88 20.27 12.81 20.82 22.89.68 12.17-13.42 17.21-23.17 17.58l6.32 9c4.1-7.61 3.72-16.12 2.16-24.38-1.85-9.78-4.49-19.45-6.79-29.13l-7 5.51a29.86 29.86 0 0 1 11.74 34.2l9.66 5.42a82.91 82.91 0 0 0 -1.55-31.42l-5.73 6.2c5.91 1.93 9.23 6.45 9.13 12.68l6-4.72a8 8 0 0 0 -6.63-.74l5.88 3.35c-7.15-14.24-20.67-23.52-35.26-29-16.42-6.22-34.27-10-51.51-13.12-17.92-3.26-36.2-4.89-54.39-3.4-17.73 1.46-34.77 6.56-51.65 11.88-7.83 2.47-16.12 4.92-21.15 11.91-4.79 6.65-6 14.89-6.79 22.85a7.17 7.17 0 0 0 4.11 7.42 4.24 4.24 0 0 0 5.94-3.29 38.67 38.67 0 0 1 22.51-31.33l-8-5.88c0 .87-4.65 4.33-5.89 5.59a42.34 42.34 0 0 0 -5.92 7.66 43 43 0 0 0 -6.21 19.29c-.46 5.91 7.87 11.68 10.05 4.13 3.87-13.41 11.78-32.39 26.84-35.94 8.16-1.92 16.74-2.61 25-3.82 8.77-1.28 17.53-2.64 26.34-3.63a162 162 0 0 1 53.09 2.67c8.78 1.91 17.42 4.34 26 6.88 7.95 2.34 16.51 4.28 23.74 8.45l3.07-10a115.93 115.93 0 0 0 -19.38-6.12c-3-.67-4.81 2.54-4.7 5.06a7 7 0 0 0 5.49 6.35 101.47 101.47 0 0 1 16.8 5.38c6.31 2.64 7.83-7.26 3.07-10-8.22-4.74-17.19-7.19-26.23-9.86-9.47-2.79-19-5.48-28.64-7.57a172.77 172.77 0 0 0 -57.55-2.4c-10.05 1.19-20.05 2.77-30.06 4.23-8.28 1.24-17.42 1.6-25.18 4.85-15.37 6.41-23.46 26.56-27.72 41.35l10.05 4.13a34.62 34.62 0 0 1 7.86-20c4.42-5.24 10.11-7.86 10.3-15.45.1-3.87-4.33-7.58-8-5.88a47.08 47.08 0 0 0 -26.75 37.69l10 4.13c.63-6.07 1.14-12.78 4.57-18 3.88-5.94 11.2-7.78 17.58-9.78 14.77-4.64 29.67-9.15 45.09-11 32-3.88 65.24 3 95.9 11.85 15.45 4.48 31.56 11.28 39.17 26.42.91 1.81 3.65 4.05 5.89 3.36l1.43.09c3.49 2 6-1.77 6-4.71a26 26 0 0 0 -17.5-24.67c-4.29-1.4-6.68 2.28-5.73 6.2a67.29 67.29 0 0 1 1.13 25.6c-.67 4.72 7.41 12 9.66 5.42 6.31-18.29-.48-39.4-16.69-50.23-4.33-2.89-8.06 1-7 5.51 1.93 8.1 3.94 16.2 5.79 24.32 1.59 7 2.79 14.17-.77 20.77-2.28 4.21 2.1 9.2 6.31 9 11.33-.43 22.82-5.48 27.79-16.26s.67-22.26-7-30.58c-16-17.53-40-27.62-62.8-32.73-26.5-5.93-54.06-4.75-80.84-1.45-13.72 1.65-27.52 3.65-41.1 6.34-11.53 2.28-23.1 5.89-32.2 13.62-9.3 7.9-15.25 20.16-13.09 32.47 2.53 14.38 14.38 19.54 27.4 21.78 4 .69 5-3.66 4.42-6.56-1.57-8.33.64-16.51 5.09-23.58 2.79-4.43-5-12.73-8.55-7.8a47.52 47.52 0 0 0 -9.24 31.45c.4 6.52 10.67 9.1 10.18 1.28z" fill="#dd9b62"/><path d="m186.08 46.9c6.79-5.61 16.17-6.49 24.6-7.27a270.7 270.7 0 0 1 29-1.13 288.58 288.58 0 0 1 58.34 7c5.39 1.21 5.33-6.66 2.88-9.34-7.6-8.3-17.8-12.32-28.47-15.1a130.58 130.58 0 0 0 -36.61-4.11 119 119 0 0 0 -35 5.86c-8.9 3-17.13 8.28-19.11 18.06-.66 3.26 2.75 9 6.72 7.75a215 215 0 0 1 66.12-10.74c7.14 0 5.28-11.42-.79-11.41a222.57 222.57 0 0 0 -68.71 10.79l6.74 7.74c1.55-7.65 11.1-10.64 17.65-12.4a123 123 0 0 1 30.33-4.3 125.45 125.45 0 0 1 29 3.08c9.13 2.06 19.06 4.95 25.58 12.06l2.88-9.35a287.33 287.33 0 0 0 -64-7 271.89 271.89 0 0 0 -30.19 1.65c-9.13 1.06-17.62 3.37-24.82 9.3-4.66 3.85 2.66 13.17 7.85 8.89z" fill="#dd9b62"/><path d="m292.66 34.55a40.78 40.78 0 0 1 9.59 7.82l1.08-3.5-4.32-1c-2.57-.59-1.9 3.78.29 4.28l4.33 1c2 .46 2-2.51 1.08-3.51a44.65 44.65 0 0 0 -10.44-8.58c-2.51-1.49-3.74 2.23-1.61 3.49z" fill="#dd9b62"/><path d="m173.83 266.51.32 2.24 5.1.64c-.63-3.82 5.71-7.54 6.16-2.5.31 3.48-4.45 3.37-6.52 3.6l-2.48-1-.15-.35 1-3.05-.42.24 3.55 1.46-1.66-2.91-1.26 4a39.59 39.59 0 0 1 9.35-.67l-1-5.69a19.27 19.27 0 0 1 -6.66.61l.39 5.7a71.12 71.12 0 0 0 12.63-.48l-1.69-5.67a30.89 30.89 0 0 1 -9.74-.05l1 5.69 11.77-1.88c3.3-.52 1.33-6.14-1.69-5.68l-11.52 1.77c-3.08.47-1.53 5.53 1 5.69l10.23.65-.39-5.7h-12.52l.39 5.71 18.1-.05-1-5.69-16.72.86c-3 .16-1.59 5.68 1 5.69l16.65.11-1.65-5.48-14.81 5.3c-2.85 1-.18 5.76 2.3 5.46a82 82 0 0 0 14.35-3c3.36-1 1.24-5.75-1.69-5.68l-13.25.3 1.69 5.68a79.2 79.2 0 0 0 20.35-3.88c3.18-1.05 1.38-6.14-1.68-5.68l-7.77 1.17c-3.35.51-1.3 6 1.69 5.68l15-1.42c3-.28 1.59-5.73-1-5.69a157.38 157.38 0 0 1 -17.23-.7l.39 5.71 21.53.88-1-5.7-11.75.45 1.69 5.68q11.6-.78 23.2-.62l-1-5.69a99.1 99.1 0 0 1 -15.46 1.8l1.69 5.68a99.14 99.14 0 0 1 17.4-.36l-1-5.69a193.39 193.39 0 0 0 -34.04 3.69l1.69 5.68 21.36-4.61c3-.65 1.59-5.53-1-5.7l-41.2-2.59 1 5.69q32.69-.81 65.32 1.44c10.26.71 20.52 1.54 30.81 1.42s20.41-1.84 30.39.77l-1-5.69c-14 2.35-27.38 1.11-41.2-1.83-10.91-2.32-22.35-3.87-32.48 1.9-2.41 1.37-.58 5.11 1.65 5.48a31.79 31.79 0 0 1 14.91 6.56l1.53-5a142.17 142.17 0 0 0 -14.71-7.1c-3.59-1.48-3.52 4-.91 5.36a137.15 137.15 0 0 1 14.88 9c3.24 2.25 4.73-2.7 2.16-4.66a17.16 17.16 0 0 1 -3.93-4l-3.18 3.49a14.87 14.87 0 0 1 5 5.44l4.2-2.33a5.3 5.3 0 0 1 -.9-4.31l-4.61.14.9 3.2c.15 2.19 3.51 4.8 4.86 2l2.86-5.91-4.82-2.71-1.75 5.95c-.71 2.43 2.47 5 4.48 3.25l7.28-6.2-4.28-3.9a29.74 29.74 0 0 1 -4 5.69c-1.77 2 .43 5.22 2.8 5.06s3.17-1.44 4.84-2.72c3.12-2.38 7.66-2.41 11.51-3 3.31-.51 1.33-6.08-1.69-5.68l-11.29 1.48c-3.48.46-11.08 2.42-12.85-2l-1 3.05.51-.52 1.7-2.52a22.66 22.66 0 0 1 -13.37-.23c-3.6-1.18-3.88 4.37-.92 5.35 6.05 2 13.76 4.44 16 11.09.67 1.94 4.76 3.95 4.93.6l.11-2.22-5.01-1.35a68 68 0 0 1 1.06 10.36c.09 3.29 5 4.55 5.09.64a68.58 68.58 0 0 1 .89-9.7l-5.06-1.35-.05 13c0 2.68 4.69 4.81 5.06 1.36l1.26-11.88-5.06-1.35a55.79 55.79 0 0 1 -2 15.15l4.92.61.1-3.66-5-2.06a84.55 84.55 0 0 1 -2.15 13.41l5.06 1.35a10.74 10.74 0 0 1 .91-5.67l-4.83-2.71c-.32 3-.64 6.81-2.19 9.42-1.71 2.85-5.11 4.65-8 6.09-5.9 2.93-12.62 4.3-19.1 5.27a102.67 102.67 0 0 1 -39.08-1.91 2 2 0 0 0 -1.77.63 6.18 6.18 0 0 0 .93 8.31c3.47 3.33 9.54 1.89 13.8 1.64l44.59-2.65c14.26-.84 28.78-2.44 43-.73 6.57.79 25.87 8.16 24.55-5.39-.31-3.2-5.24-4.6-5.09-.64l.27 7.18 5.1.64c-1.58-11.22-13.76-10.33-22.37-12-11.05-2.11-22.33-6.87-28.33-16.88l-3.73 3c7.57 9.52 15.87 19 28.24 21.74l-.39-5.71c-9.87-1.19-21.46-2.65-26.66-12.34l-3.18 3.49a85.64 85.64 0 0 0 17 11c3.43 1.7 3.51-3.93.91-5.35a97.7 97.7 0 0 1 -12.58-8.26 2.29 2.29 0 0 0 -3.49 2.75c2.6 7-8.76 6.11-12.06 5.66l.39 5.71 15.48.58c3.57.14 2.63-5.45-.4-5.7l-5.43-.46.39 5.7 13.74.82-1-5.69a475.06 475.06 0 0 0 -73.47 8.7c-3.15.62-1.44 5.33 1 5.69a161.29 161.29 0 0 0 57.15-1.81c3.37-.71 1.26-5.9-1.69-5.67a130.78 130.78 0 0 1 -20 0l.4 5.7a291.64 291.64 0 0 0 31.67-2.2l-1.69-5.68-3.45 1c-2.83.81-1.73 5.73 1 5.7l14.79-.18-1-5.7a211.83 211.83 0 0 1 -31 3.58l1.69 5.67 48.21-4.49-1.74-5.73a49 49 0 0 1 -12.59 1.45l1 5.69a57.32 57.32 0 0 1 16.72 1.29l-1-5.69c-13.91 2.2-27.95 2.68-42 3.09l1.68 5.68a144 144 0 0 1 45.76 1.23 2 2 0 0 0 2.12-1.18v-.34c3 2.5 4.63-2.59 2.15-4.66-2.32-1.93-5.81-1.43-6.79 1.64l2.12-1.17a148.56 148.56 0 0 0 -47.05-1.2c-3.43.45-1.21 5.76 1.68 5.68 14.05-.41 28.1-.89 42-3.09 3.32-.52 1.23-5.18-1.05-5.69a61.56 61.56 0 0 0 -18-1.27c-3.05.22-1.57 5.64 1 5.69a53.59 53.59 0 0 0 13.88-1.47c3.34-.82 1.29-6-1.68-5.68l-48.14 4.54c-3.37.31-1.27 5.8 1.69 5.67a210.45 210.45 0 0 0 31-3.57c3-.57 1.62-5.72-1-5.69l-14.79.18 1 5.69 3.45-1c3.26-.93 1.33-6.06-1.69-5.68a280.59 280.59 0 0 1 -30.38 2.18c-3.55.05-2.66 5.47.4 5.7a137.43 137.43 0 0 0 21.32-.02l-1.69-5.67a157.5 157.5 0 0 1 -55.82 1.81l1 5.7a475.06 475.06 0 0 1 73.47-8.7c3.07-.13 1.53-5.54-1-5.7l-13.74-.81c-3.57-.21-2.63 5.45.39 5.7l5.44.46-.4-5.7-15.47-.59c-3.61-.14-2.58 5.3.39 5.71 4.66.63 10 1.16 13.83-2.12a8.91 8.91 0 0 0 2.67-10.1l-3.49 2.76a104.24 104.24 0 0 0 13.82 8.95l.91-5.35a80.3 80.3 0 0 1 -15.83-10.35c-2.44-2-4.32 1.35-3.17 3.49 6.26 11.66 19.16 14.25 31.25 15.72 3.65.44 2.42-5.08-.39-5.71-10.79-2.41-18-11.43-24.58-19.66-2.11-2.66-5.36.26-3.74 3 4.59 7.65 11.53 13 19.73 16.42a67 67 0 0 0 12.48 3.69c4 .82 16.84.43 17.59 5.77.44 3.11 5.25 4.66 5.1.64l-.28-7.18-5.09-.64c.6 6.16-11 1.86-13.44 1.36a86.09 86.09 0 0 0 -12.9-1.58 223.53 223.53 0 0 0 -25 .54l-55.49 3.29c-2 .12-4 .26-5.94.35a33.58 33.58 0 0 1 -4 .12q-2.52 1.32.72 1.29c3.23 1.7 9.36 1.58 12.89 1.86a105.94 105.94 0 0 0 24.78-.95c7.66-1.22 15.57-3.07 22.27-7.15 2.44-1.48 5.1-3.11 6.5-5.6 1.87-3.34 2.54-7.77 2.93-11.51.25-2.29-3.58-6-4.82-2.71a20.38 20.38 0 0 0 -1.37 8.39c.1 2.73 4.23 4.74 5.05 1.36a83.39 83.39 0 0 0 2.16-13.42c.23-2.93-4.05-5.87-5-2.06a12 12 0 0 0 .11 6.57c.64 2.48 4.13 3.49 4.92.6a61 61 0 0 0 2.12-16.57c0-2.67-4.69-4.83-5.06-1.36l-1.27 11.88 5.06 1.35.05-13c0-2.69-4.5-4.8-5.06-1.36a76.92 76.92 0 0 0 -1 11.13l5.09.64a68 68 0 0 0 -1.06-10.36c-.4-2.24-4.86-5.12-5-1.35l-.12 2.23 4.92.61c-3.06-9-11.51-12.81-19.93-15.59l-.92 5.35a27.14 27.14 0 0 0 16 .56 2.34 2.34 0 0 0 1.7-2.52c-.06-4.19-4.59-7.88-8.51-5.37a2.61 2.61 0 0 0 -1 3.05c4.79 12.05 21 6.65 30.65 5.38l-1.69-5.68c-3.24.5-6.85.6-9.93 1.71-2.22.79-4.14 3.86-6.42 4l2.81 5.06a35.2 35.2 0 0 0 4.71-6.77c1.32-2.44-2-5.84-4.27-3.9l-7.29 6.2 4.48 3.26 1.74-6c.74-2.52-3.39-5.66-4.83-2.71l-2.86 5.91 4.86 2a14.08 14.08 0 0 0 -1.72-6.17c-1-1.8-4.29-2.57-4.62.13a13.39 13.39 0 0 0 1.73 8.7c1.86 3.26 6 1 4.2-2.33a21.45 21.45 0 0 0 -7-7.76c-2.38-1.62-4.75 1.22-3.18 3.49a26.61 26.61 0 0 0 6 6.33l2.16-4.66a147.91 147.91 0 0 0 -16.13-9.7l-.91 5.36a138.2 138.2 0 0 1 14.71 7.1c3.14 1.74 3.5-3.47 1.54-5a37.59 37.59 0 0 0 -17.47-7.61l1.66 5.48c11.16-6.36 23.76-2.64 35.51-.26a101.11 101.11 0 0 0 36.95.62c3.39-.57 1.16-5.12-1-5.7-9.8-2.55-19.79-1-29.76-.79-11.14.2-22.26-.78-33.37-1.52-21.53-1.43-43.11-1.82-64.69-1.29-3 .07-1.53 5.53 1 5.69l41.2 2.6-1-5.69-21.53 4.6c-3.28.7-1.32 6.28 1.69 5.68a193.39 193.39 0 0 1 33.85-3.76c3-.07 1.52-5.52-1.05-5.69a105.13 105.13 0 0 0 -18.69.38c-3.39.36-1.25 5.79 1.69 5.68a100.31 100.31 0 0 0 15.46-1.8c3-.59 1.62-5.66-1-5.7q-12.27-.17-24.5.65c-3.32.22-1.29 5.79 1.69 5.68l11.75-.45c3-.11 1.56-5.58-1-5.69l-21.53-.88c-3.58-.15-2.62 5.42.39 5.71a157.38 157.38 0 0 0 17.23.7l-1-5.7-15 1.42 1.69 5.68 7.76-1.17-1.68-5.68a79.36 79.36 0 0 1 -20.36 3.88c-3.33.2-1.27 5.75 1.69 5.68l13.25-.3-1.69-5.68a82.73 82.73 0 0 1 -14.35 3.05l2.3 5.46 14.8-5.3c2.5-.9.53-5.46-1.65-5.48l-16.64-.1 1 5.69 16.67-.86c3-.16 1.6-5.7-1-5.69h-18.09c-3.57 0-2.65 5.7.39 5.71h12.52c3.56 0 2.65-5.51-.39-5.7l-10.23-.65 1 5.69 11.52-1.77-1.69-5.68-11.8 1.92c-3.22.52-1.37 5.31 1 5.7a34.65 34.65 0 0 0 11 0c3.32-.51 1.33-6.06-1.69-5.67a65 65 0 0 1 -11.33.45c-3.58-.17-2.64 5.49.39 5.7a24.75 24.75 0 0 0 7.95-.63c3-.73 1.65-5.56-1-5.7a45.23 45.23 0 0 0 -10.64.7c-1.85.35-2 2.65-1.25 4l1.66 2.9c.67 1.17 2.2 2.21 3.56 1.46l.42-.23a2.63 2.63 0 0 0 1-3.05c-1.39-5.69-8.13-3.35-6.26 2.24 1.81 5.4 9.64 7.17 13.64 3.08s1.76-11.31-2.84-13.86c-6.17-3.41-12.51 2.66-11.47 9 .52 3.13 5.66 4.54 5.1.64l-.33-2.24c-.46-3.19-5.65-4.51-5.09-.64z" fill="#ebcc64"/><path d="m269.27 262.12-7.62-1.48 1 5.69a135.84 135.84 0 0 1 18 .79c3.55.39 2.63-5.37-.39-5.7a145.13 145.13 0 0 0 -19.33-.77c-3.28.09-1.25 5.25 1 5.7l7.61 1.48c3.47.67 2.56-5.13-.39-5.71z" fill="#ebcc64"/><path d="m270.86 240.53c.87-3.62 4.95 1.25 5.65 2.31 1.74 2.61 5.24 1.83 4.51-1.59a12.07 12.07 0 0 0 -8.66-8.9c-4.1-1.11-8.47.67-8.87 5.28-.17 2 2.42 5.58 4.47 3.25 5.07-5.74 15.7-2.33 12.64 6.13l4.86 2a43.47 43.47 0 0 0 -1.68-8.6c-1-3.36-5.81-3-4.82.85a22.72 22.72 0 0 1 .05 11.26l2.32-1.82a91.92 91.92 0 0 0 -14.61-1.65l2.75 3.17-.14-10.51-5.09-.64a90.11 90.11 0 0 1 .91 14.68l5.09.64a110.39 110.39 0 0 0 -2.81-14.65l-4.82.85a58.29 58.29 0 0 0 4.39 10.78c.93 1.76 4.39 2.6 4.61-.13l.79-9.52-5.06-1.35v9.08c0 2.68 4.73 4.82 5.06 1.36a27.34 27.34 0 0 1 1.69-7.36l-4.86-2 1 8.44c.29 2.41 4.72 5 5.06 1.35l.85-9.27-5.06-1.35 1.36 8.33c.37 2.3 4.73 5.11 5.06 1.35l.68-7.91-4.61.13a22.28 22.28 0 0 1 1.8 5.63c.4 2.26 4.69 5.14 5.06 1.35.6-6.21-4.58-9.67-8.81-13.31l-.88 5.19c2.94.15 6.82 2.05 6.84 5.55 0 2.86-5.3 3-7.54 3.14-3 .2-1.59 5.7 1 5.69 3.6 0 9.77 1.37 12.69-1.17a2.74 2.74 0 0 0 .45-2.65l-.09-.37c-.82-3.44-5.73-2.95-4.82.85l.09.37.45-2.64a32.38 32.38 0 0 1 -4.18-.12h-5l1 5.69c2.87-.19 7.22-.62 9.48-2.68 1.91-1.75 1.78-4.83 1.21-7.18a13.39 13.39 0 0 0 -12.07-10.21c-3.19-.16-2.55 3.75-.89 5.18s6.18 4.14 5.94 6.59l5.06 1.35a33.64 33.64 0 0 0 -2.69-8.59c-.87-1.86-4.39-2.52-4.61.13l-.69 7.91 5.06 1.35-1.36-8.33c-.38-2.3-4.71-5.1-5.06-1.35l-.85 9.26 5.06 1.36-1-8.44c-.24-1.94-3.69-5.05-4.86-2a32.24 32.24 0 0 0 -2.08 8.65l5.05 1.35v-9.07c0-2.68-4.77-4.81-5.06-1.35l-.78 9.52 4.61-.13a50.39 50.39 0 0 1 -3.76-9.31c-1-3.37-5.81-3-4.82.85a101.22 101.22 0 0 1 2.54 13.16c.39 3.17 5 4.63 5.09.64a89 89 0 0 0 -.91-14.68c-.45-3.11-5.15-4.67-5.09-.64l.13 10.51c0 1.35 1.3 3.13 2.75 3.17a94.31 94.31 0 0 1 14.6 1.65 2.09 2.09 0 0 0 2.31-1.82 28.93 28.93 0 0 0 -.25-14.17l-4.82.85a35.81 35.81 0 0 1 1.41 7.11c.18 2 3.76 5 4.86 2 4.67-12.89-11.34-25.07-21.19-13.93l4.48 3.25c.22-2.54 3.22-2.12 4.75-1.33a5.31 5.31 0 0 1 2.93 3.74l4.51-1.59c-1.94-2.91-4.36-6.34-8.15-6.79a6 6 0 0 0 -6.73 4.74c-.73 3 4.14 5.74 5 2.07z" fill="#eb682b"/><path d="m267.4 238.74a9.59 9.59 0 0 1 11.13 1.26c3.25 3 3.53 8 2.08 12-1 2.81 3.41 6.67 4.63 3.35 2.34-6.38 1.52-13.86-3.36-18.9a14.61 14.61 0 0 0 -17.39-2.88c-2.78 1.53.12 6.78 2.91 5.25z" fill="#eb682b"/><path d="m296.42 240.27c5.73-2.73 9.9 1.42 10.62 7 .12.87.69 3.17.3 4-.72 1.44-2.7 1-3.94 1l-9.09-.21 2.51 4.53c2.48-5 5.82-12.22 3-17.69-1.16-2.23-5-2.23-4.65.85l1.52 12.19c.4 3.17 5 4.63 5.09.64l.19-9.94-4.19 1.5c1.51 2 2 4.52 2.37 6.92.53 3 5.31 4.71 5.09.64a32.29 32.29 0 0 1 .56-7.79l-4.92-.61a65.85 65.85 0 0 1 1.42 8.25l5.09.64-.86-6.65-4.64.85a15 15 0 0 1 2.18 5.12l4.51-1.59q-3.51-6.39-6.61-13l-2.55 3.84c.85.46 1 2.21 1.2 3.07.77 3.45 5.67 2.95 4.82-.85-.74-3.33-2.05-5.93-5.11-7.58-2.55-1.37-3.34 2.17-2.55 3.84q3.09 6.6 6.6 13c1.55 2.84 5.25 1.68 4.51-1.59a19.67 19.67 0 0 0 -2.8-6.6c-1.28-1.95-5.07-2.43-4.65.84l.86 6.65c.41 3.17 5.51 4.56 5.09.64a76.28 76.28 0 0 0 -1.69-9.74c-.57-2.36-4.34-3.63-4.92-.61a37.52 37.52 0 0 0 -.63 9.22l5.09.64c-.71-4.12-1.62-7.81-4.18-11.2-1.56-2.05-4.14-.81-4.18 1.5l-.19 9.94 5.09.64-1.52-12.19-4.64.84c.82 1.59-.6 5-1.11 6.53a47.86 47.86 0 0 1 -2.32 5.48c-.81 1.65.53 4.48 2.51 4.53l9.09.21c1.95 0 5 .67 6.76-.6 3.13-2.3 1.86-8.35 1.27-11.47-1.61-8.63-9.69-14.93-18.31-10.83-2.85 1.36 0 6.62 2.91 5.25z" fill="#eb682b"/><path d="m249.44 253.22c-.8-3.77-1.23-19.34 7-14.84l-1-5.3c-8.37 3.43-4.33 17.1-.78 22.55 1.72 2.65 5.22 1.81 4.51-1.59a42.5 42.5 0 0 1 -.76-12.12l-5.06-1.35c.42 4.07 1.68 8.88 1.29 13l1.06-1.59c-.06 0-3.19-1.24-3.56-1.32a14.85 14.85 0 0 0 -4.75-.16l3.35 3.87 2.44-12-5-2.06a63.42 63.42 0 0 1 -2.18 11.22l5 2.07.92-5.91-4.15.78a6.77 6.77 0 0 1 1.78 3.47c.78 3.45 5.68 2.95 4.83-.85a13 13 0 0 0 -3.33-6.25c-1.29-1.39-3.8-1.47-4.15.78l-.93 5.91c-.47 3 4 5.74 5 2.07a63.35 63.35 0 0 0 2.21-11.26c.31-3-4.25-5.87-5-2.06l-2.43 12a3.33 3.33 0 0 0 3.36 3.88c2.84-.29 4.4 1.2 7 1.55a3.11 3.11 0 0 0 3.43-1.45c.9-1.67 0-4.74-.14-6.45l-.88-8.58c-.26-2.47-4.77-5-5.06-1.35a52 52 0 0 0 1 15l4.51-1.59c-2.17-3.32-5.94-12.75-.51-15 2.49-1 .5-4.48-1-5.3-4.28-2.33-9.22-.26-11.59 3.77-3 5.08-2.35 11.77-1.18 17.28.73 3.47 5.62 3 4.82-.85z" fill="#eb682b"/><path d="m186.45 226.63-1.29.86a2.32 2.32 0 0 0 -1 1.59 3.54 3.54 0 0 0 2 3.71 2.2 2.2 0 0 0 1.91 0l1.28-.86a2.3 2.3 0 0 0 1.06-1.59 3.54 3.54 0 0 0 -2-3.71 2.2 2.2 0 0 0 -1.91 0z" fill="#caa485"/><path d="m162.67 256.81a49 49 0 0 0 -.3 15l4.95-.11-.95-2.61c-1.19-3.23-5.87-3-4.83.85a30.87 30.87 0 0 1 1.07 8.54l4.64-.84a13.2 13.2 0 0 1 -1.65-4.42c-.69-3.47-5.58-3-4.82.85a17.92 17.92 0 0 0 2.28 5.9c1.36 2.31 4.62 2.19 4.64-.85a36.57 36.57 0 0 0 -1.33-10l-4.83.85 1 2.61c.91 2.49 5.46 3.61 5-.1a44.42 44.42 0 0 1 .23-13.57c.52-3-4.38-5.79-5-2.07z" fill="#caa485"/><path d="m193.65 252.6c3.57 0 2.64-5.7-.4-5.7-3.57 0-2.64 5.7.4 5.7z" fill="#eb682b"/><path d="m191.33 252v1.16l5.1.64c-.23-2.61-1.74-8.31.51-10.36 1.56-1.41 3.72-.11 4.61 1.34 1 1.71 1.06 4.13 1.22 6 .21 2.51 4.81 4.93 5.06 1.35a21.12 21.12 0 0 0 -4.12-14.24c-2-2.76-5.33.27-3.74 3a18.16 18.16 0 0 1 2.35 12.11l2.32-1.82h-7.53l2.71 3.89a47.17 47.17 0 0 0 1.43-10.51l-5 .11c.62 1.85-.21 3.9.47 5.83a5.56 5.56 0 0 0 3.28 3.5c3.87 1.23 6-2.9 5.38-6.15-.43-2.28-1.75-4.44-2.74-6.5-.81-1.71-1.51-3.65-3.23-4.65-3.5-2-6.29.82-7.71 3.83-1.13 2.4 2 6 4.27 3.9.43-.39 2-1.9 2.7-1a2.44 2.44 0 0 0 3.6.4c1.11-1.18.49-2.93-.32-4-2.73-3.71-7-2.53-9.9.16l4.28 3.9c.26-.56.62-1.07.88-1.62s1.07-.33.24-.67c.67.27 1.95 4.06 2.24 4.68a6.62 6.62 0 0 0 1.19 2.16c1 .94.57.18.63-.8a9.33 9.33 0 0 0 -.42-3.82c-.93-2.79-4.85-3.45-5 .1a40.35 40.35 0 0 1 -1.36 9.08c-.39 1.49 1 3.89 2.71 3.89h7.56a2.14 2.14 0 0 0 2.32-1.82 25.08 25.08 0 0 0 -3.22-16.44l-3.74 3a13.05 13.05 0 0 1 2.37 8.54l5.06 1.35c-.5-6-3-15.22-11-14.32-7.69.87-6 10.75-5.54 16 .29 3.24 5 4.58 5.1.64v-1.16c.1-3.3-5-4.53-5.09-.64z" fill="#eb682b"/><path d="m201.3 243a2.86 2.86 0 0 0 1.36-2.8 3.86 3.86 0 0 0 -2.66-3.48 2.27 2.27 0 0 0 -1.91.31 3.58 3.58 0 0 0 -.82.73 4 4 0 0 0 -.79 2.76 3.75 3.75 0 0 0 .91 2.13 3 3 0 0 0 1.83 1 2.09 2.09 0 0 0 1.78-.65 2.63 2.63 0 0 0 .58-1.91 1.55 1.55 0 0 1 0-.22v.71a1.5 1.5 0 0 1 .06-.29l-.2.65a1.5 1.5 0 0 1 .16-.34l-.35.54a2.09 2.09 0 0 1 .24-.28l-.5.41a1.22 1.22 0 0 1 .38-.22l-1.91.05h.05l-.62-.35-.55-.51.07.08-.46-.65a.36.36 0 0 1 0 .09l-.31-.74a.23.23 0 0 1 0 .11l-.13-.75v.12-.72.17l.19-.65a.3.3 0 0 1 0 .1l.35-.54a.58.58 0 0 1 -.1.12l.5-.41-.09.06a2.2 2.2 0 0 0 -1.06 1.59 3.56 3.56 0 0 0 2 3.71 2.46 2.46 0 0 0 1.92-.05z" fill="#eb682b"/><path d="m194.54 245.08a10.39 10.39 0 0 1 -.51 1.19c-.09.18-.2.35-.29.52s-.07.12.09-.12l-.24.33 4.48 3.25a5 5 0 0 1 .08-.76c0-.09.23-.76.08-.41s.15-.32.18-.38c.11-.23.24-.45.37-.67a2.93 2.93 0 0 0 .1-2.1 3.68 3.68 0 0 0 -1.33-1.9 2.54 2.54 0 0 0 -1.93-.52 2.3 2.3 0 0 0 -1.47 1.17 7.37 7.37 0 0 0 -1.11 3.51 3.71 3.71 0 0 0 1.44 3.36c.85.56 2.32.88 3-.11a12 12 0 0 0 1.65-3 3.48 3.48 0 0 0 -1.24-4c-1.05-.7-2.87-.82-3.39.65z" fill="#eb682b"/><path d="m201.72 243.73a3 3 0 0 1 .11-.32q.19-.37-.09.09c0-.13.41-.43.5-.5a2.23 2.23 0 0 0 .57-1.54 3.7 3.7 0 0 0 -.43-1.84 6.4 6.4 0 0 0 -3.67-3.24l-.26 5.53h1.6a2.13 2.13 0 0 0 1.76-.63 2.63 2.63 0 0 0 .59-1.9c-.13-1.31-1.21-3.16-2.74-3.18h-1.61a2.16 2.16 0 0 0 -2.33 2.18 3.47 3.47 0 0 0 2.07 3.35s.47.19.49.18c-.37-.22-.43-.26-.18-.1l.21.16c.23.16-.53-.5-.08 0 .15.19.08.08-.21-.31.06.1.11.2.16.3l.14-3.38a3.89 3.89 0 0 0 -1.24 1.82 3.5 3.5 0 0 0 1.24 4c1 .68 2.92.85 3.4-.65z" fill="#eb682b"/><path d="m201.83 236.68a4.87 4.87 0 0 0 -4.09-.83 2.18 2.18 0 0 0 -1.47 1.16 3 3 0 0 0 -.09 2.11 3.57 3.57 0 0 0 1.33 1.9 2.41 2.41 0 0 0 1.92.51 3 3 0 0 1 .66-.13h-.65a2.63 2.63 0 0 1 .79.09l-.65-.17.31.11c.27.09-.61-.38-.21-.11a2.69 2.69 0 0 0 1.92.51 2.07 2.07 0 0 0 1.47-1.16 3.45 3.45 0 0 0 -1.24-4z" fill="#eb682b"/><path d="m208.8 234.18a21 21 0 0 1 5.2 16.35c-.25 2.4 3.22 5.86 4.83 2.71a16.86 16.86 0 0 0 1.68-10.87c-.8-4.23-3.5-6.89-5.3-10.62l-3.18 3.49a16.29 16.29 0 0 1 5.72 6.92 15.77 15.77 0 0 1 1.12 4c.08.55 0 5.09-.41 4.82l-.24 5.17 3.18-.25c3.29-.26 1.36-5.92-1.69-5.68l-3.18.25c-2.63.2-1.72 4.17-.23 5.17 6.1 4.09 8.24-4 7.7-8.61a23.55 23.55 0 0 0 -9.81-16.42c-2.59-1.85-4.27 1.25-3.18 3.49s3.09 4.22 4 6.64a11 11 0 0 1 -.85 9.18l4.83 2.71a28.41 28.41 0 0 0 -7-22.06c-2.58-2.94-5.59 1-3.27 3.64z" fill="#eb682b"/><path d="m181.12 252.7c-.6-2.8-1.47-7.72 2.4-8.54l-3.16-4.52a16.11 16.11 0 0 0 .28 15.61c1.21 2.15 5 2.29 4.65-.84l-.74-5.91-5 .1a41.31 41.31 0 0 0 3.42 7c1.61 2.59 5.5 1.81 4.51-1.59l-2.48-8.88c-1-3.38-5.91-2.92-4.82.85l2.58 8.85 4.51-1.59a33 33 0 0 1 -2.8-5.49c-.48-1.23-1.47-2.48-2.93-2.42a2.2 2.2 0 0 0 -2 2.53l.74 5.91 4.64-.84a10 10 0 0 1 .08-9.93c1-1.86-1-5-3.16-4.52-7.13 1.52-6.73 9.51-5.54 15.07.75 3.46 5.64 2.95 4.83-.85z" fill="#eb682b"/><path d="m216.27 256.44c3.57 0 2.64-5.7-.39-5.7-3.57 0-2.65 5.7.39 5.7z" fill="#eb682b"/><path d="m228.06 227.21q-.66-3 2.66-4 4.38-.56 5.78 3.57l3.5-2.78c-4.2-2.84-8.06 0-8.89 4.63a59.91 59.91 0 0 0 -.53 9.57v5.44c0 1.23 1.06 6.44.28 7.32-1.81 2.05.48 5.12 2.81 5.06l1 .21a2.18 2.18 0 0 0 3-2.36 52.49 52.49 0 0 1 -.21-15.58c.47-3.18 2.37-7.11.49-10.13a4.63 4.63 0 0 0 -5.46-1.95c-3.28 1.11-3.56 4.79-4.06 7.71l4.61-.14-1.42-3.26c0-1.53-.46-2-1.33-1.38l5-.1-1.66-4c-1-2.35-5.51-3.69-5 .1l.3 2.07c.46 3.19 5.65 4.51 5.09.64l-.3-2.07-4.95.1 1.66 4c1 2.35 5.55 3.68 5-.1-.57-3.59-3.13-9.91-8.09-7.6-5.25 2.44.17 10.79 1.54 13.93.88 2 4.18 2.38 4.61-.13a11 11 0 0 0 .06-5.1c-.3 1.18-.56 2.36-.78 3.55a55.87 55.87 0 0 0 -.75 6.32 59.2 59.2 0 0 0 .59 12.48l3-2.35a8.39 8.39 0 0 0 -3.61-.54l2.81 5.06c2.38-2.68 1-6.92.91-10.21q-.14-3.63 0-7.26c0-.25.34-10.5 2.16-9.28a2.29 2.29 0 0 0 3.49-2.75c-2.08-5.26-6.82-10.06-13-8.17-5.37 1.65-6.45 7.12-4.48 11.77 1.48 3.49 5.65 1.08 4.2-2.33z" fill="#eb682b"/><path d="m232.84 226.65a7.66 7.66 0 0 1 .81-1.77c-.13.21-.14.2 0 0l.27-.33a8 8 0 0 1 .77-.77l-3 .11-.28-.24c.16.21.16.2 0 0s-.37-.85-.21-.37c.42 1.27 1.75 2.77 3.25 2.41a2.44 2.44 0 0 0 1.57-3.26 7.11 7.11 0 0 0 -2.18-3.19 2.29 2.29 0 0 0 -3 .11 9.09 9.09 0 0 0 -2.56 3.94 3.5 3.5 0 0 0 1.24 4c1 .67 2.92.85 3.39-.65z" fill="#eb682b"/><path d="m248.53 219.76c2.92-.77 6.37-.07 8.12 2.61l2.55-3.84c-2.91-1.49-11.33-4.85-12.41.51a4.53 4.53 0 0 0 2.57 5.07c2.17.82 4.1-1.08 6.41-.31 3.58 1.19 3.87-4.37.91-5.36-1.84-.61-5.19-1.3-6.91.06-.88.22-.64.8.74 1.75.18 1.24.75 1.79 1.71 1.68a18.38 18.38 0 0 0 2 .36 18.8 18.8 0 0 1 4.08 1.6c2.36 1.21 3.67-2.12 2.55-3.84-3-4.65-8.47-7.42-14-6-3.25.85-1.27 6.45 1.69 5.68z" fill="#eb682b"/><path d="m255.77 223.35.46.2c.3.11-.42-.3 0 0l.42.29c.24.18.25.38 0-.06a4.85 4.85 0 0 0 .61.67c.25.27-.32-.56-.05-.07.09.17.2.35.29.53.59 1.15 2.29 2.25 3.55 1.46s1.29-2.53.65-3.79a9.74 9.74 0 0 0 -5-4.58 2.13 2.13 0 0 0 -3 1.65 3.57 3.57 0 0 0 2.06 3.71z" fill="#eb682b"/><path d="m258.07 220.48 2.4 4.44a1.38 1.38 0 0 0 1.77.73c.72-.38.59-1.28.32-1.89l-1.75-3.95-2.1 1.17.82 1.55a1.23 1.23 0 1 0 2.1-1.17l-.82-1.55a1.42 1.42 0 0 0 -1.78-.73c-.71.39-.59 1.29-.32 1.9l1.76 3.94 2.09-1.16-2.39-4.44a1.23 1.23 0 1 0 -2.1 1.16z" fill="#eb682b"/><path d="m208 225.51a5.63 5.63 0 0 1 6.42-4.6l-.82-2.74a13.25 13.25 0 0 0 -6.22 5.23c-.68 1 .78 2.71 1.88 2.15l4.9-2.46a2.47 2.47 0 0 0 1.45-3.14c-.28-1.46-2.53-1.67-2.47.06a8.36 8.36 0 0 1 -.36 2.81l.73-.58-.69-.12.62 2 .43-.35c1.42-.69 0-3.32-1.45-2.63a2.69 2.69 0 0 0 -1.3 1.3 1.74 1.74 0 0 0 .62 2 3.14 3.14 0 0 0 2.62.63 1 1 0 0 0 .73-.58 12.31 12.31 0 0 0 .59-4.17h-2.48s-5 2.32-5.39 2.55l1.88 2.15a11.31 11.31 0 0 1 5.36-4.29c1.33-.53.18-2.58-.83-2.74a7.75 7.75 0 0 0 -8.74 6.42c-.24 1.53 2.22 2.9 2.52 1z" fill="#eb682b"/><path d="m188.79 224.71a20.6 20.6 0 0 1 3.07 5.14 2.8 2.8 0 0 0 3.25 1.57 2.46 2.46 0 0 0 1.26-3.15 44.8 44.8 0 0 0 -3.42-7.41c-.68-1.17-2.2-2.21-3.55-1.46s-1.33 2.63-.65 3.79a35.7 35.7 0 0 1 2.8 5.93l4.51-1.59a26.11 26.11 0 0 0 -4-6.46c-.86-1-2.6-1.5-3.6-.4s-.56 3 .33 4z" fill="#ebcc64"/><path d="m224.42 203.18 1.75 4.25c.53 1.3 1.66 2.71 3.25 2.42a2.43 2.43 0 0 0 1.57-3.26l-1.75-4.26c-.53-1.3-1.66-2.7-3.25-2.41a2.43 2.43 0 0 0 -1.57 3.26z" fill="#ebcc64"/><path d="m275.8 211.44a18.4 18.4 0 0 1 -1.18 8.34l4.86 2-.55-7.58c-.24-3.25-5.38-4.54-5.1-.63l.55 7.57c.15 2 3.71 5 4.87 2a24.72 24.72 0 0 0 1.65-11.06 3.45 3.45 0 0 0 -2.75-3.17 2.21 2.21 0 0 0 -2.35 2.53z" fill="#ebcc64"/><path d="m194 429c.46 12.94.95 25.87 1.4 38.82.21 6.12-.06 10.23-6.35 12.41-3.4 1.17-6.24 2.16-8.06 5.46-.94 1.71.64 4.36 2.51 4.53a99.34 99.34 0 0 0 36.67-3.22c3.49-1 6.69-1.5 6.77-5.64.11-6.43-1.32-13.11-1.54-19.57-.24-6.81-.16-13.63.26-20.42.27-4.26 2.38-10.86-.08-14.75-2-3.18-5.59-2.82-8.7-1.79a74.35 74.35 0 0 1 -8.12 2.45 47.45 47.45 0 0 1 -5 .81l-2.11.13c-1.47-.78-1.86-.59-1.14.57l-4.93-.61c4.25 11.73 4.24 24.1 4.09 36.42l5.09.64a119.73 119.73 0 0 1 3.24-33.56l-5.06-1.35a301.87 301.87 0 0 0 1.56 33.67c.33 3.19 5.25 4.61 5.09.64a174.22 174.22 0 0 1 1.55-31.29l-5.06-1.35 1.1 28.38c.11 2.62 4.87 4.85 5.06 1.35a168.93 168.93 0 0 1 3.23-24.63l-5.06-1.35q.74 12.12.39 24.25l5.09.63a97.8 97.8 0 0 1 2.58-23.63l-4.93-.61c2.05 7.54 1.45 15.2.74 22.89-.29 3 4.63 5.82 5 2.07a164.42 164.42 0 0 1 6.72-32.77l-4.86-2-.45 51.36c0 3.31 4.91 4.51 5.1.64l.48-10.44-5.09-.64.91 7.83c.37 3.17 5.26 4.63 5.1.64l-.23-5.75-4.65.84c4.37 7.35-.9 15-8.86 15.58l2.81 5.06a54 54 0 0 0 9.88-33.17l-5 .1a68.58 68.58 0 0 1 1.71 13.22l5-.11-2.28-9.17c-.61-2.47-4.17-3.52-4.92-.61l-5.2 20.1 4.93.61a65.3 65.3 0 0 1 -1.25-19.62l-5.06-1.35a47.33 47.33 0 0 1 -3 18.14l4.72 1.26a37.74 37.74 0 0 1 .2-16.25l-5-2.06a61.66 61.66 0 0 1 -4.54 16.26l4.72 1.25a5.18 5.18 0 0 1 .48-4.54l-4.83-2.71a45 45 0 0 1 -4 10.14l4.72 1.25a21.3 21.3 0 0 1 .74-11c.91-2.71-3.17-6.74-4.63-3.36l-4.65 10.67 4.73 1.25a19.81 19.81 0 0 1 .45-9.52c.7-2.53-3.35-5.65-4.82-2.71l-7.51 15 4.63 3.36a183.48 183.48 0 0 1 11.17-24.66l-4.65-1.29a13 13 0 0 1 -1 9.08l4.63 3.36c.81-2.14 1.69-4.26 2.43-6.42.76-1.8.85-2.13.27-1l2.22 2.36c.9 1 2.58 1.58 3.6.4a24.65 24.65 0 0 0 5.72-12l-4.61.13a12.69 12.69 0 0 1 1.06 6.13l5.09.64c-.43-8.54-.47-17.21-1.33-25.72-.51-5.08-2.81-10.34-8.54-10.79-3.75-.29-2.32 5 .4 5.71a6.85 6.85 0 0 0 3.38.44c3.29 0 2.78-4.56.26-5.53l-.26-.09c-1.91-3.22-6.13-.93-4.2 2.33a5.92 5.92 0 0 0 3.55 3.12l.26-5.53a7 7 0 0 1 -3.39-.45l.4 5.71c4.6.36 3.46 12.19 3.62 15.27l.76 14.89c.17 3.29 4.95 4.55 5.09.64a19.26 19.26 0 0 0 -1.95-9.1c-.92-2-4.15-2.38-4.61.13a19.47 19.47 0 0 1 -4.62 9.6l3.6.4c-1.66-1.77-4.32-5.93-7.32-5.17-3.4.87-4.49 7.8-5.51 10.48s3.11 6.67 4.63 3.36a19.17 19.17 0 0 0 1.15-13.29c-.52-2.07-3.49-3.51-4.73-1.25a184 184 0 0 0 -11.17 24.66c-1 2.71 3 6.65 4.63 3.36l7.51-15-4.83-2.71a25.75 25.75 0 0 0 -.25 12.43c.4 2 3.69 3.66 4.72 1.26l4.6-10.67-4.63-3.36a28.81 28.81 0 0 0 -.93 15.21c.42 2.13 3.54 3.47 4.73 1.25a50.25 50.25 0 0 0 4.4-11.42c.65-2.51-3.43-5.73-4.82-2.71a12.07 12.07 0 0 0 -.67 8.74c.51 1.88 3.65 3.72 4.73 1.25a66.49 66.49 0 0 0 4.93-17.46c.41-3-4.2-5.82-5-2.06a44.7 44.7 0 0 0 0 19.21c.4 1.87 3.8 3.74 4.73 1.25a54.34 54.34 0 0 0 3.45-20.86c-.08-2.62-4.76-4.85-5.06-1.35a74.47 74.47 0 0 0 1.46 22.53c.54 2.52 4.18 3.47 4.92.61l5.19-20.18-4.92-.6 2.28 9.17c.7 2.84 5.08 3.41 5-.1a77.56 77.56 0 0 0 -2-14.71c-.67-2.87-5.08-3.38-5 .11a48.17 48.17 0 0 1 -8.71 29.37 3.27 3.27 0 0 0 2.8 5.06c12-.89 17.23-13.73 11.37-23.59-1.32-2.21-4.77-2.26-4.64.85l.22 5.75 5.1.64-.92-7.83c-.37-3.21-4.9-4.6-5.09-.64l-.49 10.44 5.1.64.44-51.36c0-2.1-3.94-4.93-4.86-2a170.4 170.4 0 0 0 -7.11 34l5 2.07c.81-8.69 1.38-17.29-.93-25.81-.65-2.38-4.23-3.6-4.93-.61a104 104 0 0 0 -2.6 25.15c0 3.3 5 4.53 5.09.63q.35-12.13-.39-24.24c-.16-2.64-4.34-4.83-5.06-1.35a168.74 168.74 0 0 0 -3.22 24.63l5.06 1.35-1.11-28.38c-.1-2.61-4.57-4.86-5.06-1.35a182.54 182.54 0 0 0 -1.61 32.71l5.09.64a302 302 0 0 1 -1.59-33.64c0-2.77-4.26-4.69-5.06-1.35a124.91 124.91 0 0 0 -3.29 35c.15 3.28 5 4.56 5.09.64.16-12.82.07-25.71-4.36-37.91-.73-2-4.48-3.91-4.92-.6-1.08 8.14 9 7.39 14.16 6.39a53.43 53.43 0 0 0 7.67-2.12c.84-.29 2.05-1.06 2.94-1 1.8.1.86-.26 1 1.66.49 5.4-.89 11.54-1 17q-.21 8.64.29 17.29.24 4.32.66 8.62c.09 1 .83 3.78.51 4.78.45 1.09 0 1.58-1.47 1.46l-1.74.51a96.08 96.08 0 0 1 -35.39 3.17l2.51 4.53c2-3.6 7.86-3.36 11-5.81 3.53-2.8 4-7.24 4-11.47 0-14-1-28.12-1.51-42.13-.12-3.28-5.23-4.55-5.09-.64z" fill="#706961"/><path d="m297.79 425-1.18 38c-.16 5.26-.63 9.7 2.44 14.2a36.58 36.58 0 0 0 9.88 9.41c2.39 1.6 4.75-1.22 3.18-3.49a15.32 15.32 0 0 0 -9.87-6.81c-3.38-.76-2.43 4.55-.26 5.53a8.73 8.73 0 0 1 4.19 3.63l1.9-4-23.22.05c-3.55 0-7.09 0-10.64 0-7 0-5.94-5-5.68-10q1.13-22.71.6-45.45l-3.62 2c5.14 4 11.12 3.56 17.25 2.93a34.68 34.68 0 0 1 6.44-.33c1.87.15 3.68.86 5.57.7a5 5 0 0 0 4.69-3.58c.66-2-1.24-5.78-3.77-4.3s-2.89 4.14-3.25 7c-.71 5.53-1.19 11.11-1.52 16.67a283.1 283.1 0 0 0 -.12 31.24c.13 2.6 4.83 4.87 5.06 1.36l2.31-35.77-5.06-1.35.8 31.61c.07 2.94-.41 7 2.27 9.12a3.52 3.52 0 0 0 5.16-.49 3.06 3.06 0 0 0 .14-3.38c-9.63-14.74-9.3-32.74-8.63-49.67.15-2.83-4.85-4.83-5.06-1.43l-2.7 53.09 5.06 1.35a346.66 346.66 0 0 1 -2.27-51.44l-5.1-.64c2.11 16-1.46 33-3.22 48.93l5.06 1.35a154.84 154.84 0 0 1 .64-48.14l-5-2.07a382.1 382.1 0 0 0 -4.26 49.06l5.09.64a244.45 244.45 0 0 1 -1-48.38l-5-2.06-3.78 52 5.06 1.35a247.07 247.07 0 0 1 -.73-47.72l-5.06-1.36c.36 15.39.65 30.79-1.21 46.1l5.06 1.35-.7-51.81c0-2.66-4.72-4.83-5.06-1.36l-2.87 30.09c-.78 8.22-2.58 17 .27 25 .89 2.52 5.48 3.58 5-.1a88.54 88.54 0 0 1 -.3-23.17l-4.93-.61c2.51 6.2 6.23 16 12.67 19.22a6.32 6.32 0 0 0 7.25-.72 5.27 5.27 0 0 0 1-1.39c.37-.76-.77-1.86 0-1.19 1 .84 1.36 2.6 2.37 3.58s3.13 1.67 3.95-.14a10 10 0 0 0 .94-5.59l-5 .11a12.81 12.81 0 0 1 .54 6.09l4.92.61a37.22 37.22 0 0 1 -2.81-14.17c0-3.29-5.11-4.54-5.09-.63a41.13 41.13 0 0 0 3.08 15.64c.79 1.94 4.46 4 4.93.61a19.49 19.49 0 0 0 -.75-9c-.84-2.63-5.32-3.53-5 .1l-.47 2.87 4-.14c-2.22-2.14-3.68-7.95-8-5.11-.68.45-.89 1.32-1.5 1.76-3.63 2.65-4.47.55-6.18-1.94a59.61 59.61 0 0 1 -6-11.41c-.77-1.91-4.52-4-4.93-.61a94.59 94.59 0 0 0 .23 24.59l5-.1c-2.85-8-.48-17.75.31-26l2.5-26.2-5.06-1.35.64 51.79c0 2.65 4.63 4.83 5.05 1.35 1.92-15.79 1.65-31.66 1.28-47.53-.06-2.63-4.77-4.84-5.06-1.35a253.84 253.84 0 0 0 .67 49.15c.27 2.45 4.79 5 5 1.36l3.79-52c.22-3-4.73-5.81-5-2.06a251.16 251.16 0 0 0 1 49.8c.38 3.19 5 4.63 5.09.64a368.91 368.91 0 0 1 4.19-47.63c.46-3-4.39-5.81-5-2.07a159.41 159.41 0 0 0 -.7 49.57c.34 2.37 4.65 5.06 5.06 1.35 1.8-16.43 5.46-33.83 3.29-50.35-.42-3.17-5-4.63-5.1-.64a349.39 349.39 0 0 0 2.27 51.44c.29 2.43 4.88 5 5.06 1.36l2.71-53.1-5.06-1.35c-.71 18-.68 37 9.52 52.63l.14-3.38 1.68.4-.07-3-.1-3.95-.26-9.88-.47-18.77c-.07-2.64-4.84-4.83-5.06-1.35l-2.31 35.76 5.06 1.35c-.41-8.2-.51-16.41-.2-24.62q.26-6.54.84-13c.2-2.18 0-11.39 2.07-12.58l-3.77-4.31c-.71 2.16-4.59.66-6 .53a37.37 37.37 0 0 0 -6.85.26c-4.91.51-10.1 1.46-14.3-1.81-1.73-1.35-3.66 0-3.62 2q.33 14.92 0 29.83c-.12 5.06-.31 10.13-.57 15.18-.17 3.34-.77 7 .18 10.24 2.16 7.44 9.56 6.56 15.81 6.55l29-.06c2.14 0 3-2.27 1.91-4a16.34 16.34 0 0 0 -7.48-6.66l-.26 5.53a8.25 8.25 0 0 1 5.28 3.43l3.18-3.49c-4.11-2.77-9-6.51-9.57-11.78-.48-4.61.28-9.68.42-14.31l.94-30.16c.11-3.3-5-4.53-5.09-.64z" fill="#706961"/><g fill="#2a0d00"><path d="m324.43 97c9.17 15.65 5.21 36-1.78 51.83-6.74 15.28-18.09 28.13-33.31 35.29-3.42 1.61 0 7.92 3.49 6.3 17-8 29.6-23 36.53-40.29 7.06-17.66 10.11-38.86.11-55.92-2.28-3.88-7.33-1.12-5 2.79z"/><path d="m205 179.66c-16.5-4.44-29-17.23-35-33-6.82-18-4.74-36.75 4.42-53.51 1.74-3.2-3.5-7.8-5.56-4-10.14 18.56-12.06 40-4.17 59.78 7 17.44 20.72 32.25 39.21 37.23 4.36 1.18 4.71-5.45 1.09-6.43z"/><path d="m172.85 262.68q75-2.26 149.88 2.78c4.27.3 3.17-6.59-.48-6.84-50.42-3.49-100.92-4.28-151.43-2.76-3.91.12-1.61 6.93 2 6.82z"/><path d="m201 179.5c-23.77 11.2-46.71 31.21-57.88 55.35-10.54 22.76-8.83 49.06 9 67.57 6.89 7.14 14.91 12.3 24.61 14.6 11 2.61 23.14 2.51 34.41 2.25 10.63-.25 22.84-1.86 30.72-9.8 6.58-6.64 9.08-17.7 5.7-26.43-4.62-11.91-17.89-14.1-29.2-13.74-15.86.5-31.71 2.2-47.54 3.19-3.94.25-1.63 7.05 2 6.82 11.34-.71 22.67-1.61 34-2.38 9.66-.67 23.19-3.3 31.54 3.08 7.61 5.83 4.76 18.17-1.22 24.13-7.45 7.42-19.69 8.28-29.59 8.33-18 .08-36.85.12-50.48-13.36-16.88-16.69-18-40.19-8.1-61 10.88-22.9 32.81-41.67 55.47-52.35 3.42-1.61 0-7.93-3.49-6.3z"/><path d="m289.63 191.5a89.34 89.34 0 0 1 42.46 38.27c9.9 17.59 15.28 40 6.44 59-4.53 9.72-11.55 16.54-22 19.39-9 2.45-18.83 2.53-28.07 1.38-7.69-.95-15.83-2.8-22.49-6.91-2.64-1.63-5.37-3.76-6.63-6.69-1.52-3.51-2.08-10.62.47-13.49 5-5.59 16.49-5.88 23.35-6.17 13.06-.54 26.23-.07 39.3-.08 4.28 0 3.17-6.85-.47-6.84-13.59 0-27.28-.47-40.86.11-8.15.35-18.51 1.17-25 6.72-3.59 3.07-4.13 6.84-3.93 11.39s.56 8.85 3 12.86c4.7 7.59 14 11.41 22.18 13.67 18.68 5.11 45.29 5.82 59.39-9.73 16.57-18.27 14.28-45.37 5.53-66.58a98.18 98.18 0 0 0 -51.61-52.69c-4.16-1.78-4.5 5-1.09 6.43z"/><path d="m168.82 260.1v13.71c0 3.95 6.11 5.45 6.11.77v-13.72c0-3.95-6.11-5.45-6.11-.76z"/><path d="m324.42 273.8.67-9.8a4.34 4.34 0 0 0 -2.47-4.45 2.53 2.53 0 0 0 -3.56 2l-.67 9.8a4.34 4.34 0 0 0 2.47 4.45 2.53 2.53 0 0 0 3.56-2z"/><path d="m171.61 316.05q.62 6.49 1.24 13a4.18 4.18 0 0 0 3.29 3.81c7.57 1.36 15.68 1 23.33 1.09 13.27.2 26.54.17 39.81.08 23.76-.15 47.55-.31 71.3-1.19 1.57-.06 4.28.33 5.72-.56 2.22-1.36 2-6 2.21-8.19a89.15 89.15 0 0 0 .54-11.55c-.15-3.93-6.29-5.46-6.11-.77a77.16 77.16 0 0 1 -.46 9.85 35.8 35.8 0 0 0 -.48 4.23c.09 3.27.74-.78 1.33-.07-.35-.42-4.86.25-5.43.27-9.43.33-18.87.49-28.3.65-26.16.45-52.34.77-78.5.44-8.33-.11-17.19.35-25.43-1.13l3.29 3.81c-.41-4.33-.83-8.66-1.23-13-.37-3.88-6.56-5.44-6.12-.76z"/><path d="m193.49 255.53c-3.49-7-7-21.32 5.1-22 10.44-.56 11.37 12.8 10.46 20-.46 3.66 5.46 7 6 2.48 1.46-11.56-2.12-29.43-17.15-29.35a14.65 14.65 0 0 0 -13.41 9.39c-2.66 7.15.75 15.85 3.93 22.23 2 4.05 7 1.23 5-2.8z"/><path d="m207.36 233.73c5.21-5.54 12.6-3.62 16.2 2.59 3.47 6 3.07 13.45.43 19.63-1.42 3.33 3.88 8 5.56 4 4.07-9.56 3.56-21.32-3.12-29.66-6.13-7.66-16.76-9.38-23.77-1.92-2.52 2.68 1.94 8.27 4.7 5.33z"/><path d="m185.43 231.2c-16.3-7-23.12 22.15-11.9 30.65a2.84 2.84 0 0 0 3 .35l.33-.21a2.84 2.84 0 0 0 1.31-2.76l-.05-.33c-.55-3.82-6.78-5.41-6.11-.77v.33l1.31-2.76-.33.2 3 .36c-2.74-2.08-2.29-8.52-1.53-11.33 1.14-4.18 4.73-9.47 9.75-7.3 4.15 1.79 4.5-5 1.09-6.43z"/><path d="m193.74 228.9-3.17-6-.53-1c-.52-1.23-.66-1.35-.42-.34-.07.88.26.94 1 .17a8.54 8.54 0 0 1 1.55-.67c2.39-.81 3.14.29 4.23 2.25a25 25 0 0 1 2.23 5.73c1.1 4.08 7 3.52 5.79-1-1.71-6.36-5.92-16.19-14.16-13.84-2.9.83-6.69 2.42-6.78 5.89-.05 2.07 1.11 3.86 2 5.62l3.17 6c2.12 4 7.15 1.2 5-2.79z"/><path d="m244.26 255.86c-4.71-6.13-6-14.42-1.31-21 4.28-6 11.83-7.38 18.3-4.27 4.06 2 4.41-4.83 1.09-6.42-9.07-4.37-19.78-1.7-25.2 6.94-5.89 9.39-3.21 20.74 3.19 29.07 2.87 3.73 6.47-1.06 3.93-4.37z"/><path d="m266.66 257.1c-3.27-9.4-6.56-30.11 9.83-28 13.9 1.78 16.95 18.65 9.06 28.2-2.34 2.82 2.15 8.41 4.7 5.33 10.78-13 5.93-34.89-11.22-39.72-7.34-2.07-15.7.45-19.44 7.44-4.31 8.08-1.53 19.68 1.28 27.77 1.37 3.95 7.33 3.44 5.79-1z"/><path d="m291.58 233.83c5.12-6.33 13.86-4 18.24 1.91 4.58 6.18 6.83 16 2.29 22.75-2 3 2.51 8.59 4.71 5.33 6.66-9.92 3.95-23.66-3.22-32.67-6.42-8.08-19.4-11.7-26.73-2.65-2.3 2.85 2.2 8.44 4.71 5.33z"/><path d="m275.53 224.32a17.42 17.42 0 0 0 .05-7.57c-.16-.93-.15-3.37-.69-4q.15-1.09-.72-.18c1 0 2 0 3 .05.51 0 3.39-.05 3.76.45-.82-1.12-.95 2.35-1.05 2.91l-1.48 8.63c-.64 3.66 5.26 6.94 6 2.48 1.29-7.49 5.74-19.5-5.22-21.07-2.88-.41-8.81-1.56-10.21 2-1.71 4.36 1.69 9.33.5 13.87-.95 3.61 4.88 6.86 6 2.47z"/><path d="m179.51 329.38a569 569 0 0 0 .87 96.36q1.16 12.13 2.85 24.22c.77 5.51 2 11.42 1.1 17a11.3 11.3 0 0 1 -3 6.4c-2.2 2.14-5.14 2.34-7.65 3.82-3.48 2-5.25 6.64-4.89 10.57.44 4.9 4.28 6.83 8.66 7.34a165.82 165.82 0 0 0 19.43.85c6.73 0 13.47-.23 20.19-.75 5.45-.42 12-.11 15.57-5 3.31-4.53 1.62-10.65 1.18-15.79-.53-6.2-.94-12.42-1.18-18.64a324.6 324.6 0 0 1 .9-39.45c1.15-13.67 2.6-27.63 5.62-41 1-4.34 2.32-11.12 6.34-13.81a5.74 5.74 0 0 1 2.71-.9c1-.16.07-.16.14-.12a10.16 10.16 0 0 1 .75 1.24c2.83 5.84 3.63 13 4.54 19.3 1.45 10.1 2.32 20.27 3 30.44 1.51 22.48 1.86 45 1.73 67.48 0 4.9 1.39 9.42 5.65 12.29 4.88 3.29 11.92 1.86 17.46 1.91 7.37.06 14.73.26 22.09.23 3.06 0 6.11-.05 9.17-.17 2.56-.1 6 .43 7.93-1.5 3-3.07 2.65-9.05 1.31-12.74-2-5.48-8.6-6.54-10.66-11.55-1.27-3.11-.61-7.05-.51-10.38s.23-6.36.37-9.54c.28-6.05.65-12.1 1-18.15 1.56-24.61 3.08-49.17 2.41-73.83-.21-7.74-.61-15.46-1.12-23.17-.26-3.91-6.43-5.46-6.11-.77a607.81 607.81 0 0 1 -.11 78c-.68 11.14-1.48 22.28-2 33.43q-.39 7.76-.61 15.52c-.17 6.28 0 11.85 4.91 16.3 2.21 2 11.89 7.64 5.91 11.31-2 1.26-8.36.36-10.64.39-4.09 0-8.18 0-12.26-.07-6.45-.1-12.9-.24-19.35-.16-3.21 0-7.25.64-8.59-3.17-.75-2.16-.1-5.37-.08-7.64.2-21.76-.4-43.56-1.93-65.26-1.1-15.75-1.51-33.52-7.24-48.45-1.54-4-3.92-8.3-8.82-8-8.48.42-11.48 11.07-13.11 17.8-3.09 12.68-4.42 26-5.63 39a340.23 340.23 0 0 0 -1.48 37.09c.09 5.7.33 11.41.7 17.1.18 2.74.39 5.49.62 8.23.27 3.25 1.75 8.4.49 11.48-2 5-12.68 4-17.25 4.31q-11.34.67-22.71.3c-3-.1-6.08-.26-9.11-.52s-6-.81-2.68-4.33c2-2.08 5.85-2.33 8.21-4.18a14.37 14.37 0 0 0 3.8-4.48c2.52-4.64 2.55-10.29 2.13-15.41-.61-7.31-1.95-14.58-2.81-21.87a559.39 559.39 0 0 1 -2.18-106.3c.27-3.64-5.69-7-6-2.47z"/><path d="m169.53 94.46c53.08-20.86 116-16.14 167 8.61 4 2 4.4-4.82 1.09-6.43-52.51-25.49-117-29.92-171.62-8.48-3.48 1.37 0 7.7 3.49 6.3z"/><path d="m162 127.41c-16.87.77-37.44-10.9-37.14-29.57.14-10.93 6.24-19.84 14.55-26.29 17.15-13.38 40.24-19 61.24-22.72a313.25 313.25 0 0 1 79.09-3.59c21.61 1.76 45.26 5.13 64.32 16.1 7.42 4.26 15.59 9 21.56 15.14 7.43 7.69 11.48 19.63 8.67 30.14-4.69 17.58-27.49 27.42-44.19 27-4.29-.12-3.18 6.74.47 6.85 16.58.46 35.31-7.11 45-21 10.93-15.71 4.94-37.47-8.47-49.67-20.21-18.39-47.41-26.35-73.87-29.87a315 315 0 0 0 -89 1.22c-23.9 3.68-50.62 9.79-69.85 25.36-11 8.91-17.71 22.14-15.15 36.61 3.53 20 25.74 32 44.75 31.17 3.92-.18 1.62-7-2-6.82z"/><path d="m179.51 48.48c2-11.36 12.87-20.13 22-26.07 10.71-7 23.4-9.84 36-11 29.42-2.81 62.49 8.22 76.58 35.91 2.06 4 7.08 1.22 5-2.8-15.21-29.78-50-42.59-81.88-40.11-14.08 1.1-28.35 4.42-40.2 12.34-10.21 6.86-21.27 16.49-23.53 29.25-.65 3.66 5.24 6.94 6 2.48z"/><path d="m216.63 115.75a43.86 43.86 0 0 0 .82 14.13c.41 1.9 2.55 3.74 4.55 3.38 2.21-.39 2.59-2.75 2.2-4.57a32 32 0 0 1 -.54-10 5 5 0 0 0 -2.88-5.19 3 3 0 0 0 -4.15 2.3z"/><path d="m260.41 116.74a89.8 89.8 0 0 0 1.08 12.9c.32 2 1.61 4.19 3.84 4.45a3.08 3.08 0 0 0 3.29-3.55 91.38 91.38 0 0 1 -1.08-12.9c-.06-4.6-7.2-6.37-7.13-.9z"/><path d="m221.22 227c-2.42-14.72 21.22-17.43 22.07-2.09.22 3.92 6.38 5.46 6.11.77-.56-10-8.4-18.56-18.79-18.23a16.24 16.24 0 0 0 -15.5 18.79c.62 3.79 6.87 5.38 6.11.76z"/><path d="m244.24 216.55c7.32-9.09 19.84-3.1 20.87 7.51.37 3.88 6.56 5.45 6.11.77-.73-7.62-4.89-15.17-12.18-18.3a16.68 16.68 0 0 0 -19.5 4.69c-2.3 2.85 2.19 8.44 4.7 5.33z"/><path d="m219.39 211.94a15.42 15.42 0 0 0 -21 7.26c-1.59 3.27 3.68 7.88 5.55 4a10.37 10.37 0 0 1 14.34-4.86c4.06 2 4.41-4.82 1.1-6.43z"/><path d="m229.5 208.52c-1.06-2.63-2.34-5.27-3.18-8l.13 1.75v-.37l-.66 1.42s3.9-1.54 4.26-1.4l-1.42-1c-.14-.4-.14-.37 0 .1s.23.76.34 1.14c.19.63.36 1.26.52 1.9.35 1.37.66 2.74.9 4.13.31 1.73 1.35 3.58 3.29 3.81a2.63 2.63 0 0 0 2.82-3c-.88-5-2-16-9.52-13.44-2.41.81-6.23 1.25-6.62 4.3-.2 1.58.59 3 1.16 4.41l2.14 5.32c.63 1.56 2 3.24 3.91 2.9 1.69-.3 2.48-2.42 1.88-3.92z"/><path d="m183.37 425.34c15.66 4.5 31.47 2.05 47.19-.85 3.95-.73 1.59-7.48-2-6.81-14.49 2.67-29.58 5.4-44.07 1.23-4.35-1.25-4.69 5.39-1.09 6.43z"/><path d="m262.41 424.19c15.45 1.65 31.13 3.1 46.34-.93 3.9-1 1.52-7.76-2-6.82-14.75 3.91-29.82 2.5-44.79.9-4.25-.45-3.15 6.46.47 6.85z"/></g></svg>