<svg id="圖層_2" height="512" viewBox="0 0 500 500" width="512" xmlns="http://www.w3.org/2000/svg" data-name="圖層 2"><path d="m174.8 248.45c-19.7-20.53-26.5-51.4-15.79-78a79.71 79.71 0 0 1 24-32.39c12.27-9.82 27.14-14.58 42.3-17.81 31.11-6.62 67.57-8.75 93.43 13.22 23.77 20.19 21.64 54.5 9.43 80.39a143.57 143.57 0 0 1 -27.17 39.35c-11.81 11.89-30.22 12.2-45.93 11.06-17.7-1.27-34.94-5.73-51.82-11q-6.37-2-12.72-4.09c-3.05-1-7.68-1.68-10.1-3.87-2.13-1.94-3.31-6.3-4.42-8.84-1.62-3.69-3.12-7.44-4.47-11.23-5.56-15.57-8.16-31.86-.25-47.11 3.58-6.9 8.59-12.92 13.71-18.73s10.62-11.84 16.77-16.81c12.79-10.37 28.6-14.6 44.52-17.4s32.71-4.34 47.71 3.08c26.21 12.95 34.27 44.14 27.32 70.74a79.43 79.43 0 0 1 -23 38.19c-12.07 11-27.93 14.81-43.91 14.9-24.49.14-71.4-2.11-73.75-35.1-1.93-27 16.25-54.57 38-69.08 22.84-15.28 56.78-21 79.73-2.69 9.53 7.61 15.8 20.14 15.17 32.44-.68 13.35-10 24.53-20.51 31.88-24.31 17-60.65 25.47-88.72 13.3-5.09-2.21-10.84-5.62-13.28-10.86-3-6.37.12-14 2.95-19.89 6.14-12.69 16.56-22.93 28.4-30.36 12.89-8.09 27.72-13.74 42.93-15.1 13.69-1.21 29.52 2.45 38.27 13.87 1.72 2.24 3.38 4.64 2.62 7.54-.93 3.52-4.06 6.49-6.6 8.94a65.58 65.58 0 0 1 -16.52 11.41c-12.33 6.14-26.4 8.78-40.11 9.06a131.4 131.4 0 0 1 -20.78-1.32c-3.77-.53-13.84-1-15.48-5.43-1.79-4.86 4.35-12 7.28-15a57.88 57.88 0 0 1 17.69-12.49c12-5.56 28.16-8.07 40.4-1.9a15.69 15.69 0 0 1 5.49 4.19 8.77 8.77 0 0 1 1.41 2.49 2.59 2.59 0 0 1 .13.77c.22-1.7-.84-.34-1.8.16a153 153 0 0 1 -22.82 9.07c-15.07 4.83-31.35 7-46.07-.11l4.52 14.7a77.71 77.71 0 0 1 53.78-21.59 69.44 69.44 0 0 1 7.06.4 26.84 26.84 0 0 0 3 .51 2.35 2.35 0 0 0 .43.19q3.33 1.33-1.73-6.31c-1.93.19-4.75 2.65-6.57 3.5a55.65 55.65 0 0 1 -7.45 2.88 67 67 0 0 1 -31.63 1.75l4.95 16.43c18.84-13.51 44.14-8.18 65.54-13.8 6.3-1.65 6.34-9.83 2.37-14a81.06 81.06 0 0 0 -19.58-15l4.51 14.7c-1.55 1.2-2.65 1.26-3.28.19-.5-.71-.35-.41.44.9.27.76.63 1.52.87 2.31a19.87 19.87 0 0 1 .81 6.73 22 22 0 0 1 -4.7 12.39c-1.24 1.53-2.23 3-4.19 2.91-1.26 0-3.64-1.53-4.85-1.95a44.46 44.46 0 0 0 -5.31-1.48 37.86 37.86 0 0 0 -19.19 1l6.9 16.38a226.77 226.77 0 0 0 36.76-18.6c4.82-3 10.23-6.26 13-11.47 3.6-6.83 1.93-13.88-2.33-19.86l-8.15 12.44c8.83 5.37 7.14 16.61 1.53 23.88-8.07 10.45-21.14 14.38-33.58 16.77-22.31 4.28-56.27 8.76-71.1-13.68-3.64-5.51-11.83-7.53-13.83.39-3.39 13.36 4.13 27.75 15.16 35.25 12.18 8.28 27.16 8.79 41.36 8.34a196.51 196.51 0 0 0 85.66-23.22l-11.9-11c-.5 9.92-1.25 21.77-8 29.7-8.1 9.56-21.86 8.35-33.15 7.7-29-1.66-58.16-5.48-85.95-14.35l-2.73 16.06c12.2 3.43 24.52 6.37 37 8.59 11.85 2.1 24 4.18 36.11 3.89 10.89-.27 20.61-3.4 28.67-10.89 5.76-5.35 10.59-14 19.18-14.5l-9.77-7.24a25.37 25.37 0 0 1 -.46 10.86l6.95-5.46a25.91 25.91 0 0 0 -12.83 2.16l8.72 15.74a45.32 45.32 0 0 0 17.35-14.4 9.66 9.66 0 0 0 -1-12.12c-2.39-2.7-8.08-4.95-10.79-1.2a36.31 36.31 0 0 1 -14.31 12c-8.62 4.11 0 19.45 8.72 15.74a10.67 10.67 0 0 1 5.29-.78c3.66.29 6.18-2 6.95-5.46a45.67 45.67 0 0 0 -.15-19.61 9.56 9.56 0 0 0 -9.77-7.24c-8.8.55-15.11 6.86-20.78 13-6.87 7.37-13.33 11.61-23.68 12.29-10.84.7-22.18-1.55-32.81-3.36a349.46 349.46 0 0 1 -35.89-8c-10.88-3-11.67 13.21-2.73 16.06 31.23 10 64.18 14.68 96.9 15.76 13.71.45 28.56-1.21 37.55-12.89 7.82-10.18 9.81-23.31 10.45-35.79.29-5.8-5-14.65-11.91-11a186.67 186.67 0 0 1 -69.39 21.1c-11.21 1.12-23.68 2.1-34.66-1-8.46-2.42-16.78-8.82-14.33-18.48l-13.83.39c21 31.85 62.62 30.41 95.73 22.23 15.71-3.88 31.81-12 38.62-27.63 6.41-14.68 2-33.94-12.14-42.52-3.27-2-7.26-2.4-9.65 1.14-2.49 3.69-.82 8 1.5 11.31l.82 1.14-2.32-4.18c.41 1 .15 1.54.41.62a5.36 5.36 0 0 1 -1.3 1.93 19.53 19.53 0 0 1 -4.13 3.22c-4.25 2.8-8.62 5.4-13.06 7.88a229 229 0 0 1 -26.69 12.72c-7.9 3.15-.82 18.82 6.9 16.39 5-1.57 10.14-2.22 15.29-.89s9.61 4.67 15.12 3.51c8.85-1.87 14.4-12.23 16.65-20.17a39 39 0 0 0 -1.91-26c-3.59-8.25-14-18.07-22.58-9.8-4.85 4.69 0 12.2 4.51 14.69a53.3 53.3 0 0 1 12.5 9.8l2.38-14c-22.81 6-49 .6-69.2 15.09-6.58 4.72-2.26 15.12 5 16.43a78.08 78.08 0 0 0 44.35-5c6.12-2.58 14.23-6 15.45-13.34 1.27-7.67-4.89-14.47-11.66-17-6.53-2.4-14.23-2.08-21.07-1.71a83.45 83.45 0 0 0 -20.06 3.6 91.52 91.52 0 0 0 -36.87 21.64c-4.71 4.53-.16 12.45 4.52 14.7 18.51 8.91 39.37 6.2 58.13-.36 4.59-1.6 9.11-3.35 13.6-5.21s9.79-3.36 13.21-6.89c7.14-7.37 3-18.88-2.43-25.94-10.67-13.94-30.63-16.68-46.86-14-17.45 2.94-35.42 13-44.92 28.29-4.93 7.92-6.86 17.74-2.87 26.47 3.87 8.49 11.69 13 20.44 15.14 16.4 4.08 34.77 4.19 51.35 1.22 16.86-3 32.95-10.1 45.48-21.93 7-6.6 12.29-15.14 10.6-25.11-1.61-9.42-8.28-17.6-15.48-23.54-30-24.76-75.89-10.47-103.1 11.64-13.33 10.84-25.91 27.1-28 44.68-2.3 19.83 11.8 34.91 29.4 41.52 18.42 6.92 39.21 6.89 58.17 2.29 17.82-4.32 35.62-12.21 49.09-24.89 12.41-11.68 19.35-28.49 16.78-45.56-2.6-17.27-12.41-33.44-27-43.18-30.75-20.48-71.78-12.84-99.28 9.38a100.48 100.48 0 0 0 -29.46 39.09c-7.23 17.31-10.74 38.22-2.57 55.8 8 17.3 25.49 27.31 43.32 31.77 9.77 2.45 19.88 3.4 29.91 4.07s20.2.8 30.13-.73c38.79-6 64-43.64 65.79-81.18 1.69-36.05-21.33-72.29-57.86-79.84-19.46-4-41.91 0-60.65 5.9-9.5 3-18.55 7-26.51 13a147.07 147.07 0 0 0 -20.93 20.14c-13.35 15.14-23.22 31.75-22.39 52.59.41 10.22 3.05 20.39 6.53 30 3.24 8.91 6.61 20.06 12.94 27.33 6.6 7.58 18.3 9.6 27.46 12.51 10.35 3.28 20.79 6.32 31.39 8.72 19.71 4.46 42.45 7.45 62.26 1.86 19.29-5.44 31.26-22.87 41.58-39 10.11-15.73 17.73-33.67 19.19-52.47 1.51-19.54-2.76-39-14.42-54.95-10.49-14.38-26.6-24.53-43.53-29.56-20.08-6-41.25-5.58-61.77-2.24-19.22 3.14-39.35 7.82-55.43 19.33a91.4 91.4 0 0 0 -36.44 92.41 94.74 94.74 0 0 0 24.4 46.85c8.1 8.45 17.18-3.26 9.83-10.91z" fill="#caa485"/><path d="m163.56 234.86c-7.4-4.93-10.77-12.66-12.88-21.05a110.1 110.1 0 0 1 -2.94-31.69c1.1-21.86 13.29-39.59 31.77-50.8 20.21-12.27 44.48-15.58 67.7-16.78 22.91-1.19 46.94.77 67.73 11.22 16.2 8.14 30.28 22.49 34.92 40.34 5.39 20.7-4.05 42.52-16.68 58.65-6.56 8.38-14.29 16.77-23.74 21.9-10.15 5.5-22.38 6.57-33.71 7.4-21.79 1.62-46-.52-64.62-13a61 61 0 0 1 -20.71-22.92 43 43 0 0 1 -4.4-14.36c-.7-6.1.73-12.34-.73-18.33-1.5-6.16-6.44-12.34-13-13.46-6.25-1.07-10.44 3.06-13.5 8-6.52 10.43-7.36 24.13-2.7 35.45 1.32 3.2 3.26 6.11 6.84 7 2.67.67 6.37-.26 7.34-3.26l13.75-42.49a10.58 10.58 0 0 0 -3.71-12c-3.29-2.36-8.36-2.2-10.18 2-10.38 23.79-20.18 49.5-12.67 75.59l10.47-8.26c-13.14-8.66-22-22.7-23.13-38.56-1.16-16.93 6.62-33.07 19.22-44.11 6.85-6-4.17-20-11.76-13.32a68.41 68.41 0 0 0 -22.62 57 72.41 72.41 0 0 0 31.82 52.95c6.28 4.14 12.46-1.33 10.46-8.26-6.17-21.46 3.64-43.58 12.1-63l-13.89-10.07-13.74 42.46 14.18 3.76a22.83 22.83 0 0 1 1.34-21.54 13.63 13.63 0 0 0 1.36-1.89c.82-.86.17-1.25-1.92-1.16q-1.22-2.13-.65.68c-2.26 10.26 1.26 22.85 5.3 32.19 9.11 21 28 36.81 49.44 44.17 23.42 8 50.38 8.27 74.53 3.4 24.34-4.91 42.29-23.69 54.43-44.48 11.69-20 16.36-44.71 8-66.84-7.91-21-24.32-37.2-44-47.34-22.52-11.57-48.64-13.67-73.52-12.65-25.07 1-51.46 4.79-73.38 17.81-23.16 13.76-37.68 36.17-38.88 63.25-1.07 24.11 2.64 55.81 24.54 70.4 9.76 6.51 14.68-8.51 6.47-14z" fill="#caa485"/><path d="m299.39 276.73c3.57 0 2.64-5.7-.39-5.7-3.58 0-2.65 5.7.39 5.7z" fill="#caa485"/><path d="m298.8 276.44 7.56 4.05c3 1.61 3.32-2.89 2.09-4.49l-3.27-4.27-2.72 4.15 6.31 5.33c3 2.53 4.58-2.57 2.15-4.66l-4.53-3.89-2.15 4.65 5.26 3.17c2.67 1.61 4.27-1.09 3.17-3.49a20.13 20.13 0 0 0 -5.25-6.92c-2.83-2.53-4.18 2.07-2.72 4.15a31.29 31.29 0 0 0 5.13 5.59c2.27 2 4.6-1.38 3.17-3.5l-4.3-6.31c-2.06-3-6.18-1-4.2 2.33a25.4 25.4 0 0 0 5.12 6.06c2.66 2.35 4.61-2 2.71-4.14l-2.12-2.37-3.28 3.64a49.62 49.62 0 0 0 13.67 9.24c2.76 1.35 5.58 2.58 8.31 4 4.51 2.32 3.77 2.7 2.78 7.56l4.15-.79a11.12 11.12 0 0 0 -8.66-4c-2.69 0-2.76 2.94-1.44 4.67l2.44 3.21 1.45-4.68c-9.12-1.72-19.53-3.26-27.55 2.6-6.88 5-12.49 14.08-12.39 22.68.05 3.29 5.07 4.54 5.1.64a170.41 170.41 0 0 1 5.72-42.57l-5-2.07-1.23 23.61c-.15 2.92 4.61 5.9 5 2.06a194.22 194.22 0 0 1 3.63-22l-5.06-1.35a132 132 0 0 1 -1.13 18.32l5 2.06a72.16 72.16 0 0 1 2.84-14.55l-4.86-2a26.42 26.42 0 0 1 -.21 10.37c-.66 3 4.15 5.75 5 2.07l3-12.57-4.93-.6a23.9 23.9 0 0 1 .4 7.82c-.3 3 4.61 5.82 5 2.07l.82-7.43-4.93-.61a21.94 21.94 0 0 1 .88 8.09c-.22 2.91 4.16 5.91 5 2.07l1.5-6.73-4.92-.61a18.48 18.48 0 0 1 .77 7.1c-.25 2.93 4.36 5.9 5 2.06l1.56-9-4.93-.6a15.11 15.11 0 0 1 .64 5c-.07 2.73 4.86 4.76 5.06 1.35a49.52 49.52 0 0 1 .79-6.3l-4.92-.61a43.74 43.74 0 0 1 1.43 7.06c.37 3.19 5.05 4.63 5.09.64l.2-6.8-4.65.84 4.56 6.86c1.67 2.51 5.44 1.86 4.51-1.59l-1.29-4.75-2.86 3.1a67.52 67.52 0 0 1 9.82 4.12c3.12 1.61 3.67-3.51 1.53-5l-7.28-5.1-.88 5.18a13.2 13.2 0 0 1 5.64 2.73l2.16-4.66a161.35 161.35 0 0 0 -19.77-11.73c-2.91-1.45-3.53 2.86-2.09 4.5a47 47 0 0 0 25.09 15l-1.65-5.5a22.81 22.81 0 0 1 -19.47-1.14l-.26 5.53a39.6 39.6 0 0 0 10.12 1l-1.69-5.68-20.69 1.16c-3.29.19-1.25 5.26 1 5.69l6.38 1.22-2.51-4.53a6.58 6.58 0 0 1 -2 2.35l3.59.4-1.16-1.16c-2.75-2.74-5.78 1.14-3.27 3.64l1.16 1.16c1.05 1 2.39 1.44 3.6.4a12.35 12.35 0 0 0 2.74-3.44c1-1.81-.72-4.19-2.51-4.53l-6.38-1.21 1 5.69 20.69-1.16c3.33-.19 1.28-5.75-1.69-5.68a34.54 34.54 0 0 1 -8.83-1c-3.48-.81-2.23 4.5-.25 5.54a27.34 27.34 0 0 0 23.29 1c2.77-1.11.22-5-1.65-5.48a40.34 40.34 0 0 1 -21.43-12.91l-2.09 4.5a151.12 151.12 0 0 1 18.5 11c3.26 2.25 4.69-2.68 2.16-4.66a19.39 19.39 0 0 0 -8.19-3.78c-3.09-.68-2.55 4-.88 5.18l7.27 5.1 1.54-5a68.22 68.22 0 0 0 -9.82-4.13c-2.1-.69-3.4 1.14-2.87 3.11l1.29 4.75 4.51-1.59-4.56-6.86c-1.45-2.17-4.62-2.29-4.65.85l-.06 6.82 5.09.64a53 53 0 0 0 -1.7-8.55c-.65-2.27-4.32-3.69-4.92-.61a48 48 0 0 0 -.8 6.31l5.06 1.35a20.09 20.09 0 0 0 -.9-6.49c-.67-2.22-4.38-3.76-4.93-.61l-1.55 9 5 2.06a26.07 26.07 0 0 0 -1-10c-.68-2.32-4.24-3.65-4.92-.6l-1.51 6.72 5 2.07a30.32 30.32 0 0 0 -1.09-11c-.61-2.13-4.57-3.81-4.92-.61l-.82 7.43 5 2.07a34.58 34.58 0 0 0 -.61-10.74c-.51-2.5-4.24-3.5-4.92-.61l-3 12.56 5 2.07a29.73 29.73 0 0 0 .28-11.81c-.3-1.73-3.86-5.23-4.86-2a78.43 78.43 0 0 0 -3.24 15.84c-.28 3 4.54 5.85 5 2.06a143.27 143.27 0 0 0 1.2-19.75c0-2.73-4.31-4.73-5.06-1.35a197.08 197.08 0 0 0 -3.64 22l5 2.06 1.22-23.6c.15-2.89-4-5.92-5-2.07a176.21 176.21 0 0 0 -5.8 44l5.1.64c-.09-7.33 6.3-16.48 12.83-19.73 6.93-3.45 15.15-1.85 22.4-.48 2.83.54 2.51-3.27 1.44-4.67l-2.2-3.22-1.44 4.67a5.72 5.72 0 0 1 5 1.92c1.34 1.46 3.71 1.4 4.16-.79.59-2.89 2-6.37.71-9.25-1.13-2.55-3.94-3.79-6.25-5-7.15-3.82-15.12-6.38-21-12.22-2.76-2.75-5.64 1-3.28 3.64l2.13 2.36 2.71-4.14a12.46 12.46 0 0 1 -3.04-3.72l-4.2 2.33 4.3 6.35 3.18-3.49a24.43 24.43 0 0 1 -4-4.57l-2.72 4.15a12.92 12.92 0 0 1 3.22 4.59l3.17-3.5-5.26-3.16c-3.45-2.08-4.55 2.6-2.15 4.65l4.53 3.9 2.15-4.66-6.3-5.33c-2.83-2.39-4.34 2-2.72 4.15l3.27 4.27 2.1-4.5-7.56-4.06c-3.29-1.76-3.59 3.92-.91 5.36z" fill="#caa485"/><path d="m154.06 288c6.34-4.63 13.45-8.91 19.1-14.4 4.11-4 6.58-8.85 4.92-14.57l-4.82.85c1.91 4.68 3.32 9.83 1.53 14.77-1.69 4.63-5.86 7.9-10.9 7.4l2.16 5.07 8.14-10.23-4.28-3.9a37.65 37.65 0 0 1 -17.78 15.48 2.38 2.38 0 0 0 -1.1 2.31l.26 3.6c.16 2.29 3.39 4.68 4.86 2l1.36-1.06-4-3.66-.47 7.58 5.06 1.35a8 8 0 0 1 .54-4.3c.76-2.53-3.8-5.78-4.83-2.71l-1.13 3.42 4.86 2c-.32-2.93-2-4.6-5-4.54l2.3 5.46 11.8-7.3c2.92-1.81 6.93-3.53 9.33-6.06 2.14-2.25 2.35-5 2.7-8 .49-4.29.95-8.59 1.43-12.88l-5-2.07-1.05 20.3c-.11 2.16 3.61 6.16 4.83 2.71a78.31 78.31 0 0 0 4.45-23.77c.06-1.63-2.29-4.19-4-2.94-2.74 2-1.8 5.21.55 7.25 3.82 3.3 11.3 2.88 16 3.61l-1-5.69a39.22 39.22 0 0 1 -13.69 1.94l1 5.69a76.59 76.59 0 0 1 15.27-1.31q1.41 0 2.82.12c1.09.14 1.2.86.31 2.15 0 2.43-1 5.24-1.41 7.64l5 2.07a36.1 36.1 0 0 0 -1.89-14.94c-1-2.7-4.93-3.51-5 .1l-.1 15.36 5-.11a10.56 10.56 0 0 1 .25-5.87l-5.06-1.35a55.06 55.06 0 0 1 -.54 9.6c-.22 1.49.91 3.89 2.71 3.88a17.07 17.07 0 0 1 12.24 4.65l2.16-4.66-3.32-2.51c-2.94-2.22-4.41 2-2.72 4.15l12.45 15.8a2.29 2.29 0 0 0 4.18-1.5 118.93 118.93 0 0 1 .92-29.8l-5-2.07a45.52 45.52 0 0 1 -4.91 17l4.87 2a60 60 0 0 1 .11-15.67l-5.06-1.35-.13 14.79 5-.11a109.88 109.88 0 0 1 -2.09-14.21l-5.1-.64a38.74 38.74 0 0 1 0 14.2l4.93.61-7.08-17.73c-.75-1.86-4.63-4-4.92-.6l-.85 9.71 5.06 1.35-1.48-9.19c-.37-2.31-4.68-5.1-5.06-1.35l-1.15 11.38 4.93.6a10.82 10.82 0 0 1 2.07-8.63l-4.06-1.06 2.82 5.58c1.23 2.43 4.69 2.1 4.65-.84a8.8 8.8 0 0 1 .58-3.84l-4.93-.61a18.16 18.16 0 0 1 1.23 10.29l3.59-1.29a5.55 5.55 0 0 1 -1.81-6.06l-5.06-1.36a37.38 37.38 0 0 0 12.39 23.18c1.95 1.75 4.14-.67 3.49-2.75a83.69 83.69 0 0 1 -3.82-24.89c0-2.08-3.91-4.94-4.86-2l-1.38 4.3a3.45 3.45 0 0 0 2.51 4.53l19.79 4.71-1-5.7-15.34 5.4c-2.77 1-1.81 5.52 1 5.69a25.78 25.78 0 0 0 16.15-4.19c2.66-1.74 0-6.63-2.9-5.25l-4.73 2.27c-2.68 1.28-.3 5 1.66 5.47a18.19 18.19 0 0 0 9.71-.1c2.24-.61 1.93-3.17.79-4.66l-4.62-6.05c-1.77-2.32-4.87-.38-4.05 2.24a81.75 81.75 0 0 0 5.44 13.21c1.43 2.75 5.64 1.67 4.51-1.59l-1.72-5-4.83.85 4.32 12.4a3.41 3.41 0 0 0 2.6 2.43 118.65 118.65 0 0 1 48.34 14.21c1.73.95 3-.85 3-2.35l-.15-32-5.09-.64a53.2 53.2 0 0 1 -3.44 20.67l4-.14a39.12 39.12 0 0 1 -6.94-17.13c-.48-3.16-5.63-4.54-5.09-.64l2.3 16.8 5-.1-4.73-17.16c-.58-2.09-4.76-3.84-4.92-.6-.12 2.36-.23 5.45-1.63 7.48-2.67 3.87-8 .44-11.44-.84l-21.1-7.93-.26 5.53a89.56 89.56 0 0 0 34.3.25c3.23-.6 1.36-5.26-1-5.69a281.56 281.56 0 0 0 -32.87-3.9l.39 5.71 57.24 2.43-1-5.69-19.66 6.09 2.3 5.47 14.43-6.66c2.68-1.23 5-2.33 4.62-5.67-.74-7.23-8.25-6.37-12.5-3-1.77 1.41-1.13 3.6.38 5s-.32 4.17-1.17 5.35a7.5 7.5 0 0 1 -1.5 1.73c-2 .31-2.49.86-1.33 1.64-1.58-2.63-5.54-1.78-4.51 1.58a169.28 169.28 0 0 0 9.64 24.44l3.73-3a56.51 56.51 0 0 0 -20.51-14.56 54 54 0 0 0 -11.76-3.32c-4.73-.78-15.78.28-16-6.65l-4.95.11 2 7.23c.6 2.14 4.61 3.81 4.93.61a11.84 11.84 0 0 1 1.39-4.65l-2.77 1 1.14 1.33c.33 2.39 4.62 5.05 5.06 1.36a23.84 23.84 0 0 0 -.43-8.12l-4.83.85 1.86 5.53c.58 1.73 2.74 3.41 4.37 1.8a9.42 9.42 0 0 0 2.55-4.14l-4.42-.51 3.35 7.76c.87 2 4.19 2.38 4.61-.13a29.83 29.83 0 0 1 2.14-7.26l-4.42-.52 3 6.72a2.49 2.49 0 0 0 4.42.52l2.43-4.05-3.39.65 1 1.29c.65 1.74 3.6 3.83 4.73 1.25l1.63-3.74-4.41-.51 3.17 5.08c1.13 1.8 4.08 2.55 4.62-.14a14 14 0 0 0 -.09-5.76l-4.48 1.55 3.49 6c1.28 2.2 4.85 2.27 4.65-.85l-.59-9.41-4.65.85 5.59 10.17c1.17 2.12 5.16 2.28 4.65-.85l-1.14-6.48-4.64.84 4.91 9.61c1.29 2.54 4.52 2 4.64-.84l.34-7.88-4.18 1.5a45.55 45.55 0 0 1 7.68 11.75c1.36 3 5.28 1.62 4.51-1.59a38.37 38.37 0 0 0 -3.87-9.78l-4.2 2.33a7.56 7.56 0 0 1 1.38 5.41l4.93.61c-2.78-11.59-14.53-17.3-25.7-16.88-3 .11-1.59 5.64 1 5.69l5.83.12c3.65.07 2.52-5.18-.39-5.71l-11.18-2 1 5.7 10.27-.43c3.27-.14 1.34-5.81-1.69-5.68l-10.27.43c-3.26.13-1.27 5.27 1 5.69l11.17 2-.39-5.71-5.84-.12 1 5.7c8.15-.31 17.15 3.53 19.2 12.05.52 2.18 4.72 3.78 4.92.61a16.29 16.29 0 0 0 -2.21-9.81c-1.89-3.24-6.06-1-4.2 2.33a31.82 31.82 0 0 1 3.24 8.3l4.51-1.59a51.32 51.32 0 0 0 -8.6-13.06c-1.7-1.89-4.07-.93-4.18 1.5l-.34 7.88 4.64-.85-4.91-9.61c-1.12-2.2-5.15-2.23-4.64.85l1.26 6.51 4.64-.84-5.59-10.17c-1.24-2.26-4.84-2.23-4.64.84l.59 9.41 4.64-.84-3.49-6c-1.65-2.83-5.15-1.7-4.51 1.59l-.12 2.85 4.61-.13-3.13-5.1c-.9-1.45-3.45-2.71-4.41-.52l-1.63 3.74 4.73 1.26a10.51 10.51 0 0 0 -3.66-5.1 2.23 2.23 0 0 0 -3.4.66l-2.43 4 4.41.52-3-6.72c-.74-1.66-3.53-2.54-4.41-.52a35.89 35.89 0 0 0 -2.54 8.56l4.61-.13-3.34-7.77c-.65-1.52-3.73-2.68-4.41-.52a4.79 4.79 0 0 1 -1.84 3.06l4.37 1.79-1.85-5.53c-1.12-3.32-5.67-3-4.83.85a11.86 11.86 0 0 1 .23 5.2l5.06 1.35a8.73 8.73 0 0 0 -5.32-7.33 2.11 2.11 0 0 0 -2.77 1 15.57 15.57 0 0 0 -1.79 5.94l4.92.61-2-7.23c-.78-2.79-5.07-3.44-5 .1.3 11.42 12.3 11.68 20.68 12.92a49.5 49.5 0 0 1 29.37 15.93c2.34 2.6 5.06-.19 3.73-3-1.74-3.65-3.71-7.27-5.26-11s-2.55-8-3.75-12l-4.47 1.65c5.48 9.17 19.57-7.45 10.36-15.69l.37 4.95c.2-.16 2.9-1.87 2.91-2.23 0 .24-4.8 2.21-5.1 2.35l-10.18 4.7c-2.58 1.19-.29 6.26 2.3 5.46l19.66-6.09c2.84-.88 1.75-5.57-1-5.69l-57.32-2.44c-3.57-.15-2.64 5.53.39 5.71a279.41 279.41 0 0 1 32.76 3.89l-1-5.7a85.87 85.87 0 0 1 -33-.28c-3.29-.66-2.6 4.65-.25 5.53l15.83 6c4.53 1.7 9.51 4.48 14.36 5.06 7.43.89 9.62-7.2 9.91-13l-5-.61 4.73 17.16c.74 2.71 5.44 3.45 4.95-.11l-2.3-16.8-5.09-.64a48.15 48.15 0 0 0 8.78 21.39c.9 1.25 3.32 1.55 4-.14a60.06 60.06 0 0 0 3.9-23.39c-.1-3.28-5.11-4.55-5.09-.64l.15 32 3-2.36a122.28 122.28 0 0 0 -49.64-14.57l2.61 2.43-4.31-12.4c-1.15-3.29-6.11-2.87-4.83.85l1.73 5 4.51-1.59a70.89 70.89 0 0 1 -4.82-11.73l-4.05 2.25 4.63 6.05.79-4.66a15.73 15.73 0 0 1 -8.42.08l1.65 5.47 4.72-2.26-2.9-5.25a21.65 21.65 0 0 1 -13.7 3.71l1.05 5.7 15.33-5.4c3.05-1.07 1.54-5.08-1-5.69l-19.78-4.7 2.51 4.53 1.38-4.31-4.86-2a89.08 89.08 0 0 0 4.08 26.38l3.49-2.76a29.15 29.15 0 0 1 -9.51-17.84c-.37-2.53-4.19-4.91-5.06-1.35-1.23 5 .69 9.64 4.67 12.79a2.18 2.18 0 0 0 3.59-1.3 23.69 23.69 0 0 0 -1.43-13.21c-.91-2.24-4-3.7-4.92-.61a16.8 16.8 0 0 0 -.65 5.27l4.65-.85-2.83-5.58c-.62-1.22-2.94-2.61-4.06-1.05a17.15 17.15 0 0 0 -3 13.92c.42 2.32 4.61 3.67 4.92.61l1.15-11.4-5.05-1.36 1.48 9.19c.37 2.3 4.73 5.1 5.06 1.35l.84-9.71-4.92-.61 7.09 17.74c.82 2 4.32 3.89 4.93.61a43.44 43.44 0 0 0 .1-15.63c-.54-3-5.43-4.68-5.1-.64a124.18 124.18 0 0 0 2.37 15.7c.64 3 4.93 3.32 5-.1l.14-14.79c0-2.68-4.59-4.8-5.06-1.35a66.51 66.51 0 0 0 -.19 17.09c.26 2.15 3.42 4.82 4.86 2a49.4 49.4 0 0 0 5.3-18.31c.27-3-4.42-5.89-5-2.07a124.63 124.63 0 0 0 -1 31.23l4.18-1.5-12.44-15.8-2.72 4.15 3.32 2.51c3.23 2.44 4.44-2.59 2.16-4.66a21.35 21.35 0 0 0 -14.8-5.69l2.71 3.88a63.45 63.45 0 0 0 .62-11c-.09-2.81-4.11-4.64-5.06-1.35a16.17 16.17 0 0 0 -.06 8.78c.71 2.92 4.94 3.36 5-.1l.11-15.36-5 .11a28.76 28.76 0 0 1 1.68 12c-.22 2.92 4.32 5.92 5 2.07.86-4.67 4.64-13.93-1.34-16.88-2.69-1.32-6.43-.86-9.28-.81a83.35 83.35 0 0 0 -13.09 1.34c-3 .55-1.58 5.6 1 5.7a43.26 43.26 0 0 0 15-2c3-1 1.62-5.29-1-5.7l-6.31-1c-3.3-.5-4.06-1.06-7 1.06l-4-2.94a70.07 70.07 0 0 1 -4 21.06l4.82 2.71 1.06-20.3c.15-2.92-4.6-5.91-5-2.07-.66 5.95.15 15.55-4.6 19.6-5.31 4.52-12.6 7.8-18.54 11.48-2.68 1.66-.24 5.51 2.3 5.46h-.44l-1.47-2.65.09.83c.2 1.91 3.81 5.1 4.86 2l1.16-3.43-4.83-2.71a15 15 0 0 0 -.66 5.87c.17 2.56 4.84 4.9 5.06 1.35l.47-7.57c.13-2.13-1.62-4.65-4-3.66a5.81 5.81 0 0 0 -3.08 2.95l4.86 2-.25-3.6-1.1 2.3a41.8 41.8 0 0 0 19.51-17.37c1.33-2.23-2.35-6.32-4.27-3.9l-8.14 10.23a3.32 3.32 0 0 0 2.15 5.07 14.5 14.5 0 0 0 14.38-7.95c3.46-6.51 2.08-14.26-.58-20.77-1.27-3.12-5.94-3-4.82.85 1.59 5.5-4.63 10.06-8.41 12.88-4.53 3.38-9.13 6.66-13.7 10-2.56 1.87.38 7.09 2.91 5.24z" fill="#caa485"/><path d="m283.81 292.24v1.76a3.7 3.7 0 0 0 .9 2.14 3.1 3.1 0 0 0 1.84 1 2 2 0 0 0 1.76-.63 2.82 2.82 0 0 0 .59-1.9v-1.75a3.62 3.62 0 0 0 -.91-2.14 3 3 0 0 0 -1.83-1 2 2 0 0 0 -1.77.64 2.85 2.85 0 0 0 -.58 1.9z" fill="#caa485"/><path d="m79.07 416.11c-6.36-16.81-1.73-34.68 3.93-51a193.24 193.24 0 0 1 9.18-23.11c1.41-2.83 10.47-20.21 15.59-14l-1.36-7c-5 12.47-2.8 25.59 4.92 36.39l2.88-9.34c-7-.93-21.25-2.56-23.83 6.38-1.14 3.94-.17 8.65.09 12.67l1.08 17c.33 5.17 8.93 9.76 10.12 2.7l.93-5.53-10.12-2.71 3.22 23.18c.55 3.94 3.86 7.48 8 5.88 7.78-3 18.58-1.18 23.57 6 4.42 6.34 1.71 15.68-3.85 20.42-8 6.84-20.1 1.7-27.65-3.43-7.89-5.37-14.23-13.29-15.47-23-.49-3.81-7.46-10.18-9.73-4-3.63 9.91-.5 20.2 7.55 26.9 4.91 4.1 8.6-2.7 6.35-7l-6.53-12.44c-3-5.82-10.39-3.29-9 3.18a50.58 50.58 0 0 0 24.64 33.07 43.48 43.48 0 0 0 20.76 6c8.19.05 14-4.31 19.57-9.93s10-12.63 8.61-20.64c-1.32-7.67-7.51-13.21-14-16.81-6.65-3.68-14.16-5.43-21.64-6.43-3.63-.48-9.07-.1-11.88-2.77-2.57-2.45-3.06-7.24-3.52-10.57a65.52 65.52 0 0 1 15.09-50.85l-8.11-2.11c1.84 4.29-.5 9-3.61 11.89l9 5.08-.41-5.18c-.31-3.94-7.65-10.08-9.72-4-6.17 18.12-11.82 37.54-3.42 55.93a54.12 54.12 0 0 0 14.35 18.37 62.59 62.59 0 0 0 10.3 7.09c1.71 1 3.44 1.84 5.21 2.68a23.5 23.5 0 0 0 2.41 1.2c2 .65.54 1.85.88-.41l9.22-.26-5.4-11.45c-2.16-4.57-10.25-4.37-9.29 1.69a25.79 25.79 0 0 1 -.7 12.43c-.24.74-1.25 3.83-2.24 4.09 0 0-1.57-1.18-2.14-1.67a72.5 72.5 0 0 1 -13.8-15.85 79.1 79.1 0 0 1 -12.55-38.94c-.21-4.14-7.46-9.88-9.72-4-10.93 28.43 3.27 60.8 32 71.47 1.94.72 4.78.26 5.55-2 2.17-6.39-.45-11.61-4.53-16.62-5-6.15-10.39-12-15.57-18.05l-5.5 8.3 26.67 22.57c4.73 4 9-2.7 6.36-7a87.27 87.27 0 0 0 -14.81-18.47l-4.19 9a17.6 17.6 0 0 1 10.35 7.73l5.11-7.69a66.69 66.69 0 0 1 -22.4-17.52l-6.55 7.28 4.68 4.36c5.64 5.32 11.72-2.4 6.55-7.28l-4.63-4.37c-5.68-5.36-11.1 1.86-6.55 7.28a80.68 80.68 0 0 0 27.13 20.95c4.84 2.33 7.23-4.15 5.11-7.68a30.4 30.4 0 0 0 -16.93-13.78c-5.57-1.77-8 5.42-4.18 9a75 75 0 0 1 12.93 15.86l6.36-7-26.7-22.56c-5.48-4.68-9.09 4.06-5.43 8.32l9.73 11.29c1.1 1.27 8.19 7.83 7.65 9.4l5.55-2a41.36 41.36 0 0 1 -24.52-54.05l-9.72-4a92.94 92.94 0 0 0 21.25 54.36 89.67 89.67 0 0 0 9.79 10c3.2 2.83 7.09 6 11.65 4.6 9.56-2.95 10.35-18.52 9.1-26.46l-9.29 1.68 5.41 11.45c1.84 3.9 8.44 4.9 9.22-.26 1.28-8.42-5.56-12.75-12.18-15.94a51 51 0 0 1 -17.85-13.86c-12.45-15.55-6.25-35.6-.45-52.51l-9.72-4 .4 5.19c.33 4.15 5.28 8.58 9 5.08 7.18-6.75 7.9-16.76 4.16-25.44-1.21-2.81-5.79-4.86-8.12-2.11a75.74 75.74 0 0 0 -17.11 37.26c-1.94 12.41-2.22 30.43 6.81 40.35 4.88 5.35 11.7 5.92 18.45 6.78 7.11.89 14.57 2.33 20.62 6.41 2.56 1.73 5.4 3.89 5 7.29-.47 3.86-3.82 7.35-6.41 10-2.23 2.26-4.65 4.69-7.53 6.1-3.77 1.84-8.12 1.37-12.1.5-14.06-3.07-24.9-14.63-27.86-28.53l-9 3.17 6.54 12.44 6.35-7a9.67 9.67 0 0 1 -2.59-10.88l-9.73-4c1.91 14.84 11.12 27.46 23.82 35.14 11.88 7.18 28.53 11.64 39-.26a27.66 27.66 0 0 0 .9-34.9c-8.49-10.81-23.39-14-35.93-9.2l8 5.89-3.22-23.18c-.68-4.85-8.89-10-10.12-2.7l-.93 5.53 10.12 2.7-1.38-21.71c-.26-4-1.15-3.77 2.72-4.33a43.27 43.27 0 0 1 11.92.13c5.7.75 5-6.34 2.88-9.34-4.65-6.51-5.11-15.12-2.21-22.41a6.91 6.91 0 0 0 -1.35-7c-6.4-7.76-16.75-5.74-22.89 1.15-7.4 8.3-11.53 19.53-15.3 29.82-7.67 21-15 44.22-6.7 66.15 1 2.59 3.38 5.44 6.51 4.83 2.84-.56 4.1-4 3.13-6.53z" fill="#caa485"/><path d="m374 333.89c16 26.75 35.95 74 6 98.85a30.81 30.81 0 0 1 -19.68 7.1c-6.22 0-16.31-2.5-19-9.07-3.51-8.57 10.57-13.72 16.23-15.57 6-2 16.12-5.13 21.54-.16 5.67 5.21 11.66-2.28 6.55-7.28-11.77-11.5-32.36-13.14-46.47-4.7-6.72 4-11.11 10.78-10.91 18.76.21 9 6 16.87 12.34 22.7s14.29 11.47 23.22 7.91c7.38-2.94 13.44-11.27 15.19-18.9 2.13-9.25-3.49-15.86-12.26-17.79-7.89-1.74-17.58-1.36-21.42 7-3.75 8.2 1.91 16 9.81 18.41 8.24 2.47 18 .28 23.71-6.45s4.58-15.68-1.32-21.68c-6.11-6.21-16.37-7.1-24.44-4.9-8.61 2.35-13.77 11-8.87 19.25 4.05 6.79 13.07 9.46 20.53 8.8a23.91 23.91 0 0 0 18.25-11.02c4.38-7.31 3.31-18-5.22-21.83-9.88-4.43-15.43 6.47-12.48 14.74s12.51 17.38 21.2 10.45c6.64-5.3 8.53-18.93 4.22-26.09-2.33-3.87-6.94-7.14-11.66-6.21-4.36.85-5.8 5-9.23 7.05l7.54 8.6c4.52-8.41 2.77-18.28-3.12-25.51l-5.43 8.29c4.86 3.64-1.39 10.59-4.61 12.67-5.19 3.35-12.71 6.17-18.54 3.07a4.19 4.19 0 0 0 -5.54 2c-4.72 9.1-5.89 20.15 4 26.38 8.77 5.54 19 1.56 26.19-4.67 13.58-11.8 16.33-32 9.12-47.93l-6.36 7c6.35 5.69 14.08-.11 15.13-7.24.69-4.68 0-9.7-.19-14.4l-.65-17c-.11-2.82-2.54-6.09-5.49-6.35a33.6 33.6 0 0 0 -11.77.93l5.61 10.12c6.26-6.95 6.79-16.47 2.73-24.66l-8.45 4.68a93 93 0 0 1 9.26 58.76c-.86 5.13 6.27 11.27 9.65 5.42 7-12 4.19-26.22 1.15-39l-9.64 1.7a88.86 88.86 0 0 1 5.63 41.74 7.16 7.16 0 0 0 4.11 7.42 4.24 4.24 0 0 0 5.94-3.28c3-26.2-5.17-51.29-13.77-75.67l-4.43 6.56c2.39.49 3.35 1.81 3.85 4l9.64-1.7a65.61 65.61 0 0 0 -6.9-13.82l-7.47 6a98.15 98.15 0 0 1 21.58 52c.92 9.24 1.09 19.32-2 28.18-3.06 8.65-10.54 16.57-20.39 15.76l5 9.06a27.24 27.24 0 0 1 5.24-9.25l-8.55-7.8-1.62 3.44c-2.57 5.48 6.23 13.17 9.26 6.71l1.62-3.43c2.12-4.52-4.37-12.66-8.55-7.8a34.93 34.93 0 0 0 -6.67 11.42c-1.23 3.55.78 8.71 5 9.06 10.92.9 20.47-5.16 26-14.38 6.12-10.21 6.8-23.09 6.22-34.69a113.36 113.36 0 0 0 -25.59-65.65c-4.22-5.18-11 .61-7.47 6a52 52 0 0 1 5.65 10.87c2.4 6.5 11.39 6.06 9.64-1.7a17.93 17.93 0 0 0 -14.28-13.73c-3.66-.75-5.43 3.72-4.43 6.55 7.9 22.38 16.15 45.75 13.37 69.84l10.05 4.17a101.6 101.6 0 0 0 -6-47.57c-2.46-6.4-11.5-6.09-9.64 1.7 2.42 10.16 4.76 21-.77 30.59l9.66 5.42a107 107 0 0 0 -10.9-67.5c-3.51-6.71-11.72-2-8.39 4.65 1.91 3.86.55 8.09-2.18 11.13-3.14 3.49.68 11.42 5.61 10.12a26.1 26.1 0 0 1 9.18-.88l-5.49-6.34.66 17c.1 2.66.21 5.32.31 8 0 .49-.39 6-.75 5.62a4.54 4.54 0 0 0 -6.08.22c-1.76 1.87-1.23 4.67-.28 6.77 4.12 9.07 2.35 20.31-3.17 28.4-2.95 4.32-7.17 8.21-12.16 10-2.34.83-6.45 1.61-8.45-.52-2.22-2.36 1-7.28 2.16-9.57l-5.54 2c9.91 5.28 24.56.14 31.69-7.84 7.34-8.21 6.5-21.24-2.41-27.92-5.83-4.38-8.92 4-5.43 8.29 2.83 3.48 2.42 7.78.41 11.53-2.16 4 3 11.37 7.54 8.6a17.31 17.31 0 0 0 3.32-2.6c.63-.63 1.89-2.82 2.8-3.11 1.41-.44.27-.49.93.52.31.48-.3 3.22-.36 3.55-.28 1.79-.55 4-1.65 5.53-1.31 1.76-2.42 2.23-4.06.92-.89-.7-2.28-2.68-2.09-4-.12.84.82-1.52 1.05-.77.15.51-.48 1.81-.64 2.22a12.9 12.9 0 0 1 -3.93 5.2 17.24 17.24 0 0 1 -8.36 3.45c-2.44.33-8.15.38-9.82-2-.17-.24-.49-.63-.45-.37s1.36-1.38 1.83-1.73a11.16 11.16 0 0 1 5.16-1.67c3.38-.48 9.6-1.07 12.09 2s-1.47 6.46-4.13 7.95a14.69 14.69 0 0 1 -11.68 1.21c-1.13-.38-1.89.14-.51-1.56a6.53 6.53 0 0 1 4.54-2.14 20.43 20.43 0 0 1 6.18.47c2.93.56 3.87.27 2.79 3.31-2.19 6.11-9 14.75-16.22 11-5.89-3.07-14.2-10.82-14-18 .22-8.24 10-12 16.8-13.13 7.92-1.34 17.77-.86 23.85 5.07l6.55-7.28c-6.16-5.64-13.34-7.34-21.56-6.29-7.69 1-16.66 3.76-23.15 8-7.12 4.66-12 12.78-9.79 21.45 1.92 7.66 8.68 13.64 15.57 16.94 14.33 6.87 31.56 3 42.8-7.76 12.71-12.15 17-30.72 15.63-47.75-1.83-22.24-11.41-44.15-22.74-63.12-3.84-6.43-12.28-1.84-8.4 4.65z" fill="#caa485"/><path d="m115 154.35v-1a5.36 5.36 0 0 0 -.59-2.23 5.59 5.59 0 0 0 -1.23-2 4.93 4.93 0 0 0 -1.74-1.37 4.25 4.25 0 0 0 -1.93-.7h-1.3a3.87 3.87 0 0 0 -2.23 1.24l-.71 1.08a5.64 5.64 0 0 0 -.46 2.72v1a5.35 5.35 0 0 0 .58 2.23 5.62 5.62 0 0 0 1.24 2 4.82 4.82 0 0 0 1.74 1.37 4.25 4.25 0 0 0 1.92.7h1.3a3.84 3.84 0 0 0 2.23-1.24l.71-1.08a5.64 5.64 0 0 0 .47-2.72z" fill="#dd9b62"/><path d="m104.57 141.36-1.33 9.64c-.65 4.7 7.45 12 9.65 5.42a73.37 73.37 0 0 1 10.54-20.42l-9-6.51a19.18 19.18 0 0 1 -2.34 5.42l9.26 6.71 9.53-16.87-9.22-6.75c-3.31 8.85-6.4 17.83-10 26.58-1.39 3.42-2.84 6.52-7.07 6.08-3.85-.41-7.93-2.05-11.43-3.66-6.44-3-11.09-7.92-11.36-15.25-.25-7 2.87-14.08 7.45-19.26 11-12.41 29-16.63 44.28-21.07a556.62 556.62 0 0 1 54.95-13.19c68.52-12.57 146.24-10.11 206.74 28.29 13.76 8.73 29.06 20.91 35.46 36.45 2.17 5.28-1.29 7.25-5.59 9.47a82.06 82.06 0 0 1 -13.42 5.5 86.83 86.83 0 0 1 -30 3.7l5 9.07c3.49-11 3.72-22.74-.45-33.62s-12.22-19.09-16.83-29.59l-8.39 4.65a388.15 388.15 0 0 1 21 50.14c1.8 5.3 10.19 7.08 9.91-.21a64 64 0 0 1 4.22-25.54l-7.91.29c4.27 5.83 4.58 13.53 1.85 20-1.61 3.84 2.82 11.81 7.54 8.61 9.43-6.41 21.13-8.94 32.26-5.89 4.2 1.15 6.83-2.1 5.73-6.21-8.8-32.95-40.35-49.39-68.93-62.68-6.44-3-7.27 7-3.07 10a358.73 358.73 0 0 1 54.69 48.37l4.18-9a278.23 278.23 0 0 1 -48.27-33.25 4.39 4.39 0 0 0 -6.43.76c-1.65 2.31-.63 5.54 1 7.54q15.93 19.54 32.69 38.39c1.39 1.57 4.15 2.9 6.18 1.61a20.88 20.88 0 0 0 8.37-9.73l-9.72-4c0 2.48-7.47 1.71-8.57 1.67-2.84-.1-5.66-.16-8.35.9a11 11 0 0 0 -7.37 11.49l8.37-3a46.14 46.14 0 0 1 -8.94-17.62c-1.84-6.87-11.19-5.91-9.64 1.7l6.7 32.84c.6 2.9 4.73 6.32 7.73 4.4a48.79 48.79 0 0 0 21.92-32.9c.78-4.47-4.84-10.59-8.95-6.51s-4.22 10.16-1.5 15.14c3.61 6.61 12 2 8.4-4.65a1.4 1.4 0 0 1 .94-1.61l-8.94-6.5a39.48 39.48 0 0 1 -17.68 26.53l7.73 4.4-6.71-32.84-9.64 1.7a61.3 61.3 0 0 0 12 23.2c3 3.65 8.74 2 8.37-3-.25-3.26 14-2 16.46-2.86 5.13-1.82 7.73-5.8 7.79-11.14 0-4.42-7.36-9.57-9.73-4a12.15 12.15 0 0 1 -4.93 6l6.19 1.6q-16.77-18.84-32.69-38.39l-5.44 8.29a291.56 291.56 0 0 0 50.77 34.66c5.67 3.06 7.15-5.78 4.19-9a373.48 373.48 0 0 0 -56.92-50.4l-3.07 10c24.57 11.43 53.48 25.12 61.11 53.67l5.73-6.21c-13.71-3.75-28-2-39.9 6.11l7.54 8.61c4.86-11.62 2.79-24-4.56-34-1.81-2.48-6.61-3.1-7.9.28a77.6 77.6 0 0 0 -5.14 31l9.91-.21a409.24 409.24 0 0 0 -22.25-53.09c-3.44-6.83-11.39-2.1-8.39 4.65 3.74 8.44 9.91 15.37 14.16 23.5a37.26 37.26 0 0 1 2.38 28.24c-1.1 3.47.68 8.84 5 9.06a95.19 95.19 0 0 0 30-3c8.28-2.26 19.37-5.45 25.49-11.83 6.68-6.95 3.12-16.8-1.1-24a95.59 95.59 0 0 0 -17-21.19c-28.45-26.84-68.6-41.1-106.44-48.07-42.07-7.74-85.48-5.83-127.42 1.8a571 571 0 0 0 -65 16.05c-16.76 5.18-35.11 11.51-44.37 27.61a36.22 36.22 0 0 0 -3.92 26.88c2.54 9.53 9.92 16.41 18.66 20.43 8.09 3.72 19.93 7.88 26.42-.56 3.16-4.11 4.56-9.58 6.35-14.35l6.79-18.1c2-5.45-5.63-13.15-9.27-6.71l-9.52 16.87c-3 5.29 5.61 12.86 9.26 6.71a28 28 0 0 0 3.13-8c1-4.08-5.47-11.19-8.94-6.5a81.14 81.14 0 0 0 -12 22.62l9.66 5.42 1.34-9.65c.84-6.1-9-11.6-10.06-4.13z" fill="#dd9b62"/><path d="m105.24 152.16a59.28 59.28 0 0 1 14.06-34.25l-8.55-7.8a70.82 70.82 0 0 0 -7.86 26.58c-.54 5.93 8 11.67 10 4.13a46.51 46.51 0 0 1 25.27-29.27l-7.54-8.6a23.91 23.91 0 0 1 -9.25 12l7.54 8.6a66.37 66.37 0 0 1 16.34-25.3c3.32-3.22-.89-11.77-5.61-10.12a69 69 0 0 0 -39.58 34.87c-2.19 4.47 4.91 13 8.55 7.79a281.32 281.32 0 0 0 18.74-30.4c2-3.79-3.15-11.86-7.54-8.61-17.29 12.81-35.64 32.67-26.19 56l7-5.51c-10.76-9.32.08-25 7.56-32.25 3.85-3.72-2-12.79-6.83-9.69-8.56 5.45-17.16 12.27-19.67 22.6-2.21 9 .93 19.26 8.79 24.56 5.84 3.93 9.34-4 5.43-8.3-5.25-5.84-1-15.18 3.27-20.32 6-7.17 14.13-12.25 20.58-19 4.24-4.44-2.88-13.42-7.84-8.89-6.41 5.87-12.67 11.89-17.14 19.43a39.23 39.23 0 0 0 -4.46 11.41 59.13 59.13 0 0 1 -1.38 6.31 7.76 7.76 0 0 1 -1.36 2.65 2.74 2.74 0 0 1 -1 1c-1.23.6-1.31 1.73-.26 3.37l-5.54 2a131.09 131.09 0 0 1 27.1 16.52 4.43 4.43 0 0 0 6.78-1.3 89.94 89.94 0 0 0 8.66-19.37c2-6.31 2.1-14.5 6.18-19.87 3.83-5 10.14-7.91 15.6-10.79q10.5-5.54 21.42-10.19c5.77-2.49 0-13-5.82-10.5l-33.31 14 5.82 10.5c28.12-15.88 60.09-22.56 92.12-24a419.61 419.61 0 0 1 52.23 1.33c16.7 1.32 33.56 2.75 50 6.1a149.9 149.9 0 0 1 49.14 19.13l.46-10.34c-10.32 2.35-20.39-4.41-29.6-8.2a254.58 254.58 0 0 0 -94.95-18.96l3.3 11a53.94 53.94 0 0 1 37.93-1.21l-2-10.61c-13.54 5.82-28.72 3.4-43 3.19a248.2 248.2 0 0 0 -124.38 31c-5.56 3.06.25 13.56 5.82 10.5a240.63 240.63 0 0 1 125.52-29.97c14.25.54 28.45 1.48 41.86-4.27 4.48-1.92 1.57-9.39-2-10.61a63.91 63.91 0 0 0 -45.56 1.43c-4.87 2-1.16 10.94 3.3 11a240.84 240.84 0 0 1 97.31 20.31c9.47 4.14 19.15 9.11 29.76 6.7 4.83-1.09 4-8.14.47-10.34-29.16-18.14-61.82-23.54-95.48-26.58-35-3.16-70.81-4.24-105.39 3.22a187.9 187.9 0 0 0 -52.74 19.66c-5.61 3.17.05 12.93 5.82 10.5l33.31-14-5.82-10.5q-11.34 4.88-22.26 10.64c-6 3.17-12.51 6.54-16.78 12-4.44 5.61-5.17 12.32-6.83 19a82.32 82.32 0 0 1 -9.43 22.36l6.79-1.3a142.09 142.09 0 0 0 -29.59-17.92c-1.89-.86-4.8-.16-5.54 2a11.57 11.57 0 0 0 7.22 14.88c5.92 1.93 11.37-2.36 13.68-7.58 2.82-6.37 2.68-13.15 6.52-19.25 4-6.36 9.83-11.55 15.32-16.58l-7.84-8.89c-8.32 8.73-19.67 15-25.25 26-4.82 9.53-4.65 21.3 2.69 29.47l5.44-8.3c-4.54-3.06-4.26-9.13-2-13.63 3-6.09 8.85-10.17 14.42-13.71l-6.83-9.69c-7.1 6.84-13.16 15.57-14 25.66a28.92 28.92 0 0 0 10 24.79c3.74 3.24 8.71-1.24 7-5.51-7.44-18.3 9-33.89 22.36-43.75l-7.54-8.61a259.75 259.75 0 0 1 -17.32 28.24l8.55 7.8a60.1 60.1 0 0 1 33.75-30.28l-5.61-10.12a73.07 73.07 0 0 0 -17.77 27.47c-1.38 3.82 2.67 11.85 7.54 8.6a32.2 32.2 0 0 0 12.7-15.74c1.63-4.34-2.49-11-7.54-8.6-14.75 7-25.15 20-29.5 35.63l10 4.13a63.14 63.14 0 0 1 7.07-24c2.37-4.52-4.46-12.59-8.55-7.8a68.33 68.33 0 0 0 -16.27 39c-.23 3 1.15 6.24 4.12 7.42 2.48 1 5.7-.34 5.93-3.29z" fill="#dd9b62"/><path d="m134.47 100.16.51-1a4 4 0 0 0 .43-2 5 5 0 0 0 -.23-2.2 5.83 5.83 0 0 0 -1.09-2.13 5.39 5.39 0 0 0 -1.58-1.68l-1.24-.69a4.68 4.68 0 0 0 -2.61-.33l-1.22.43a4.15 4.15 0 0 0 -1.72 1.89l-.51 1a4.25 4.25 0 0 0 -.43 2 4.91 4.91 0 0 0 .24 2.21 5.66 5.66 0 0 0 1.08 2.13 5.25 5.25 0 0 0 1.58 1.67l1.25.7a4.73 4.73 0 0 0 2.6.33l1.22-.44a4 4 0 0 0 1.72-1.89z" fill="#dd9b62"/><path d="m156.66 60.62c12.87-10.13 26.83-19.44 41.78-26.22 16-7.25 33-7.75 50.2-5.86a188 188 0 0 1 88.06 33.65l1.53-5c-30-8.85-61.13-10.46-92.2-9.66-16 .41-31.94 1.42-47.89 2.35-14.22.84-31-.52-43.89 6.63l2.91 5.25c11.73-9.34 25.2-12.49 40-12.54 15-.05 30 .4 45 .65s29.75.62 44.45 2.85c12.79 1.95 26 6.48 38.49.94 2.26-1 .77-4.65-1-5.3-10.49-3.88-21-7.74-31.81-10.65s-22-4.1-33.16-5.53c-18.29-2.33-40.32-13.07-56.51.87-2.23 1.93 1 5.81 3.42 4.85 35.32-13.9 71.72 7.22 106.4 12.86l-1-5.69c-11.47 2.17-22.87.58-34.23-1.44s-22.33-3.89-33.73-4.26a171 171 0 0 0 -32 1.94c-11.47 1.8-23.56 6-35 1.84l.39 5.52a194.65 194.65 0 0 1 47.42-9.9c3.14-.26 1.46-5.46-1-5.7-9.18-.88-18.35-1.58-27.4.59-3 .71-1.64 5.55 1 5.69l14.13.72-1-5.69-18.02 6.15c-3.12 1.08-1.35 6.37 1.69 5.68a173.31 173.31 0 0 1 47.47-4.06l-.4-5.71-30 .14 1 5.69q20.32-.59 40.66-.23l-1.05-5.7a86.59 86.59 0 0 1 -26.37-2.88l.39 5.52c20.06-.66 39.58 4.54 58.76 9.79 3.65 1 3.79-4.21.91-5.36l-48.84-19.41-.22 5.53a375.14 375.14 0 0 1 39.35 8.53l-1.5-4.9c-1.82 1.8-6.25-.37-8.27-.89-2.69-.69-5.39-1.29-8.12-1.78a108.62 108.62 0 0 0 -17.46-1.66c-11.45-.14-22.07 2.33-33.26 4.21-5.61.94-10.38-.07-15.9-.31-3.17-.14-6.36 1-7.32 4.33s.95 6.52 3.28 8.61c3.63 3.23 8.76 2.6 12.55 5.43l-.88-4.55-4 4c-2 2 .89 6.05 3.42 4.85a57.28 57.28 0 0 1 22-5.52c3.27-.16 1.35-5.83-1.69-5.68a60.61 60.61 0 0 0 -23.25 6l3.41 4.8 4-4c1.31-1.29.34-3.63-.88-4.54-3.22-2.41-6.76-2.37-10.28-4-2.68-.74-2.92-2.09-.7-4a17.28 17.28 0 0 1 3.52.33 51.13 51.13 0 0 0 6.65.67c9 0 17.66-3.16 26.51-4.2a104.53 104.53 0 0 1 29.72.74c4.66.79 9.13 2.38 13.75 3.24 2.78.52 5 .36 7.08-1.68 1.38-1.36.26-4.41-1.51-4.9a386.38 386.38 0 0 0 -40.65-8.88c-3.36-.54-2.57 4.62-.26 5.53l48.82 19.42.91-5.36c-20.12-5.5-40.33-10.8-61.36-10.11-2.85.09-1.66 5 .39 5.52a94.72 94.72 0 0 0 29.07 3.22c3-.13 1.59-5.65-1-5.69q-21-.36-41.95.26c-3 .09-1.62 5.71 1 5.69l30-.13c3.56 0 2.66-5.54-.4-5.71a178 178 0 0 0 -48.79 4.11l1.69 5.68 17.91-6.15c2.77-1 1.8-5.55-1-5.7l-14.14-.72 1 5.69c8.67-2.07 17.34-1.4 26.11-.55l-1-5.69a195.12 195.12 0 0 0 -47.45 9.91c-2.57.88-2 4.66.39 5.52 10.31 3.75 20.68 1.61 31.12-.38a170.07 170.07 0 0 1 37.2-3.06c23 .76 46.23 10 69.26 5.68 3.19-.61 1.4-5.3-1-5.7-35.92-5.84-72.3-26.81-108.89-12.41l3.42 4.84c7.3-6.29 17.3-6.48 26.35-4.92 10.22 1.76 20.06 4.58 30.4 5.77s20.63 2.66 30.73 5.46c9.88 2.76 19.51 6.35 29.12 9.91l-1-5.31c-13.12 5.82-29.2-.72-42.69-2.28-15.08-1.75-30.28-1.86-45.44-2.09-14.21-.22-28.52-.94-42.73-.44-13.67.47-26.33 4.32-37.11 12.91-2.39 1.89 0 6.85 2.91 5.25 6.13-3.42 12.88-4.34 19.79-4.84 7.62-.55 15.25-.91 22.87-1.36 15.34-.9 30.68-1.87 46-2.3 30.72-.88 61.83.54 91.47 9.28 3.31 1 3.8-3.39 1.53-5a193.62 193.62 0 0 0 -90.6-34.69c-16.71-1.84-33.58-1.6-49.34 4.85-16.26 6.66-31.41 16.86-45.15 27.69-2.49 1.95.47 7.17 2.9 5.24z" fill="#dd9b62"/><path d="m307.92 48.35c-.29 0-.3 0 0 0a3.4 3.4 0 0 1 -.45 0c-.13 0-.74-.2-.22 0l-.63-.25c.29.18.3.18 0 0l-.36-.27a2.21 2.21 0 0 0 -3.4.65 3.5 3.5 0 0 0 1.24 4 7.69 7.69 0 0 0 5.5 1.56c1.48-.14 2-2.08 1.56-3.27a3.2 3.2 0 0 0 -3.25-2.41z" fill="#dd9b62"/><path d="m224.15 28.47c35.3-5.64 70.44 7.07 98.93 27.48 3.18 2.28 4.82-2.76 2.16-4.66-29.59-21.19-66.13-34.36-102.78-28.5-3.3.53-1.34 6.17 1.69 5.68z" fill="#dd9b62"/><path d="m338.48 57.14c-19.12-15.93-43.17-23.14-66.68-29.86l.39 5.52c7.73-1.87 18.19 3.67 25.2 6.78a144.5 144.5 0 0 1 22.77 12.77c3 2 4.53-2 2.71-4.15-8.13-9.81-21.15-11-32.37-15.33l-.26 5.53a73.25 73.25 0 0 1 50.28 26.15c2.56 3.07 5.28-.9 3.28-3.64l-3.15-4.32-2.1 4.5a3.64 3.64 0 0 1 2.69 1.67l1.44-4.67-6.43-.54c-3.56-.3-2.64 5.45.39 5.7l6.43.54c2.73.23 2.71-3.11 1.44-4.67a9.47 9.47 0 0 0 -5.05-3.39c-3.07-.85-3.53 2.52-2.09 4.5l3.15 4.32 3.28-3.64a79.06 79.06 0 0 0 -53.95-28.21c-3.36-.29-2.65 4.61-.26 5.53 10.06 3.87 22.72 4.82 30 13.61l2.71-4.15a151.61 151.61 0 0 0 -25.65-14.18c-7.57-3.25-17.76-8.42-26.16-6.39-2.65.64-1.9 4.86.39 5.52 23.05 6.59 46.68 13.53 65.43 29.16 3 2.5 4.64-2.59 2.16-4.66z" fill="#dd9b62"/><path d="m281.41 48.88a11.93 11.93 0 0 0 5.76-2.22 2.84 2.84 0 0 0 .64-3.79c-.57-1-2.32-2.37-3.55-1.46a9 9 0 0 1 -4.54 1.79c-1.52.16-1.93 2-1.57 3.26a3.21 3.21 0 0 0 3.26 2.42z" fill="#dd9b62"/><path d="m274.22 34.4a62.9 62.9 0 0 1 52.16 19.36c2.68 2.85 5.7-1.06 3.28-3.64a68.7 68.7 0 0 0 -57.13-21.39c-3.3.34-1.36 6 1.69 5.67z" fill="#dd9b62"/><path d="m265.45 30.32c6.7-1.58 13.67.53 20.2 2.08 5.77 1.36 15.84 3 19.12 8.6 1.9 3.23 6.12.93 4.2-2.33-3.97-6.67-12.12-8.93-19.15-10.83-8.21-2.22-17.56-5.21-26.06-3.19-3.27.77-1.29 6.38 1.69 5.67z" fill="#dd9b62"/><path d="m103.22 157a135.1 135.1 0 0 1 14.25 4.86l-.39-5.52a15.44 15.44 0 0 1 -7.6-.54l-.26 5.54a13.31 13.31 0 0 1 4.54 1.87l.88-5.18a42.58 42.58 0 0 1 -8.4-1.16l.39 5.7 11.66 2c3.49.61 2.58-5.19-.39-5.71l-11.66-2c-3.58-.62-2.42 5 .39 5.7a42.58 42.58 0 0 0 8.4 1.16c2.94.12 2.9-3.88.88-5.18a20.66 20.66 0 0 0 -7.08-2.92c-3.22-.69-2.7 4.72-.26 5.53a20.81 20.81 0 0 0 10.2.86c2.92-.49 1.59-4.72-.39-5.52a135 135 0 0 0 -14.25-4.85c-3.63-1-3.92 4.51-.91 5.35z" fill="#dd9b62"/><path d="m131.37 353.75c-6.5-16.32 3.84-36 22.64-34.94 18.57 1.08 27.94 19.44 27.58 36.12l2.41-2.53c-17.9-3.34-35.68 2.3-53.63 1.3l1 5.69a217.53 217.53 0 0 1 46.48.18c2 .22 2.53-1.73 2.21-3.28l-5.62-27.51-4.51 1.58a67.42 67.42 0 0 1 8.26 18.45l4.81-.81a50.63 50.63 0 0 1 -2.56-11.34l-4.95.1a61.48 61.48 0 0 1 2 16.91l5-.11c-5.31-15.71-13.28-31.88-31.69-33.86l1 5.69a18.26 18.26 0 0 1 17.28 5.4l2.71-4.15c-14.2-8.38-32.06-13.77-46.24-2.37l4.51 2.54c.3-6.85 14.31-3.73 17.53-2.6l.26-5.53c-8.78-1.23-17.86-1.84-25.09 4.11l4.47 3.25c.7-5.84 10.26-5.51 14.38-5.18a39.37 39.37 0 0 1 16.1 5.08c3.13 1.75 3.5-3.46 1.54-5a33 33 0 0 0 -28.68-6.17c-3.26.82-1.32 6.22 1.69 5.67 8.54-1.56 18.64-2.57 26.12 2.83 6.83 4.92 9 13.8 11.11 21.51l4.51-1.58a33.84 33.84 0 0 1 -3.2-8.1l-4.82.84a123.47 123.47 0 0 1 4.27 15.21c.62 2.91 5 3.35 5-.11a30.63 30.63 0 0 0 -2.93-12.37c-1.08-2.36-5-2.15-4.64.84l1.31 11.23 4.65-.85-6.66-14.2c-1.4-3-5.23-1.61-4.51 1.59l2.53 11.5 4.51-1.59a84.9 84.9 0 0 1 -6.26-16.54l-4.83.85a149 149 0 0 1 5.9 19.36l4.82-.84a117.48 117.48 0 0 1 -3.49-18.49l-5 .11a71.85 71.85 0 0 1 4.17 13.71l4.83-.85a32.2 32.2 0 0 1 -1.73-9.66l-4.19 1.5a9.45 9.45 0 0 1 2.69 6.82l4.19-1.5a63.74 63.74 0 0 1 -7.48-11.55c-1.46-2.86-5.36-1.67-4.51 1.59a103.91 103.91 0 0 1 3.22 20.89l5-.11q-4.32-11-8-22.27l-4.51 1.59a84.5 84.5 0 0 1 4.09 12.4l4.82-.85-5.15-15.41c-1.1-3.29-5.88-2.95-4.82.85l5.23 18.78 4.5-1.57a100.39 100.39 0 0 1 -9-20.22l-4.51 1.58a79.08 79.08 0 0 1 5.33 17.47l4-2.25a37 37 0 0 1 -7.3-16.28l-4.65.85a77.54 77.54 0 0 1 9.88 23.26l4.51-1.59-12.47-23.71-4.2 2.33a195.62 195.62 0 0 1 10.53 19.35l3.73-3a124.73 124.73 0 0 1 -12.24-18.61c-1.79-3.31-6-1-4.2 2.33a130.13 130.13 0 0 1 9.29 21.85l4.51-1.59-11.94-19.51-3.74 3a55.92 55.92 0 0 1 9.89 20.74l4.51-1.58-13.17-23.68c-1.86-3.34-5.73-1-4.2 2.33a119.86 119.86 0 0 1 8.17 25.4l4.83-.85-10.18-26.32c-1.23-3.19-5.8-3-4.82.85q2.53 10 5.74 19.86l4.51-1.59-8.18-18.34c-1.32-3-5.31-1.61-4.51 1.59l5.4 21.49 4.51-1.59q-3.66-7.53-6.72-15.33c-1.27-3.24-5.55-3.06-4.83.85l2.82 15.24 4.51-1.59-5.69-11.74c-1.4-2.88-5.41-1.66-4.51 1.59a83.14 83.14 0 0 1 2.72 15l5-.11a121.76 121.76 0 0 0 -4.9-18.5c-.88-2.52-5.48-3.57-5 .11l2.32 16.25 4.65-.85-5.4-10.33c-1-1.91-4.16-2.47-4.61.13a43.63 43.63 0 0 0 0 15.5l4.64-.84a100.08 100.08 0 0 1 -5-14.79c-1-3.93-2.41-9.66 1.44-12.57l-4-2.95a148.54 148.54 0 0 0 .52 19.79c.23 2.5 4.87 4.94 5.06 1.36l.94-18.14-4.99-1.35a24.75 24.75 0 0 0 1.85 10.27c.6 1.49 3.85 4.06 4.73 1.25q1.83-5.88 3.84-11.71l-4 .14a15.24 15.24 0 0 1 2.75 7.09c.44 3.19 5.61 4.53 5.09.64l3.91-2.18c1.24 1.4 3.86 1.46 4.15-.78a7.71 7.71 0 0 0 -1.1-5.51l-2.55 3.84a53 53 0 0 0 20 2.26c2.54-.2 1.84-4.24.23-5.17a35.17 35.17 0 0 0 -12.23-4.44l1 5.69a21.56 21.56 0 0 1 8.71 1.37l.26-5.53a115.89 115.89 0 0 1 -23.79-4.42c-3.69-1.11-3.69 4.1-.92 5.35 9.29 4.19 25.93 4.19 29.25 15.95l1.56-3.26a75 75 0 0 1 -26.55.73c-3.28-.49-2.72 4.73-.26 5.53l22.67 7.37.26-5.53-22.26-.89c-3.34-.14-2.68 4.56-.25 5.53a63.72 63.72 0 0 0 15.17 4l-.39-5.71-20.91.16c-3.57 0-2.66 5.48.39 5.71a141.33 141.33 0 0 0 21.58 0l-1.69-5.68a38 38 0 0 1 -10.5 1.3l1 5.69a34.59 34.59 0 0 1 19.55-.39c3.29.86 2.46-4.57.26-5.54l-3.28-1.43c-3.45-1.52-3.74 4.11-.91 5.35l3.38 1.45.26-5.53a37.31 37.31 0 0 0 -20.84.42c-2.82.87-1.76 5.64 1 5.69a42.68 42.68 0 0 0 11.8-1.32c3.35-.87 1.28-5.91-1.69-5.68a132 132 0 0 1 -20.28 0l.39 5.71 20.91-.16c3.6 0 2.61-5.3-.39-5.71a57.35 57.35 0 0 1 -13.87-3.66l-.26 5.53 22.25.89c3.25.13 2.82-4.7.26-5.53l-22.67-7.37-.26 5.53a79 79 0 0 0 27.85-.75c1.5-.31 1.94-1.95 1.57-3.27-4.26-15.1-21.24-15.09-33.15-20.45l-.92 5.35a121.19 121.19 0 0 0 25.1 4.77c3.33.27 2.7-4.64.26-5.53a27.91 27.91 0 0 0 -11.32-1.73c-3.23.16-1.32 5.32 1 5.69a27.58 27.58 0 0 1 9.7 3.39l.24-5.17a46.28 46.28 0 0 1 -17.33-1.91c-2.42-.74-3.75 1.85-2.56 3.84l.28 1.12 4.15-.79c-4.87-5.54-13.31-2.53-12.28 5.18l5.09.64a24.48 24.48 0 0 0 -4.57-11.37c-.86-1.21-3.36-1.57-4 .14q-2 5.83-3.84 11.71l4.72 1.26a21.17 21.17 0 0 1 -1.58-8.78c.08-2.73-4.88-4.75-5.06-1.35l-.94 18.13 5.06 1.35a150.24 150.24 0 0 1 -.52-19.79c.06-1.6-2.31-4.22-4-2.94-10.28 7.79-1.56 25.89 2.26 34.94 1 2.35 5.19 2.13 4.65-.85a39.36 39.36 0 0 1 -.09-14.07l-4.61.13 5.38 10.36c1.14 2.21 5.08 2.24 4.64-.84l-2.31-16.25-5 .1a122.94 122.94 0 0 1 4.9 18.5c.52 2.88 5.26 3.37 4.95-.1a90.75 90.75 0 0 0 -3-16.52l-4.51 1.59 5.69 11.74c1.47 3 5.09 1.57 4.51-1.59l-2.81-15.24-4.83.85q3.35 8.55 7.35 16.81c1.42 2.92 5.32 1.64 4.51-1.59l-5.24-21.5-4.51 1.59 8.17 18.34c1.29 2.89 5.56 1.63 4.51-1.59q-3.21-9.84-5.74-19.86l-4.82.85 10.17 26.31c1.25 3.22 5.63 3.06 4.83-.85a127.2 127.2 0 0 0 -8.8-26.88l-4.2 2.33 13.17 23.67c1.55 2.8 5.31 1.71 4.51-1.58a63.75 63.75 0 0 0 -11.33-23.55c-2-2.69-5.39.28-3.74 3l11.94 19.52c1.58 2.58 5.6 1.79 4.51-1.59a140.05 140.05 0 0 0 -9.91-23.33l-4.2 2.33a134.65 134.65 0 0 0 13.17 19.92c2.21 2.78 5-.27 3.73-3a195.53 195.53 0 0 0 -10.52-19.35c-2-3.18-6-1-4.2 2.33l12.47 23.71c1.5 2.85 5.31 1.67 4.51-1.59a83 83 0 0 0 -10.5-24.74c-1.22-1.93-5.23-2.41-4.64.84a45.76 45.76 0 0 0 9.12 20.56c1.92 2.48 4.52.28 4-2.24a85.08 85.08 0 0 0 -6-18.94c-1.28-2.91-5.53-1.64-4.51 1.58a108.68 108.68 0 0 0 9.6 21.7c1.57 2.7 5.45 1.76 4.51-1.58l-5.23-18.78-4.82.85 5.15 15.41c1.1 3.3 5.78 3 4.82-.85a95.69 95.69 0 0 0 -4.71-13.88 2.39 2.39 0 1 0 -4.51 1.59q3.69 11.25 8 22.27c1 2.5 5.16 3.65 5-.1a111.42 111.42 0 0 0 -3.49-22.38l-4.51 1.58a71.73 71.73 0 0 0 8.4 12.85 2.29 2.29 0 0 0 4.19-1.49 16.28 16.28 0 0 0 -4.51-11.1c-1.62-1.76-4.26-1-4.19 1.5a37.81 37.81 0 0 0 2 11.15c1.13 3.33 5.59 3 4.83-.85a72.83 72.83 0 0 0 -4.18-13.71c-1-2.37-5.36-3.71-4.95.1a126.44 126.44 0 0 0 3.76 20c.93 3.41 5.71 3 4.82-.84a150.16 150.16 0 0 0 -5.89-19.37c-1.22-3.2-5.86-3-4.83.85a93.81 93.81 0 0 0 6.89 18c1.48 2.92 5.25 1.64 4.51-1.59l-2.61-11.54-4.52 1.6 6.66 14.2c1.09 2.34 5 2.17 4.64-.84l-1.31-11.23-4.65.85a23.11 23.11 0 0 1 2 9.4l5-.1a122.83 122.83 0 0 0 -4.27-15.2c-1.14-3.27-5.8-3-4.82.84a39.73 39.73 0 0 0 3.83 9.58c1.53 2.77 5.39 1.72 4.51-1.58-2.5-9.32-5.58-19.42-13.78-25.33-8.67-6.25-20-5.67-30-3.84l1.69 5.67a28.07 28.07 0 0 1 24.83 5.16l1.53-5c-7.88-4.41-34.58-12-36.41 3.39-.29 2.38 2.25 5.08 4.47 3.25 6-5 14.39-3.85 21.56-2.84 3.31.46 2.67-4.68.26-5.53-7.66-2.7-23-4.33-23.54 7.31-.1 2.32 2.71 4 4.51 2.54 12.13-9.75 28.2-4.47 40.17 2.59 2.93 1.73 4.8-1.92 2.71-4.15a23.8 23.8 0 0 0 -22.24-7.44c-3.11.61-1.51 5.42 1 5.7 15.77 1.69 22 15.67 26.48 29 .93 2.76 4.89 3.48 5-.1a67.25 67.25 0 0 0 -2.26-18.4c-.73-2.74-5.34-3.45-5 .11a57.6 57.6 0 0 0 2.83 12.83c1.13 3.27 5.88 3 4.82-.85a72.87 72.87 0 0 0 -8.83-19.99c-1.71-2.68-5.2-1.79-4.51 1.58l5.63 27.52 2.22-3.27a223.15 223.15 0 0 0 -47.78-.16c-3.09.32-1.52 5.55 1 5.69 17.94 1 35.78-4.63 53.63-1.3 1.56.3 2.32-1.25 2.35-2.53.42-20-12.42-42.26-34.58-42.52-21.58-.24-33.07 22.71-25.56 41.55 1.28 3.21 6.28 2.8 4.82-.85z" fill="#eb682b"/><path d="m335.4 317.92c6.69 6.43 7.84 17.76 3 25.75-3.17 5.24-8.3 3.73-13.56 3.75a186.89 186.89 0 0 0 -20.06 1.4l6.71 7.74a65.1 65.1 0 0 0 -2.76-34.81c-1.62-4.46-8.31-7.44-9.84-1.21a28.56 28.56 0 0 0 .12 13.69l9.64-1.7c-2.56-6.27-3.75-18 5.85-18.09 7.57 0 16 4 22.37 7.75 6.17 3.6 9-3.67 5.43-8.29-6.54-8.44-18.27-17.78-29-10.21-3.34 2.36-2.61 7.79.75 9.91 5.91 3.72 14.3 5.48 19.11 10.67 5.85 6.31-1.3 14-7 17l7.73 4.4c-1.24-5.13 1.35-9.73 5.25-12.88l-9-5.08a16.39 16.39 0 0 1 -4.7 14.81l8.74 3.59a28.66 28.66 0 0 1 -.64-16.43c1.22-5.07-6.65-11.36-9.66-5.42l-8.62 17 9.73 4a20.66 20.66 0 0 1 3.66-13.33l-9.65-5.45a20.89 20.89 0 0 1 -4.57 11l8.95 6.51 2.32-22c.62-5.91-8.41-11.73-10.05-4.13a97.21 97.21 0 0 1 -5.94 18.39l9.73 4 .56-19.35c.15-5.42-9.49-9.56-10.12-2.71a194 194 0 0 0 -.72 25.28c.26 6.56 10.12 9.11 10.19 1.28a187.55 187.55 0 0 0 -1.4-24.73c-.78-6.31-10.59-9.25-10.19-1.28a169.79 169.79 0 0 0 2.37 21c.57 3.24 5.66 9.62 9 5.08a19.59 19.59 0 0 0 3.76-9.82c.45-3.73.18-7.42 2-10.8l-8.82-1c2.1 3.35 2 7.23 5.14 10.13s7.24 3.44 10.73 1c2.94-2.08 5-5.61 4-9.26-1.18-4.3-5.66-6.41-9.09-8.69l-.47 10.34c2.88-.68 6.26-.44 8 2.33 3.19 5.07 11.21 3.63 9-3.17-.14-.41-1.48 1.07.05-.27a18.39 18.39 0 0 0 2.16-1.68c1.3-1.51 1.43-3 1.47-4.95l-8.36 3c2.18 2.17 5.38 4.81 6.18 8 1 3.9-1.43 8-3.06 11.4l9.26 6.71a34.87 34.87 0 0 0 -2.82-31l-5.11 7.69c3.45 1.54 3.7 10.57 3.2 13.58a12.07 12.07 0 0 1 -2.64 5.93c-1.25 1.49-5.43 4.85-7.7 3.77l3.29 3-.38-.86c-1.09-2.47-4.59-4.31-7.11-2.92-2.84 1.58-2.37 5.12-1.29 7.58 2.58 5.85 9.26 5.36 14.26 3.24a19.66 19.66 0 0 0 11-12.87c2.95-10.17-.24-26.49-10.77-31.2-4.83-2.16-7.32 4.08-5.11 7.69a21.74 21.74 0 0 1 2 19.62c-2.07 5.45 6.08 13.3 9.26 6.71 2.79-5.77 5.16-11.87 3.77-18.37-1.28-6-5.35-10.74-9.6-15-3.47-3.46-8.24-2.1-8.37 3v.82l1.17-3.8c-1.48 1.72-3.68 2.19-4.64 4.55-1.09 2.66-.51 5.67.34 8.3l9-3.17c-4.27-6.78-11.69-10.94-19.77-9-4.89 1.15-3.91 8-.47 10.33l3.29 2.2c1.17.77 2.17 2.41 1.09.36l-.82-4.4c-.24 1.32 1.28 2.22.41-.6a19 19 0 0 0 -2.06-4.68c-2-3.19-6.59-5.12-8.83-1a22.87 22.87 0 0 0 -2.48 9.17c-.27 3.06 0 6.7-1.89 9.28l9 5.08a168.1 168.1 0 0 1 -2.37-21l-10.19-1.28a187.55 187.55 0 0 1 1.4 24.73l10.19 1.28a171.39 171.39 0 0 1 .58-22.43l-10.12-2.7-.58 19.28c-.13 4.49 7.33 9.49 9.73 4a111.4 111.4 0 0 0 6.72-21l-10.05-4.13-2.33 22c-.41 3.91 5.06 11.36 9 6.51a30.67 30.67 0 0 0 6.72-15.77c.65-5.23-6-11.11-9.66-5.42a29.94 29.94 0 0 0 -4.57 18.81c.32 4.43 6.92 9.52 9.72 4l8.62-17-9.65-5.42a39.8 39.8 0 0 0 1.05 22.26c1.14 3.39 5.53 6.89 8.74 3.59a26.13 26.13 0 0 0 7.05-22.43c-.69-4.29-4.94-8.37-9-5.08-7.05 5.71-9.13 14.91-7.05 23.47.75 3.12 4.53 6.06 7.73 4.4 9.93-5.18 16.16-16 12.34-27.16-4.12-12-16.38-14.3-25.95-20.32l.76 9.91c6.8-4.8 12.68 1.87 16.64 7l5.44-8.29c-9.31-5.42-22.95-12.55-34.05-9.14-12.31 3.79-12.12 20.71-8.13 30.49 2.56 6.3 11.44 6.16 9.64-1.7a16 16 0 0 1 .29-7.86l-9.85-1.22a53.32 53.32 0 0 1 2.35 29c-.75 3.89 2.69 8.18 6.72 7.74 4.59-.49 9.19-1 13.81-1.23 4.29-.21 8.56.32 12.82.13 6.86-.32 11.6-5.1 14.08-11.24 5-12.32 2.83-27.8-6.93-37.19-5.59-5.38-11.66 2.36-6.55 7.28z" fill="#eb682b"/><path d="m311.3 313a9 9 0 0 0 .17 4.4 10.62 10.62 0 0 0 2.22 4.11 6.18 6.18 0 0 0 3.67 2.06 4.09 4.09 0 0 0 3.53-1.26c2-2.41 1.24-5.87-.65-8.08a2.56 2.56 0 0 1 -.2-.26l.92 1.31a3.68 3.68 0 0 1 -.32-.58l.62 1.48a3.58 3.58 0 0 1 -.18-.64l.27 1.49a3.77 3.77 0 0 1 0-.67l-.07 1.43a3.64 3.64 0 0 1 .11-.66 7.11 7.11 0 0 0 -4.12-7.42 4.41 4.41 0 0 0 -3.82.11 4.83 4.83 0 0 0 -2.15 3.18z" fill="#eb682b"/><path d="m217.55 351.9-4 .66-.75-9.9h-.42l5.21 4.85-.18-.77-.21 4.26-2.38 1.29-5-9.06a13.31 13.31 0 0 1 -4.05 5.54l8.74 3.59a11.89 11.89 0 0 1 .27-7.81c1.5-4.11-1.59-9.55-6.32-9-4 .45-5.11 4.52-4.88 8l9.91-.21c.29 1.2 1.5-.2 2.4-.51a28.18 28.18 0 0 1 4.25-.81c.41-.07 3.32-.28 3.46-.58q-2.66-3.92-2.32-1.44c0 .45 0 .91.08 1.36.42 4.38 2.56 8.85 7 10.39 4 1.38 8.23-.31 11.22-3.05 1.55-1.41 2.69-3.63 4.44-4.78 2.57-1.7 5 .2 7.49 1.17 3.41 1.33 9.66 3.46 13.16 1.33 5-3.08 1.94-9.35 2.65-13.74.87-5.44 7.52 3 8.71 5.09a22.5 22.5 0 0 1 2.76 14.14l4.63-3.64-73.74-.37 4.32 10.1 8.8-8.61-6.07.22c13.75 8.3 29.15 6.76 44 2.54 6.3-1.79 14.17-3.11 16.75-10 2.27-6-.34-12.8-4.29-17.46-3.74-4.42-9.66-.91-8.1 4.48l5.31 18.33 7-5.51a17.51 17.51 0 0 1 -5.62-8.43l-9 3.18a101.72 101.72 0 0 1 6.54 16l3.13-6.53a62.77 62.77 0 0 1 -13.63-.49 59.21 59.21 0 0 1 -6-1.16c-1.27-.33-2.53-.7-3.77-1.11q-2.43-1.41-.6 2c3.17-5.17-5.52-12.82-9.26-6.71-4.58 7.49 3.25 14 9.72 16a73.39 73.39 0 0 0 27 2.88c3-.22 3.85-4.23 3.13-6.53a120.32 120.32 0 0 0 -7.78-19c-2.86-5.58-11.13-3.36-9 3.17a33.83 33.83 0 0 0 10.95 16.05c4 3.35 8.2-1.26 7-5.51l-5.3-18.32-8.1 4.48c3 3.51.56 5.73-3.09 7a120 120 0 0 1 -15.32 4.04c-9.08 1.84-19.16 2.23-27.38-2.73-2-1.22-4.26-1.56-6.08.22l-8.8 8.6c-3.07 3 .08 10.13 4.31 10.15l73.75.37c2.26 0 4.33-1.19 4.63-3.64a36.57 36.57 0 0 0 -12.53-32.64c-4.11-3.4-10.55-6.09-15.33-2.4a10.29 10.29 0 0 0 -3.62 6.39c-.58 3 1.23 7.87-.23 10.42l2.94-2.32c-7.21 1.39-13.16-6.57-20.58-2.86-3.2 1.6-4.63 4.62-7.27 6.76a5.59 5.59 0 0 1 -2.27 1.32q1.84 2.44 1.51.57c.52-.68-.5-3.6-.74-4.32-2.76-8.18-10.3-7.33-17.29-5.73s-11.37 6.4-9.59 13.81c1.35 5.64 10.37 6.84 9.91-.21l-1.92 2.08-6.32-9a25.32 25.32 0 0 0 -.66 16.22c1.08 3.83 5.43 6.41 8.75 3.59a19.29 19.29 0 0 0 5.47-7.71c1.48-3.71-1-8.45-5-9.06-5.19-.78-7.13 4.08-6.11 8.38a6.87 6.87 0 0 0 5.21 4.86 6.5 6.5 0 0 0 5.46-.94c3.46-2.26 2.5-7.84-.76-9.9-3.71-2.36-7.19-1.86-9.55 1.93-3.2 5.15 5.48 12.79 9.26 6.72z" fill="#eb3820"/><path d="m264.31 327.67a29.37 29.37 0 0 1 12.83 24.33c.09 5.53 8.44 9.4 10.12 2.71a19.91 19.91 0 0 0 -.84-12.41l-9 3.17a18.84 18.84 0 0 1 2.94 11.18c-.14 5.58 8.5 9.33 10.12 2.7 2.32-9.55-.73-19-5.17-27.51-3.8-7.24-8.78-15.06-17.56-16.23-7.06-.94-5.23 10.61.78 11.41 4.71.63 7.32 7.29 9.15 11 2.73 5.52 4.23 11.13 2.75 17.21l10.11 2.71a30.64 30.64 0 0 0 -4.73-17.11c-3.11-5-11.67-3.48-9 3.18a9.5 9.5 0 0 1 .44 6.58l10.12 2.7a43.56 43.56 0 0 0 -18.7-34.88c-6.43-4.46-9.7 5.58-4.32 9.32z" fill="#eb3820"/><path d="m181.86 315.73a11.56 11.56 0 0 1 4.76 4.74l3.18-3.5c-1.69-1.07-3.39-2.11-5.14-3.09-.65-.37-1.3-.73-2-1.08-1.65-1.45-2.14-1.22-1.45.67l-2.32 1.82a8.89 8.89 0 0 1 4.3 1.71 2.23 2.23 0 0 0 3.39-.66c2.35-4.35-1.25-10-6.34-8.35-3.18 1-1.35 6.25 1.69 5.67 3.24-.61 4.09 4.73 5.21 6.81a10.67 10.67 0 0 0 3.87 4.18c2.41 1.47 4.76-1.14 3.18-3.5a36.18 36.18 0 0 1 -4.7-9.88l-4.05 2.24a31.59 31.59 0 0 1 6.48 8.78c1.4 2.79 5.65 1.66 4.51-1.58l-.51-2.39-4.64.85a11.39 11.39 0 0 1 1.13 4.69c.21 2.35 3.3 4.61 4.87 2l4.33-7.22-4.41-.52-.32 2.9 4.47 3.25a13.16 13.16 0 0 1 2.91-6.44l-3 .11.55.42-1.47-2.65c0 2-1.12 3.42.28 5.39a3.49 3.49 0 0 0 4.57 1.09l-3.42-4.85a34.19 34.19 0 0 0 -4.39 9c-.83 2.67 3 6.75 4.63 3.36l4.07-8.69c1-2.23-2.38-6.47-4.27-3.9a27.48 27.48 0 0 0 -5.37 13.19l5.06 1.35-.13-4.95c-.06-2.65-4.51-4.84-5.06-1.36l-2 13 4.92.6a41.51 41.51 0 0 1 -1.33-7.32l-5.09-.64a18.43 18.43 0 0 1 -.37 5.78l5.06 1.35a88.26 88.26 0 0 0 -2.39-13.51c-.75-2.92-4.89-3.35-5 .1l-.11 7.3 4.64-.85-9-13.7c-2-3.12-5.91-1.08-4.2 2.32a87.85 87.85 0 0 0 6.87 11.35c2.09 3 4.9-.33 3.74-3a20.47 20.47 0 0 1 -1.62-6.45l-4.65.84a53 53 0 0 1 4.8 14.92c.51 3.13 5.66 4.53 5.09.63l-.94-6.41-4.64.85a35.22 35.22 0 0 1 3.2 14.16l5-.1a38.94 38.94 0 0 1 -1-9.43l-5.1-.64v8c0 3.29 5.06 4.54 5.09.64v-4.42c0-3.3-5-4.53-5.1-.64l-.18 7.93 5.09.64a37 37 0 0 1 -.57-8.21l-5.06-1.35a114.52 114.52 0 0 1 -.39 14.7c-.14 1.53.85 3.85 2.71 3.89l4.46.08c3.62.06 2.58-5.27-.39-5.71l-2.61-.38 2.16 5.08c2.25-2.56 2.3-5.54.7-8.46-1.18-2.17-5.06-2.28-4.64.84a40.71 40.71 0 0 0 1.62 7.3l1.56-3.27-1.2.23-.23 5.17 3-.29a2.26 2.26 0 0 0 1.7-2.52q-2-17.31-3.62-34.66c-.18-1.91-3.88-5.1-4.86-2-.45 1.44-1.45 3.33-1.43 4.84 0 2 1.58 3 2.3 4.82 1.24 3.23 6.23 2.81 4.82-.85a17.61 17.61 0 0 0 -3-5.11l.68 3.49 1.21-3.83-4.86-2q1.63 17.35 3.62 34.66l1.7-2.52-3 .29c-2.52.24-1.89 4.23-.24 5.17s3.06 1.49 5.05.79a2.46 2.46 0 0 0 1.57-3.26 31.84 31.84 0 0 1 -1.35-5.81l-4.65.84-.42 1.69c-1.53 1.74 0 4.77 2.15 5.08l2.61.38-.39-5.71-4.46-.08 2.71 3.89a127.77 127.77 0 0 0 .46-16.13c-.1-2.63-4.89-4.83-5.06-1.35a42.59 42.59 0 0 0 .55 9.63c.52 3.08 5 4.7 5.09.64l.22-7.85-5.1-.64v4.42l5.09.64v-8c0-3.3-5.07-4.55-5.1-.64a45.18 45.18 0 0 0 1.3 10.92c.68 2.87 5.05 3.39 5-.11a42.89 42.89 0 0 0 -4.11-17.13c-1.06-2.31-5.08-2.17-4.64.85l.94 6.41 5.09.63a63.24 63.24 0 0 0 -5.78-17.94c-1.14-2.32-4.94-2.18-4.64.85a29.69 29.69 0 0 0 2.51 9.42l3.74-3a76.73 76.73 0 0 1 -6-10l-4.2 2.32 9 13.71c1.45 2.21 4.59 2.26 4.65-.84l.14-7.35-5 .1a79.11 79.11 0 0 1 2.12 12c.25 2.59 4.28 4.88 5.05 1.35a22.64 22.64 0 0 0 .44-7.2c-.3-3.24-5.45-4.55-5.09-.64a49.82 49.82 0 0 0 1.6 8.81c.62 2.24 4.43 3.74 4.92.61l2-13-4.95-1.34.12 4.95c.07 2.64 4.61 4.85 5.06 1.36a22.36 22.36 0 0 1 4.27-10.82l-4.28-3.9-4.07 8.69 4.63 3.36a29.74 29.74 0 0 1 3.68-7.89c1.45-2.17-.58-6.14-3.41-4.85h.71l1.95 2.25c-.16-.83.75-2.06.47-3.2a4.56 4.56 0 0 0 -2-2.7 2.28 2.28 0 0 0 -3 .11 18.35 18.35 0 0 0 -4 8.82c-.36 2.09 2.52 5.5 4.47 3.25a7.71 7.71 0 0 0 .6-9.66c-1.05-1.64-3.22-2.5-4.42-.52l-4.34 7.23 4.87 2a23.76 23.76 0 0 0 -2-7.66c-1.08-2.46-4.84-2.09-4.64.84a11.36 11.36 0 0 0 .78 3.87l4.51-1.58a36.61 36.61 0 0 0 -7.4-10.1c-2-1.89-4.92-.65-4 2.24a41.88 41.88 0 0 0 5.15 11.39l3.18-3.49c-3.09-1.9-3.23-6.49-5.57-9.18-2-2.28-4.39-3.39-7.36-2.82l1.69 5.67v-.67l3.4-.65a18.33 18.33 0 0 0 -6.85-2.75c-1.26-.24-2 .78-2.32 1.82a4.26 4.26 0 0 0 1.32 4.42c2.53 2.45 7.12 3.91 10.1 5.8 2.54 1.61 4.47-1.13 3.18-3.49a17.55 17.55 0 0 0 -6.81-7.07c-3.37-1.94-5 3-2.15 4.66z" fill="#eb3820"/><path d="m202.36 316.88.93 2a3.37 3.37 0 0 0 1.64 1.52 2.28 2.28 0 0 0 1.91-.06c1.36-.85 1.25-2.5.65-3.79l-.93-2a3.43 3.43 0 0 0 -1.65-1.52 2.28 2.28 0 0 0 -1.91.06c-1.35.85-1.24 2.5-.64 3.78z" fill="#eb3820"/><path d="m184.59 307.75.7 2.8c.33 1.29 1.82 2.75 3.26 2.41s1.9-1.9 1.56-3.26l-.7-2.8c-.33-1.29-1.82-2.75-3.26-2.41s-1.9 1.9-1.56 3.26z" fill="#eb3820"/><path d="m226.41 295.34a39.81 39.81 0 0 0 3.82 12.27c1.38 2.78 5.8 1.61 4.51-1.59a22.68 22.68 0 0 1 -1.65-6.89l-5 .1 3.34 12.46c.92 3.44 5.55 2.95 4.82-.85l-.43-2.2c-.55-2.87-5.27-3.38-5 .11a19.94 19.94 0 0 0 2 7.12l4.2-2.33-1.58-2.47c-1.4-2.2-4.66-2.27-4.64.85l.05 11.95 5.09.64v-5.24c0-2.67-4.54-4.81-5.06-1.35l-1 6.68 4.93.61-.26-2.67-5.09-.64v8.91l5-.1a67.17 67.17 0 0 1 -1.46-13.18c0-2.09-3.84-4.94-4.86-2l-2.07 6 4.86 2a74.45 74.45 0 0 1 .72-9.55c.31-2.25-2.34-5.26-4.47-3.25a70 70 0 0 1 -18.18 12.32l2.91 5.24 13.82-8.42-3.77-4.3c-1.56 3.77-7.64 3-9.38 7.37-.85 2.11 1.29 5.58 3.77 4.3 3.61-1.86 12.5-4.15 10.24-9.77-2-4.87-6.74-3.61-9.78-.71-1.72 1.62.45 5.79 2.8 5.06 4.75-1.49 10.45-3.28 14.75.14l1.54-5-6.05-3.28-.26 5.53a42.34 42.34 0 0 1 12.62 4.24l.91-5.36a10 10 0 0 1 -4.87-3.74l-2.72 4.14 11 8.37c3.22 2.45 4.43-2.58 2.15-4.65a37.53 37.53 0 0 0 -6.15-4.56c-3.36-2-4.89 2.81-2.16 4.66a31.06 31.06 0 0 1 6.31 5.64l2.71-4.15-4-2.42c-2.87-1.76-5 2-2.72 4.14l3.59 3.39 2.09-4.49-15-4.23c-3.78-1.06-3.54 4-.91 5.36a64.88 64.88 0 0 0 13.73 5.26c3.14.82 2.39-4 .88-5.19l-3-2.32-2.16 4.65 7.56 5.53c2.1 1.54 4.08-.54 3.49-2.75l-.9-3.38-2.87 3.1 1.45 1.05 3.74-3a40.67 40.67 0 0 0 -18.82-13.18l.39 5.52a42.46 42.46 0 0 1 16.12.67l-.39-5.7a46.8 46.8 0 0 0 -16-.45l1.69 5.68a72.82 72.82 0 0 1 22.4-4.07c3.56-.07 2.65-5.71-.39-5.7a54.64 54.64 0 0 0 -18.65 3.25c-2.67 1-.29 6.15 2.3 5.46a92.36 92.36 0 0 1 18.99-2.98l-2.3-5.46a27 27 0 0 0 -13 11.41c-1.37 2.28 2.13 6.06 4.28 3.89l5.18-5.25-4.27-3.9-2.89 8.39c-1 2.82 3.47 6.68 4.63 3.36l2.93-8.35c.8-2.28-1.93-6.28-4.28-3.9l-5.18 5.25 4.27 3.9a23.11 23.11 0 0 1 11.25-9.51c2.92-1.23.07-5.58-2.3-5.47a92.36 92.36 0 0 0 -19 2.95l2.3 5.47a47.94 47.94 0 0 1 16.13-2.8l-.39-5.7a76.19 76.19 0 0 0 -23.7 4.09c-3.16 1.09-1.39 6.11 1.69 5.68a43 43 0 0 1 14.71.47c3.5.71 2.48-5-.39-5.7a46 46 0 0 0 -17.42-.65c-2.85.42-1.67 4.81.39 5.52a35 35 0 0 1 16.45 11.46c2.12 2.63 5.39-.27 3.74-3a8.58 8.58 0 0 0 -4.74-4.08c-2.11-.79-3.37 1.2-2.87 3.1l.91 3.38 3.48-2.76-7.55-5.52c-3.18-2.33-4.72 2.68-2.16 4.65l3 2.33.89-5.18a58.38 58.38 0 0 1 -12.43-4.91l-.91 5.36 15 4.22c2.77.78 4-2.66 2.09-4.49l-3.54-3.37-2.73 4.12 4 2.43c3 1.83 4.63-1.89 2.71-4.15a36.74 36.74 0 0 0 -7.42-6.66l-2.16 4.66a38.58 38.58 0 0 1 6.16 4.55l2.15-4.65-11-8.37c-3-2.26-4.32 2-2.72 4.14a15.65 15.65 0 0 0 7.24 5.47c3.63 1.41 3.52-4 .91-5.36a46.92 46.92 0 0 0 -13.93-4.58c-3.58-.6-2.21 4.47-.26 5.53l6 3.27c3.18 1.73 3.47-3.46 1.54-5-5.56-4.42-12.3-3.13-18.6-1.16l2.81 5.06c1.82-3.17 1.88-4.18.17-3.05l-2.49 1.28-5 2.57 3.77 4.3c1.5-3.76 7.6-3.09 9.38-7.37.82-2-1.36-5.77-3.77-4.3l-13.76 8.44c-2.72 1.65 0 6.59 2.91 5.24a73.72 73.72 0 0 0 19.25-13.16l-4.48-3.25a89.35 89.35 0 0 0 -.79 11c0 2.13 3.86 4.9 4.87 2l2.07-6-4.86-2a75.33 75.33 0 0 0 1.71 14.66c.62 2.95 5 3.33 5-.1v-8.91c0-3.31-4.93-4.52-5.09-.64a10 10 0 0 0 .52 4.16c.62 2.22 4.46 3.74 4.93.6l1-6.68-5.06-1.35v5.24c0 3.29 5.11 4.55 5.09.64l-.05-12-4.65.85 1.58 2.47c2 3.17 5.82 1.08 4.2-2.33a8.87 8.87 0 0 1 -1.1-4.15l-5 .1.43 2.2 4.82-.85-3.3-12.41c-.74-2.76-5.23-3.45-5 .11a27.55 27.55 0 0 0 1.93 8.38l4.51-1.59a30.11 30.11 0 0 1 -2.93-9.3c-.46-3.19-5.65-4.51-5.09-.64z" fill="#5fcc64"/><path d="m187.18 276-1 14.11 5.06 1.36-.77-6.06c-.31-2.46-4.44-5-5.06-1.35-.52 3.09-2 7-1.32 10.14.48 2.3 3.47 3.13 3.79 5.09l4.65-.84-2-3.84c-1.44-2.81-5.48-1.69-4.5 1.59a53.43 53.43 0 0 0 6.55 14.18c1.36 2.1 4.78 2.36 4.64-.84a43.92 43.92 0 0 0 -4.04-16.54l-4.18 2.3a119.48 119.48 0 0 0 7.17 12.91c1.45 2.26 4.56 2.23 4.65-.84a21.75 21.75 0 0 0 -1.62-9.05l-4.51 1.59 3.84 7.42c1.12 2.17 5.19 2.25 4.64-.84l-1-5.8-4.18 1.5a52.77 52.77 0 0 1 4.82 5.94c1.66 2.4 5.64 1.9 4.51-1.59l-1.84-5.54-4.48 1.6a62.59 62.59 0 0 0 8.05 9.53c2.4 2.31 5.24-.07 3.73-3a31 31 0 0 0 -13.23-13.34l-.91 5.36a30.5 30.5 0 0 1 13.12 8.89c2.58 3 5.5-.95 3.27-3.64a32.05 32.05 0 0 0 -21.4-11.78 30.8 30.8 0 0 0 -12.75 1.49 31.91 31.91 0 0 0 -5.81 2.62c-2.58 1.51-5 4.13-8.27 3.82-3.55-.34-2.63 5.42.39 5.7 3.85.37 6.27-1.39 9.41-3.4a28.23 28.23 0 0 1 11.53-4.4 26.07 26.07 0 0 1 23.63 9.59l3.27-3.64a36.33 36.33 0 0 0 -15.48-10.61c-3.73-1.33-3.46 4-.91 5.36a23.79 23.79 0 0 1 9.95 10.3l3.73-3a54.7 54.7 0 0 1 -7.12-8.22c-1.66-2.38-5.65-1.91-4.51 1.59l1.79 5.53 4.51-1.58a62.78 62.78 0 0 0 -5.75-7.26c-1.43-1.54-4.65-1.15-4.18 1.5l1 5.8 4.64-.85-3.83-7.41c-1.42-2.74-5.81-1.63-4.51 1.58a18 18 0 0 1 1.35 7.56l4.64-.85a115.26 115.26 0 0 1 -7.17-12.84c-1.63-3.43-5.74-1.05-4.2 2.33a35.59 35.59 0 0 1 3.19 13.61l4.64-.85a47.92 47.92 0 0 1 -5.92-12.7l-4.51 1.61 2 3.84c1.13 2.19 5.14 2.24 4.64-.85-.33-2-.89-4.38-2.64-5.73-2-1.53-1 .37-1.06-1.2-.14-2.11.81-4.79 1.17-6.88l-5.06-1.35.77 6.06c.3 2.4 4.81 5 5.06 1.35l1-14.11c.21-3-4.77-5.8-5-2.07z" fill="#5fcc64"/><path d="m164 302.77h-2.86a2.15 2.15 0 0 0 -1.76.64 2.6 2.6 0 0 0 -.59 1.9c.14 1.29 1.21 3.17 2.75 3.17h2.85a2.15 2.15 0 0 0 1.77-.63 2.62 2.62 0 0 0 .58-1.9c-.13-1.3-1.21-3.18-2.74-3.18z" fill="#5fcc64"/><path d="m107 276.71a130.87 130.87 0 0 0 17.32 30.73c2 2.7 5.36-.28 3.73-3q-4.24-7-8.41-14.13c-2.92-5-6.44-10-6.74-15.92l-4.65.85a314.8 314.8 0 0 0 18.86 30.67l.65-3.79-1.94 1.35 3.55 1.46-18.12-26.69c-2.11-3.1-5.75-1.12-4.2 2.33a85.16 85.16 0 0 0 21 28.54l.88-5.18 1.42 2.26c1.41-2.69-3-6.52-4.63-3.36-1.58 3 .47 6.2 3.6 6.81 3.3.63 2.27-3.94.89-5.19a78 78 0 0 1 -19-26.21l-4.2 2.33 18.13 26.69c.68 1 2.22 2.38 3.55 1.46l1.94-1.35a2.8 2.8 0 0 0 .64-3.79 314.8 314.8 0 0 1 -18.86-30.67c-1.24-2.31-4.8-2.2-4.65.84.3 5.79 2.83 10.6 5.69 15.54q5.1 8.79 10.36 17.48l3.74-3a119.52 119.52 0 0 1 -15.77-27.94c-1.27-3.2-6.27-2.8-4.82.85z" fill="#5fcc64"/><path d="m132.16 270.34 1 8.12c.31 2.52 4.3 4.93 5.06 1.35a42.57 42.57 0 0 0 .9-8.79l-4.95.1a25.78 25.78 0 0 1 1.8 9l5.09.64a17.72 17.72 0 0 1 1.81-9.72l-4.86-2 .09 10.92c0 3.3 5 4.54 5.09.64a23.4 23.4 0 0 1 1-6.31l-5.02-1.29a50.57 50.57 0 0 1 -.47 15l5 2.07a100.76 100.76 0 0 0 1-15.33c0-2.67-4.87-4.8-5.06-1.35a119.23 119.23 0 0 0 1.47 26.75l5-.1-7.46-18.2c-1.3-3.17-5.61-3.09-4.82.85a89.87 89.87 0 0 0 6.47 19.7c1.57 3.44 5.74 1.06 4.19-2.33a83.62 83.62 0 0 1 -5.84-18.22l-4.82.85 7.46 18.2c1 2.35 5.6 3.65 5-.11a113 113 0 0 1 -1.53-25.32l-5.06-1.36a90.91 90.91 0 0 1 -.89 13.9c-.42 3 4.35 5.83 5 2.07a55.47 55.47 0 0 0 .53-16.47c-.31-2.67-4.08-4.79-5.06-1.36a29.88 29.88 0 0 0 -1.09 7.74l5.09.64-.09-10.92c0-2.27-3.55-4.72-4.86-2a23.25 23.25 0 0 0 -2.33 12.43c.28 3.22 5.18 4.59 5.09.64a30 30 0 0 0 -2.07-10.5c-1-2.61-4.94-3.58-5 .11a35.14 35.14 0 0 1 -.84 7.37l5.06 1.35-1-8.12c-.4-3.2-5.58-4.52-5.09-.64z" fill="#5fcc64"/><path d="m92.42 303.35a58 58 0 0 0 24.25 16.44c3.32 1.18 3.7-3.44 1.53-5l-10.39-7.5c-1.61-1.16-8.8-5.47-8.82-6.23l-4.18 1.5a116.06 116.06 0 0 0 21 16.34c3.34 2 5-2.95 2.16-4.66a109.84 109.84 0 0 1 -19.94-15.31c-1.68-1.64-4.24-1.13-4.18 1.5.08 4.15 4.32 6.15 7.31 8.3l14.84 10.71 1.54-5a51.88 51.88 0 0 1 -21.89-14.72c-2.59-2.93-5.6 1-3.27 3.64z" fill="#5fcc64"/><path d="m353.05 270.28-8.44 17.66 4.82 2.71a59.35 59.35 0 0 1 8.2-18.38l-4.28-3.9q-6.14 15.47-13.65 30.32c-1.37 2.7 2.87 6.49 4.63 3.36l15.67-28.11c1.07-1.9-.76-4.06-2.51-4.53a39.9 39.9 0 0 0 -7.11-1.22 2.12 2.12 0 0 0 -2.32 1.82 108.94 108.94 0 0 1 -6.39 23.66c-1.42 3.55-6 9.47-1.31 12.41a2.4 2.4 0 0 0 2.54.29l.5-.33c2.65-1.76-.28-7-2.91-5.25l-.5.33 2.53.3-.52-.42 1.47 2.65c-.08-1.75 2.26-5 2.91-6.66 1.12-2.79 2.11-5.63 3-8.5a117.39 117.39 0 0 0 3.79-16.45l-2.32 1.82a39 39 0 0 1 7.11 1.22l-2.51-4.53-15.7 28.1 4.63 3.36q7.51-14.87 13.65-30.33c.87-2.18-2.46-6.61-4.27-3.9a66.24 66.24 0 0 0 -9.3 20.76c-.65 2.52 3.39 5.71 4.83 2.71l8.44-17.65c1.31-2.74-3.09-6.58-4.63-3.36z" fill="#5fcc64"/><path d="m353 312.64a290.39 290.39 0 0 0 21.59-34.14c1.21-2.24-2.44-6.41-4.27-3.9l-11.43 15.71c-3 4.17-6.93 8.36-9.16 13.05-1.42 3-1.48 6.49.7 9.15 1.89 2.3 5.05 3.48 7.63 1.67 3.77-2.64 6.7-8.57 9.25-12.34a113.36 113.36 0 0 0 8-13.41c1.46-3 4.64-7.91 2.68-11.34-1.11-1.95-4.17-3-5.62-.9-1.68 2.52 2.1 7.17 3.92 4.45l-1.48-.05-1.46-2.65c.4 2.36-2.44 6.71-3.47 8.7-1.34 2.6-2.83 5.13-4.4 7.61s-3.35 5-5.1 7.49c-.87 1.22-3.63 6.37-5 6.86-3.26 1.16.92-4.83 1.76-6 1.89-2.63 3.81-5.23 5.72-7.85l11.37-15.75-4.23-3.85a280.24 280.24 0 0 1 -20.88 33.05c-1.8 2.45 2 7.1 3.92 4.44z" fill="#5fcc64"/><path d="m369.21 323.68a111.83 111.83 0 0 1 7.08-13.5c1.35-2.16 2.8-5.09 4.68-6.88 1.43-1.36-.53-.91 1.15-.71.85.11 2.93 2 3.55 2.39l-.88-4.55-16.13 20.11 4.28 3.9a134.55 134.55 0 0 1 10.68-17.32l-3.92-4.44-13.7 20.48 4.28 3.9a52.45 52.45 0 0 1 5.87-12c1.67-2.52-2.12-7.17-3.93-4.44a58 58 0 0 0 -6.57 13.12c-.74 2.12 2.41 6.69 4.27 3.9l13.68-20.48c1.64-2.46-1.94-7.16-3.92-4.44a144 144 0 0 0 -11.39 18.4c-1.16 2.25 2.3 6.36 4.28 3.9l16.12-20.11a3.29 3.29 0 0 0 -.88-4.55c-5.24-3.52-7.66-5.85-11.84 0a114.09 114.09 0 0 0 -11.41 20c-1.23 2.76 3.18 6.61 4.63 3.36z" fill="#5fcc64"/><path d="m108.11 390.17c14.29-1.14 33.67-2 40.8 13.42l4.2-2.33a50 50 0 0 0 -14-17.1l-1.53 5 16 6.17-.39-5.52a10.69 10.69 0 0 1 -8.37-2.42l-.88 5.18a134.93 134.93 0 0 0 24.65-2.22c3.32-.61 1.32-6.12-1.69-5.68l-14.82 2.16c-3.3.47-1.34 6.11 1.69 5.67l12.66-1.83c3-.44 1.58-5.64-1-5.69l-23.54-.53.39 5.71 28 .48-2.15-5.08-11.13 13.62 4.48 3.26 2.29-7.74c.75-2.53-3.37-5.64-4.83-2.71l-6.19 12.44 4.82 2.72 2.1-9.34c.68-3-4.14-5.75-5-2.07a20.83 20.83 0 0 1 -3.72 8l4.06 1.06a9.59 9.59 0 0 1 -.81-6.22l-5.06-1.36 1.36 16.78c.18 2.14 3.53 4.85 4.86 2a14 14 0 0 0 1.28-8.35c-.45-3.13-5.49-4.59-5.1-.63a38.13 38.13 0 0 1 -4.25 21.88l4.82 2.71 7.46-37-4.92-.61c4.67 24.52-8.88 50.28-31.09 61.21-1.32.65-1.32 2.71-.64 3.79 18.72 29.79 60.65 27.92 91.44 28.1 19.1.11 38.21-.7 57.22-2.46 16.18-1.49 35.47-2 49.48-11.25 6-4 11.18-10.08 11.28-17.59.07-4.7-1.68-9.24-3.06-13.67l-5.23-16.75c-.63-2-4.69-3.89-4.92-.61a30.67 30.67 0 0 0 5.26 20c1.64 2.39 5.69 1.88 4.51-1.59a19.93 19.93 0 0 1 -1.09-7.38l-5 .11c.59 3.18 2.19 5.66 4.09 8.22 1.45 1.95 6.3 8.51 1.37 9.92l2.3 5.46c5-2.46 6.85-7.91 5.17-13.07l-4.83.85c2.56 6.26-.62 12.85-6.74 15.38l2.9 5.25c5.88-3.74 17.9-11.15 12.78-19.46-2.59-4.21-7.35-6.65-10.18-10.78a32.48 32.48 0 0 1 -5.32-14.59c-2.54-22.63 19.59-39.58 41-34 3.18.83 2.67-4.66.26-5.53-6.36-2.28-12.85-2.32-19.51-1.91-8.11.49-16.21 1.12-24.31 1.69-16.74 1.18-33.48 2.35-50.23 3.21-33.88 1.74-67.86 2.12-101.67-1.08l1 5.69a856.47 856.47 0 0 1 159.39 2.32l-1-5.7c-15.61.87-31.23 1.57-46.72-1.05l.39 5.7 33.4 3.86-2.51-4.53a66 66 0 0 0 -6 26.4c0 2.2 3.75 4.82 4.87 2l8.39-21.31-4.82-2.71a91.86 91.86 0 0 1 -3.5 17.21c-.84 2.7 3.25 6.77 4.63 3.35l7-17.32-4.83-2.71-2.1 7.33c-.71 2.51 3.49 5.73 4.83 2.71a32.8 32.8 0 0 1 10.19-13c2.24-1.71.69-4.86-1.65-5.48-6.37-1.68-12.58 1.72-16 7.13-3.94 6.29-3.44 14.19-2.49 21.24.35 2.58 4.14 4.86 5.06 1.35l3-11.43-5.06-1.35-1.27 31.86c-.11 2.73 4.48 4.76 5.06 1.36a73.38 73.38 0 0 0 .62-20.29c-.35-3.2-5-4.61-5.1-.64a192.75 192.75 0 0 0 1.55 29.61c.41 3.16 5 4.65 5.1.64l.18-14.25-5 .11a54.86 54.86 0 0 1 1.5 17.72c-.23 2.94 4.48 5.89 5 2.06l1.32-9.18-5.05-1.35a59.56 59.56 0 0 1 -.56 12.08l5.06 1.35.73-2.86-4.37-1.8a11.22 11.22 0 0 1 -.54 7.9l4.63 3.36 2.25-6.94c.89-2.75-2.6-6.49-4.63-3.35a82.27 82.27 0 0 1 -9.38 12.58c-3.62 3.73-9.07 4.51-13.95 6l2.3 5.47 5.39-3.49c2.64-1.71-.11-6.78-2.91-5.25a47.16 47.16 0 0 1 -12.2 4.68l2.3 5.46a36.87 36.87 0 0 1 9.11-3.95c3.26-.92 1.33-6.09-1.69-5.68l-22.93 3.08 2.3 5.46 11.86-4.21c2.76-1 .26-5.93-2.29-5.46l-20.24 3.75c-3.34.61-1.3 6 1.69 5.68l14.93-1.68-1.69-5.68a194.77 194.77 0 0 1 -28.36 6.17l1.68 5.68 16.63-5.27c3.19-1 1.36-6.18-1.69-5.68a222.13 222.13 0 0 0 -26.7 6.13l1.69 5.68a105.65 105.65 0 0 1 15.31-4.12l-2.3-5.46a113.27 113.27 0 0 1 -26.52 6.69l1.69 5.68 32.73-10.06c3.28-1 1.31-5.91-1.69-5.68a25.6 25.6 0 0 1 -14.12-3l.39 5.52c3.21-.93 6.5-.34 8.37 2.69l1.9-4a51.91 51.91 0 0 1 -13.33-4.23c-3.42-1.61-3.26 3.44-1.53 5l6 5.43c2.73 2.48 4.33-2 2.71-4.15l-1.13-3.2-3 2.35a13.83 13.83 0 0 1 6.87 4.6c1.73 2.12 5.16.44 4.05-2.24l-4.46-10.74-4.51 1.58 5.22 7.84c1.6 2.41 5.85 1.82 4.51-1.58a30.44 30.44 0 0 1 -2.11-9.3l-4.18 1.5a53.29 53.29 0 0 1 8.36 12.49c1.45 3 5.18 1.6 4.51-1.59l-3.37-16-4.82.85 4.76 12.67c1.22 3.24 5.64 3 4.82-.85l-3.1-14.85-4.51 1.59 6 12.39c1.44 2.95 5.22 1.62 4.51-1.59l-3.47-15.49-4.51 1.59 7.26 15.08c1.1 2.29 5.07 2.19 4.65-.84a82.44 82.44 0 0 0 -3.32-14.55l-4.51 1.58a117.53 117.53 0 0 1 7.6 16.38l4.51-1.59a17.65 17.65 0 0 1 -2.71-7.81l-4.19 1.5c.67.6 1.31 1.22 1.93 1.87 1.81 1.4 1.69 3-.38 5l1 5.69 6.9-.18-2.48-1c1.81 1.83 5.47 1 7.77.73a36.49 36.49 0 0 0 21.55-11.22c3.05-3.29 4.82-7.89 8.53-10.5l-3.86-2.2a22.88 22.88 0 0 1 .66 7.19c-.12 1.93 2.44 5.68 4.47 3.25a12.88 12.88 0 0 0 2.3-13.23c-.9-2.48-5.56-3.57-4.95.1a20.85 20.85 0 0 1 -4.06 16.6l4.28 3.9a40.93 40.93 0 0 0 5.16-20.42l-5.1-.64a10.83 10.83 0 0 0 4.5 8 2.21 2.21 0 0 0 3.62-2c-.48-3.16-1.67-5.45-4.47-7.14-1.78-1.07-3.72-.21-3.63 2a12.15 12.15 0 0 1 -2 7.35l4.72 1.25a328.15 328.15 0 0 1 -13.6-41.6c-.73-2.88-5-3.38-5 .1a129.88 129.88 0 0 0 2.91 26.74c.6 2.84 5.36 3.4 5-.1l-4.35-37.38-5 .1a101.31 101.31 0 0 1 6.08 28.52c.21 3.25 5.29 4.56 5.09.64a71 71 0 0 0 -8.05-29.34c-1.75-3.34-5.94-1-4.2 2.33a63.41 63.41 0 0 1 7.16 26.37l5.09.64a107.08 107.08 0 0 0 -6.34-30c-.92-2.49-5.39-3.61-5 .11l4.46 37.36 4.95-.1a123.24 123.24 0 0 1 -2.64-25.26l-5 .11a328.67 328.67 0 0 0 13.6 41.6c.8 2 3.29 3.58 4.73 1.25a16.93 16.93 0 0 0 2.51-10.06l-3.62 2 1.54 1.84 3.63-2-1.56-2.71c-.34-3.2-5.11-4.61-5.1-.64a35.53 35.53 0 0 1 -4.69 17.7c-1.25 2.24 2.38 6.37 4.27 3.9a25.9 25.9 0 0 0 5.23-20.4l-5 .11a7.39 7.39 0 0 1 -1.4 7.94l4.48 3.26a33 33 0 0 0 -.87-10.11c-.33-1.36-2.36-3.26-3.87-2.2-3.19 2.25-4.88 5.3-7.14 8.38a32.14 32.14 0 0 1 -10.79 9.39c-4.25 2.26-8.45 2.94-13.11 3.75l-.55 1.08-.56-.51a10.14 10.14 0 0 1 -1.27-.53c-2.1-.54-5.39.14-7.55.2-3 .07-1.55 5.55 1 5.69a6.27 6.27 0 0 0 6.71-5.79c.52-4.23-2.51-7.72-5.37-10.39-1.57-1.47-4.47-1.23-4.19 1.5a25.05 25.05 0 0 0 3.61 10.78c1.56 2.53 5.76 1.76 4.51-1.59a125.89 125.89 0 0 0 -8.23-17.88c-1.5-2.69-5.59-1.73-4.5 1.59a74.84 74.84 0 0 1 3 13.06l4.64-.84-7.14-15.12c-1.43-3-5.23-1.61-4.51 1.59l3.46 15.49 4.51-1.59-6-12.39c-1.45-3-5.17-1.6-4.51 1.59l3.05 14.88 4.82-.85-4.75-12.72c-1.22-3.24-5.64-3-4.82.85l3.37 16 4.51-1.59a59.27 59.27 0 0 0 -9.29-13.8c-1.55-1.74-4.35-1.05-4.18 1.5a35.45 35.45 0 0 0 2.34 10.83l4.51-1.59-5.22-7.84c-1.59-2.4-5.91-1.79-4.51 1.59l4.45 10.74 4.05-2.25a19 19 0 0 0 -9.23-6.31 2.18 2.18 0 0 0 -3 2.36 12.82 12.82 0 0 0 2.95 7.51l2.71-4.15-6-5.42-1.53 5a56.67 56.67 0 0 0 14.66 4.57c2.25.39 2.82-2.53 1.91-4-3.08-5-8.44-7.73-14.26-6.05-2.88.83-1.61 4.47.39 5.52a30.47 30.47 0 0 0 16.72 3.32l-1.69-5.68-32.73 10.06c-3.22 1-1.34 6.08 1.69 5.68a118.47 118.47 0 0 0 27.74-7.12c2.74-1.06.26-5.95-2.3-5.47a106.94 106.94 0 0 0 -15.31 4.09c-3.13 1.09-1.27 6.55 1.69 5.68a222.13 222.13 0 0 1 26.74-6.12l-1.69-5.68-16.62 5.27c-3.21 1-1.36 6.11 1.68 5.68a195.93 195.93 0 0 0 28.33-6.18c3.27-1 1.33-6-1.69-5.68l-14.93 1.68 1.69 5.68 20.26-3.7-2.29-5.46-11.87 4.21c-2.83 1-.2 5.8 2.3 5.46l22.93-3.07-1.69-5.68a41.8 41.8 0 0 0 -10.33 4.38c-2.43 1.45-.4 6.09 2.3 5.47a52.45 52.45 0 0 0 13.42-5.11l-2.91-5.25-5.39 3.49c-2.28 1.48-.42 6.31 2.3 5.46 5.26-1.62 11.88-2.31 15.58-6.56a125.54 125.54 0 0 0 10.69-14.36l-4.63-3.35-2.25 6.93c-.88 2.72 3.22 6.75 4.63 3.36a17.84 17.84 0 0 0 .73-12.11c-.4-1.49-3-3.7-4.37-1.8a9.35 9.35 0 0 0 -1.9 6.67c.18 2.56 4.53 4.91 5.06 1.35a67 67 0 0 0 .62-13.5c-.14-2.59-4.55-4.89-5.06-1.35l-1.33 9.13 5 2.06a63.79 63.79 0 0 0 -1.64-20.6c-.71-2.92-4.91-3.35-4.95.1l-.19 14.25 5.1.64a191.5 191.5 0 0 1 -1.55-29.61l-5.1-.64a67.72 67.72 0 0 1 -.55 18.86l5.06 1.35 1.28-31.86c.11-2.83-4.21-4.62-5.06-1.36l-3 11.43 5.06 1.36c-.74-5.5-1.4-11.52 1-16.72 2.27-4.88 7.41-8 12.73-6.58l-1.65-5.48a37.71 37.71 0 0 0 -11.91 14.91l4.83 2.71 2.09-7.33c.71-2.51-3.6-5.77-4.83-2.72l-7 17.33 4.63 3.35a98.1 98.1 0 0 0 3.89-18.49c.25-2.3-3.53-6-4.83-2.71l-8.39 21.31 4.86 2a59.35 59.35 0 0 1 5.54-23.68 3.4 3.4 0 0 0 -2.51-4.53l-33.4-3.86c-3.59-.42-2.54 5.21.39 5.7 15.9 2.7 32 1.92 48 1 3.14-.17 1.43-5.42-1.05-5.69a864.28 864.28 0 0 0 -160.68-2.29c-3.13.25-1.46 5.46 1 5.69 32.27 3.06 64.71 2.86 97.05 1.35 16.43-.77 32.85-1.86 49.26-3l23.62-1.67c8.15-.56 16.63-1.75 24.49 1.08l.26-5.53c-19.33-5.07-40.59 7-45.06 26.69a39.6 39.6 0 0 0 4.14 27.54 40.4 40.4 0 0 0 9.07 10.65c3.67 3.22 2.66 5-.47 8a51.84 51.84 0 0 1 -8.28 6.4c-2.72 1.73 0 6.45 2.9 5.25 8.27-3.42 12-13.3 8.67-21.48-1.28-3.13-6.07-3-4.83.85 1 3.06-.54 5.63-3.25 7-2.55 1.26-.31 6.21 2.3 5.47 4.3-1.23 5.76-5.15 5.28-9.38-.68-6.1-6.53-9.47-7.61-15.29-.56-3-4.86-3.26-5 .1a24.76 24.76 0 0 0 1.37 8.87l4.51-1.59a24 24 0 0 1 -4.43-15.6l-4.93-.61c2.49 8 5.56 16 7.44 24.1 2 8.5-3.39 15-10.43 19-13.35 7.62-30.42 8.16-45.37 9.57-32.79 3.08-66.89 4.4-99.68.49-16.76-2-34.61-7.64-44.07-22.7l-.65 3.79c24.65-12.13 38.1-40.52 33-67.31-.47-2.45-4.34-3.54-4.93-.6l-7.45 37c-.51 2.52 3.27 5.7 4.83 2.71a43.26 43.26 0 0 0 4.72-24.6l-5.1-.63a8.86 8.86 0 0 1 -.81 5.62l4.86 2-1.39-16.83c-.21-2.52-4.61-4.94-5.06-1.35a18.94 18.94 0 0 0 1.63 10.62c.57 1.3 3 2.53 4.06 1.05a27.88 27.88 0 0 0 4.83-10.36l-5-2.07-2.09 9.34c-.57 2.52 3.33 5.71 4.83 2.71l6.19-12.44-4.82-2.71-2.3 7.73c-.63 2.13 2.69 5.44 4.47 3.25l11.11-13.67c1.31-1.61.11-5-2.16-5.07l-28-.48c-3.57-.06-2.65 5.64.39 5.71l23.55.52-1-5.69-12.67 1.84 1.69 5.67 14.82-2.15-1.69-5.68a128.77 128.77 0 0 1 -23.35 2.2c-3 0-2.76 3.71-.88 5.18a16 16 0 0 0 12.21 3.44c3-.33 1.54-4.78-.39-5.52l-16-6.16c-3.38-1.3-3.54 3.42-1.53 5a43 43 0 0 1 11.95 14.78c1.7 3.4 5.75 1 4.2-2.33-8.32-18-29.74-18.13-46.69-16.77-3.29.26-1.36 5.92 1.69 5.68z" fill="#ebcc64"/><path d="m162.35 407.28c23.34 10.92 46.65 21.86 70.51 31.72 11.33 4.67 22.79 9 34.3 13.14 10.95 4 21.78 8.2 31.18 15.22 2.31 1.73 7.16 2.61 9.11-.33 4.08-6.12 7.46-12.85 5.22-20.36-2.42-8.13-10.05-11.63-16.91-15.4a285.42 285.42 0 0 0 -39.88-17.85c-27.93-10.15-57-16.86-85.92-23.48l4.95 16.43c9.15-3.62 19.34-2.35 28.82-1.1 10.78 1.42 21.54 2.73 32.4 3.47a432.63 432.63 0 0 0 66.28-.69l-9.77-7.25a187.16 187.16 0 0 1 6.77 37.56l13.94-2.53c-7.73-12.28-18.93-22.19-32.62-27.34a78.12 78.12 0 0 0 -19.82-4.21c-6.62-.68-13.32-1-18.55-5.54l-2.64 15.54 43.78 9.54c5.89 1.28 14.57 5.23 18.68-1.18 3.4-5.31 1-12.58-2.65-17.13-7.2-9-21.56-18.34-33.37-18.77-6.92-.26-11.48 4.5-16.17 8.89l-17.15 16c-3.84 3.59-1.17 11.25 2.64 13.65l26.75 16.9c7.63 4.81 15.74 11.7 24.39 14.37 8.86 2.73 14.82-2.56 17.92-10.34 3.71-9.32 7.1-18.79 10.65-28.17l-13.19-1.54c5.74 11.08 4.9 24.34 4.46 36.44-.21 5.61 6.59 11.65 12 8.83l7.36-3.82c7.5-3.9.93-18.9-6.9-16.39-14.94 4.78-30.09 16.16-46.4 11.84l3.12 17.08c1.67-.5 4.8-1.27 5.79.66l-1.43-4.45.08 1.1.7-4.08-.56.94 2.58-2.84c-5.59 4.28-12.94 3.39-19.43 2.15-8.32-1.58-16.05-3.58-24.61-3l8.42 15.18a60.52 60.52 0 0 1 21.65-15.1c8.36-3.51.61-17.39-6.9-16.39-20.09 2.66-33.48 21.2-54.05 22-23.51.94-48-4.39-70-12.46l3 15.91c19.54-15.35 38.26-36.46 34-63.3-1.26-7.86-12-14.46-15.18-4.06q-4.38 14.38-7.76 29l14.77 1.82a20.78 20.78 0 0 1 2.82-15.73l-13.52-7.62a90.9 90.9 0 0 1 -4.62 47.11 10.46 10.46 0 0 0 3.71 12c3.2 2.3 8.5 2.28 10.19-1.95 3.94-9.91 12.57-16.77 18-25.79 5.86-9.69 7.12-20.69 2.24-31-2.57-5.43-13.34-7.66-13.84.39a390 390 0 0 1 -6.22 49.46c-1.41 7.35 10.32 17.47 14.48 8.13l18.05-40.58-14.41-7.98a256 256 0 0 0 -6.33 38.72c-.36 4.2 1.37 8.55 5.23 10.61 3.23 1.71 7.64 1.36 9.25-2.48a145.25 145.25 0 0 0 9.88-35.36l-15.18-4.05a145.17 145.17 0 0 1 .56 32.76 10.73 10.73 0 0 0 5.24 10.61c3 1.57 8 1.53 9.25-2.48l10.59-34.5-14.59-6a206.3 206.3 0 0 1 1.37 31c-.26 8.27 13 14.14 15.17 4.06l6.21-29.38-15.18-4.06a146.23 146.23 0 0 1 1.48 31.14c-.3 4.54 1.69 9.33 6.17 11.14s7.72-.82 8.9-4.94l8-27.79-14.77-1.83a44.07 44.07 0 0 1 2.3 23.51c-1.24 7.22 10.67 17.7 14.49 8.13l7.4-18.53-14.18-3.76a54.07 54.07 0 0 1 1.46 14.73c-.17 7.06 10.56 13.84 14.59 6a45.45 45.45 0 0 1 11.77-14.35c6.22-5.15-3.23-19.39-10.24-14.53-1.14.63-1.15.77 0 .4a4.59 4.59 0 0 1 2.94 4.11l-9 7.07q11.49 4.41 22.84 9.16l2.74-16.06-3.95-1.51c-10.54-4.16-11.39 12.66-2.73 16.07l3.9 1.54c10.59 4.19 11.25-12.5 2.74-16.06q-11.35-4.75-22.85-9.16c-5-1.93-9.42 1.84-9 7.07.74 9.35 11.8 19.6 21.11 13.15l-10.27-14.53a55.24 55.24 0 0 0 -13.9 17.6l14.58 6a70.68 70.68 0 0 0 -2.28-19.22c-1.39-5.57-11.18-11.26-14.18-3.76l-7.39 18.53 14.48 8.13a62 62 0 0 0 -2.92-32.24c-2.57-6.9-12.15-11-14.77-1.83l-8 27.79 15.07 6.2a165.85 165.85 0 0 0 -1.27-35.42c-.61-4.11-3-8.18-7.25-9.26-3.89-1-7.1 1.29-7.92 5.2l-6.15 29.4 15.18 4.06a206.49 206.49 0 0 0 -1.37-31.05c-.45-3.75-2.63-7.52-6.27-9-2.84-1.14-7.29-.36-8.32 3l-10.58 34.5 14.48 8.13a164.21 164.21 0 0 0 -.39-37.08c-.52-4.11-3-8.19-7.25-9.26a6.23 6.23 0 0 0 -7.92 5.2 128.85 128.85 0 0 1 -8.7 31.48l14.48 8.13a257.48 257.48 0 0 1 6.34-38.72c1.82-7.48-10.41-17.29-14.48-8.13l-18.05 40.58 14.48 8.13a389.66 389.66 0 0 0 6.23-49.45l-13.84.39c2.87 6.06-3.65 14.45-7.17 18.79-5.38 6.62-11.2 12.92-14.4 21l13.9 10.07a107.29 107.29 0 0 0 6-55.26c-.56-3.47-2.09-6.74-5.34-8.47-2.31-1.23-6.43-1.83-8.18.85a39.15 39.15 0 0 0 -5.52 31.6c1.69 7.29 12.69 10.61 14.76 1.77q3.38-14.64 7.75-29l-15.17-4.06c3.33 20.9-12.22 37.52-27.43 49.47-5.38 4.23-3.49 13.53 3 15.91 23.52 8.65 48.86 13.86 74 13.53 11.34-.15 21-3.43 30.65-9.25 8.64-5.22 16.91-11.51 27.18-12.88l-6.9-16.38a70.26 70.26 0 0 0 -24.68 17.52c-5.4 5.9 1.35 15.69 8.41 15.18 15.41-1.11 32.17 9.9 46.8.2 7.28-4.82 5-13.64-.31-19.09-5.05-5.17-12.8-7.8-19.84-5.71-9.6 2.85-4.12 15.16 3.12 17.08 18.26 4.83 33.72-6.62 50.3-11.93l-6.95-16.39-7.32 3.8 12 8.83c.57-15.63.21-31.14-7.15-45.34-2.33-4.5-10.78-8.06-13.24-1.55l-8.29 22.06c-.66 1.74-2.07 8.65-3.93 9.75-1.6.94-3.86-1.12-5.3-2-14-8.76-27.86-17.6-41.8-26.4l2.63 13.65 12.15-11.37c2.8-2.61 7.6-9.15 11.57-9.63 3.71-.45 9.21 3 12.22 4.82a50.48 50.48 0 0 1 5.34 3.84 21.15 21.15 0 0 0 2.57 2.34c.56.65.74.81.52.51q-1.64-2.39 1-5.63l3.77-.69-55.2-12c-3.45-.75-6.4 2.35-6.95 5.46-.7 4 1.42 7.59 4.3 10.09 10.51 9.12 24.16 7.22 36.79 10.19a46.12 46.12 0 0 1 28.08 19.91c1.83 2.91 5.09 5.74 8.83 5 3.48-.67 5.36-4.21 5.1-7.56a210.54 210.54 0 0 0 -7.58-42c-1.25-4.32-5.2-7.63-9.77-7.24a405.88 405.88 0 0 1 -68.23.17c-20.61-1.7-42.93-8.47-62.92-.56-3.31 1.31-3.71 6.3-2.87 9.15a10.46 10.46 0 0 0 7.82 7.28c23.57 5.4 47.16 10.84 70.17 18.36a334.44 334.44 0 0 1 33.35 12.78c5.42 2.45 10.77 5.06 16 7.87 1.61.86 5.69 4.12 7.41 4.22 1.21 1 1.23.37 0-1.78l-.28 1.1c-.93.78-1.45 3.06-2.15 4.11l9.12-.33c-19.65-14.67-45-20.55-67.43-29.72-24.45-10-48.38-21.21-72.29-32.41a6.39 6.39 0 0 0 -8.91 4.93c-.81 4.6 2.09 9.22 6.17 11.14z" fill="#ebcc64"/><path d="m333.16 393.05h.65a1.55 1.55 0 0 0 .95-.12 1.52 1.52 0 0 0 .81-.51 1.76 1.76 0 0 0 .46-.87 2.12 2.12 0 0 0 .13-1l-.14-.75a3.73 3.73 0 0 0 -.77-1.39l-.56-.51a2.73 2.73 0 0 0 -1.27-.52h-.66a1.48 1.48 0 0 0 -.95.12 1.41 1.41 0 0 0 -.81.51 1.67 1.67 0 0 0 -.45.86 2.16 2.16 0 0 0 -.14 1l.14.74a3.77 3.77 0 0 0 .77 1.4l.56.51a2.83 2.83 0 0 0 1.28.52z" fill="#ebcc64"/><path d="m109.48 376.26c-1-4.2 9.93-1.29 11.66-1a87.17 87.17 0 0 0 10.19 1.22c3 .19 6 .22 9 .11 3.32-.11 9.31-1.81 12.38-.43 3.43 1.55 3.72-4.09.91-5.35-4.25-1.92-9.55-.11-14 .06a87 87 0 0 1 -18.86-1.32c-4-.72-9.15-2.79-13-.46-3 1.76-3.8 4.83-3 8 .83 3.44 5.73 2.94 4.83-.85z" fill="#ebcc64"/><path d="m114.48 369.82-.59-.2a2.21 2.21 0 0 0 -2.42.46c-2.79 2.47-.43 6.06 2.46 7.06s7.37.63 10.57.85l11.18.78-1-5.69a103.29 103.29 0 0 1 -25.45 3.63l1 5.7a164.62 164.62 0 0 1 44.4-3.15l-1-5.69a27.78 27.78 0 0 1 -13.91-.28l.39 5.52a124.46 124.46 0 0 1 33 .55l-1-5.69a66.47 66.47 0 0 1 -17.12-1.32l1 5.69a273.25 273.25 0 0 1 35.27 1.2l-1-5.7-13 .82c-3.32.21-1.3 5.79 1.69 5.68q89.48-3.19 179 .87c1.55.07 2.34-1.07 2.35-2.53v-4.2a3.4 3.4 0 0 0 -2.74-3.18c-32.07-1.88-64.15-3.61-96.28-2.92-33.49.71-66.93 3.29-100.43 2.92a399.79 399.79 0 0 1 -55.52-4.17l1 5.7a1561.59 1561.59 0 0 1 159.67 1.93c3.57.23 2.64-5.51-.39-5.7a1575.58 1575.58 0 0 0 -161-1.91c-3.2.12-1.34 5.33 1 5.69 65.15 9.86 131.23-.54 196.69 1.46 18.54.56 37.05 1.64 55.56 2.73l-2.74-3.17v4.2l2.35-2.54q-90.07-4.06-180.28-.84l1.69 5.68 13-.82c3.14-.19 1.46-5.44-1-5.69a284.23 284.23 0 0 0 -36.56-1.17c-3.3.11-1.21 5.23 1 5.69a71.17 71.17 0 0 0 18.42 1.3c3.21-.18 1.35-5.34-1-5.7a129.59 129.59 0 0 0 -34.3-.52c-2.82.33-1.73 4.92.39 5.52a32.77 32.77 0 0 0 16.51.6c3-.67 1.59-5.52-1-5.69a169.73 169.73 0 0 0 -45.7 3.17c-3 .61-1.64 5.73 1 5.69a107.48 107.48 0 0 0 26.75-3.67c2.94-.79 1.65-5.5-1-5.69l-11.18-.77c-2.41-.17-8.25.49-10.22-1.06l1.44 3.36.06-.07-2.49.46.59.2c3.58 1.22 3.86-4.35.91-5.35z" fill="#ebcc64"/><path d="m266 379.51a84.66 84.66 0 0 1 27.32 1l-1-5.69a82.67 82.67 0 0 1 -23.4-.68c-3.5-.59-2.59 5.2.39 5.71a87.76 87.76 0 0 0 24.7.64c3.31-.37 1.25-5.23-1-5.69a88.93 88.93 0 0 0 -28.61-1c-3.3.41-1.35 6.06 1.68 5.68z" fill="#ebcc64"/><path d="m110.25 371.68h-.65a1.51 1.51 0 0 0 -1 .13 1.41 1.41 0 0 0 -.81.51 1.79 1.79 0 0 0 -.45.86 2.16 2.16 0 0 0 -.13 1l.13.74a3.79 3.79 0 0 0 .78 1.4l.56.51a2.79 2.79 0 0 0 1.27.52h.65a1.57 1.57 0 0 0 1-.12 1.52 1.52 0 0 0 .81-.51 1.82 1.82 0 0 0 .45-.87 2.12 2.12 0 0 0 .13-1l-.13-.75a3.75 3.75 0 0 0 -.78-1.39l-.56-.51a2.81 2.81 0 0 0 -1.27-.53z" fill="#ebcc64"/><path d="m308.7 395.05-.92 2.69a3.5 3.5 0 0 0 1.24 4 2.57 2.57 0 0 0 1.92.51 2 2 0 0 0 1.47-1.16l.92-2.69a3.48 3.48 0 0 0 -1.23-4 2.57 2.57 0 0 0 -1.92-.51 2 2 0 0 0 -1.48 1.16z" fill="#ebcc64"/><path d="m220.84 482.44a28.51 28.51 0 0 0 8.35 1.47c3.58.11 2.63-5.41-.39-5.7-5.06-.48-9.87-3.51-14.31-5.85-2.11-1.11-5.63-2.35-7.21-4.14-.79-.9-.88-2.09-1.83-3-2.37-2.29-5.34.08-3.74 3l.61 1.1c1.82 3.29 6 1 4.2-2.33l-.61-1.1-3.74 3c1.15 1.11 1.35 2.79 2.71 4 2 1.71 4.77 2.81 7.07 4 5.37 2.87 11.07 6.48 17.24 7.06l-.39-5.7a24.1 24.1 0 0 1 -7.05-1.12c-3.59-1.18-3.88 4.38-.91 5.35z" fill="#ebcc64"/><path d="m333.78 453.3c-.92 14.51-21.88 20.18-33.84 19.31-3.57-.27-2.64 5.48.39 5.7 14.26 1.05 37.39-5.83 38.48-22.95.19-3-4.79-5.79-5-2.06z" fill="#ebcc64"/><g fill="#2a0d00"><path d="m351.64 109.13c20.18 27 28.05 62.41 16.38 94.62-10 27.66-32.26 51-60.83 59.3-3.88 1.12-1.49 7.83 2 6.81 50.53-14.7 79.33-70.06 67.71-120.3-3.77-16.32-11.37-31.42-21.35-44.8-2.82-3.77-6.42 1-3.93 4.37z"/><path d="m171.37 259.14c-24.89-10.87-41.48-34.55-47.33-60.64-6.77-30.18 2.77-62.09 21.09-86.45 2.2-2.92-2.31-8.51-4.7-5.33-15.7 20.86-25.56 47.06-24.71 73.38a102.71 102.71 0 0 0 23.93 62.67 84.94 84.94 0 0 0 30.63 22.8c4.14 1.81 4.49-4.95 1.09-6.43z"/><path d="m103.18 384.49c6.54 1.91 14.86.8 21.56.87 16.38.18 32.77.2 49.15.22 45 .05 90-.07 135 0 22.6 0 45.2.06 67.8.28 1.86 0 2.81-1.23 2.82-3l.08-21.35a3.94 3.94 0 0 0 -4.07-3.79c-12.87 1-25.91.8-38.82.88-22.31.13-44.62.05-66.93-.07-45.59-.23-91.18-.71-136.76-1.21-10.3-.11-20.79-.82-31.08-.28-1.51.08-2 1.83-2 3-.07 3.94-.09 7.88 0 11.81 0 3.13-.71 9.23 1.86 11.66 3.39 3.18 7-1.45 3.93-4.37 1.39 1.3.36 1.17.54-.3a16.36 16.36 0 0 0 -.13-2.42c-.09-2.26-.11-4.53-.12-6.8 0-2.94 0-5.87.06-8.81l-2 3c-1.47.08 1 0 1.49 0l5.26.05 18.36.2q30 .33 60 .63c47.58.46 95.16.92 142.73.72 15.19-.06 30.55.28 45.7-.93l-4.07-3.79-.11 21.31 2.82-3c-42.39-.4-84.78-.3-127.18-.27-39.52 0-79 .19-118.57-.14-6.23-.05-12.46-.1-18.68-.26-1.85 0-3.71-.09-5.56-.19-.59 0-3.38-.47-2-.06-4.33-1.3-4.67 5.35-1.08 6.41z"/><path d="m116.84 458.91c7.28 11.27 19.1 22.11 31.94 26.5 18.13 6.19 38.5 6.77 57.44 8.18q30.21 2.27 60.53 2.33c19.11.05 39.38.89 58-4.13 18.94-5.11 33.12-16.9 40-35.4 1.26-3.38-4.07-8-5.55-4-6 16.11-17.7 26.88-34.13 31.95-17.2 5.3-36.09 4.7-53.88 4.76q-27.38.1-54.69-1.59c-17.75-1.1-35.81-2.19-53.34-5.24-8.93-1.56-17.24-4-24.63-9.33-6.32-4.57-12.38-10.21-16.64-16.79-2.42-3.76-7.5-1-5 2.79z"/><path d="m147.27 422.48c11.12 20.45 20.48 41.76 31.65 62.17 2.16 4 7.21 1.18 5-2.79-11.16-20.42-20.52-41.73-31.64-62.17-2.16-4-7.2-1.18-5 2.79z"/><path d="m174.13 383.67q28 55.79 60.78 109c2.35 3.82 7.42 1.08 5-2.79q-32.72-53.16-60.77-109c-2-4.05-7.06-1.23-5 2.79z"/><path d="m232.51 384.23q31.16 55.39 64.77 109.36c2.37 3.81 7.44 1.07 5-2.79q-33.61-54-64.77-109.37c-2.21-3.93-7.26-1.15-5 2.8z"/><path d="m294.58 386.9c9.64 11.64 18.91 23.6 28.39 35.37 3 3.66 6.56-1.1 3.93-4.37-9.48-11.76-18.75-23.72-28.39-35.37-3-3.62-6.61 1.13-3.93 4.37z"/><path d="m152.15 419.26c4.78-4.91 9.33-10 13.89-15.14 2.21-2.48 4.43-5 6.68-7.4.92-1 5.24-6.84 6.72-6.49 4.1 1 3-6-.47-6.85-2.69-.63-4.34 1.14-6.12 2.9-2.94 2.92-5.71 6-8.48 9.11-5.6 6.23-11.08 12.55-16.93 18.54-2.56 2.62 1.89 8.22 4.71 5.33z"/><path d="m155.92 482.39q43.64-48.83 90.23-94.88c2.6-2.58-1.84-8.17-4.71-5.33q-46.56 46-90.23 94.88c-2.44 2.73 2 8.33 4.71 5.33z"/><path d="m231.74 491.5q46.25-50.94 88-105.69c2.22-2.91-2.29-8.5-4.71-5.33q-41.68 54.7-88 105.69c-2.47 2.71 2 8.31 4.7 5.33z"/><path d="m299.11 490.85c6.33-7.42 12.53-15 19.35-22s13.93-13.71 20.81-20.65c2.58-2.6-1.87-8.2-4.71-5.33-6.87 6.94-14 13.67-20.81 20.65s-13 14.58-19.35 22c-2.38 2.79 2.1 8.38 4.71 5.33z"/><path d="m125.81 356.53c-6.66-8.29-9.94-20.31-4.39-29.93s16.14-15.54 27.05-16.34c9.93-.73 20.61 2.73 27.69 9.86 9.3 9.36 11.82 24.41 10.6 37.07-.36 3.65 5.59 7 6 2.47 1.45-15.08-1.66-32.72-12.7-43.91a43 43 0 0 0 -33.65-12.31c-13.18 1-25.86 9.06-31.61 21.09s-.78 26.61 7 36.37c3 3.66 6.55-1.1 3.93-4.37z"/><path d="m116.53 317.9a40.67 40.67 0 0 1 -14.33-7.6c-1.89-1.47-3.71-3-5.48-4.62-.92-.83-2.94-2.08-3.41-3.17s.07-1.21 1.26-2.56c1.46-1.65 3.66-5 5.9-4.54 2.49.47 5 4.19 6.83 6l13.7 13.35c3.34 3.26 7-1.39 3.93-4.36-6.83-6.66-13.4-14.51-21-20.32-6.5-5.08-12.78 1.92-16.23 7.46-4 6.54 3.81 11.49 8.22 15.31 6.27 5.43 13 9.75 21.08 11.9 4 1.08 3-5.92-.47-6.85z"/><path d="m128.2 311.39a118.62 118.62 0 0 1 -13.54-18.39q-2.59-4.4-4.82-9c-.85-1.75-1.67-3.53-2.41-5.34-1.08-2.64-1.27-3.07 1-5a20.62 20.62 0 0 1 4.79-3.34c2.95-1.16 3.11.63 4.39 3.11q2.68 5.21 5.36 10.42 5.77 11.31 11.44 22.68c2 4.05 7 1.23 5-2.8q-8.05-16.17-16.34-32.23c-1.68-3.25-3.43-8.3-7.51-9.23s-8.93 3.66-12 6c-7.2 5.61-.58 15.28 2.67 21.57a127.44 127.44 0 0 0 18 26c3.11 3.51 6.73-1.21 3.93-4.37z"/><path d="m141.25 303.28a135.55 135.55 0 0 1 -8.31-36.79l-2.82 3 12.51.75 2.88.17c1.24.05 1.55.78.93 2.21.37 1.76 0 4 0 5.79q0 12.56 0 25.12c0 3.95 6.11 5.45 6.11.76v-17.29c0-5.43.82-11.55-.08-16.9a7.24 7.24 0 0 0 -5.68-6.2c-5.37-1.28-11.64-.84-17.14-1.17a2.65 2.65 0 0 0 -2.82 3 142.35 142.35 0 0 0 8.64 38.58c1.46 3.89 7.44 3.39 5.78-1z"/><path d="m229.91 307.63a50.76 50.76 0 0 1 -1.54-15.38l-2 2.17 7.3-1.16-3.91-2.9c2.12 5.61 4.83 10.78 6.25 16.65.38 1.59 2.17 3.24 3.9 2.9a57.85 57.85 0 0 1 15.89-1.44 35.16 35.16 0 0 1 6.92 1.19c1.16.33 2.3.75 3.43 1.19.46.18.92.37 1.37.58q2 1.27 1.17-2.62c-.89 0-5.38 4.8-6.16 5.41-2.78 2.16-5.63 4.23-8.52 6.25-1.59 1.1-1.51 2.92-.78 4.54 1.07 2.38.69 5.14 1.05 7.64a8 8 0 0 1 -.08 1.46c-.27 1 .39 1 2 0 0 .06-2.43-1-2.56-1-5.15-2.23-10.18-4.79-15.22-7.26a2.52 2.52 0 0 0 -3.32 1.2c-.85 1.72-1.71 3.45-2.61 5.15a21.39 21.39 0 0 0 -1.41 2.57 12.8 12.8 0 0 1 -.79 1.27c-.77.89-.05 1.21 2.15.94.11-.17-1.65-4.28-1.79-4.74a50.09 50.09 0 0 1 -1.4-6.63c-.34-2.48-3.06-5.15-5.41-3.05-5.29 4.74-12.73 4.12-19.35 4.26l3.26 4.66a30.11 30.11 0 0 1 20.06-19.85c3.86-1.17 1.47-7.87-2-6.81a35.45 35.45 0 0 0 -24.14 24.18c-.53 1.74 1.3 4.7 3.25 4.66 8.5-.17 16.85.25 23.58-5.77l-5.41-3c.68 5 1.79 15.5 7.21 17.91s8.65-8.33 10.3-11.68l-3.32 1.2c4.11 2 8.23 4 12.39 6 2 .94 5.48 3.23 7.86 2.51 5.7-1.72 2.35-14.94.73-18.54l-.77 4.54c4-2.81 8-5.74 11.83-8.88 2.49-2.05 6.45-4.78 4.93-8.52-1.9-4.64-10.41-6.35-14.68-7.17-7.2-1.38-14.57-.52-21.69.9l3.9 2.9c-1.42-5.89-4.11-11-6.24-16.65-.6-1.6-2-3.2-3.91-2.9l-7.29 1.17a2.48 2.48 0 0 0 -2 2.17 62.08 62.08 0 0 0 1.78 18.86c1 4.12 6.91 3.54 5.79-1z"/><path d="m274.39 315c19.28 4.68 24.71 25.75 24 43.08-.15 3.95 5.93 5.43 6.11.76.85-21.36-7.72-45.14-30.6-50.68-4.08-1-3 6 .47 6.84z"/><path d="m202 329c-5.69 9.19-5.68 20.39-.76 29.89 2.08 4 7.11 1.21 5-2.79-3.9-7.55-3.13-15.94 1.29-23.07 1.91-3.09-3.3-7.68-5.56-4z"/><path d="m298.78 328.35a22.76 22.76 0 0 1 12.69-22.25c10.61-5.25 22.33.53 31.39 6.31 8.61 5.5 18.4 11.74 22.68 21.45 2.44 5.55 2.66 11.57-1.14 16.5a19.74 19.74 0 0 1 -11.71 7.55c-3.95.74-1.59 7.49 2 6.81 11.94-2.24 20.36-13.58 18.41-25.55-2.36-14.5-14.71-23.89-26.22-31.4-11.15-7.28-25.07-14.35-38.33-8.26-10.61 4.87-17 16.58-15.91 28.08.38 3.88 6.57 5.44 6.11.76z"/><path d="m339.5 302.93q5.46-18.07 12.3-35.69l-2.55 1.41c2 .26 9.76 1.57 9.88 3.57.06.95-2.28 4.44-2.78 5.48-.82 1.72-1.66 3.45-2.5 5.17q-5.49 11.13-11.43 22.13c-1.73 3.2 3.51 7.8 5.56 4q4.56-8.41 8.87-17c2.65-5.28 6-10.75 7.84-16.35 3.2-9.57-8.64-12.93-15.91-13.9a2.4 2.4 0 0 0 -2.54 1.41q-7.1 18.38-12.77 37.24c-1.08 3.59 4.72 6.81 6 2.48z"/><path d="m361.59 283.87 9.86-18.55-4.07.78 5.52 4.54c1.18 1 5 3.14 5.53 4.53.74 2.11-1.78 5.21-2.7 7q-1.8 3.44-3.64 6.84-7.36 13.62-15.4 26.88c-1.88 3.11 3.34 7.7 5.56 4q10.51-17.42 19.94-35.44c2.13-4.09 4.43-8.09 1.39-12.32-3.26-4.54-9.32-8.09-13.62-11.62a2.65 2.65 0 0 0 -4.07.78l-9.89 18.55c-1.7 3.22 3.55 7.82 5.56 4z"/><path d="m379.92 290.59c3 2.85 7.44 5.84 9.73 9.3q2.66 1.25.33 2-.78 1.11-1.59 2.19c-1.25 1.71-2.51 3.39-3.81 5.05a226.28 226.28 0 0 1 -16.65 19c-2.56 2.63 1.89 8.23 4.71 5.33a221.44 221.44 0 0 0 22.05-26.27c1.95-2.76 3.59-5.46 1.61-8.73-2.8-4.64-8.55-8.53-12.45-12.26-3.36-3.21-7 1.43-3.93 4.37z"/><path d="m184.48 290.36a69 69 0 0 0 2.81-17.36l-2.82 3c2.43 0 4.88-.11 7.31 0 .53 0 1.06 0 1.58.07 1.84.36 1.4-.46-1.31-2.48-.2.2.16 2.09.17 2.32a107.18 107.18 0 0 1 -.11 15.1c-.14 1.79 1 4.69 3.25 4.67 9-.09 17.09 5.13 19.73 13.88 1.21 4 7.14 3.49 5.78-1-3.43-11.38-13.92-19.83-26-19.71l3.25 4.66c.52-6.23 1.17-13.46-.06-19.63-1.27-6.41-9.09-4.79-14.08-4.69-1.91 0-2.75 1.18-2.82 3a62.5 62.5 0 0 1 -2.73 15.64c-1.09 3.59 4.72 6.81 6 2.48z"/><path d="m180.38 286.7a40.22 40.22 0 0 0 -27.74 15c-2.29 2.86 2.21 8.44 4.7 5.33a35.86 35.86 0 0 1 25.07-13.54c4-.36 1.63-7.14-2-6.82z"/><path d="m174.38 314.58 6.07-3.63c1.11-.67 3.39-2.74 4.55-2.73 3.44 0 6.92 7.61 8.55 9.95 1 1.45 3.28 3.11 4.87 1.27a44.11 44.11 0 0 0 6.12-9.14l-4.74.17a36.2 36.2 0 0 1 6.93 8.46c2.29 3.88 7.34 1.12 5-2.79a43.1 43.1 0 0 0 -8-10c-1.42-1.3-3.66-2-4.75.17a38 38 0 0 1 -5.26 7.84l4.87 1.27q-3.08-4.41-6.16-8.8c-1.45-2.09-2.84-4.48-5.34-5.42-5-1.89-12.17 4.71-16.2 7.13-3.27 2 .23 8.25 3.49 6.29z"/><path d="m169.16 260c-6.44 1.6-15.07 4.39-19.37 9.75-2.29 2.86 2.21 8.45 4.71 5.33 3.62-4.52 11.26-6.92 16.69-8.27 3.91-1 1.53-7.7-2-6.81z"/><path d="m93.54 307.45c-7.29 5-12.29 12.62-16.6 20.16a199.48 199.48 0 0 0 -12.89 28c-7.84 20.53-14.33 43.86-4.84 65 4.49 10 12.5 17.08 21.29 23.27s18.93 12.27 29.91 13.86c21.75 3.15 38.41-17.16 41.93-37 2-11.1-3-21.54-12.12-27.89-10.16-7-22.81-7.39-34.67-6.19-4 .4-1.63 7.18 2 6.81 9.61-1 20.29-1.08 28.82 4.16 9.14 5.62 12.13 14.9 8.78 25-2.68 8.14-7.42 16.48-13.9 22.17-7.62 6.68-17.58 7.73-27 4.77-9-2.81-17-8.12-24.51-13.7s-13.82-12.41-16.8-21.62c-6-18.63.4-38.48 7.18-56a205.44 205.44 0 0 1 11.25-24.62c4-7.23 8.7-15.15 15.66-19.91 3.15-2.14-.37-8.42-3.49-6.29z"/><path d="m382.45 320.32c13.58 9.27 18.86 28.35 24.13 43 6.1 17 10.93 36.45 3.26 53.83-3.6 8.16-9.9 14.13-17 19.3s-14.77 10.19-23.19 12.88c-8.84 2.82-18.29 2.59-25.87-3.27-6.66-5.16-11.35-13.3-14.18-21.13-3.77-10.43-1.21-20.4 8.2-26.61 8.92-5.88 20-5.93 30.24-4.9 4.26.43 3.16-6.48-.47-6.85-18-1.81-43.38 2.41-45.88 24.61-1.16 10.33 3.94 21.13 9.55 29.5 5.1 7.63 12 14.08 21.1 16.42 9.81 2.55 19.95-.39 28.77-4.83 9.25-4.65 18.7-11 25.88-18.51 14.9-15.61 14.88-38.6 9.6-58.24a241.78 241.78 0 0 0 -13.15-36c-4.25-9.45-9.66-18.87-18.39-24.82-3.88-2.65-5.85 3.37-2.59 5.58z"/><path d="m339.92 276.65a62.56 62.56 0 0 0 -29.19-14.17c-4.17-.79-3.08 6.17.47 6.84a56.22 56.22 0 0 1 26.13 12.92c3.55 3.06 5.51-3.07 2.59-5.59z"/><path d="m116 166.32c-16.81-.52-35.49-1.82-50.38-10.44-7.13-4.12-13-10.35-15-18.53-2.41-9.85 1.54-20 7.28-27.94 12.54-17.32 33.35-27.07 53.23-33.3 21-6.59 43-9.83 64.84-12.59 83.63-10.6 176.08-7.38 248.44 40.95 9.22 6.16 18.95 13.85 23.57 24.24 5 11.24.51 22.6-8.63 30.06-8.29 6.77-18.68 9.31-29 11a161.52 161.52 0 0 1 -32.35 2.44c-4.29-.16-3.18 6.71.47 6.84a168.28 168.28 0 0 0 30.82-2c9.47-1.41 19.27-3.32 27.69-8.09s15.95-12.46 18.41-22.16-.69-19.41-6.22-27.37c-12.55-18.09-35-29.53-54.43-38.68a292.16 292.16 0 0 0 -65.74-21.42c-46.78-9.6-95.21-9.22-142.52-4.11-24.31 2.62-49 5.88-72.52 12.6-21.62 6.18-44.46 15.85-58.96 33.83-6.85 8.5-11.86 19.09-11.25 30.23a36 36 0 0 0 12.78 25c15.9 13.74 39.84 15.68 59.9 16.3 4.29.13 3.18-6.74-.47-6.85z"/><path d="m145.35 64.41c1.24-16.33 17.18-27.87 30.06-35.63a124.91 124.91 0 0 1 45.91-16.45c16.47-2.48 33.2-1.2 49.57 1.51 15.44 2.56 31 7 44.22 15.61a82.45 82.45 0 0 1 17.77 15.94c4.43 5.19 10.2 11.28 11.7 18.14.91 4.15 6.78 3.54 5.79-1-1.44-6.53-6.19-12.43-10.29-17.53a105.58 105.58 0 0 0 -15-15.73c-13-10.7-29-16.84-45.24-20.44-35.34-7.83-72.34-6.32-104.42 11.61-15.42 8.62-34.64 22.23-36.1 41.49-.28 3.64 5.69 7 6 2.48z"/><path d="m111.59 142.51c1-10.45 10.42-17.8 18.6-23.17a160.55 160.55 0 0 1 26.72-13.82 222.34 222.34 0 0 1 62.78-15.31c22.37-2.21 44.94-.92 67.21 1.79 20.36 2.45 40.83 6.49 59.67 14.81a109.73 109.73 0 0 1 25.87 16.06c3.42 2.83 6.77 5.75 9.91 8.89 2.77 2.77 6.35 6 7.48 9.89 1.19 4 7.11 3.49 5.79-1-2.21-7.54-9.32-13.46-14.95-18.5a126.12 126.12 0 0 0 -21.4-15.88c-18.88-10.8-40.4-16.27-61.75-19.58-46.73-7.23-94.9-6.41-139.48 10.73-11.65 4.47-23.17 10-33.45 17.09-8.81 6.11-17.9 14.26-19 25.56-.36 3.65 5.59 7 6 2.48z"/><path d="m203.69 161.78a58.1 58.1 0 0 0 -1 18.13c.22 2.17 1.8 4.49 4.11 4.76a3.31 3.31 0 0 0 3.53-3.8 50.81 50.81 0 0 1 .88-16c1-4.56-6.35-8.64-7.54-3.1z"/><path d="m277 160.48a69.35 69.35 0 0 1 1 18.42 5.38 5.38 0 0 0 3.08 5.56 3.17 3.17 0 0 0 4.45-2.46 76.55 76.55 0 0 0 -.83-20.56c-.39-2.13-1.69-4.53-4.12-4.76a3.29 3.29 0 0 0 -3.52 3.8z"/><path d="m228.25 216a29.9 29.9 0 0 0 33.06 2.21c3.3-1.91-.19-8.21-3.49-6.3a24.23 24.23 0 0 1 -27-1.5c-3.74-2.83-5.7 3.24-2.58 5.59z"/></g></svg>