<svg height="512" viewBox="0 0 512 512" width="512" xmlns="http://www.w3.org/2000/svg" xmlns:xlink="http://www.w3.org/1999/xlink"><clipPath id="clip-path"><path d="m296.39 204.47h47.37v84.32h-47.37z"/></clipPath><clipPath id="clip-path-2"><path d="m331.46 259.38s56 23.31 62.5 43.55-15.45 172.43-15.45 172.43h-174.72s5.83-149.81 14.66-173.62 65.39-43.65 113.01-42.36z"/></clipPath><clipPath id="clip-path-3"><path d="m272.41 260.58s7.43 29.48-11.61 52.14 17.28 64 17.35 97.43-6.46 50.41-6.46 50.41 23.32 10.28 17 17.23-44-2.25-44-2.25-107.45 14.89-150.56-4.54c0 0-27.24 8.1-35.19.42s21.77-17.67 21.77-17.67-24.41-58.7-2.81-96.28-.14-66.87 8.1-106.47c0 0 128.93 32.09 186.41 9.58z"/></clipPath><clipPath id="clip-path-4"><path d="m348.6 267.36s44 12.58 54.52 41.44-8.12 103.2-37.81 151.99l-47.24-44.79 13.27-98.24s-15.72-49.06 17.26-50.4z"/></clipPath><clipPath id="clip-path-5"><path d="m343.76 265.22a229 229 0 0 1 -21.76 29.78c-11.94 13.4-21.27 36.61-23.9 35.65s-1.69-68.76-1.69-68.76 30.1-13.51 47.35 3.33z"/></clipPath><clipPath id="clip-path-6"><path d="m343.76 249.28a9.29 9.29 0 0 1 7.67 4.79c2.64 4.78 7.81 17.14 7.81 17.14s-15.69 37.25-22.16 44.59-20.47-14-20.47-14 21.89-27.8 27.15-52.52z"/></clipPath><clipPath id="clip-path-7"><path d="m296.23 241.41s-4.61-.58-6.17 3.64-10.13 20.17-10.13 20.17-2.67 40.53 1 45.47 15.3-5.9 15.3-5.9c.61-8.38 1-17.22 1.13-26.48.16-13.12-.29-25.46-1.13-36.9z"/></clipPath><clipPath id="clip-path-8"><path d="m257.64 247.37h68.91v68.91h-68.91z"/></clipPath><g id="Sack_of_Wheat" data-name="Sack of Wheat"><circle cx="324.8" cy="102.4" fill="#efbd42" r="71.4"/><circle cx="368.7" cy="240.94" fill="#2d1929" r="30.27"/><ellipse cx="324.8" cy="119.73" fill="#d7981a" rx="62.29" ry="127.89" transform="matrix(.076 -.997 .997 .076 180.69 434.47)"/><g clip-path="url(#clip-path)"><path d="m296.39 204.47h47.37v84.32h-47.37z" fill="#f5b493"/><path d="m291.84 241.23a52.19 52.19 0 0 0 56.4 0v-23.84h-56.4z" fill="#eba284"/></g><path d="m381.34 140.05s-1.06-51.17-37.34-64.12l-1-.15c-17.53-6.74-32.39-4.11-42.77.14h-.07a45.05 45.05 0 0 0 -15.1 9.08l-.66.59c-20.75 19.43-21.49 54.41-21.49 54.41a36.13 36.13 0 0 0 -.29 5.93c.32 9.75 6.21 32.44 7.48 40.21 7.42 24.46 26.53 54.48 52.53 53.19 31.53-1.88 44.22-40.42 47.84-52.14 3.89-12.58 7.05-24.8 7.59-26.66a38.63 38.63 0 0 0 1.37-13.16c.65-2.52 1.3-5.04 1.91-7.32z" fill="#f5b493"/><path d="m320 187.75h-.12c-4.6-1.17-7.29-3-8-5.42-.64-2.21.55-4.2 1.93-6.5.53-.89 1.08-1.8 1.6-2.83a30.27 30.27 0 0 0 2.72-16.19.5.5 0 0 1 .46-.54.5.5 0 0 1 .54.46 31.14 31.14 0 0 1 -2.83 16.72c-.53 1.06-1.11 2-1.63 2.89-1.31 2.19-2.34 3.92-1.83 5.71.6 2.06 3.05 3.66 7.28 4.73a.5.5 0 0 1 -.12 1z" fill="#2d1929"/><path d="m301.24 160.37c0 4.14-2.16 7.5-4.84 7.5s-4.86-3.35-4.86-7.49 2.16-7.5 4.84-7.5 4.86 3.35 4.86 7.49z" fill="#2d1929"/><path d="m284.1 141.47a1 1 0 0 1 -.75-.35 1 1 0 0 1 .1-1.41c.11-.09 10.72-9 22.77-2.16a1 1 0 0 1 -1 1.74c-10.83-6.18-20.38 1.86-20.47 1.94a1 1 0 0 1 -.65.24z" fill="#2d1929"/><path d="m348.61 160.38c0 4.14-2.18 7.5-4.86 7.49s-4.85-3.36-4.85-7.5 2.19-7.5 4.86-7.49 4.85 3.36 4.85 7.5z" fill="#2d1929"/><path d="m356 141.47a1 1 0 0 1 -.65-.24c-.39-.33-9.67-8.1-20.47-1.94a1 1 0 0 1 -1-1.74c12-6.87 22.66 2.07 22.77 2.16a1 1 0 0 1 .1 1.41 1 1 0 0 1 -.75.35z" fill="#2d1929"/><path d="m331.46 259.38s56 23.31 62.5 43.55-15.45 172.43-15.45 172.43h-174.72s5.83-149.81 14.66-173.62 65.39-43.65 113.01-42.36z" fill="#287eef"/><path d="m125.1 190.86 44.9 5.66q17.47 67.08 34.94 134.16l-59.35 3.32q-4.56-59.13-9.1-118.25a71.28 71.28 0 0 1 -8.38-15.31 70.3 70.3 0 0 1 -3.01-9.58z" fill="#f5b493"/><path d="m322 94.55a56.43 56.43 0 0 0 9.54 25.25c12.18 17.54 30.67 22.18 35.55 23.25a95.67 95.67 0 0 1 2.55 32.7 93.62 93.62 0 0 1 -5.9 25 92 92 0 0 1 -20 30.7c9.16-1.86 23.55-6.51 33.52-19.22 6.92-8.82 9.94-17.8 12.55-74.35 1.9-41.42.93-47.16-3.3-53.26-15.71-22.62-54.64-19-61.89-18.18 0 0-34.06-11.48-56.11 9.57s-11.85 84.32-11.85 84.32c-.9 3.95-5.16 24.31 7.34 44.25a59.33 59.33 0 0 0 32.21 24.68 108.65 108.65 0 0 1 -15-21.17c-13.85-25.64-13.87-50.71-12.85-63.73.04.04 50.97-21.73 53.64-49.81z" fill="#2d1929"/><path d="m283 157.07c-3.93-9.7-13.57-14.95-21.56-11.72s-11.28 13.7-7.36 23.4 13.57 14.95 21.55 11.72 11.27-13.7 7.37-23.4z" fill="#f5b493"/><path d="m268.07 173.62a.48.48 0 0 1 -.32-.11c-.14-.12-3.38-2.87-3.24-5.32.12-2.15 2.41-3.09 3.37-3.39-.24-4.23-1.92-9.52-4.77-11.77a4.69 4.69 0 0 0 -4-1 .5.5 0 0 1 -.58-.39.49.49 0 0 1 .39-.59 5.64 5.64 0 0 1 4.8 1.21c3.32 2.62 5 8.53 5.17 12.91a.5.5 0 0 1 -.39.5s-2.89.67-3 2.58c-.09 1.62 2.05 3.8 2.88 4.5a.51.51 0 0 1 .06.71.52.52 0 0 1 -.37.16z" fill="#2d1929"/><path d="m378.72 145.35c-8-3.23-17.63 2-21.56 11.72s-.62 20.18 7.37 23.4 17.63-2 21.55-11.72.62-20.17-7.36-23.4z" fill="#f5b493"/><path d="m372.08 173.62a.52.52 0 0 1 -.38-.17.51.51 0 0 1 .06-.71c.83-.7 3-2.88 2.88-4.49-.11-1.92-3-2.58-3-2.59a.5.5 0 0 1 -.39-.5c.16-4.38 1.85-10.29 5.17-12.91a5.64 5.64 0 0 1 4.8-1.21.49.49 0 0 1 .39.59.5.5 0 0 1 -.58.39 4.69 4.69 0 0 0 -4 1c-2.85 2.25-4.53 7.54-4.77 11.77 1 .3 3.25 1.24 3.37 3.39.14 2.45-3.1 5.2-3.24 5.32a.48.48 0 0 1 -.31.12z" fill="#2d1929"/><path d="m303.76 61.28c51.13-.63 98.56 7.48 89.46 60.74 0 0-68.28-34.33-147.42-9.17 0 0 6.83-50.94 57.96-51.57z" fill="#d7981a"/><path d="m329.1 197.44h-23.45c1.08 6.75 7.19 11.28 13.24 10.53a12.17 12.17 0 0 0 10.21-10.53z" fill="#ededed"/><path d="m151 213.61 3.47-.8a8.4 8.4 0 0 0 6.24-10.26l-18.35-71.55a8.39 8.39 0 0 0 -10-6.1 8.41 8.41 0 0 0 -6.34 9.87l14.88 72.38a8.39 8.39 0 0 0 10.1 6.46z" fill="#e73f46"/><path d="m129.57 153.16 19.43-4.49a19.77 19.77 0 0 0 14.47-25l-19.85-65.62-50.82 11.73 10.6 65.78a21.58 21.58 0 0 0 26.17 17.6z" fill="#e73f46"/><path d="m147 140.1a10.35 10.35 0 0 0 6.93-5.61 13.07 13.07 0 0 0 .78-9.66l-19.1-64.93-34.8 8 10.89 64.6a15.29 15.29 0 0 0 5.76 9.73 12 12 0 0 0 10.13 2.33z" fill="#cc3745"/><path d="m171.83 203.58a114.58 114.58 0 0 0 -1.45-15.23c-1-6.07-1.53-9.16-3.28-11.9-.86-1.35-1.38-1.77-11-9.14-5.36-4.1-8.06-6.14-9.18-5.36-.18.12-.78.62-.45 3.06.77 5.79 5.09 10.24 7.89 12.63l5.76 22.54s7.43 11.99 11.71 3.4z" fill="#f5b493"/><path d="m138.79 171c.31.05 4.75.71 5.6-1.44a3.68 3.68 0 0 0 -.39-2.72c-2.94-6.34-18.42-11.68-20.3-7.83-1.25 2.56 2.34 8.39 2.34 8.39s-7.42 2.95 1 9.64c0 0-8.49 1.48.2 9.76 0 0-5.37 2.95-.2 7.82s17.87 7.49 18.26 3.52-4-6.69-4-6.69 4.29 2.49 6-.57-6.64-9.56-6.64-9.56c2.61 1.22 4.9 1.09 5.79-.27a3.63 3.63 0 0 0 .4-2.34c-.49-4.71-7.18-7.4-8.06-7.71z" fill="#f5b493"/><path d="m298.08 330.63s5 15.79-1.69 31.82 0 90 0 90l18.66 23.3-111.26-.36-1.9-22.7 87.81-1.69s-3.11-74.2.72-83.64 9.04-25.28 7.66-36.73z" fill="#1573d8"/><g clip-path="url(#clip-path-3)"><path d="m272.41 260.58s7.43 29.48-11.61 52.14 17.28 64 17.35 97.43-6.46 50.41-6.46 50.41 23.32 10.28 17 17.23-44-2.25-44-2.25-107.45 14.89-150.56-4.54c0 0-27.24 8.1-35.19.42s21.77-17.67 21.77-17.67-24.41-58.7-2.81-96.28-.14-66.87 8.1-106.47c0 0 128.93 32.09 186.41 9.58z" fill="#834a27"/><g fill="#6e3d1e"><path d="m266.34 304.72s-81.56 24.1-180.71-11.6c0 0 49 34.94 99.15 35.7s54.44 9.46 42.71 17.34-36 16.94-15.35 20.43 29.13 1.49 36.15 27.31.18 76.05-33.3 84.8l42 7.58 45.71-3.52-24.7-140.68z"/><path d="m84.18 321.38s7.14 27.19 46.87 37-20.22 10.78-53.06-20z"/></g></g><path d="m278.77 260.91c1.66 1.87 1.21 4.41 1.64 11.56.78 13-2 23.81-3.44 27.14-6.27 14.92-42 22-120.77 7.13-53.13-10-76.91-11.21-79.42-20.43s2.43-35.64 7.4-39.63c11-8.81 23.6 2.15 57.4 9.89 26.28 6 76.61 17.56 112.88 5.36 4.72-1.58 19.08-6.93 24.31-1.02z" fill="#834a27"/><path d="m84.47 246.85c-2.45 10.63 44.86 37.9 96.22 41.45 49.66 3.44 99.1-15.59 98.29-26.41-.84-11.2-55.55-15.21-99-18.4-44.64-3.27-93.16-6.83-95.51 3.36z" fill="#6e3d1e"/><path d="m265.78 273.88s-2.21-2.2-8.47-4.32-10-9-16.66-10.61-15.26-1-26.45-5.22-17.55 2.27-25.2-1.29-12.62-6.68-21.85-5.28-10.56-3.33-20.74-1.06-10.11 1.14-25.59 2.16-16.75 8.46-22.75 7.7-6.16 1.91-6.16 1.91 69.09 60.18 173.87 16.01z" fill="#e39c76"/><g fill="#f5b493"><ellipse cx="254.63" cy="267.48" rx="7.04" ry="1.94" transform="matrix(.972 -.235 .235 .972 -55.79 67.43)"/><ellipse cx="250.06" cy="275.81" rx="1.94" ry="7.04" transform="matrix(.357 -.934 .934 .357 -96.9 410.78)"/><ellipse cx="242.71" cy="264.13" rx="7.09" ry="1.92" transform="matrix(.758 -.652 .652 .758 -113.55 222.3)"/><ellipse cx="209.44" cy="274.79" rx="7.04" ry="1.94" transform="matrix(.972 -.235 .235 .972 -58.78 57)"/><ellipse cx="204.87" cy="283.12" rx="1.94" ry="7.04" transform="matrix(.357 -.934 .934 .357 -132.77 373.28)"/><ellipse cx="197.52" cy="271.44" rx="7.09" ry="1.92" transform="matrix(.758 -.652 .652 .758 -129.26 194.58)"/><ellipse cx="223.49" cy="259.17" rx="7.04" ry="1.94" transform="matrix(.972 -.235 .235 .972 -54.71 59.87)"/><ellipse cx="218.93" cy="267.5" rx="1.94" ry="7.04" transform="matrix(.357 -.934 .934 .357 -109.14 376.37)"/><ellipse cx="211.58" cy="255.82" rx="7.09" ry="1.92" transform="matrix(.758 -.652 .652 .758 -115.67 199.97)"/><ellipse cx="178.79" cy="277.13" rx="7.04" ry="1.94" transform="matrix(.972 -.235 .235 .972 -60.19 49.85)"/><ellipse cx="174.23" cy="285.46" rx="1.94" ry="7.04" transform="matrix(.357 -.934 .934 .357 -154.65 346.16)"/><ellipse cx="166.88" cy="273.78" rx="7.09" ry="1.92" transform="matrix(.758 -.652 .652 .758 -138.21 175.16)"/><ellipse cx="187.95" cy="252.81" rx="7.04" ry="1.94" transform="matrix(.972 -.235 .235 .972 -54.21 51.32)"/><ellipse cx="183.38" cy="261.14" rx="1.94" ry="7.04" transform="matrix(.357 -.934 .934 .357 -126.05 339.08)"/><ellipse cx="176.03" cy="249.46" rx="7.09" ry="1.92" transform="matrix(.758 -.652 .652 .758 -120.13 175.24)"/><ellipse cx="152.72" cy="265.16" rx="7.04" ry="1.94" transform="matrix(.972 -.235 .235 .972 -58.11 43.38)"/><ellipse cx="148.16" cy="273.49" rx="1.94" ry="7.04" transform="matrix(.357 -.934 .934 .357 -160.22 314.12)"/><ellipse cx="140.8" cy="261.81" rx="7.09" ry="1.92" transform="matrix(.758 -.652 .652 .758 -136.71 155.25)"/><ellipse cx="160.18" cy="246.86" rx="7.04" ry="1.94" transform="matrix(.972 -.235 .235 .972 -53.59 44.62)"/><ellipse cx="155.62" cy="255.19" rx="1.94" ry="7.04" transform="matrix(.357 -.934 .934 .357 -138.33 309.32)"/><ellipse cx="148.27" cy="243.51" rx="7.09" ry="1.92" transform="matrix(.758 -.652 .652 .758 -122.97 155.69)"/><ellipse cx="130.97" cy="250.45" rx="7.04" ry="1.94" transform="matrix(.972 -.235 .235 .972 -55.26 37.85)"/><ellipse cx="126.41" cy="258.78" rx="1.94" ry="7.04" transform="matrix(.357 -.934 .934 .357 -160.46 284.36)"/><ellipse cx="119.06" cy="247.1" rx="7.09" ry="1.92" transform="matrix(.758 -.652 .652 .758 -132.38 137.5)"/><ellipse cx="101.45" cy="255.64" rx="7.04" ry="1.94" transform="matrix(.972 -.235 .235 .972 -57.31 31.05)"/><ellipse cx="119.07" cy="269.65" rx="1.94" ry="7.04" transform="matrix(.357 -.934 .934 .357 -175.33 284.49)"/><ellipse cx="111.72" cy="257.97" rx="7.09" ry="1.92" transform="matrix(.758 -.652 .652 .758 -141.25 135.35)"/><path d="m199.61 370.79 118.46 45.21 17.79-100.5s-13.68-32.26 20.14-44.29a120.22 120.22 0 0 1 18.52 8.88c1 .57 16.34 10.8 24.21 24.63 8.36 14.67 7.27 31.77 1.34 55.8-12.39 50.3-25.78 104.59-64.2 114.84-16.2 4.33-30.25-1.4-57.68-13.05a341.81 341.81 0 0 1 -97.32-62.95z"/></g><path d="m348.6 267.36s44 12.58 54.52 41.44-8.12 103.2-37.81 151.99l-47.24-44.79 13.27-98.24s-15.72-49.06 17.26-50.4z" fill="#287eef"/><g clip-path="url(#clip-path-5)"><path d="m343.76 265.22a229 229 0 0 1 -21.76 29.78c-11.94 13.4-21.27 36.61-23.9 35.65s-1.69-68.76-1.69-68.76 30.1-13.51 47.35 3.33z" fill="#f5b493"/><path d="m293.39 272.58s3.84 12.13 19.31 15.05 28.05-11.7 28.05-11.7l3 10.44-15.43 42.05-33.26 23-13.86-29.94z" fill="#ededed"/></g><path d="m343.76 249.28a9.29 9.29 0 0 1 7.67 4.79c2.64 4.78 7.81 17.14 7.81 17.14s-15.69 37.25-22.16 44.59-20.47-14-20.47-14 21.89-27.8 27.15-52.52z" fill="#287eef"/><path d="m296.23 241.41s-4.61-.58-6.17 3.64-10.13 20.17-10.13 20.17-2.67 40.53 1 45.47 15.3-5.9 15.3-5.9c.61-8.38 1-17.22 1.13-26.48.16-13.12-.29-25.46-1.13-36.9z" fill="#287eef"/><g clip-path="url(#clip-path-7)"><g clip-path="url(#clip-path-8)"><path d="m240.41 247.6v-69.38l22.52-38.17 11.94-30.74v69.39-.48 69.38-69.38 69.38-69.38 69.38-.47 69.38-69.38 69.38-69.38 69.38-69.38 69.38-69.38l-16.99 17.46h-69.39 69.39-69.39 69.39-69.39.48-69.39v34.46h69.39-.48 69.39-69.39 69.39-69.39 69.39l16.99 16.99v69.38-69.38 69.38-69.38 69.38-69.38 69.38-69.38 69.38-.48 69.39-69.39 69.39-69.39 69.39-69.39 69.39-.48 69.39-69.39 69.39-69.39l51.44-51.44h69.39-69.39 69.39-69.39 69.39-69.39.48-69.39 69.39-69.39 69.39-69.39.48-69.39 69.39-69.39.48-69.39v34.46h69.39-.48 69.39-69.39 69.39-.48 69.39-69.39 69.39-69.39 69.39-.48 69.39-69.39 69.39-69.39 69.39-69.39l-16.99 16.98v69.39-69.39 69.39-69.39.48-69.39 69.39-69.39 69.39-69.39 69.39-69.39.48-69.38 69.38-69.38 69.38-69.38 69.38-69.38 69.38-69.38-68.91 69.38-69.38 69.38-69.38 69.38-69.38 69.38-69.38.47-69.38 69.38-69.38 69.38-69.38.48-69.39l34.46 68.91v69.38-69.38 69.38l-16.99 16.99h-69.39 69.39-69.39 69.39-69.39 69.39-69.39 69.39-.48 69.39-69.39 69.39-69.39 69.39-69.39 69.39-69.39 69.39-.48 69.39-69.39 69.39-69.39 69.39-.48 69.39-69.39l-16.99-16.99v-69.38 69.38-.47 69.38-69.38 69.38-69.38l-34.45.47v-69.38 69.38-.47 69.38-69.38 69.38-69.38l-16.99-16.99h-69.39.48-69.39.48-69.39l17.47 17.46v-69.38l-17.47 17.46h69.39-.48 69.39-.48 69.39l-17.47-17.46v69.38-69.38 69.38 68.44 69.38-69.38 69.38-69.38 69.38-69.38 69.38-69.38.47-69.38 69.38-69.38 69.38-69.38 69.38l17.47 16.99h-69.39 69.39-69.39 69.39-69.39 69.39-69.39 69.39-.48 69.39-69.39 69.39-69.39 69.39-.48 69.39-69.39v-34.45h69.39-69.39.48-69.39 69.39-69.39 69.39-69.39.48-69.39 69.39-69.39 69.39-69.39 69.39-69.39 69.39-69.39.48-69.39 69.39-69.39 69.39-69.39 69.39-69.39 69.39l16.99 16.99v69.38-69.38 69.38-69.38 69.38-69.38 69.38-69.38.47-69.38 69.38-69.38 69.38-69.38 69.38l-16.99 16.99h-69.39 69.39-69.39 69.39-69.39 69.39-69.39.48-69.39 69.39-69.39 69.39l-17.47-16.99v-69.38 69.38-.47 69.38-69.38 69.38-.48 69.39-69.39 69.39h-34.45v-69.39 69.39-69.39.48-69.38 69.38-69.38.47-69.38 69.38l-16.99 16.99h-69.39v34.46h69.39 68.91-69.39 69.39-69.39 69.39-.48 69.39-69.39 69.39-69.39 69.39-69.39 69.39l16.99 16.98v69.39-69.39 69.39-69.39 69.39-69.39 69.39-.48 69.39-69.39 69.39-69.39l-17.47 17.47h69.39-69.39 69.39-69.39 69.39-69.39.48-69.39 69.39-69.39 69.39-69.39.48-69.39 69.39-69.39.48-69.39v34.45h69.39-.48 69.39-69.39 69.39-.48 69.39-69.39 69.39-69.39 69.39-.48 69.39-69.39 69.39-69.39 69.39-69.39l86.38-51.44v-69.39 69.39-69.39 69.39-69.39 69.39-.48 69.39-69.39 69.39-69.39h-34.46v69.39-69.39 69.39-69.39.48-69.39 69.39-69.39 69.39-69.39 69.39-69.39l34.46.48v-69.38 69.38-69.38 69.38-69.38 69.38l-16.99-17.46h-69.39 69.39-69.39 69.39-69.39 69.39-69.39 69.39-.48 69.39-69.39 69.39-69.39 69.39-.48 69.39-69.39l-16.99 17.46v-69.38 69.38-69.38 69.38-69.38 69.38l16.99 16.99h69.39-69.39.48-69.39 69.39-69.39 69.39v34.46h-69.39 69.39-69.39 69.39-.48 69.39-69.39l-16.99 16.98v69.39-69.39 69.39-69.39.48-69.39 69.39-69.39 69.39-69.39 69.39l16.99 16.99h69.39-69.39.48-69.39 69.39-69.39 69.39v34.45h-69.39 69.39-69.39 69.39-.48 69.39-69.39l-16.99 86.38v-69.39 69.39h-34.45v-69.39 69.39h-34.46v-69.39 69.39h-34.45v-69.39 69.39h-34.46v-69.39 69.39h-34.45v-69.39 69.39h-34.46v-69.39.48-69.39 69.39h-34.45v-69.39 69.39-.48 69.39" fill="none" stroke="#231f20" stroke-width=".29"/></g></g><path d="m321.17 404.09s-5.49.83-3.1 8.73a9.3 9.3 0 0 0 -3-1.09 9.6 9.6 0 0 0 -5.81.87l8.79 3.35s20.6 23.63 24.11 36.07-10.91 25.13-24.11 24.24c0 0 13.27 8.29 21.08 1.44a12.46 12.46 0 0 0 11.65-.9c6.22-3.73 2.87-6.28 7.65-8.35s13.32-6.46 17.39-16.27 0-13.64 0-13.64a46.34 46.34 0 0 1 -24.82-5.74c-12-6.94-29.83-28.71-29.83-28.71z" fill="#1573d8"/><path d="m352.07 312v30.45a198.25 198.25 0 0 1 -6.38 20.1 200.17 200.17 0 0 1 -24 45.14l-2.55-2.55q6-11.47 11.88-24c6.37-13.64 11.93-26.85 16.79-39.48q2.11-14.85 4.26-29.66z" fill="#1573d8"/><path d="m359.24 271.21s-20.89 45.92-24.71 48.57-15.43-10-15.43-10l-12.65 15.48s10.95-21.26 12.65-21.26 12.54 11.65 13.74 11.65 26.4-44.44 26.4-44.44z" fill="#1573d8"/><path d="m279.93 265.22s-2.71 44.71-.93 46.78 12.19-3.18 12.19-3.18l3.95 21-6.07-17.82s-11.33 5.41-13.56 2.86 4.42-49.64 4.42-49.64z" fill="#1573d8"/><path d="m138.79 171.47a.46.46 0 0 1 -.22-.06 41.37 41.37 0 0 0 -6.86-2.73 40.67 40.67 0 0 0 -4.79-1.13.5.5 0 0 1 -.4-.58.49.49 0 0 1 .58-.41 42.86 42.86 0 0 1 11.92 4 .49.49 0 0 1 .22.67.49.49 0 0 1 -.45.24z" fill="#2d1929"/><path d="m140.68 181.79a.53.53 0 0 1 -.24-.06 35 35 0 0 0 -7.76-3.16 34.52 34.52 0 0 0 -5.72-1.06.5.5 0 0 1 -.44-.55.49.49 0 0 1 .54-.44 35.2 35.2 0 0 1 5.88 1.08 36.15 36.15 0 0 1 8 3.25.5.5 0 0 1 .2.68.49.49 0 0 1 -.46.26z" fill="#2d1929"/><path d="m142.08 192.31a.42.42 0 0 1 -.24-.07 62.6 62.6 0 0 0 -13.84-5.31.5.5 0 0 1 .23-1 62.89 62.89 0 0 1 14.14 5.42.5.5 0 0 1 -.24.94z" fill="#2d1929"/><path d="m139.41 200.41a.45.45 0 0 1 -.16 0l-9.39-3.15a.5.5 0 0 1 -.31-.63.51.51 0 0 1 .63-.32l9.39 3.16a.5.5 0 0 1 -.16 1z" fill="#2d1929"/><path d="m180.84 431.7a1.53 1.53 0 0 1 -1.11-.47c-32.8-34.37-44.73-86.75-44.83-87.23a1.53 1.53 0 1 1 3-.67c.12.52 11.86 52.09 44.07 85.83a1.53 1.53 0 0 1 0 2.16 1.55 1.55 0 0 1 -1.13.38z" fill="#ededed"/><path d="m166.06 412a19.66 19.66 0 0 1 -.05-21.48c5-7.41 13.63-8.14 14.74-8.21a20.58 20.58 0 0 1 1.62 9.7c-1.13 13.1-15.5 19.61-16.31 19.99z" fill="#ededed"/><path d="m155.21 393.36a19.66 19.66 0 0 1 0-21.48c5-7.41 13.62-8.14 14.73-8.21a20.58 20.58 0 0 1 1.62 9.7c-1.17 13.13-15.56 19.63-16.35 19.99z" fill="#ededed"/><path d="m166 412.4a19.66 19.66 0 0 0 -15.2-15.18c-8.79-1.66-15.37 3.93-16.21 4.66a20.47 20.47 0 0 0 5.74 8c10.14 8.45 24.88 2.84 25.67 2.52z" fill="#ededed"/><path d="m154.61 392.35a19.66 19.66 0 0 0 -15.2-15.18c-8.79-1.66-15.37 3.93-16.21 4.66a20.47 20.47 0 0 0 5.74 8c10.11 8.45 24.85 2.84 25.67 2.52z" fill="#ededed"/><path d="m146.6 373.65a19.66 19.66 0 0 1 0-21.48c5-7.4 13.62-8.13 14.73-8.21a20.46 20.46 0 0 1 1.62 9.7c-1.17 13.13-15.54 19.64-16.35 19.99z" fill="#ededed"/><path d="m146 372.64a19.67 19.67 0 0 0 -15.2-15.18c-8.79-1.65-15.37 3.93-16.21 4.66a20.47 20.47 0 0 0 5.74 8c10.11 8.45 24.85 2.88 25.67 2.52z" fill="#ededed"/><path d="m139.08 354.72a19.68 19.68 0 0 0 3.29-21.23c-3.85-8.08-12.24-10.1-13.33-10.34a20.61 20.61 0 0 0 -3.06 9.34c-.87 13.16 12.35 21.76 13.1 22.23z" fill="#ededed"/><path d="m210.81 379.18s-32.11-24.9-39.47-27.29-29.42-6.82-31.39-4.43 5.92 6.64 5.92 6.64-11.93-4.24-14.15-1.47 9.21 8.71 9.21 8.71-9.86-3.46-11.75-1.43 7.52 7.47 7.52 7.47c-2.6-.42-5.41-.55-6.16.78-2 3.57 11.8 16 23.58 23.37a93.83 93.83 0 0 0 37.26 13.11 27.26 27.26 0 0 0 12.43-7.76 27.78 27.78 0 0 0 7-17.7z" fill="#f5b493"/><path d="m202.79 374.64s-11-14.63-15.46-21.25-6.31-13.53-9.47-11.84-1.89 13.34 4.26 22.38 20.67 10.71 20.67 10.71z" fill="#f5b493"/><path d="m161.32 358.47h-.13l-16.2-4.3a.5.5 0 1 1 .25-1l16.21 4.29a.5.5 0 0 1 -.13 1z" fill="#2d1929"/><path d="m156.09 367.84h-.18l-15.16-6a.5.5 0 0 1 -.28-.65.51.51 0 0 1 .65-.28l15.16 6a.51.51 0 0 1 .28.65.51.51 0 0 1 -.47.28z" fill="#2d1929"/><path d="m150.22 376.21a.5.5 0 0 1 -.26-.08l-13.52-8.33a.5.5 0 0 1 .56-.8l13.53 8.33a.51.51 0 0 1 .16.69.52.52 0 0 1 -.47.19z" fill="#2d1929"/></g></svg>