<svg xmlns="http://www.w3.org/2000/svg" version="1.1" xmlns:xlink="http://www.w3.org/1999/xlink" width="512" height="512" x="0" y="0" viewBox="0 0 36 36" style="enable-background:new 0 0 512 512" xml:space="preserve" class=""><g><path d="m26.89 21.91-.42-.09a39.14 39.14 0 0 0-16.93 0l-.42.1a7 7 0 0 0-5.55 6.91v4.39a.79.79 0 0 0 .79.79h27.28a.79.79 0 0 0 .79-.79v-4.4a7 7 0 0 0-5.54-6.91zM11.3 28.75h13.4l.73 3.68H10.57zm14.19-5.52-.79 3.95H11.3l-.79-3.95a37.41 37.41 0 0 1 14.98 0zM5.15 28.82A5.46 5.46 0 0 1 9 23.59L9.85 28 9 32.43H5.15zm25.7 3.61H27L26.15 28l.85-4.41a5.46 5.46 0 0 1 3.83 5.23zM11.35 13.83a6.83 6.83 0 0 0 1.85 3.49 6.78 6.78 0 0 0 11.45-3.48c3-.76 4.63-2 4.63-3.45S27.42 7.67 24.78 7a5 5 0 0 0-5-5H16.2a5 5 0 0 0-5 5c-2.64.69-4.5 1.84-4.5 3.41s1.67 2.66 4.65 3.42zM16.2 3.57h3.6a3.4 3.4 0 0 1 3.37 3.06A29.64 29.64 0 0 0 18 6.2a29.64 29.64 0 0 0-5.17.43 3.4 3.4 0 0 1 3.37-3.06zm1.8 4.2c6.28 0 9.7 1.73 9.7 2.62 0 .4-.8 1.16-2.92 1.78v-1.59a.79.79 0 1 0-1.57 0v1.95a5.24 5.24 0 0 1-1.53 3.68 5.19 5.19 0 0 1-7.36 0 5.24 5.24 0 0 1-1.53-3.68v-1.95a.79.79 0 1 0-1.57 0v1.6c-2.13-.62-2.92-1.38-2.92-1.79 0-.89 3.42-2.62 9.7-2.62z" fill="#399918" opacity="1" data-original="#000000" class=""></path></g></svg>